<?xml version="1.0" encoding="UTF-8"?>
<!-- Generator: Adobe Illustrator 10.0, SVG Export Plug-In . SVG Version: 3.0.0 Build 76)  -->
<!DOCTYPE svg PUBLIC "-//W3C//DTD SVG 1.0//EN" "http://www.w3.org/TR/2001/REC-SVG-20010904/DTD/svg10.dtd" [
	<!ENTITY ns_flows "http://ns.adobe.com/Flows/1.0/">
	<!ENTITY ns_extend "http://ns.adobe.com/Extensibility/1.0/">
	<!ENTITY ns_ai "http://ns.adobe.com/AdobeIllustrator/10.0/">
	<!ENTITY ns_graphs "http://ns.adobe.com/Graphs/1.0/">
	<!ENTITY ns_vars "http://ns.adobe.com/Variables/1.0/">
	<!ENTITY ns_imrep "http://ns.adobe.com/ImageReplacement/1.0/">
	<!ENTITY ns_sfw "http://ns.adobe.com/SaveForWeb/1.0/">
	<!ENTITY ns_custom "http://ns.adobe.com/GenericCustomNamespace/1.0/">
	<!ENTITY ns_adobe_xpath "http://ns.adobe.com/XPath/1.0/">
	<!ENTITY ns_svg "http://www.w3.org/2000/svg">
	<!ENTITY ns_xlink "http://www.w3.org/1999/xlink">
]>
<svg xmlns:x="http://ns.adobe.com/Extensibility/1.0/" xmlns:i="http://ns.adobe.com/AdobeIllustrator/10.0/" xmlns:graph="http://ns.adobe.com/Graphs/1.0/" i:viewOrigin="-593 1583.8896" i:rulerOrigin="0 0" i:pageBounds="0 841.8896 595.4453 0" xmlns="http://www.w3.org/2000/svg" xmlns:xlink="http://www.w3.org/1999/xlink" xmlns:a="http://ns.adobe.com/AdobeSVGViewerExtensions/3.0/" width="1796" height="1669.87" viewBox="0 0 1796 1669.87" overflow="visible" enable-background="new 0 0 1796 1669.87" xml:space="preserve">
	<metadata>
		<variableSets xmlns="http://ns.adobe.com/Variables/1.0/">
			<variableSet varSetName="binding1" locked="none">
				<variables/>
				<v:sampleDataSets xmlns="http://ns.adobe.com/GenericCustomNamespace/1.0/" xmlns:v="http://ns.adobe.com/Variables/1.0/">
					</v:sampleDataSets>
			</variableSet>
		</variableSets>
		<sfw xmlns="http://ns.adobe.com/SaveForWeb/1.0/">
			<slices/>
			<sliceSourceBounds y="-85.98" x="-593" width="1796" height="1669.87" bottomLeftOrigin="true"/>
		</sfw>
	</metadata>
	<g id="Layer_1" i:knockout="Off" i:layer="yes" i:dimmedPercent="50" i:rgbTrio="#4F008000FFFF">
		<path i:knockout="Off" fill="#FFFFFF" d="M1796,1669.87H0V0h1796V1669.87z"/>
		<path i:knockout="Off" fill="#FF0000" d="M946.762,1139.151c-11.033-21.088-6.023-49.707,13.941-69.674    c19.969-19.967,48.584-24.976,69.673-13.941l20.046,20.045c11.035,21.088,6.026,49.707-13.941,69.674    c-19.967,19.967-48.586,24.976-69.674,13.94L946.762,1139.151z"/>
		<path i:knockout="Off" fill="#FF0000" d="M402.971,581.563h-3.347c-114.028,0-152,89.635-152,152l0.004,11.188l-0.001,31.281    h-16.535v-33.71v-25.3c0-84.016,67.984-152,152-152h18.049h1.83V581.563z"/>
		<path i:knockout="Off" fill="#FF0000" d="M249.984,750.226v3.347c0,114.028,89.635,152,152,152l11.188-0.004l31.281,0.001v16.535    h-33.71h-25.3c-84.016,0-152-67.984-152-152v-18.049v-1.83H249.984z"/>
		<path i:knockout="Off" fill="#0000FF" d="M1196,582.287H590.264v-17.62H1196V582.287z"/>
		<path i:knockout="Off" fill="#FF0000" d="M1534.428,737.622v-3.347c0-114.028-89.635-152-152-152l-11.188,0.004l-31.281-0.001    l0.001-16.535h33.71h25.3c84.018,0,152,67.984,152,152v18.049v1.83H1534.428z"/>
		<path i:knockout="Off" fill="#FF0000" d="M1549.895,910.814h-16.478V729.16h16.478V910.814z"/>
		<path i:knockout="Off" fill="#FF0000" d="M1377.487,1090.915h3.347c114.028,0,152-89.635,152-152l-0.004-11.188l0.001-31.281    l16.535,0.001v33.71v25.3c0,84.016-67.984,152-152,152h-18.049h-1.83V1090.915z"/>
		<path i:knockout="Off" fill="#FF0000" d="M1402.25,1090.914h-218.747v16.082h218.747V1090.914z"/>
		<path i:knockout="Off" fill="#FF0000" d="M1110.104,1014.854l-63.515,63.515l-19.519-19.519l63.515-63.515L1110.104,1014.854z"/>
		<path i:knockout="Off" fill="#FF0000" d="M1009.563,922H432.113v-16.542h577.45L1009.563,922z"/>
		<path i:knockout="Off" fill="#FF0000" d="M1183.503,1106.996l-187.74-187.739l13.802-13.799l187.738,187.739L1183.503,1106.996z"/>
		<path i:knockout="Off" fill="none" stroke="#000000" stroke-width="5" d="M410,565.737h-26.049c-84.016,0-152,67.984-152,152    v18.049V770c0,84.016,67.984,152,152,152h493.877h28.347h37.758h54.572l16.334,16.333l46.487,46.487L1075,998.494l6.213,6.213    l-4.943,4.944l-1.31,1.309l-19,19l-25.58,25.581c-21.089-11.037-49.707-6.028-69.676,13.939    c-19.968,19.968-24.978,48.587-13.94,69.675"/>
		<path i:knockout="Off" fill="none" stroke="#000000" stroke-width="5" d="M1370.229,582.236l11.188-0.004    c62.365,0,152,37.972,152,152l-0.001,124.101v11.609v49.783v13.064l0.01,6.125c0,84.016-67.982,152-152,152h-23.676h-63.18    h-93.281l-6.283-0.001l-18.334-18.333l-24.751-24.749L1011.6,907.51l-2.035-2.052H987.57h-23.712h-57.686h-28.608H450h-49.518    c-84.016,0-152-67.984-152-152l0.011-6.125v-13.064c0-114.028,89.635-152,152-152"/>
		<path i:knockout="Off" fill="#FF0000" d="M1562.816,378H199.628v-16.533h1363.188V378z"/>
		<path i:knockout="Off" fill="#0000FF" d="M891.138,1159.299v-95.793l-8.828,0.97l-7.744,2.349l-3.229,1.416l-7.888,5.006    l-12.455,12.455l-4.487,8.442l-2.541,8.166l-1.023,7.716l0.969,8.957l-1.536,6.144l-1.919,7.679l-27.262,33.404L891.138,1159.299z    "/>
		<path i:knockout="Off" fill="#FF0000" d="M893.059,1159.299v-95.793l8.828,0.97l7.744,2.349l3.229,1.416l7.888,5.006    l12.455,12.455l4.487,8.442l2.541,8.166l1.021,7.716l-0.969,8.957l1.536,6.144l1.919,7.679l23.038,22.27l4.224,11.135    L893.059,1159.299z"/>
		<path i:knockout="Off" fill="#FF0E00" d="M1338.596,33.175c0,68.539-112.711,124-252,124h-23.688H947.302h-23.688    c-139.289,0-252-55.461-252-124h-10.646v11.068c0,68.539,112.71,124,252,124h85.05h16.541h29.313h10.766h44.963    c139.288,0,252-55.461,252-124V33.175H1338.596z"/>
		<path i:knockout="Off" fill="#0000FF" d="M765.635,996.635l96.024,96.024l11.696-11.697l-96.023-96.023L765.635,996.635z"/>
		<path i:knockout="Off" fill="none" stroke="#000000" stroke-width="5" d="M1176.001,565.704l-136.423,0.033H950H597.25"/>
		<path i:knockout="Off" fill="#FF0000" d="M1004.151,987.484l-89.084,89.084l11.695,11.696l89.083-89.083L1004.151,987.484z"/>
		<path i:knockout="Off" fill="#FF0000" d="M1016.602,998.422h-16.543V156.423h16.543V998.422z"/>
		<path i:knockout="Off" fill="none" stroke="#000000" stroke-width="5" d="M1340.64,32.423c0,68.539-112.711,124-252,124h-23.688    H949.346h-23.688c-139.289,0-252-55.461-252-124"/>
		<path i:knockout="Off" fill="#FF0000" d="M398.745,582.279h33.856v-16.542h-33.856V582.279z"/>
		
			<linearGradient id="XMLID_1_" gradientUnits="userSpaceOnUse" x1="1617.3379" y1="575.6992" x2="1776.2637" y2="575.6992" gradientTransform="matrix(1, 0, 0, 1, -1186, 0)">
			<stop offset="0" style="stop-color:#FF0000"/>
			<stop offset="1" style="stop-color:#0000FF"/>
			<a:midPointStop offset="0" style="stop-color:#FF0000"/>
			<a:midPointStop offset="0.5" style="stop-color:#FF0000"/>
			<a:midPointStop offset="1" style="stop-color:#0000FF"/>
		</linearGradient>
		<path i:knockout="Off" fill="url(#XMLID_1_)" d="M590.264,587.649H431.338V563.75h158.926V587.649z"/>
		
			<linearGradient id="XMLID_2_" gradientUnits="userSpaceOnUse" x1="1617.4746" y1="610.8086" x2="1776.0459" y2="610.8086" gradientTransform="matrix(1, 0, 0, 1, -1186, 0)">
			<stop offset="0" style="stop-color:#FF0000"/>
			<stop offset="1" style="stop-color:#0000FF"/>
			<a:midPointStop offset="0" style="stop-color:#FF0000"/>
			<a:midPointStop offset="0.5" style="stop-color:#FF0000"/>
			<a:midPointStop offset="1" style="stop-color:#0000FF"/>
		</linearGradient>
		<path i:knockout="Off" fill="url(#XMLID_2_)" stroke="#000000" stroke-width="5" d="M431.475,585.388    c2.372,28.349,36.983,50.841,79.336,50.841c41.832,0,76.113-21.943,79.235-49.799"/>
		
			<linearGradient id="XMLID_3_" gradientUnits="userSpaceOnUse" x1="1586.4932" y1="583.8286" x2="1617.4746" y2="583.8286" gradientTransform="matrix(1, 0, 0, 1, -1186, 0)">
			<stop offset="0" style="stop-color:#FF0000"/>
			<stop offset="1" style="stop-color:#0000FF"/>
			<a:midPointStop offset="0" style="stop-color:#FF0000"/>
			<a:midPointStop offset="0.5" style="stop-color:#FF0000"/>
			<a:midPointStop offset="1" style="stop-color:#0000FF"/>
		</linearGradient>
		<path i:knockout="Off" fill="url(#XMLID_3_)" stroke="#000000" stroke-width="5" d="M400.493,582.269l30.853,0.01    c0,1.043,0.043,2.08,0.129,3.109"/>
		
			<linearGradient id="XMLID_4_" gradientUnits="userSpaceOnUse" x1="1596" y1="564.7412" x2="1617.3828" y2="564.7412" gradientTransform="matrix(1, 0, 0, 1, -1186, 0)">
			<stop offset="0" style="stop-color:#FF0000"/>
			<stop offset="1" style="stop-color:#0000FF"/>
			<a:midPointStop offset="0" style="stop-color:#FF0000"/>
			<a:midPointStop offset="0.5" style="stop-color:#FF0000"/>
			<a:midPointStop offset="1" style="stop-color:#0000FF"/>
		</linearGradient>
		<path i:knockout="Off" fill="url(#XMLID_4_)" stroke="#000000" stroke-width="5" d="M431.383,563.744    c-0.035,0.662-0.053,1.326-0.053,1.994h-15.806H410"/>
		
			<linearGradient id="XMLID_5_" gradientUnits="userSpaceOnUse" x1="1617.3818" y1="538.7617" x2="1783.25" y2="538.7617" gradientTransform="matrix(1, 0, 0, 1, -1186, 0)">
			<stop offset="0" style="stop-color:#FF0000"/>
			<stop offset="1" style="stop-color:#0000FF"/>
			<a:midPointStop offset="0" style="stop-color:#FF0000"/>
			<a:midPointStop offset="0.5" style="stop-color:#FF0000"/>
			<a:midPointStop offset="1" style="stop-color:#0000FF"/>
		</linearGradient>
		<path i:knockout="Off" fill="url(#XMLID_5_)" stroke="#000000" stroke-width="5" d="M597.25,565.737h-6.986    c0-29.796-35.578-53.951-79.469-53.951c-42.906,0-77.868,23.085-79.413,51.958"/>
		<path i:knockout="Off" fill="#FF0000" d="M439.823,1541.998H231v-16.543h208.823V1541.998z"/>
		
			<linearGradient id="XMLID_6_" gradientUnits="userSpaceOnUse" x1="1616.9883" y1="1533.5967" x2="1775.9199" y2="1533.5967" gradientTransform="matrix(1, 0, 0, 1, -1186, 0)">
			<stop offset="0" style="stop-color:#FF0000"/>
			<stop offset="1" style="stop-color:#0000FF"/>
			<a:midPointStop offset="0" style="stop-color:#FF0000"/>
			<a:midPointStop offset="0.5" style="stop-color:#FF0000"/>
			<a:midPointStop offset="1" style="stop-color:#0000FF"/>
		</linearGradient>
		<path i:knockout="Off" fill="url(#XMLID_6_)" d="M430.988,1541.864H589.92v-16.535H430.988V1541.864z"/>
		<path i:knockout="Off" fill="#0000FF" d="M1191.631,1541.961H590.264v-16.506h601.367V1541.961z"/>
		
			<linearGradient id="XMLID_7_" gradientUnits="userSpaceOnUse" x1="1612.208" y1="1568.9727" x2="1781.8945" y2="1568.9727" gradientTransform="matrix(1, 0, 0, 1, -1186, 0)">
			<stop offset="0" style="stop-color:#FF0000"/>
			<stop offset="1" style="stop-color:#0000FF"/>
			<a:midPointStop offset="0" style="stop-color:#FF0000"/>
			<a:midPointStop offset="0.5" style="stop-color:#FF0000"/>
			<a:midPointStop offset="1" style="stop-color:#0000FF"/>
		</linearGradient>
		<path i:knockout="Off" fill="url(#XMLID_7_)" stroke="#000000" stroke-width="5" d="M426.208,1541.996l5.138,0.002    c0,29.796,35.575,53.95,79.466,53.95c43.889,0,79.467-24.154,79.467-53.95h5.616"/>
		
			<linearGradient id="XMLID_8_" gradientUnits="userSpaceOnUse" x1="2371" y1="1533.5977" x2="2536.5625" y2="1533.5977" gradientTransform="matrix(1, 0, 0, 1, -1186, 0)">
			<stop offset="0" style="stop-color:#0000FF"/>
			<stop offset="1" style="stop-color:#FF0000"/>
			<a:midPointStop offset="0" style="stop-color:#0000FF"/>
			<a:midPointStop offset="0.5" style="stop-color:#0000FF"/>
			<a:midPointStop offset="1" style="stop-color:#FF0000"/>
		</linearGradient>
		<path i:knockout="Off" fill="url(#XMLID_8_)" d="M1185,1541.865h165.563v-16.535H1185V1541.865z"/>
		<path i:knockout="Off" fill="#FF0000" d="M1350.563,1542.254h200.62v-16.998h-200.62V1542.254z"/>
		
			<linearGradient id="XMLID_9_" gradientUnits="userSpaceOnUse" x1="2371" y1="1568.9355" x2="2542.376" y2="1568.9355" gradientTransform="matrix(1, 0, 0, 1, -1186, 0)">
			<stop offset="0" style="stop-color:#0000FF"/>
			<stop offset="1" style="stop-color:#FF0000"/>
			<a:midPointStop offset="0" style="stop-color:#0000FF"/>
			<a:midPointStop offset="0.5" style="stop-color:#0000FF"/>
			<a:midPointStop offset="1" style="stop-color:#FF0000"/>
		</linearGradient>
		<path i:knockout="Off" fill="url(#XMLID_9_)" stroke="#000000" stroke-width="5" d="M1185,1541.963l6.631-0.002    c0,29.796,35.575,53.95,79.466,53.95s79.468-24.154,79.468-53.95l5.812-0.002"/>
		<path i:knockout="Off" fill="#FF0000" d="M1736.085,1369.371v3.347c0,114.028-89.635,152-152,152l-11.188-0.004l-31.281,0.001    v16.535h33.711h25.299c84.017,0,152-67.984,152-152v-18.049v-1.83H1736.085z"/>
		<path i:knockout="Off" fill="#FF0000" d="M1737.186,1384h18V533.344h-18V1384z"/>
		<path i:knockout="Off" fill="#FF0000" d="M46.099,1370.115v3.347c0,114.028,89.635,152,152,152l11.188-0.004l31.281,0.001v16.535    h-33.71h-25.3c-84.016,0-152-67.984-152-152v-18.049v-1.83H46.099z"/>
		<path i:knockout="Off" fill="#FF0000" d="M45,1370.115H27V573.088h18V1370.115z"/>
		<path i:knockout="Off" fill="#FF0000" d="M1736.36,533.344v-3.347c0-114.028-89.637-152-152-152l-11.188,0.004L1541.891,378    l0.002-16.535h33.709h25.302c84.016,0,152,67.984,152,152v18.049v1.83H1736.36z"/>
		<path i:knockout="Off" fill="#FF0000" d="M201.663,378.214h-3.347c-114.028,0-152,89.635-152,152l0.004,11.188l-0.001,31.281    H29.784v-33.71v-25.3c0-84.016,67.984-152,152-152h18.049h1.83V378.214z"/>
		
			<linearGradient id="XMLID_10_" gradientUnits="userSpaceOnUse" x1="1932.4844" y1="1277.3359" x2="2223.5215" y2="1277.3359" gradientTransform="matrix(1, 0, 0, 1, -1186, 0)">
			<stop offset="0.5" style="stop-color:#0000FF"/>
			<stop offset="0.5" style="stop-color:#FC4128"/>
			<a:midPointStop offset="0.5" style="stop-color:#0000FF"/>
			<a:midPointStop offset="0.5" style="stop-color:#0000FF"/>
			<a:midPointStop offset="0.5" style="stop-color:#FC4128"/>
		</linearGradient>
		<path i:knockout="Off" fill="url(#XMLID_10_)" stroke="#000000" stroke-width="5" d="M966.693,1159.318    c6.41,3.474,13.705,5.533,21.484,5.764l0.712-0.013c26.858,0,48.632,21.771,48.632,48.63c0,10.13-3.098,19.535-8.396,27.322    l-32.856,46.367l-39.439,56.325l-19.665,28.069c-9.784,14.364-26.354,23.809-45.146,23.809c-18.722,0-35.232-9.369-45.033-23.641    l-32.564-46.443l-40.544-57.902l-18.99-26.879c-5.303-7.791-8.403-17.2-8.403-27.334c0-26.857,21.772-48.631,48.63-48.631h0.343    c8.25,0,16.021-2.055,22.827-5.681"/>
		<path i:knockout="Off" fill="#0000FF" d="M818.248,1159.048c-21.088,11.034-49.706,6.026-69.673-13.941    c-19.967-19.968-24.976-48.584-13.941-69.672l20.044-20.045c21.089-11.036,49.708-6.027,69.674,13.941    c19.968,19.967,24.976,48.585,13.941,69.673L818.248,1159.048z"/>
		
			<linearGradient id="XMLID_11_" gradientUnits="userSpaceOnUse" x1="2377.1934" y1="573.792" x2="2536.5635" y2="573.792" gradientTransform="matrix(1, 0, 0, 1, -1186, 0)">
			<stop offset="0" style="stop-color:#0000FF"/>
			<stop offset="1" style="stop-color:#FF0000"/>
			<a:midPointStop offset="0" style="stop-color:#0000FF"/>
			<a:midPointStop offset="0.5" style="stop-color:#0000FF"/>
			<a:midPointStop offset="1" style="stop-color:#FF0000"/>
		</linearGradient>
		<path i:knockout="Off" fill="url(#XMLID_11_)" d="M1191.193,582.279h159.37v-16.974h-159.37V582.279z"/>
		
			<linearGradient id="XMLID_12_" gradientUnits="userSpaceOnUse" x1="2371.498" y1="609.2168" x2="2542.25" y2="609.2168" gradientTransform="matrix(1, 0, 0, 1, -1186, 0)">
			<stop offset="0" style="stop-color:#0000FF"/>
			<stop offset="1" style="stop-color:#FF0000"/>
			<a:midPointStop offset="0" style="stop-color:#0000FF"/>
			<a:midPointStop offset="0.5" style="stop-color:#0000FF"/>
			<a:midPointStop offset="1" style="stop-color:#FF0000"/>
		</linearGradient>
		<path i:knockout="Off" fill="url(#XMLID_12_)" stroke="#000000" stroke-width="5" d="M1356.25,582.241l-5.688,0.001    c0,29.796-35.577,53.95-79.468,53.95s-79.466-24.154-79.466-53.95l-6.131,0.001"/>
		
			<linearGradient id="XMLID_13_" gradientUnits="userSpaceOnUse" x1="2372.25" y1="538.7261" x2="2541" y2="538.7261" gradientTransform="matrix(1, 0, 0, 1, -1186, 0)">
			<stop offset="0" style="stop-color:#0000FF"/>
			<stop offset="1" style="stop-color:#FF0000"/>
			<a:midPointStop offset="0" style="stop-color:#0000FF"/>
			<a:midPointStop offset="0.5" style="stop-color:#0000FF"/>
			<a:midPointStop offset="1" style="stop-color:#FF0000"/>
		</linearGradient>
		<path i:knockout="Off" fill="url(#XMLID_13_)" stroke="#000000" stroke-width="5" d="M1186.25,565.702l5.365-0.001    c0-29.796,35.577-53.951,79.466-53.951c43.891,0,79.469,24.155,79.469,53.951h4.45"/>
		<path i:knockout="Off" fill="#0000FF" d="M710.213,1010.925l-20.045,20.045l46.669,46.668l20.044-20.045L710.213,1010.925z"/>
		<path i:knockout="Off" fill="#0000FF" d="M618.485,1102.654l18.797,18.797l91.728-91.728l-18.797-18.797L618.485,1102.654z"/>
		<path i:knockout="Off" fill="#0000FF" d="M649.423,1107.456h-26.135v420.541h26.135V1107.456z"/>
		
			<linearGradient id="XMLID_14_" gradientUnits="userSpaceOnUse" x1="1608.8613" y1="1498.4805" x2="1781.8945" y2="1498.4805" gradientTransform="matrix(1, 0, 0, 1, -1186, 0)">
			<stop offset="0" style="stop-color:#FF0000"/>
			<stop offset="1" style="stop-color:#0000FF"/>
			<a:midPointStop offset="0" style="stop-color:#FF0000"/>
			<a:midPointStop offset="0.5" style="stop-color:#FF0000"/>
			<a:midPointStop offset="1" style="stop-color:#0000FF"/>
		</linearGradient>
		<path i:knockout="Off" fill="url(#XMLID_14_)" stroke="#000000" stroke-width="5" d="M595.894,1525.456h-5.629    c0-29.796-35.578-53.951-79.469-53.951c-43.889,0-79.466,24.155-79.466,53.951h-8.468"/>
		<path i:knockout="Off" fill="none" stroke="#000000" stroke-width="5" d="M621.255,1132.217v393.238l-25.361,0.001"/>
		<path i:knockout="Off" fill="#FFFFFF" stroke="#000000" stroke-width="5" d="M1280.04,614.66v-88.01    c7.104,0.727,13.841,2.302,20,4.581v4.069v76.269v3.303c-6.159,2.279-12.896,3.854-20.001,4.58L1280.04,614.66z"/>
		<path i:knockout="Off" fill="#FFFFFF" stroke="#000000" stroke-width="5" d="M1317.375,545.094l-0.005,60.278l0.001,0.156    c1.504-1.144,4.828-4.143,4.828-4.143c8.2-7.868,13.068-17.688,13.068-28.335c0-10.886-5.089-20.902-13.622-28.854l-0.597-0.548    c-1.166-1.053-2.395-2.067-3.678-3.045l-0.001,0.156v2.09L1317.375,545.094z"/>
		<path i:knockout="Off" fill="#FFFFFF" stroke="#000000" stroke-width="5" d="M1259.039,614.698v-88.014    c-7.104,0.728-13.839,2.304-20,4.581v4.071v76.268v3.304c6.161,2.277,12.896,3.854,20.001,4.58L1259.039,614.698z"/>
		<path i:knockout="Off" fill="#FFFFFF" stroke="#000000" stroke-width="5" d="M1221.704,545.131l0.005,60.278l-0.001,0.156    c-1.504-1.145-4.826-4.144-4.826-4.144c-8.201-7.868-13.067-17.688-13.067-28.334c0-10.887,5.087-20.904,13.621-28.857    l0.596-0.547c1.166-1.053,2.396-2.068,3.677-3.045l0.001,0.156v2.09L1221.704,545.131z"/>
		<path i:knockout="Off" fill="#FFFFFF" stroke="#000000" stroke-width="5" d="M519.754,614.697v-88.01    c7.104,0.727,13.841,2.302,20,4.581v4.069v76.269v3.303c-6.159,2.279-12.896,3.854-20.001,4.58L519.754,614.697z"/>
		<path i:knockout="Off" fill="#FFFFFF" stroke="#000000" stroke-width="5" d="M557.089,545.131l-0.005,60.278l0.001,0.156    c1.504-1.144,4.828-4.143,4.828-4.143c8.2-7.868,13.068-17.688,13.068-28.335c0-10.886-5.087-20.902-13.622-28.856l-0.595-0.548    c-1.166-1.053-2.395-2.067-3.678-3.045l-0.001,0.156v2.09L557.089,545.131z"/>
		<path i:knockout="Off" fill="#FFFFFF" stroke="#000000" stroke-width="5" d="M498.753,614.735v-88.014    c-7.104,0.728-13.839,2.304-20,4.581v4.071v76.268v3.304c6.161,2.277,12.896,3.854,20.001,4.58L498.753,614.735z"/>
		<path i:knockout="Off" fill="#FFFFFF" stroke="#000000" stroke-width="5" d="M461.418,545.168l0.005,60.278l-0.001,0.156    c-1.504-1.145-4.826-4.144-4.826-4.144c-8.201-7.868-13.069-17.688-13.069-28.334c0-10.887,5.087-20.904,13.622-28.857    l0.595-0.547c1.166-1.053,2.396-2.068,3.677-3.045l0.001,0.156v2.09L461.418,545.168z"/>
		<path i:knockout="Off" fill="none" stroke="#000000" stroke-width="4" d="M906.104,565.737"/>
		<path i:knockout="Off" fill="none" stroke="#000000" stroke-width="4" d="M906.175,565.737h-0.069"/>
		<path i:knockout="Off" fill="none" stroke="#000000" stroke-width="5" d="M1370.229,582.236l-11.826,0.004l-2.152,0.001"/>
		<path i:knockout="Off" fill="none" stroke="#000000" stroke-width="5" d="M1380,565.7h17.958c84.016,0,152,67.984,152,152v18.049    l-0.001,119.547v12.432v53.515v34.213c0,84.016-67.984,152-152,152h-150.104h-63.892l-18.799-18.799l-63.909-63.909l-6.253,6.253    l-25,25l-19.58,19.58c11.036,21.089,6.027,49.708-13.94,69.676c-19.969,19.97-48.588,24.979-69.677,13.939"/>
		<path i:knockout="Off" fill="none" stroke="#000000" stroke-width="5" d="M1355,565.7h4.51h13.148H1380"/>
		<path i:knockout="Off" fill="none" stroke="#000000" stroke-width="5" d="M1186.25,565.702l-10.249,0.002"/>
		
			<linearGradient id="XMLID_15_" gradientUnits="userSpaceOnUse" x1="2365" y1="1498.4453" x2="2541.8975" y2="1498.4453" gradientTransform="matrix(1, 0, 0, 1, -1186, 0)">
			<stop offset="0" style="stop-color:#0000FF"/>
			<stop offset="1" style="stop-color:#FF0000"/>
			<a:midPointStop offset="0" style="stop-color:#0000FF"/>
			<a:midPointStop offset="0.5" style="stop-color:#0000FF"/>
			<a:midPointStop offset="1" style="stop-color:#FF0000"/>
		</linearGradient>
		<path i:knockout="Off" fill="url(#XMLID_15_)" stroke="#000000" stroke-width="5" d="M1179,1525.422l12.615-0.003    c0-29.796,35.577-53.951,79.466-53.951c43.891,0,79.469,24.155,79.469,53.951h5.348"/>
		<path i:knockout="Off" fill="none" stroke="#000000" stroke-width="5" d="M649.604,1131.422v394.033L950,1525.456h89.578    l139.422-0.034"/>
		<path i:knockout="Off" fill="#FFFFFF" stroke="#000000" stroke-width="5" d="M1280.04,1574.379v-88.01    c7.104,0.727,13.841,2.302,20,4.581v4.069v76.269v3.303c-6.159,2.279-12.896,3.854-20.001,4.58L1280.04,1574.379z"/>
		<path i:knockout="Off" fill="#FFFFFF" stroke="#000000" stroke-width="5" d="M1317.375,1504.813l-0.005,60.276l0.001,0.156    c1.504-1.145,4.828-4.143,4.828-4.143c8.2-7.868,13.068-17.688,13.068-28.335c0-10.888-5.089-20.902-13.622-28.856l-0.597-0.548    c-1.166-1.053-2.395-2.067-3.678-3.045l-0.001,0.156v2.09L1317.375,1504.813z"/>
		<path i:knockout="Off" fill="#FFFFFF" stroke="#000000" stroke-width="5" d="M1259.039,1574.417v-88.014    c-7.104,0.728-13.839,2.304-20,4.581v4.069v76.27v3.304c6.161,2.277,12.896,3.854,20.001,4.58L1259.039,1574.417z"/>
		<path i:knockout="Off" fill="#FFFFFF" stroke="#000000" stroke-width="5" d="M1221.704,1504.85l0.005,60.278l-0.001,0.156    c-1.504-1.146-4.826-4.146-4.826-4.146c-8.201-7.868-13.067-17.688-13.067-28.334c0-10.887,5.087-20.902,13.621-28.855    l0.596-0.547c1.166-1.055,2.396-2.068,3.677-3.047l0.001,0.156v2.09L1221.704,1504.85z"/>
		<path i:knockout="Off" fill="#FFFFFF" stroke="#000000" stroke-width="5" d="M519.754,1574.416v-88.01    c7.104,0.727,13.841,2.302,20,4.581v4.067v76.271v3.303c-6.159,2.279-12.896,3.854-20.001,4.58L519.754,1574.416z"/>
		<path i:knockout="Off" fill="#FFFFFF" stroke="#000000" stroke-width="5" d="M557.089,1504.85l-0.005,60.278l0.001,0.156    c1.504-1.146,4.828-4.145,4.828-4.145c8.2-7.866,13.068-17.688,13.068-28.335c0-10.886-5.087-20.9-13.622-28.854l-0.595-0.548    c-1.166-1.054-2.395-2.067-3.678-3.045l-0.001,0.154v2.091L557.089,1504.85z"/>
		<path i:knockout="Off" fill="#FFFFFF" stroke="#000000" stroke-width="5" d="M498.753,1574.454v-88.014    c-7.104,0.728-13.839,2.304-20,4.581v4.069v76.27v3.304c6.161,2.277,12.896,3.854,20.001,4.58L498.753,1574.454z"/>
		<path i:knockout="Off" fill="#FFFFFF" stroke="#000000" stroke-width="5" d="M461.418,1504.887l0.005,60.278l-0.001,0.156    c-1.504-1.146-4.826-4.146-4.826-4.146c-8.201-7.868-13.069-17.688-13.069-28.334c0-10.887,5.087-20.902,13.622-28.855    l0.595-0.547c1.166-1.055,2.396-2.068,3.677-3.047l0.001,0.156v2.09L461.418,1504.887z"/>
		<path i:knockout="Off" fill="none" stroke="#000000" stroke-width="5" d="M595.894,1541.998H600h350h85.078l149.922-0.035"/>
		<path i:knockout="Off" fill="none" stroke="#000000" stroke-width="5" d="M621.255,1132.217v-31.751l9.431-9.431l72.519-72.518    l7.009-7.592l16.143,16.143l28.322,28.322c21.089-11.036,49.708-6.027,69.674,13.941c19.968,19.967,24.976,48.585,13.941,69.673"/>
		<path i:knockout="Off" fill="none" stroke="#000000" stroke-width="5" d="M818.248,1159.048    c-21.088,11.035-49.706,6.026-69.673-13.941c-19.967-19.968-24.976-48.584-13.941-69.672l-4.354-4.354l-19.775-19.775    l-9.507,9.509l-39.613,39.613l-11.781,11.781v19.212"/>
		<path i:knockout="Off" fill="none" stroke="#000000" stroke-width="5" d="M621.255,1132.217v-31.751l9.431-9.431l72.519-72.518    l7.009-7.592l16.143,16.143l28.322,28.322c21.089-11.036,49.708-6.027,69.674,13.941c19.968,19.967,24.976,48.585,13.941,69.673"/>
		<path i:knockout="Off" fill="none" stroke="#000000" stroke-width="5" d="M818.248,1159.048    c-21.088,11.035-49.706,6.026-69.673-13.941c-19.967-19.968-24.976-48.584-13.941-69.672l-4.354-4.354l-19.775-19.775    l-9.507,9.509l-39.613,39.613l-11.781,11.781v19.212"/>
		
			<linearGradient id="XMLID_16_" gradientUnits="userSpaceOnUse" x1="2078.0166" y1="1229.7744" x2="2078.0166" y2="1229.7744" gradientTransform="matrix(1, 0, 0, 1, -1186, 0)">
			<stop offset="0" style="stop-color:#FB0F0C"/>
			<stop offset="0.2" style="stop-color:#F7F619"/>
			<stop offset="0.4" style="stop-color:#168739"/>
			<stop offset="0.6" style="stop-color:#1A9BC0"/>
			<stop offset="0.8" style="stop-color:#19037B"/>
			<stop offset="1" style="stop-color:#EF097C"/>
			<a:midPointStop offset="0" style="stop-color:#FB0F0C"/>
			<a:midPointStop offset="0.5" style="stop-color:#FB0F0C"/>
			<a:midPointStop offset="0.2" style="stop-color:#F7F619"/>
			<a:midPointStop offset="0.5" style="stop-color:#F7F619"/>
			<a:midPointStop offset="0.4" style="stop-color:#168739"/>
			<a:midPointStop offset="0.5" style="stop-color:#168739"/>
			<a:midPointStop offset="0.6" style="stop-color:#1A9BC0"/>
			<a:midPointStop offset="0.5" style="stop-color:#1A9BC0"/>
			<a:midPointStop offset="0.8" style="stop-color:#19037B"/>
			<a:midPointStop offset="0.5" style="stop-color:#19037B"/>
			<a:midPointStop offset="1" style="stop-color:#EF097C"/>
		</linearGradient>
		<path i:knockout="Off" fill="url(#XMLID_16_)" stroke="#000000" stroke-width="5" d="M892.017,1395.594v-331.639"/>
		<path i:knockout="Off" fill="none" stroke="#000000" stroke-width="5" d="M1176,582.246l9.5-0.002"/>
		<path i:knockout="Off" fill="none" stroke="#000000" stroke-width="5" d="M590.046,586.43c0.153-1.37,0.231-2.754,0.231-4.151    h5.079h2.144h2.857"/>
		<path i:knockout="Off" fill="none" stroke="#000000" stroke-width="5" d="M946.507,1138.457    c-3.283-6.543-5.143-13.938-5.179-21.77v-4.08c0-10.949-3.618-21.054-9.725-29.182l9.178-9.175l7.065-7.067l19.168-19.166    l17.75-17.75l31.834-31.845V381.851V378h418.964l138.934,0.003l11.188-0.004c62.365,0,152,37.972,152,152l-0.001,124.101    l0.014,61.367v507.864l-0.005,138.933l0.005,11.188c0,62.365-37.973,152-152,152l-124.103-0.001l-81.595-0.033h-7.342h-13.148    h-3.614"/>
		<path i:knockout="Off" fill="none" stroke="#000000" stroke-width="5" d="M663.01,32.423v11.068c0,68.539,112.711,124,252,124    h85.049v192.5v1.477H207.077h-25.3c-84.016,0-152,67.984-152,152v18.049l0.001,119.547l0.007,713.632v25.3    c0,84.016,67.984,152,152,152h18.049l119.547-0.001l81.111-0.006l14.593,0.004l11.122,0.004"/>
		<path i:knockout="Off" fill="none" stroke="#000000" stroke-width="5" d="M1356.374,1541.959h2.028l11.826-0.004l94.401,0.038    l119.547,0.001h18.049c84.018,0,152-67.984,152-152v-25.3l-0.003-713.631l0.001-119.547v-18.049c0-84.016-67.982-152-152-152    h-25.3H1016.6v-2.251V167.491h29.313h10.767h44.962c139.289,0,252-55.461,252-124V32.423"/>
		<g i:knockout="Off">
			<g i:knockout="On" a:adobe-knockout="true">
				<path i:isolated="yes" i:knockout="Off" fill="#FFFFFF" a:adobe-knockout="false" enable-background="new    " d="      M704.693,537.39c2.84-1.054,6.363-2.852,8.547-4.755l-1.72,4.755l1.72,4.755C711.057,540.241,707.533,538.443,704.693,537.39z"/>
			</g>
			<g i:knockout="On" a:adobe-knockout="true">
				
					<path i:isolated="yes" i:knockout="Off" fill="none" stroke="#000000" stroke-width="5" a:adobe-knockout="false" enable-background="new    " d="      M767.422,537.39h-56.693"/>
				<path i:isolated="yes" i:knockout="Off" a:adobe-knockout="false" enable-background="new    " d="M680.553,537.39      c14.199-5.269,31.816-14.258,42.734-23.774l-8.599,23.774l8.599,23.774C712.369,551.647,694.752,542.655,680.553,537.39z"/>
			</g>
		</g>
		<g i:knockout="Off">
			<g i:knockout="On" a:adobe-knockout="true">
				<path i:isolated="yes" i:knockout="Off" fill="#FFFFFF" a:adobe-knockout="false" enable-background="new    " d="      M587.631,1202.579c1.054,2.84,2.852,6.363,4.755,8.547l-4.755-1.72l-4.755,1.72      C584.78,1208.942,586.578,1205.419,587.631,1202.579z"/>
			</g>
			<g i:knockout="On" a:adobe-knockout="true">
				
					<path i:isolated="yes" i:knockout="Off" fill="none" stroke="#000000" stroke-width="5" a:adobe-knockout="false" enable-background="new    " d="      M587.631,1435.386v-226.771"/>
				<path i:isolated="yes" i:knockout="Off" a:adobe-knockout="false" enable-background="new    " d="M587.631,1178.438      c5.269,14.197,14.258,31.814,23.774,42.732l-23.774-8.599l-23.774,8.599C573.374,1210.255,582.365,1192.638,587.631,1178.438z"/>
			</g>
		</g>
		<g i:knockout="Off">
			<g i:knockout="On" a:adobe-knockout="true">
				<path i:isolated="yes" i:knockout="Off" fill="#FFFFFF" a:adobe-knockout="false" enable-background="new    " d="      M738.905,333.122c2.84-1.054,6.363-2.852,8.547-4.755l-1.72,4.755l1.72,4.755C745.268,335.974,741.745,334.175,738.905,333.122z      "/>
			</g>
			<g i:knockout="On" a:adobe-knockout="true">
				
					<path i:isolated="yes" i:knockout="Off" fill="none" stroke="#000000" stroke-width="5" a:adobe-knockout="false" enable-background="new    " d="      M971.711,333.122H744.94"/>
				<path i:isolated="yes" i:knockout="Off" a:adobe-knockout="false" enable-background="new    " d="M714.764,333.122      c14.199-5.269,31.816-14.258,42.734-23.774l-8.599,23.774l8.599,23.774C746.581,347.38,728.963,338.388,714.764,333.122z"/>
			</g>
		</g>
		<g i:knockout="Off">
			<g i:knockout="On" a:adobe-knockout="true">
				<path i:isolated="yes" i:knockout="Off" fill="#FFFFFF" a:adobe-knockout="false" enable-background="new    " d="      M1277.754,333.122c-2.84,1.054-6.363,2.852-8.547,4.755l1.721-4.755l-1.721-4.755      C1271.391,330.27,1274.914,332.068,1277.754,333.122z"/>
			</g>
			<g i:knockout="On" a:adobe-knockout="true">
				
					<path i:isolated="yes" i:knockout="Off" fill="none" stroke="#000000" stroke-width="5" a:adobe-knockout="false" enable-background="new    " d="      M1271.719,333.122h-226.771"/>
				<path i:isolated="yes" i:knockout="Off" a:adobe-knockout="false" enable-background="new    " d="M1301.895,333.122      c-14.197,5.269-31.814,14.258-42.732,23.774l8.6-23.774l-8.6-23.774C1270.078,318.864,1287.695,327.855,1301.895,333.122z"/>
			</g>
		</g>
		<g i:knockout="Off">
			<path i:knockout="Off" d="M436.982,229.819c0,2.1-0.6,2.88-2.88,2.88h-3.06c-2.22,0-2.88-0.72-2.88-2.88v-35.7     c0-2.22,0.72-2.88,2.88-2.88h22.62c2.46,0,2.88,0.96,2.88,2.88v0.48c0,2.88-1.38,2.88-3.42,2.88c-4.5,0-9.06-0.18-13.56-0.18     h-2.58v11.82h13.92c2.1,0,2.88,0.6,2.88,2.82c0,2.4-1.02,2.82-2.88,2.82h-13.92V229.819z"/>
			<path i:knockout="Off" d="M471.008,229.819c0,2.1-0.6,2.88-2.88,2.88h-2.22c-2.22,0-2.88-0.72-2.88-2.88v-35.88     c0-2.22,0.72-2.88,2.88-2.88h2.22c2.46,0,2.88,0.96,2.88,2.88V229.819z"/>
			<path i:knockout="Off" d="M483.881,190.999c2.88,0,2.88,1.26,2.88,4.14c0,2.82,0,4.08-2.88,4.08h-3.12     c-2.22,0-2.82-0.78-2.82-2.7v-2.76c0-2.4,0.96-2.76,2.88-2.76H483.881z M486.341,229.819c0,2.1-0.6,2.88-2.88,2.88h-2.22     c-2.22,0-2.88-0.72-2.88-2.88v-21.72c0-2.22,0.72-2.88,2.88-2.88h2.22c2.46,0,2.88,0.96,2.88,2.88V229.819z"/>
			<path i:knockout="Off" d="M499.575,219.859c0.18,3.84,0.9,9.18,7.68,9.18c1.92,0,5.52-0.42,9.06-3.48c0.66-0.6,0.78-0.6,1.02-0.6     c0.54,0,0.6,0.06,0.84,1.92c0.06,0.48,0.24,2.22,0.24,2.64c0,0.72-0.42,0.9-1.74,1.56c-3.96,1.98-7.38,2.28-9.66,2.28     c-9.42,0-15.12-4.8-15.12-14.64c0-9.12,4.74-14.52,14.34-14.52c8.94,0,12.54,5.16,12.54,12.9c0,2.7-1.5,2.76-2.88,2.76H499.575z      M512.115,216.679c-0.18-4.68-1.08-8.16-5.88-8.16c-5.22,0-6.42,4.5-6.6,8.16H512.115z"/>
			<path i:knockout="Off" d="M533.841,233.359c-1.02,0-3.48,0-6.78-1.02c-0.06-0.06-4.5-1.44-4.5-2.52c0-0.6,0.72-4.02,0.84-4.86     c0.06-0.36,0.18-0.9,0.78-0.9c0.36,0,0.54,0.18,0.84,0.48c2.82,3.36,6.18,4.14,8.82,4.14c2.34,0,4.68-0.42,4.68-3.24     c0-2.64-3.06-3.18-4.8-3.48c-3.42-0.66-5.76-1.08-7.86-3c-1.62-1.44-2.94-3.24-2.94-6.18c0-8.58,8.04-8.58,10.74-8.58     c1.56,0,3.48,0.06,5.88,0.72c0.66,0.24,3.84,1.08,3.84,2.04c0,0.3-0.6,3.66-0.72,4.14c-0.06,0.24-0.18,0.78-0.78,0.78     c-0.24,0-0.36,0-0.96-0.6c-1.56-1.32-3.72-2.82-7.74-2.82c-2.34,0-4.32,0.48-4.32,2.94c0,2.34,2.4,2.82,5.7,3.42     c2.52,0.48,4.62,0.84,7.02,3c1.08,0.96,2.88,3.06,2.88,6.42C544.461,233.119,536.901,233.359,533.841,233.359z"/>
			<path i:knockout="Off" d="M559.141,233.359c-1.02,0-3.48,0-6.78-1.02c-0.06-0.06-4.5-1.44-4.5-2.52c0-0.6,0.72-4.02,0.84-4.86     c0.06-0.36,0.18-0.9,0.78-0.9c0.36,0,0.54,0.18,0.84,0.48c2.82,3.36,6.18,4.14,8.82,4.14c2.34,0,4.68-0.42,4.68-3.24     c0-2.64-3.06-3.18-4.8-3.48c-3.42-0.66-5.76-1.08-7.86-3c-1.62-1.44-2.94-3.24-2.94-6.18c0-8.58,8.04-8.58,10.74-8.58     c1.56,0,3.48,0.06,5.88,0.72c0.66,0.24,3.84,1.08,3.84,2.04c0,0.3-0.6,3.66-0.72,4.14c-0.06,0.24-0.18,0.78-0.78,0.78     c-0.24,0-0.36,0-0.96-0.6c-1.56-1.32-3.72-2.82-7.74-2.82c-2.34,0-4.32,0.48-4.32,2.94c0,2.34,2.4,2.82,5.7,3.42     c2.52,0.48,4.62,0.84,7.02,3c1.08,0.96,2.88,3.06,2.88,6.42C569.761,233.119,562.201,233.359,559.141,233.359z"/>
			<path i:knockout="Off" d="M582.94,229.819c0,2.1-0.6,2.88-2.88,2.88h-2.22c-2.22,0-2.88-0.72-2.88-2.88v-22.08     c0-2.22,0.72-2.88,2.88-2.88h1.92c2.46,0,2.88,0.96,2.88,2.88v3.9h0.06c2.82-6.48,7.2-7.08,8.88-7.08c1.08,0,1.08,0.42,1.08,1.62     v2.82c0,1.56-0.12,1.56-1.2,1.62c-3.78,0.24-8.52,2.58-8.52,8.28V229.819z"/>
			<path i:knockout="Off" d="M602.813,190.999c2.88,0,2.88,1.26,2.88,4.14c0,2.82,0,4.08-2.88,4.08h-3.12     c-2.22,0-2.82-0.78-2.82-2.7v-2.76c0-2.4,0.96-2.76,2.88-2.76H602.813z M605.273,229.819c0,2.1-0.6,2.88-2.88,2.88h-2.22     c-2.22,0-2.88-0.72-2.88-2.88v-21.72c0-2.22,0.72-2.88,2.88-2.88h2.22c2.46,0,2.88,0.96,2.88,2.88V229.819z"/>
			<path i:knockout="Off" d="M634.646,231.259c-4.02,2.04-7.62,2.1-9.24,2.1c-9.06,0-14.22-4.5-14.22-14.46     c0-10.5,5.58-14.7,14.52-14.7c4.2,0,6,0.6,8.88,1.92c1.02,0.48,1.44,0.72,1.44,1.26c0,0.3-0.6,3.66-0.72,4.14     c-0.06,0.24-0.18,0.78-0.78,0.78c-0.24,0-0.36,0-1.08-0.66c-2.16-1.8-3.78-2.76-7.68-2.76c-6.12,0-6.42,5.04-6.42,9.9     c0,3.84,0,9.898,6.24,9.898c4.92,0,7.74-2.46,8.76-3.36c0.6-0.6,0.72-0.6,0.96-0.6c0.6,0,0.72,0.6,0.72,0.78     c0.12,0.78,0.36,3.54,0.36,4.2C636.386,230.299,636.326,230.359,634.646,231.259z"/>
			<path i:knockout="Off" d="M668.299,229.819c0,2.1-0.6,2.88-2.88,2.88h-2.4c-2.46,0-2.88-0.96-2.88-2.88v-16.5     c0-3.06-0.6-4.44-3.48-4.44c-3.12,0-6.6,2.46-6.6,7.68v13.26c0,2.1-0.6,2.88-2.88,2.88h-2.4c-2.22,0-2.88-0.72-2.88-2.88v-35.88     c0-2.22,0.72-2.88,2.88-2.88h2.22c2.46,0,2.88,0.96,2.88,2.88v16.44h0.06c0.84-1.68,3.6-5.82,9.6-5.82     c6.12,0,8.76,2.46,8.76,8.64V229.819z"/>
			<path i:knockout="Off" d="M685.044,223.699c0,3.96,0.9,4.979,2.34,4.979c2.521,0,4.14-1.32,4.8-1.8     c0.36-0.36,0.42-0.42,0.72-0.42c0.54,0,0.66,0.36,0.96,1.56c0.36,1.26,0.479,1.68,0.479,1.86c0,1.14-3.479,2.22-4.5,2.52     c-3.12,0.96-5.76,0.96-6.3,0.96c-4.14,0-6.3-2.58-6.3-8.64v-15.18h-1.2c-0.72,0-2.88,0-2.88-2.16s2.22-2.16,2.88-2.16h1.38     v-4.979c0-2.22,0.72-2.88,2.88-2.88h1.86c2.46,0,2.88,0.96,2.88,2.88v4.979h5.34c0.72,0,2.88,0,2.88,2.16s-2.16,2.16-2.88,2.16     h-5.34L685.044,223.699z"/>
			<path i:knockout="Off" d="M726.214,229.819c0,2.1-0.6,2.88-2.88,2.88h-2.22c-2.46,0-2.88-0.96-2.88-2.88v-1.56     c-2.82,5.1-7.08,5.1-8.7,5.1c-6.24,0-9.72-1.8-9.72-8.22v-17.04c0-2.22,0.72-2.88,2.88-2.88h2.4c2.46,0,2.88,0.96,2.88,2.88     v17.58c0,3.18,0.36,4.02,3.72,4.02c4.26,0,6.36-3.42,6.36-7.38v-14.22c0-2.1,0.6-2.88,2.88-2.88h2.4c2.46,0,2.88,0.96,2.88,2.88     V229.819z"/>
			<path i:knockout="Off" d="M759.88,229.819c0,2.1-0.6,2.88-2.88,2.88h-2.4c-2.46,0-2.88-0.96-2.88-2.88v-16.5     c0-3.06-0.6-4.44-3.479-4.44c-3.12,0-6.6,2.46-6.6,7.68v13.26c0,2.1-0.6,2.88-2.88,2.88h-2.4c-2.22,0-2.88-0.72-2.88-2.88v-22.08     c0-2.22,0.72-2.88,2.88-2.88h2.04c2.46,0,2.88,0.96,2.88,2.88v3h0.06c0.78-1.62,3.48-6.18,9.78-6.18c6.12,0,8.76,2.46,8.76,8.64     L759.88,229.819z"/>
			<path i:knockout="Off" d="M778.426,227.179c8.1,0,16.56,0,16.56,9.36c0,8.52-11.46,8.52-15,8.52c-2.82,0-6.84-0.06-10.26-1.62     c-3.78-1.74-4.68-4.86-4.68-6.72c0-3.84,3.12-4.92,4.02-5.28c-1.26-1.62-1.62-3.6-1.62-4.74c0-0.3,0-2.64,1.62-4.86     c-2.28-1.98-2.94-4.98-2.94-7.38c0-9.9,9.54-9.9,12.06-9.9c2.58,0,5.7,0.24,8.52,2.1c2.28-1.38,5.28-2.1,7.14-2.1     c1.08,0,1.08,0.12,1.32,1.56c0.12,0.6,0.42,2.04,0.42,2.28c0,0.42-0.3,0.78-0.78,0.78c-0.18,0-0.6-0.12-0.84-0.24     c-2.46-0.66-4.56-0.66-5.58-0.66c0.54,0.66,1.86,2.76,1.86,6.24c0,9.9-9.54,9.9-12.06,9.9c-1.26,0-4.8,0-7.62-1.56     c-0.06,0.36-0.12,0.48-0.12,0.9c0,1.56,1.02,2.46,1.26,2.7c0.84,0.72,1.68,0.72,3.84,0.72H778.426z M774.466,233.719     c-1.38,0-3.24,0-3.24,2.82c0,4.2,6.42,4.2,8.82,4.2c1.92,0,8.76,0,8.76-4.021c0-2.16-2.52-3-7.38-3L774.466,233.719z      M782.565,214.459c0-3.3-0.18-5.58-4.38-5.58s-4.38,2.34-4.38,5.64c0,3.3,0.18,5.58,4.38,5.58S782.565,217.759,782.565,214.459z"/>
			<path i:knockout="Off" d="M848.484,229.819c0,2.1-0.6,2.88-2.88,2.88h-2.4c-2.04,0-2.88-0.6-2.88-2.82     c-2.58,2.76-5.16,3.48-7.68,3.48c-11.88,0-11.88-11.58-11.88-14.34c0-2.94,0-14.46,12.18-14.46c1.86,0,4.86,0.42,7.56,3v-13.62     c0-2.1,0.6-2.88,2.88-2.88h2.22c2.46,0,2.88,0.96,2.88,2.88V229.819z M840.324,210.739c-1.32-1.26-2.94-1.86-4.68-1.86     c-6.72,0-6.72,5.64-6.72,10.14s0,10.02,6.06,10.02c0.72,0,2.1-0.12,3.6-1.08c1.74-1.2,1.74-1.74,1.74-2.76V210.739z"/>
			<path i:knockout="Off" d="M861.75,219.859c0.18,3.84,0.9,9.18,7.68,9.18c1.92,0,5.52-0.42,9.06-3.48c0.66-0.6,0.78-0.6,1.02-0.6     c0.54,0,0.6,0.06,0.84,1.92c0.06,0.48,0.24,2.22,0.24,2.64c0,0.72-0.42,0.9-1.74,1.56c-3.96,1.98-7.38,2.28-9.66,2.28     c-9.42,0-15.12-4.8-15.12-14.64c0-9.12,4.74-14.52,14.34-14.52c8.94,0,12.54,5.16,12.54,12.9c0,2.7-1.5,2.76-2.88,2.76H861.75z      M874.29,216.679c-0.18-4.68-1.08-8.16-5.88-8.16c-5.22,0-6.42,4.5-6.6,8.16H874.29z"/>
			<path i:knockout="Off" d="M896.017,233.359c-1.021,0-3.479,0-6.78-1.02c-0.06-0.06-4.5-1.44-4.5-2.52c0-0.6,0.72-4.02,0.84-4.86     c0.06-0.36,0.18-0.9,0.78-0.9c0.36,0,0.54,0.18,0.84,0.48c2.82,3.36,6.18,4.14,8.82,4.14c2.34,0,4.68-0.42,4.68-3.24     c0-2.64-3.062-3.18-4.8-3.48c-3.42-0.66-5.76-1.08-7.86-3c-1.62-1.44-2.94-3.24-2.94-6.18c0-8.58,8.041-8.58,10.74-8.58     c1.563,0,3.48,0.06,5.881,0.72c0.659,0.24,3.841,1.08,3.841,2.04c0,0.3-0.602,3.66-0.722,4.14c-0.06,0.24-0.18,0.78-0.778,0.78     c-0.239,0-0.359,0-0.961-0.6c-1.561-1.32-3.721-2.82-7.738-2.82c-2.342,0-4.32,0.48-4.32,2.94c0,2.34,2.4,2.82,5.7,3.42     c2.521,0.48,4.62,0.84,7.021,3c1.079,0.96,2.88,3.06,2.88,6.42C906.637,233.119,899.076,233.359,896.017,233.359z"/>
			<path i:knockout="Off" d="M601.932,263.059c2.52,0,15.3,0,15.3,10.8c0,4.68-3.18,7.8-8.7,9.06c2.22,0.36,10.56,1.68,10.56,10.14     c0,10.86-11.04,11.64-15.48,11.64h-16.44c-2.22,0-2.88-0.72-2.88-2.88v-35.88c0-2.22,0.72-2.88,2.88-2.88H601.932z      M599.712,280.879c1.5,0,9.36,0,9.36-6.84c0-5.64-6.96-5.82-9.3-5.82h-7.02v12.66H599.712z M601.452,299.539     c2.88,0,9.3-0.42,9.3-6.6c0-7.74-8.34-7.74-10.44-7.74h-7.56v14.34H601.452z"/>
			<path i:knockout="Off" d="M634.471,301.819c0,2.1-0.6,2.88-2.88,2.88h-2.22c-2.22,0-2.88-0.72-2.88-2.88v-35.88     c0-2.22,0.72-2.88,2.88-2.88h2.22c2.46,0,2.88,0.96,2.88,2.88V301.819z"/>
			<path i:knockout="Off" d="M668.165,301.819c0,2.1-0.6,2.88-2.88,2.88h-2.22c-2.46,0-2.88-0.96-2.88-2.88v-1.56     c-2.82,5.1-7.08,5.1-8.7,5.1c-6.24,0-9.72-1.8-9.72-8.22v-17.04c0-2.22,0.72-2.88,2.88-2.88h2.4c2.46,0,2.88,0.96,2.88,2.88     v17.58c0,3.18,0.36,4.021,3.72,4.021c4.26,0,6.36-3.42,6.36-7.38V280.1c0-2.1,0.6-2.88,2.88-2.88h2.4c2.46,0,2.88,0.96,2.88,2.88     V301.819z"/>
			<path i:knockout="Off" d="M684.91,295.699c0,3.96,0.9,4.979,2.34,4.979c2.52,0,4.14-1.32,4.8-1.8c0.36-0.36,0.42-0.42,0.72-0.42     c0.54,0,0.66,0.36,0.96,1.56c0.36,1.26,0.48,1.68,0.48,1.86c0,1.14-3.48,2.22-4.5,2.52c-3.12,0.96-5.76,0.96-6.3,0.96     c-4.14,0-6.3-2.58-6.3-8.64v-15.18h-1.2c-0.72,0-2.88,0-2.88-2.16s2.22-2.16,2.88-2.16h1.38v-4.979c0-2.22,0.72-2.88,2.88-2.88     h1.86c2.46,0,2.88,0.96,2.88,2.88v4.979h5.34c0.72,0,2.88,0,2.88,2.16s-2.16,2.16-2.88,2.16h-5.34V295.699z"/>
			<path i:knockout="Off" d="M705.62,291.859c0.18,3.84,0.9,9.18,7.68,9.18c1.92,0,5.52-0.42,9.06-3.48c0.66-0.6,0.78-0.6,1.02-0.6     c0.54,0,0.6,0.06,0.84,1.92c0.06,0.48,0.24,2.22,0.24,2.64c0,0.72-0.42,0.9-1.74,1.56c-3.96,1.98-7.38,2.28-9.66,2.28     c-9.42,0-15.12-4.8-15.12-14.64c0-9.12,4.74-14.52,14.34-14.52c8.94,0,12.54,5.16,12.54,12.9c0,2.7-1.5,2.76-2.88,2.76H705.62z      M718.16,288.679c-0.18-4.68-1.08-8.16-5.88-8.16c-5.22,0-6.42,4.5-6.6,8.16H718.16z"/>
			<path i:knockout="Off" d="M739.886,305.359c-1.02,0-3.48,0-6.78-1.02c-0.06-0.06-4.5-1.44-4.5-2.52c0-0.602,0.72-4.021,0.84-4.86     c0.06-0.36,0.18-0.9,0.78-0.9c0.36,0,0.54,0.18,0.84,0.48c2.82,3.36,6.18,4.14,8.82,4.14c2.34,0,4.68-0.42,4.68-3.24     c0-2.64-3.06-3.18-4.8-3.48c-3.42-0.66-5.76-1.08-7.86-3c-1.62-1.44-2.94-3.24-2.94-6.18c0-8.58,8.04-8.58,10.74-8.58     c1.56,0,3.48,0.06,5.88,0.72c0.66,0.24,3.84,1.08,3.84,2.04c0,0.3-0.6,3.66-0.72,4.14c-0.06,0.24-0.18,0.78-0.78,0.78     c-0.24,0-0.36,0-0.96-0.6c-1.56-1.32-3.72-2.82-7.74-2.82c-2.34,0-4.32,0.48-4.32,2.94c0,2.34,2.4,2.82,5.7,3.42     c2.52,0.479,4.62,0.84,7.02,3c1.08,0.96,2.88,3.06,2.88,6.42C750.506,305.119,742.946,305.359,739.886,305.359z"/>
		</g>
		<g i:knockout="Off">
			<path i:knockout="Off" d="M840.357,1642.139c0,1.74-0.84,1.74-2.1,1.74h-3.6c-1.14,0-2.04,0-3-1.26l-13.44-18l-6.66,6.3v10.08     c0,2.1-0.6,2.88-2.88,2.88h-2.04c-2.22,0-2.88-0.72-2.88-2.88v-35.881c0-2.22,0.72-2.88,2.88-2.88h2.04     c2.46,0,2.88,0.96,2.88,2.88v16.561l19.32-18.238c1.26-1.2,2.46-1.2,3.48-1.2h3.66c0.84,0,2.04,0,2.04,1.261     c0,0.239,0,0.601-0.72,1.26l-15.78,14.82L840.357,1642.139z"/>
			<path i:knockout="Off" d="M860.57,1644.539c-9.42,0-14.58-4.38-14.58-14.16c0-9.66,4.62-15,14.64-15c9.78,0,14.58,5.16,14.58,15     S869.99,1644.539,860.57,1644.539z M867.05,1629.659c0-4.681,0-9.96-6.48-9.96c-6.42,0-6.42,5.34-6.42,9.96     c0,4.8,0,10.199,6.48,10.199C867.05,1639.858,867.05,1634.398,867.05,1629.659z"/>
			<path i:knockout="Off" d="M886.91,1640.999c0,2.1-0.6,2.88-2.88,2.88h-2.22c-2.22,0-2.88-0.72-2.88-2.88v-22.08     c0-2.221,0.72-2.88,2.88-2.88h1.92c2.46,0,2.88,0.96,2.88,2.88v3.899h0.06c2.82-6.479,7.2-7.08,8.88-7.08     c1.08,0,1.08,0.421,1.08,1.62v2.818c0,1.562-0.12,1.562-1.199,1.62c-3.78,0.24-8.521,2.58-8.521,8.28V1640.999z"/>
			<path i:knockout="Off" d="M909.423,1652.639c0,2.103-0.601,2.881-2.88,2.881h-2.4c-2.22,0-2.88-0.721-2.88-2.881v-33.358     c0-2.222,0.722-2.88,2.88-2.88h2.222c2.04,0,2.88,0.601,2.88,2.818c2.16-2.04,5.341-3.479,8.881-3.479     c10.859,0,10.859,11.341,10.859,14.279c0,3,0,14.521-12.722,14.521c-0.84,0-4.14,0-6.84-3V1652.639z M909.423,1636.799     c0,1.08,0,1.38,1.439,2.4c0.721,0.54,1.801,1.02,3.181,1.02c6.779,0,6.779-7.68,6.779-10.08c0-2.64-0.062-9.72-6.18-9.72     c-2.58,0-4.562,1.38-5.222,1.979L909.423,1636.799z"/>
			<path i:knockout="Off" d="M942.668,1631.039c0.18,3.84,0.899,9.18,7.68,9.18c1.92,0,5.521-0.42,9.063-3.479     c0.66-0.603,0.778-0.603,1.02-0.603c0.54,0,0.603,0.063,0.842,1.921c0.061,0.479,0.238,2.222,0.238,2.642     c0,0.72-0.42,0.899-1.738,1.56c-3.961,1.98-7.382,2.28-9.66,2.28c-9.42,0-15.12-4.8-15.12-14.641     c0-9.12,4.74-14.521,14.341-14.521c8.939,0,12.54,5.16,12.54,12.899c0,2.7-1.5,2.761-2.88,2.761L942.668,1631.039z      M955.208,1627.858c-0.18-4.682-1.08-8.159-5.88-8.159c-5.221,0-6.42,4.5-6.602,8.159H955.208z"/>
			<path i:knockout="Off" d="M975.436,1640.999c0,2.1-0.602,2.88-2.881,2.88h-2.221c-2.22,0-2.88-0.72-2.88-2.88v-22.08     c0-2.221,0.72-2.88,2.88-2.88h1.92c2.46,0,2.881,0.96,2.881,2.88v3.899h0.062c2.818-6.479,7.198-7.08,8.88-7.08     c1.08,0,1.08,0.421,1.08,1.62v2.818c0,1.562-0.12,1.562-1.2,1.62c-3.779,0.24-8.521,2.58-8.521,8.28L975.436,1640.999z"/>
		</g>
		<g i:knockout="Off">
			<path i:knockout="Off" d="M854.398,1602.188c2.88,0,2.88,1.438,2.88,3.479c0,1.921,0,3.421-2.88,3.421h-2.7     c-2.04,0-2.88-0.54-2.88-2.761v-1.38c0-2.399,0.96-2.76,2.88-2.76L854.398,1602.188z M864.418,1609.089     c-2.88,0-2.88-1.438-2.88-3.479c0-1.92,0-3.42,2.88-3.42h2.7c2.04,0,2.88,0.54,2.88,2.76v1.38c0,2.4-0.96,2.761-2.88,2.761     L864.418,1609.089z"/>
		</g>
		<g i:knockout="Off">
			<path i:knockout="Off" d="M458.515,481.7c2.76,0,2.82,1.5,2.82,2.88v0.54c0,2.1-0.6,2.88-2.88,2.88h-20.82     c-2.22,0-2.88-0.72-2.88-2.88v-35.88c0-2.22,0.72-2.88,2.88-2.88h3.06c2.46,0,2.88,0.96,2.88,2.88v32.7L458.515,481.7z"/>
			<path i:knockout="Off" d="M494.128,485.12c0,2.1-0.6,2.88-2.88,2.88h-2.22c-2.46,0-2.88-0.96-2.88-2.88v-1.56     c-2.82,5.1-7.08,5.1-8.7,5.1c-6.24,0-9.72-1.8-9.72-8.22V463.4c0-2.22,0.72-2.88,2.88-2.88h2.4c2.46,0,2.88,0.96,2.88,2.88v17.58     c0,3.18,0.36,4.02,3.72,4.02c4.26,0,6.36-3.42,6.36-7.38V463.4c0-2.1,0.6-2.88,2.88-2.88h2.4c2.46,0,2.88,0.96,2.88,2.88V485.12z     "/>
			<path i:knockout="Off" d="M527.794,485.12c0,2.1-0.6,2.88-2.88,2.88h-2.4c-2.46,0-2.88-0.96-2.88-2.88v-16.5     c0-3.06-0.6-4.44-3.48-4.44c-3.12,0-6.6,2.46-6.6,7.68v13.26c0,2.1-0.6,2.88-2.88,2.88h-2.4c-2.22,0-2.88-0.72-2.88-2.88v-22.08     c0-2.22,0.72-2.88,2.88-2.88h2.04c2.46,0,2.88,0.96,2.88,2.88v3h0.06c0.78-1.62,3.48-6.18,9.78-6.18c6.12,0,8.76,2.46,8.76,8.64     V485.12z"/>
			<path i:knockout="Off" d="M546.339,482.48c8.1,0,16.56,0,16.56,9.36c0,8.52-11.46,8.52-15,8.52c-2.82,0-6.84-0.06-10.26-1.62     c-3.78-1.74-4.68-4.86-4.68-6.72c0-3.84,3.12-4.92,4.02-5.28c-1.26-1.62-1.62-3.602-1.62-4.74c0-0.3,0-2.64,1.62-4.86     c-2.28-1.98-2.94-4.98-2.94-7.38c0-9.9,9.54-9.9,12.06-9.9c2.58,0,5.7,0.24,8.52,2.1c2.28-1.38,5.28-2.1,7.14-2.1     c1.08,0,1.08,0.12,1.32,1.56c0.12,0.6,0.42,2.04,0.42,2.28c0,0.42-0.3,0.78-0.78,0.78c-0.18,0-0.6-0.12-0.84-0.24     c-2.46-0.66-4.56-0.66-5.58-0.66c0.54,0.66,1.86,2.76,1.86,6.24c0,9.9-9.54,9.9-12.06,9.9c-1.26,0-4.8,0-7.62-1.56     c-0.06,0.36-0.12,0.48-0.12,0.9c0,1.56,1.02,2.46,1.26,2.7c0.84,0.72,1.68,0.72,3.84,0.72H546.339z M542.379,489.02     c-1.38,0-3.24,0-3.24,2.82c0,4.2,6.42,4.2,8.82,4.2c1.92,0,8.76,0,8.76-4.02c0-2.16-2.52-3-7.38-3H542.379z M550.479,469.76     c0-3.3-0.18-5.58-4.38-5.58c-4.2,0-4.38,2.34-4.38,5.642c0,3.3,0.18,5.58,4.38,5.58C550.299,475.4,550.479,473.06,550.479,469.76     z"/>
			<path i:knockout="Off" d="M573.999,475.16c0.18,3.84,0.9,9.18,7.68,9.18c1.92,0,5.52-0.42,9.06-3.48c0.66-0.6,0.78-0.6,1.02-0.6     c0.54,0,0.6,0.06,0.84,1.92c0.06,0.48,0.24,2.22,0.24,2.642c0,0.72-0.42,0.898-1.74,1.56c-3.96,1.98-7.38,2.28-9.66,2.28     c-9.42,0-15.12-4.8-15.12-14.64c0-9.12,4.74-14.52,14.34-14.52c8.94,0,12.54,5.16,12.54,12.9c0,2.7-1.5,2.76-2.88,2.76     L573.999,475.16z M586.539,471.98c-0.18-4.68-1.08-8.16-5.88-8.16c-5.22,0-6.42,4.5-6.6,8.16H586.539z"/>
		</g>
		<g i:knockout="Off">
			<path i:knockout="Off" d="M1214.515,481.7c2.763,0,2.82,1.5,2.82,2.88v0.54c0,2.1-0.6,2.88-2.88,2.88h-20.82     c-2.22,0-2.88-0.72-2.88-2.88v-35.88c0-2.22,0.72-2.88,2.88-2.88h3.063c2.46,0,2.88,0.96,2.88,2.88v32.7L1214.515,481.7z"/>
			<path i:knockout="Off" d="M1250.128,485.12c0,2.1-0.6,2.88-2.88,2.88h-2.22c-2.46,0-2.88-0.96-2.88-2.88v-1.56     c-2.82,5.1-7.08,5.1-8.7,5.1c-6.24,0-9.721-1.8-9.721-8.22V463.4c0-2.22,0.721-2.88,2.88-2.88h2.398     c2.46,0,2.881,0.96,2.881,2.88v17.58c0,3.18,0.359,4.02,3.722,4.02c4.26,0,6.358-3.42,6.358-7.38V463.4     c0-2.1,0.602-2.88,2.881-2.88h2.398c2.46,0,2.88,0.96,2.88,2.88L1250.128,485.12z"/>
			<path i:knockout="Off" d="M1283.794,485.12c0,2.1-0.601,2.88-2.88,2.88h-2.4c-2.46,0-2.88-0.96-2.88-2.88v-16.5     c0-3.06-0.6-4.44-3.479-4.44c-3.119,0-6.602,2.46-6.602,7.68v13.26c0,2.1-0.6,2.88-2.88,2.88h-2.398     c-2.222,0-2.881-0.72-2.881-2.88v-22.08c0-2.22,0.721-2.88,2.881-2.88h2.04c2.46,0,2.88,0.96,2.88,2.88v3h0.061     c0.779-1.62,3.479-6.18,9.78-6.18c6.119,0,8.76,2.46,8.76,8.64L1283.794,485.12z"/>
			<path i:knockout="Off" d="M1302.34,482.48c8.1,0,16.562,0,16.562,9.36c0,8.52-11.46,8.52-15,8.52c-2.82,0-6.841-0.06-10.262-1.62     c-3.778-1.74-4.681-4.86-4.681-6.72c0-3.84,3.12-4.92,4.021-5.28c-1.262-1.62-1.62-3.602-1.62-4.74c0-0.3,0-2.64,1.62-4.86     c-2.28-1.98-2.94-4.98-2.94-7.38c0-9.9,9.54-9.9,12.062-9.9c2.579,0,5.699,0.24,8.521,2.1c2.28-1.38,5.28-2.1,7.141-2.1     c1.08,0,1.08,0.12,1.32,1.56c0.119,0.6,0.42,2.04,0.42,2.28c0,0.42-0.301,0.78-0.78,0.78c-0.18,0-0.601-0.12-0.84-0.24     c-2.46-0.66-4.561-0.66-5.58-0.66c0.54,0.66,1.859,2.76,1.859,6.24c0,9.9-9.54,9.9-12.061,9.9c-1.261,0-4.801,0-7.619-1.56     c-0.063,0.36-0.12,0.48-0.12,0.9c0,1.56,1.021,2.46,1.26,2.7c0.84,0.72,1.681,0.72,3.84,0.72H1302.34z M1298.38,489.02     c-1.381,0-3.24,0-3.24,2.82c0,4.2,6.421,4.2,8.82,4.2c1.92,0,8.76,0,8.76-4.02c0-2.16-2.521-3-7.38-3H1298.38z M1306.479,469.76     c0-3.3-0.18-5.58-4.38-5.58c-4.198,0-4.38,2.34-4.38,5.642c0,3.3,0.182,5.58,4.38,5.58     C1306.299,475.4,1306.479,473.06,1306.479,469.76z"/>
			<path i:knockout="Off" d="M1329.999,475.16c0.18,3.84,0.899,9.18,7.68,9.18c1.921,0,5.521-0.42,9.063-3.48     c0.659-0.6,0.779-0.6,1.02-0.6c0.54,0,0.602,0.06,0.841,1.92c0.062,0.48,0.239,2.22,0.239,2.642c0,0.72-0.42,0.898-1.739,1.56     c-3.959,1.98-7.381,2.28-9.659,2.28c-9.421,0-15.12-4.8-15.12-14.64c0-9.12,4.74-14.52,14.341-14.52     c8.938,0,12.54,5.16,12.54,12.9c0,2.7-1.5,2.76-2.881,2.76L1329.999,475.16z M1342.539,471.98c-0.181-4.68-1.08-8.16-5.88-8.16     c-5.221,0-6.421,4.5-6.601,8.16H1342.539z"/>
		</g>
		<g i:knockout="Off">
			<path i:knockout="Off" d="M882.279,78.011c5.52-0.12,13.858-0.24,19.141-0.24c2.04,0,3.42,0,3.42,2.88v0.54     c0,2.1-0.601,2.88-2.88,2.88h-27.541c-2.22,0-2.88-0.72-2.88-2.88v-0.48c0-1.2,0-1.32,0.6-2.1l21.72-30.48h-2.102     c-5.22,0-10.44,0.18-15.66,0.18c-2.4,0-3.66,0-3.66-2.94c0-1.92,0.36-2.94,2.88-2.94h26.28c2.82,0,2.881,1.38,2.881,3     c0,1.32,0,1.44-0.601,2.22L882.279,78.011z"/>
			<path i:knockout="Off" d="M938.212,81.191c0,2.1-0.6,2.88-2.88,2.88h-2.22c-2.46,0-2.88-0.96-2.88-2.88v-1.56     c-2.82,5.1-7.08,5.1-8.7,5.1c-6.24,0-9.722-1.8-9.722-8.22v-17.04c0-2.22,0.722-2.88,2.882-2.88h2.397     c2.46,0,2.88,0.96,2.88,2.88v17.58c0,3.18,0.36,4.021,3.723,4.021c4.26,0,6.357-3.42,6.357-7.38v-14.22     c0-2.1,0.603-2.88,2.88-2.88h2.4c2.46,0,2.88,0.96,2.88,2.88L938.212,81.191z"/>
			<path i:knockout="Off" d="M990.238,81.191c0,2.1-0.603,2.88-2.88,2.88h-2.4c-2.22,0-2.88-0.72-2.88-2.88v-16.5     c0-3.18-0.66-4.44-3.54-4.44c-2.94,0-6.601,2.28-6.601,7.68v13.26c0,2.1-0.602,2.88-2.882,2.88h-2.397     c-2.221,0-2.88-0.72-2.88-2.88v-16.5c0-3.18-0.66-4.44-3.54-4.44c-2.94,0-6.603,2.28-6.603,7.68v13.26c0,2.1-0.6,2.88-2.88,2.88     h-2.398c-2.222,0-2.881-0.72-2.881-2.88v-22.08c0-2.22,0.721-2.88,2.881-2.88h2.039c2.461,0,2.881,0.96,2.881,2.88v3h0.061     c0.42-0.9,1.62-2.82,3.479-4.2c2.698-1.98,5.221-1.98,6.358-1.98c2.521,0,7.62,0.18,8.58,5.94c2.16-3.96,5.46-5.94,9.72-5.94     c6.12,0,8.763,2.46,8.763,8.64V81.191z"/>
			<path i:knockout="Off" d="M1057.938,82.331c0,1.74-0.841,1.74-2.103,1.74h-3.6c-1.142,0-2.04,0-3-1.26l-13.44-18l-6.66,6.3v10.08     c0,2.1-0.6,2.88-2.88,2.88h-2.04c-2.22,0-2.88-0.72-2.88-2.88v-35.88c0-2.22,0.721-2.88,2.88-2.88h2.04     c2.46,0,2.88,0.96,2.88,2.88v16.56l19.32-18.24c1.261-1.2,2.46-1.2,3.479-1.2h3.659c0.841,0,2.04,0,2.04,1.26     c0,0.24,0,0.6-0.721,1.26l-15.779,14.82L1057.938,82.331z"/>
			<path i:knockout="Off" d="M1078.149,84.731c-9.421,0-14.58-4.38-14.58-14.16c0-9.66,4.62-15,14.64-15c9.78,0,14.58,5.16,14.58,15     C1092.789,80.411,1087.569,84.731,1078.149,84.731z M1084.63,69.851c0-4.68,0-9.96-6.479-9.96c-6.421,0-6.421,5.34-6.421,9.96     c0,4.8,0,10.2,6.479,10.2C1084.63,80.051,1084.63,74.591,1084.63,69.851z"/>
			<path i:knockout="Off" d="M1106.528,92.831c0,2.1-0.602,2.88-2.88,2.88h-2.399c-2.221,0-2.881-0.72-2.881-2.88v-33.36     c0-2.22,0.721-2.88,2.881-2.88h2.22c2.04,0,2.88,0.6,2.88,2.82c2.16-2.04,5.341-3.48,8.88-3.48c10.86,0,10.86,11.34,10.86,14.28     c0,3,0,14.52-12.72,14.52c-0.841,0-4.141,0-6.841-3V92.831z M1106.528,76.991c0,1.08,0,1.38,1.438,2.4     c0.721,0.54,1.801,1.02,3.182,1.02c6.778,0,6.778-7.68,6.778-10.08c0-2.64-0.06-9.72-6.18-9.72c-2.58,0-4.562,1.38-5.221,1.98     L1106.528,76.991z"/>
			<path i:knockout="Off" d="M1141.515,81.191c0,2.1-0.601,2.88-2.88,2.88h-2.221c-2.22,0-2.88-0.72-2.88-2.88v-20.28     c-1.32,0-3.36,0-3.36-2.16s2.103-2.16,3.36-2.16v-4.8c0-9,7.2-10.02,11.7-10.02c0.898,0,2.16,0,3.898,0.36     c2.04,0.42,2.102,0.48,2.102,1.92v2.76c0,0.96,0,1.56-0.78,1.56c-0.3,0-0.479-0.12-0.899-0.6c-1.199-1.14-2.398-1.68-4.318-1.68     c-3.9,0-3.9,2.4-3.9,3.96v6.54h3.063c0.72,0,2.88,0,2.88,2.16s-2.16,2.16-2.88,2.16h-2.882L1141.515,81.191z"/>
		</g>
		<g i:knockout="Off">
			<g i:knockout="On" a:adobe-knockout="true">
				<path i:isolated="yes" i:knockout="Off" fill="#FFFFFF" a:adobe-knockout="false" enable-background="new    " d="      M878.817,650.579c1.055,2.84,2.852,6.363,4.756,8.547l-4.756-1.72l-4.754,1.72C875.966,656.942,877.765,653.419,878.817,650.579      z"/>
			</g>
			<g i:knockout="On" a:adobe-knockout="true">
				
					<path i:isolated="yes" i:knockout="Off" fill="none" stroke="#000000" stroke-width="5" a:adobe-knockout="false" enable-background="new    " d="      M878.817,883.386V656.614"/>
				<path i:isolated="yes" i:knockout="Off" a:adobe-knockout="false" enable-background="new    " d="M878.817,626.438      c5.27,14.199,14.258,31.816,23.775,42.734l-23.775-8.599l-23.773,8.599C864.56,658.255,873.552,640.638,878.817,626.438z"/>
			</g>
		</g>
		<g i:knockout="Off">
			<g i:knockout="On" a:adobe-knockout="true">
				<path i:isolated="yes" i:knockout="Off" fill="#FFFFFF" a:adobe-knockout="false" enable-background="new    " d="      M846.692,537.39c-2.84,1.054-6.363,2.852-8.547,4.755l1.72-4.755l-1.72-4.755C840.329,534.538,843.853,536.336,846.692,537.39z"/>
			</g>
			<g i:knockout="On" a:adobe-knockout="true">
				
					<path i:isolated="yes" i:knockout="Off" fill="none" stroke="#000000" stroke-width="5" a:adobe-knockout="false" enable-background="new    " d="      M783.964,537.39h56.693"/>
				<path i:isolated="yes" i:knockout="Off" a:adobe-knockout="false" enable-background="new    " d="M870.833,537.39      c-14.2,5.269-31.817,14.258-42.735,23.774l8.599-23.774l-8.599-23.774C839.017,523.132,856.634,532.124,870.833,537.39z"/>
			</g>
		</g>
		<path i:isolated="yes" i:knockout="Off" fill="#0000FF" enable-background="new    " d="M782.767,996.267h-15.345V582.27h15.345    V996.267z"/>
		<path i:isolated="yes" i:knockout="Off" fill="none" stroke="#000000" stroke-width="5" enable-background="new    " d="    M600.357,582.279l167.064-0.01v416.152l4.845,4.845l75.177,75.177l5.77,5.77c-5.755,7.989-9.145,17.796-9.145,28.394l0.017,3.526    c0,8.292-2.075,16.099-5.735,22.93"/>
		<path i:isolated="yes" i:knockout="Off" fill="none" stroke="#000000" stroke-width="5" enable-background="new    " d="    M1016.602,582.279h18.479l140.92-0.033"/>
		<path i:isolated="yes" i:knockout="Off" fill="none" stroke="#000000" stroke-width="5" enable-background="new    " d="    M1000.059,582.27v407.297v2.004l-35.639,35.646l-39.206,39.206l-5.645,5.646c-17.747-11.787-37.544-11.245-54.555,0.552    l-8.121-8.121l-72.93-72.93v-409.3L950,582.279L1000.059,582.27z"/>
		<path i:isolated="yes" i:knockout="Off" fill="none" stroke="#000000" stroke-width="5" enable-background="new    " d="    M422.862,1525.456h-7.338H410l-87.581-0.003l-124.101,0.001c-114.029,0-152-89.635-152-152l0.004-11.188l-0.004-138.933V715.469    l0.001-61.369L46.318,530c0-114.028,89.635-152,152-152l11.188,0.004L348.439,378h445.708h83.681h28.347h8.11h13.414h72.357v2.303    V582.27"/>
	</g>
</svg>