<?xml version="1.0" encoding="utf-8"?>
<!-- Generator: Adobe Illustrator 12.0.1, SVG Export Plug-In . SVG Version: 6.00 Build 51448)  -->
<!DOCTYPE svg PUBLIC "-//W3C//DTD SVG 1.1//EN" "http://www.w3.org/Graphics/SVG/1.1/DTD/svg11.dtd" [
	<!ENTITY ns_svg "http://www.w3.org/2000/svg">
	<!ENTITY ns_xlink "http://www.w3.org/1999/xlink">
]>
<svg  version="1.1" xmlns="&ns_svg;" xmlns:xlink="&ns_xlink;" width="581.259" height="454.232" viewBox="0 0 581.259 454.232"
	 overflow="visible" enable-background="new 0 0 581.259 454.232" xml:space="preserve">
<g id="Ebene_3">
	<path opacity="0.3" fill="#BD1220" d="M153.976,428.594c0,14.157-14.59,25.638-32.592,25.638h-19.503
		c-18.001,0-32.591-11.48-32.591-25.638V25.639c0-14.161,14.59-25.638,32.591-25.638h19.503c18.001,0,32.592,11.477,32.592,25.638
		V428.594z"/>
	<path opacity="0.3" fill="#F29400" d="M238.662,428.595c0,14.156-14.591,25.636-32.591,25.636h-19.503
		c-18,0-32.591-11.479-32.591-25.636V25.639c0-14.16,14.592-25.638,32.591-25.638h19.503c18,0,32.591,11.478,32.591,25.638V428.595z
		"/>
	<path opacity="0.3" fill="#FFEC00" d="M238.662,430.003c0,13.379,13.789,24.228,30.795,24.228l0,0
		c17.008,0,30.796-10.849,30.796-24.228V24.226c0-13.378-13.788-24.225-30.796-24.225l0,0c-17.007,0-30.795,10.847-30.795,24.225
		V430.003z"/>
	<path opacity="0.3" fill="#97BE0D" d="M357.995,431.519c0,12.544-12.927,22.712-28.871,22.712l0,0
		c-15.944,0-28.87-10.168-28.87-22.712V22.713c0-12.542,12.926-22.712,28.87-22.712l0,0c15.944,0,28.871,10.17,28.871,22.712
		V431.519z"/>
	<path opacity="0.3" fill="#0086CB" d="M357.995,36.979c0-20.421,14.591-36.978,32.592-36.978h46.448
		c18,0,32.591,16.556,32.591,36.978v380.275c0,20.421-14.591,36.978-32.591,36.978h-46.448c-18.001,0-32.592-16.557-32.592-36.978
		V36.979z"/>
	<path opacity="0.3" fill="#BD007B" d="M515.82,436.057c0,10.039-10.341,18.174-23.097,18.174l0,0
		c-12.757,0-23.098-8.135-23.098-18.174V18.169C469.626,8.134,479.967,0,492.724,0l0,0c12.756,0,23.097,8.134,23.097,18.169V436.057
		z"/>
	<path opacity="0.3" d="M238.662,410.446c0-14.086-14.591-25.506-32.591-25.506H101.88c-18,0-32.591,11.419-32.591,25.506v18.277
		c0,14.085,14.591,25.506,32.591,25.506h104.19c18,0,32.591-11.421,32.591-25.506V410.446z"/>
	<path opacity="0.3" d="M469.626,410.448c0-14.086-14.591-25.506-32.591-25.506h-165.78c-18,0-32.593,11.42-32.593,25.506v18.275
		c0,14.085,14.592,25.506,32.593,25.506h165.78c18,0,32.591-11.421,32.591-25.506V410.448z"/>
	<g>
		<path d="M107.549,22.477c1.255-0.239,2.898-0.418,4.989-0.418c2.569,0,4.452,0.598,5.646,1.673
			c1.105,0.956,1.792,2.42,1.792,4.213c0,1.822-0.538,3.256-1.583,4.302c-1.374,1.464-3.615,2.211-6.154,2.211
			c-0.777,0-1.494-0.03-2.091-0.179v8.066h-2.599V22.477z M110.148,32.156c0.568,0.149,1.314,0.209,2.151,0.209
			c3.167,0,5.049-1.554,5.049-4.272c0-2.688-1.882-3.973-4.75-3.973c-1.135,0-2.001,0.12-2.45,0.209V32.156z"/>
		<path d="M100.257,58.64l-2.322-9.153h1.25l1.086,4.631c0.271,1.154,0.516,2.281,0.679,3.164h0.027
			c0.149-0.91,0.435-1.996,0.747-3.178l1.222-4.617h1.235l1.114,4.645c0.258,1.1,0.502,2.172,0.638,3.137h0.027
			c0.19-1.005,0.448-2.023,0.733-3.164l1.208-4.617h1.208l-2.594,9.153h-1.236l-1.154-4.753c-0.285-1.182-0.475-2.078-0.597-3.001
			h-0.027c-0.149,0.923-0.367,1.806-0.706,2.987l-1.304,4.767H100.257z"/>
		<path d="M110.429,55.557c0.027,1.616,1.045,2.281,2.241,2.281c0.855,0,1.385-0.149,1.819-0.326l0.217,0.842
			c-0.421,0.19-1.154,0.421-2.2,0.421c-2.01,0-3.232-1.344-3.232-3.313c0-1.996,1.181-3.558,3.096-3.558
			c2.146,0,2.702,1.888,2.702,3.097c0,0.244-0.013,0.434-0.041,0.57L110.429,55.557z M113.918,54.702
			c0.014-0.747-0.312-1.942-1.643-1.942c-1.222,0-1.738,1.113-1.833,1.942H113.918z"/>
		<path d="M116.553,48.998h1.195v9.642h-1.195V48.998z"/>
		<path d="M119.73,48.998h1.195v9.642h-1.195V48.998z"/>
		<path d="M123.587,55.557c0.027,1.616,1.045,2.281,2.241,2.281c0.855,0,1.385-0.149,1.819-0.326l0.217,0.842
			c-0.421,0.19-1.154,0.421-2.2,0.421c-2.01,0-3.232-1.344-3.232-3.313c0-1.996,1.181-3.558,3.096-3.558
			c2.146,0,2.702,1.888,2.702,3.097c0,0.244-0.013,0.434-0.041,0.57L123.587,55.557z M127.077,54.702
			c0.014-0.747-0.312-1.942-1.643-1.942c-1.222,0-1.738,1.113-1.833,1.942H127.077z"/>
	</g>
	<g>
		<path d="M179.643,22.477c1.255-0.239,2.898-0.418,4.989-0.418c2.569,0,4.452,0.598,5.646,1.673
			c1.105,0.956,1.792,2.42,1.792,4.213c0,1.822-0.538,3.256-1.583,4.302c-1.374,1.464-3.615,2.211-6.154,2.211
			c-0.777,0-1.494-0.03-2.091-0.179v8.066h-2.599V22.477z M182.242,32.156c0.568,0.149,1.314,0.209,2.151,0.209
			c3.167,0,5.049-1.554,5.049-4.272c0-2.688-1.882-3.973-4.75-3.973c-1.135,0-2.001,0.12-2.45,0.209V32.156z"/>
		<path d="M212.147,45.301c-2.719-0.717-5.377-1.523-7.708-2.33c-0.448-0.149-0.836-0.299-1.225-0.299
			c-4.81-0.179-8.873-3.705-8.873-10.188c0-6.453,3.914-10.606,9.351-10.606c5.497,0,9.052,4.242,9.052,10.188
			c0,5.168-2.39,8.455-5.736,9.65v0.12c2.002,0.508,4.183,0.986,5.886,1.285L212.147,45.301z M203.543,40.551
			c4.123,0,6.453-3.794,6.453-8.365c0-4.033-2.091-8.186-6.364-8.186c-4.392,0-6.542,4.063-6.542,8.425
			c0,4.272,2.33,8.126,6.423,8.126H203.543z"/>
		<path d="M175.67,57.2c0.529,0.339,1.29,0.598,2.105,0.598c1.208,0,1.915-0.625,1.915-1.562c0-0.842-0.489-1.344-1.725-1.806
			c-1.494-0.543-2.417-1.331-2.417-2.607c0-1.426,1.182-2.485,2.96-2.485c0.924,0,1.616,0.217,2.01,0.448l-0.326,0.964
			c-0.285-0.176-0.896-0.434-1.725-0.434c-1.25,0-1.725,0.747-1.725,1.372c0,0.855,0.557,1.276,1.82,1.765
			c1.548,0.611,2.322,1.344,2.322,2.689c0,1.412-1.032,2.648-3.191,2.648c-0.883,0-1.847-0.271-2.336-0.598L175.67,57.2z"/>
		<path d="M183.858,50.492v1.575h1.711v0.91h-1.711v3.544c0,0.815,0.231,1.277,0.896,1.277c0.326,0,0.516-0.027,0.692-0.082
			l0.054,0.91c-0.23,0.082-0.597,0.163-1.059,0.163c-0.557,0-1.005-0.19-1.29-0.502c-0.326-0.367-0.462-0.951-0.462-1.725v-3.585
			h-1.018v-0.91h1.018v-1.208L183.858,50.492z"/>
		<path d="M186.927,54.118c0-0.774-0.014-1.439-0.054-2.051h1.045l0.055,1.29h0.041c0.299-0.882,1.032-1.439,1.833-1.439
			c0.123,0,0.218,0.014,0.326,0.041v1.113c-0.136-0.014-0.258-0.027-0.421-0.027c-0.842,0-1.439,0.638-1.603,1.521
			c-0.027,0.176-0.041,0.366-0.041,0.57v3.503h-1.195L186.927,54.118z"/>
		<path d="M191.952,55.557c0.027,1.616,1.045,2.281,2.241,2.281c0.855,0,1.385-0.149,1.819-0.326l0.217,0.842
			c-0.421,0.19-1.154,0.421-2.2,0.421c-2.01,0-3.232-1.344-3.232-3.313c0-1.996,1.181-3.558,3.096-3.558
			c2.146,0,2.702,1.888,2.702,3.097c0,0.244-0.013,0.434-0.041,0.57L191.952,55.557z M195.442,54.702
			c0.014-0.747-0.312-1.942-1.643-1.942c-1.222,0-1.738,1.113-1.833,1.942H195.442z"/>
		<path d="M202.761,58.409c-0.312,0.149-1.005,0.38-1.888,0.38c-1.982,0-3.272-1.344-3.272-3.368s1.385-3.504,3.531-3.504
			c0.706,0,1.331,0.177,1.657,0.353l-0.271,0.91c-0.285-0.149-0.733-0.313-1.385-0.313c-1.507,0-2.322,1.127-2.322,2.499
			c0,1.521,0.978,2.458,2.281,2.458c0.679,0,1.127-0.163,1.467-0.312L202.761,58.409z"/>
		<path d="M205.355,55.082h0.027c0.163-0.23,0.38-0.529,0.57-0.747l1.942-2.268h1.426l-2.54,2.703l2.893,3.87h-1.453l-2.254-3.164
			l-0.611,0.692v2.472h-1.195v-9.642h1.195V55.082z"/>
		<path d="M211.303,55.557c0.027,1.616,1.045,2.281,2.241,2.281c0.855,0,1.385-0.149,1.819-0.326l0.217,0.842
			c-0.421,0.19-1.154,0.421-2.2,0.421c-2.01,0-3.232-1.344-3.232-3.313c0-1.996,1.181-3.558,3.096-3.558
			c2.146,0,2.702,1.888,2.702,3.097c0,0.244-0.013,0.434-0.041,0.57L211.303,55.557z M214.792,54.702
			c0.014-0.747-0.312-1.942-1.643-1.942c-1.222,0-1.738,1.113-1.833,1.942H214.792z"/>
	</g>
	<g>
		<path d="M262.646,45.303c-2.719-0.717-5.377-1.523-7.708-2.33c-0.448-0.149-0.836-0.299-1.225-0.299
			c-4.81-0.179-8.873-3.705-8.873-10.188c0-6.453,3.914-10.606,9.351-10.606c5.497,0,9.052,4.242,9.052,10.188
			c0,5.168-2.39,8.455-5.736,9.65v0.12c2.002,0.508,4.183,0.986,5.886,1.285L262.646,45.303z M254.042,40.553
			c4.123,0,6.453-3.794,6.453-8.365c0-4.033-2.091-8.186-6.364-8.186c-4.392,0-6.542,4.063-6.542,8.425
			c0,4.272,2.33,8.126,6.423,8.126H254.042z"/>
		<path d="M266.619,22.508c1.314-0.269,3.227-0.448,4.989-0.448c2.778,0,4.601,0.538,5.855,1.673
			c0.986,0.867,1.583,2.241,1.583,3.824c0,2.629-1.703,4.392-3.794,5.109v0.089c1.523,0.538,2.45,1.972,2.958,4.063
			c0.657,2.808,1.135,4.75,1.524,5.527h-2.689c-0.329-0.568-0.777-2.3-1.314-4.81c-0.598-2.778-1.703-3.824-4.063-3.914h-2.45v8.724
			h-2.599V22.508z M269.218,31.65h2.659c2.778,0,4.541-1.524,4.541-3.824c0-2.599-1.882-3.734-4.631-3.734
			c-1.255,0-2.121,0.119-2.569,0.239V31.65z"/>
		<path d="M282.364,39.179c1.165,0.747,2.838,1.314,4.631,1.314c2.659,0,4.212-1.374,4.212-3.436c0-1.852-1.076-2.958-3.794-3.974
			c-3.286-1.195-5.318-2.928-5.318-5.736c0-3.137,2.6-5.467,6.513-5.467c2.032,0,3.555,0.478,4.421,0.986l-0.717,2.121
			c-0.628-0.388-1.972-0.956-3.794-0.956c-2.749,0-3.794,1.643-3.794,3.018c0,1.882,1.225,2.808,4.003,3.884
			c3.405,1.344,5.108,2.958,5.108,5.916c0,3.107-2.271,5.826-7.021,5.826c-1.942,0-4.063-0.598-5.139-1.314L282.364,39.179z"/>
		<path d="M245.449,49.489h1.181v4.414h0.041c0.244-0.353,0.489-0.679,0.72-0.978l2.797-3.436h1.467l-3.314,3.884l3.572,5.269
			h-1.399l-3.001-4.495l-0.883,1.005v3.49h-1.181V49.489z"/>
		<path d="M255.43,58.791c-1.765,0-3.15-1.304-3.15-3.381c0-2.2,1.453-3.49,3.259-3.49c1.887,0,3.164,1.372,3.164,3.368
			c0,2.444-1.698,3.503-3.259,3.503H255.43z M255.471,57.895c1.141,0,1.996-1.073,1.996-2.566c0-1.114-0.557-2.512-1.969-2.512
			c-1.398,0-2.01,1.304-2.01,2.553c0,1.439,0.815,2.526,1.969,2.526H255.471z"/>
		<path d="M260.209,53.848c0-0.693-0.027-1.236-0.054-1.779h1.045l0.055,1.06h0.041c0.367-0.625,0.978-1.209,2.078-1.209
			c0.883,0,1.562,0.543,1.847,1.317h0.027c0.204-0.38,0.476-0.652,0.747-0.855c0.394-0.299,0.815-0.462,1.439-0.462
			c0.883,0,2.173,0.57,2.173,2.852v3.87h-1.168v-3.721c0-1.277-0.475-2.023-1.426-2.023c-0.693,0-1.208,0.502-1.426,1.073
			c-0.055,0.176-0.095,0.394-0.095,0.598v4.074h-1.168v-3.938c0-1.06-0.461-1.806-1.372-1.806c-0.733,0-1.29,0.597-1.48,1.195
			c-0.068,0.177-0.095,0.38-0.095,0.584v3.965h-1.168V53.848z"/>
		<path d="M271.535,54.214c0-0.842-0.014-1.521-0.054-2.146h1.073l0.068,1.127h0.027c0.475-0.815,1.263-1.277,2.322-1.277
			c1.602,0,2.797,1.345,2.797,3.341c0,2.363-1.453,3.531-2.988,3.531c-0.883,0-1.629-0.38-2.023-1.032h-0.027v3.572h-1.195V54.214z
			 M272.73,55.966c0,0.163,0.013,0.339,0.054,0.489c0.204,0.829,0.937,1.399,1.779,1.399c1.263,0,1.996-1.032,1.996-2.54
			c0-1.317-0.679-2.444-1.942-2.444c-0.814,0-1.588,0.57-1.819,1.467c-0.027,0.163-0.068,0.339-0.068,0.489V55.966z"/>
		<path d="M279.262,49h1.195v9.642h-1.195V49z"/>
		<path d="M283.119,55.559c0.027,1.616,1.045,2.281,2.241,2.281c0.855,0,1.385-0.149,1.819-0.326l0.217,0.842
			c-0.421,0.19-1.154,0.421-2.2,0.421c-2.01,0-3.232-1.344-3.232-3.313c0-1.996,1.181-3.558,3.096-3.558
			c2.146,0,2.702,1.888,2.702,3.097c0,0.244-0.013,0.434-0.041,0.57L283.119,55.559z M286.608,54.704
			c0.014-0.747-0.312-1.942-1.643-1.942c-1.222,0-1.738,1.113-1.833,1.942H286.608z"/>
		<path d="M289.759,52.069l0.938,1.399c0.244,0.38,0.448,0.706,0.665,1.073h0.041c0.217-0.38,0.435-0.72,0.665-1.073l0.91-1.399
			h1.304l-2.241,3.178l2.295,3.395h-1.357l-0.964-1.48c-0.259-0.38-0.476-0.747-0.707-1.141h-0.026
			c-0.218,0.394-0.448,0.747-0.692,1.141l-0.951,1.48h-1.317l2.336-3.354l-2.227-3.219H289.759z"/>
	</g>
	<g>
		<path d="M315.848,39.179c1.165,0.747,2.838,1.314,4.63,1.314c2.659,0,4.213-1.374,4.213-3.436c0-1.852-1.075-2.958-3.794-3.974
			c-3.287-1.195-5.318-2.928-5.318-5.736c0-3.137,2.6-5.467,6.513-5.467c2.032,0,3.556,0.478,4.422,0.986l-0.717,2.121
			c-0.628-0.388-1.972-0.956-3.794-0.956c-2.749,0-3.795,1.643-3.795,3.018c0,1.882,1.226,2.808,4.004,3.884
			c3.405,1.344,5.108,2.958,5.108,5.916c0,3.107-2.271,5.826-7.021,5.826c-1.942,0-4.063-0.598-5.139-1.314L315.848,39.179z"/>
		<path d="M334.729,24.42h-6.125v-2.211h14.908v2.211h-6.154v17.925h-2.629V24.42z"/>
		<path d="M308.752,57.202c0.529,0.339,1.29,0.598,2.104,0.598c1.209,0,1.915-0.625,1.915-1.562c0-0.842-0.489-1.344-1.725-1.806
			c-1.494-0.543-2.417-1.331-2.417-2.607c0-1.426,1.182-2.485,2.96-2.485c0.924,0,1.616,0.217,2.01,0.448l-0.326,0.964
			c-0.285-0.176-0.896-0.434-1.725-0.434c-1.249,0-1.725,0.747-1.725,1.372c0,0.855,0.558,1.276,1.82,1.765
			c1.548,0.611,2.322,1.344,2.322,2.689c0,1.412-1.032,2.648-3.191,2.648c-0.883,0-1.847-0.271-2.336-0.598L308.752,57.202z"/>
		<path d="M316.94,50.494v1.575h1.711v0.91h-1.711v3.544c0,0.815,0.231,1.277,0.896,1.277c0.326,0,0.516-0.027,0.692-0.082
			l0.055,0.91c-0.231,0.082-0.598,0.163-1.06,0.163c-0.557,0-1.005-0.19-1.29-0.502c-0.326-0.367-0.462-0.951-0.462-1.725v-3.585
			h-1.019v-0.91h1.019V50.86L316.94,50.494z"/>
		<path d="M320.01,54.12c0-0.774-0.014-1.439-0.055-2.051h1.046l0.055,1.29h0.04c0.299-0.882,1.032-1.439,1.834-1.439
			c0.122,0,0.217,0.014,0.326,0.041v1.113c-0.137-0.014-0.259-0.027-0.422-0.027c-0.842,0-1.439,0.638-1.602,1.521
			c-0.027,0.176-0.041,0.366-0.041,0.57v3.503h-1.195L320.01,54.12z"/>
		<path d="M325.033,55.559c0.027,1.616,1.046,2.281,2.241,2.281c0.855,0,1.385-0.149,1.819-0.326l0.218,0.842
			c-0.421,0.19-1.154,0.421-2.2,0.421c-2.01,0-3.232-1.344-3.232-3.313c0-1.996,1.182-3.558,3.097-3.558
			c2.146,0,2.702,1.888,2.702,3.097c0,0.244-0.014,0.434-0.041,0.57L325.033,55.559z M328.523,54.704
			c0.014-0.747-0.313-1.942-1.643-1.942c-1.223,0-1.738,1.113-1.834,1.942H328.523z"/>
		<path d="M335.844,58.411c-0.313,0.149-1.005,0.38-1.888,0.38c-1.983,0-3.273-1.344-3.273-3.368s1.386-3.504,3.531-3.504
			c0.706,0,1.331,0.177,1.656,0.353l-0.271,0.91c-0.285-0.149-0.733-0.313-1.385-0.313c-1.508,0-2.322,1.127-2.322,2.499
			c0,1.521,0.978,2.458,2.281,2.458c0.679,0,1.127-0.163,1.467-0.312L335.844,58.411z"/>
		<path d="M338.438,55.083h0.027c0.162-0.23,0.38-0.529,0.57-0.747l1.941-2.268h1.426l-2.539,2.703l2.893,3.87h-1.453l-2.254-3.164
			l-0.611,0.692v2.472h-1.195V49h1.195V55.083z"/>
		<path d="M344.385,55.559c0.027,1.616,1.046,2.281,2.241,2.281c0.855,0,1.385-0.149,1.819-0.326l0.218,0.842
			c-0.421,0.19-1.154,0.421-2.2,0.421c-2.01,0-3.232-1.344-3.232-3.313c0-1.996,1.182-3.558,3.097-3.558
			c2.146,0,2.702,1.888,2.702,3.097c0,0.244-0.014,0.434-0.041,0.57L344.385,55.559z M347.875,54.704
			c0.014-0.747-0.313-1.942-1.643-1.942c-1.223,0-1.738,1.113-1.834,1.942H347.875z"/>
	</g>
	<g>
		<path d="M412.463,24.42h-6.125v-2.211h14.908v2.211h-6.154v17.925h-2.629V24.42z"/>
		<path d="M400.823,58.642l-2.321-9.153h1.249l1.086,4.631c0.271,1.154,0.517,2.281,0.68,3.164h0.026
			c0.149-0.91,0.435-1.996,0.747-3.178l1.223-4.617h1.235l1.113,4.645c0.259,1.1,0.503,2.172,0.639,3.137h0.027
			c0.19-1.005,0.448-2.023,0.733-3.164l1.208-4.617h1.209l-2.594,9.153h-1.235l-1.154-4.753c-0.285-1.182-0.476-2.078-0.598-3.001
			h-0.027c-0.149,0.923-0.367,1.806-0.706,2.987l-1.304,4.767H400.823z"/>
		<path d="M410.994,55.559c0.027,1.616,1.046,2.281,2.241,2.281c0.855,0,1.385-0.149,1.819-0.326l0.218,0.842
			c-0.421,0.19-1.154,0.421-2.2,0.421c-2.01,0-3.232-1.344-3.232-3.313c0-1.996,1.182-3.558,3.097-3.558
			c2.146,0,2.702,1.888,2.702,3.097c0,0.244-0.014,0.434-0.041,0.57L410.994,55.559z M414.484,54.704
			c0.014-0.747-0.313-1.942-1.643-1.942c-1.223,0-1.738,1.113-1.834,1.942H414.484z"/>
		<path d="M417.119,49h1.195v9.642h-1.195V49z"/>
		<path d="M420.297,49h1.195v9.642h-1.195V49z"/>
		<path d="M424.153,55.559c0.027,1.616,1.046,2.281,2.241,2.281c0.855,0,1.385-0.149,1.819-0.326l0.218,0.842
			c-0.421,0.19-1.154,0.421-2.2,0.421c-2.01,0-3.232-1.344-3.232-3.313c0-1.996,1.182-3.558,3.097-3.558
			c2.146,0,2.702,1.888,2.702,3.097c0,0.244-0.014,0.434-0.041,0.57L424.153,55.559z M427.644,54.704
			c0.014-0.747-0.313-1.942-1.643-1.942c-1.223,0-1.738,1.113-1.834,1.942H427.644z"/>
	</g>
	<g>
		<path d="M487.762,22.209v11.95c0,4.481,2.001,6.394,4.69,6.394c2.957,0,4.899-1.972,4.899-6.394v-11.95h2.629V33.98
			c0,6.184-3.257,8.694-7.618,8.694c-4.123,0-7.23-2.33-7.23-8.604V22.209H487.762z"/>
		<path d="M479.588,58.642l-2.321-9.153h1.249l1.086,4.631c0.271,1.154,0.517,2.281,0.68,3.164h0.026
			c0.149-0.91,0.435-1.996,0.747-3.178l1.223-4.617h1.235l1.114,4.645c0.258,1.1,0.502,2.172,0.638,3.137h0.027
			c0.19-1.005,0.448-2.023,0.733-3.164l1.208-4.617h1.209l-2.594,9.153h-1.235l-1.154-4.753c-0.285-1.182-0.476-2.078-0.598-3.001
			h-0.027c-0.149,0.923-0.367,1.806-0.706,2.987l-1.304,4.767H479.588z"/>
		<path d="M489.759,55.559c0.027,1.616,1.046,2.281,2.241,2.281c0.855,0,1.385-0.149,1.819-0.326l0.218,0.842
			c-0.421,0.19-1.154,0.421-2.2,0.421c-2.01,0-3.232-1.344-3.232-3.313c0-1.996,1.182-3.558,3.097-3.558
			c2.146,0,2.702,1.888,2.702,3.097c0,0.244-0.014,0.434-0.041,0.57L489.759,55.559z M493.249,54.704
			c0.014-0.747-0.313-1.942-1.643-1.942c-1.223,0-1.738,1.113-1.834,1.942H493.249z"/>
		<path d="M495.884,49h1.195v9.642h-1.195V49z"/>
		<path d="M499.062,49h1.195v9.642h-1.195V49z"/>
		<path d="M502.918,55.559c0.027,1.616,1.046,2.281,2.241,2.281c0.855,0,1.385-0.149,1.819-0.326l0.218,0.842
			c-0.421,0.19-1.154,0.421-2.2,0.421c-2.01,0-3.232-1.344-3.232-3.313c0-1.996,1.182-3.558,3.097-3.558
			c2.146,0,2.702,1.888,2.702,3.097c0,0.244-0.014,0.434-0.041,0.57L502.918,55.559z M506.408,54.704
			c0.014-0.747-0.313-1.942-1.643-1.942c-1.223,0-1.738,1.113-1.834,1.942H506.408z"/>
	</g>
	<g>
		<path d="M138.008,403.569c1.255-0.239,2.898-0.418,4.989-0.418c2.569,0,4.452,0.598,5.646,1.673
			c1.105,0.956,1.792,2.42,1.792,4.212c0,1.822-0.538,3.257-1.583,4.303c-1.374,1.464-3.615,2.211-6.154,2.211
			c-0.777,0-1.494-0.03-2.091-0.18v8.066h-2.599V403.569z M140.607,413.249c0.568,0.149,1.314,0.209,2.151,0.209
			c3.167,0,5.049-1.554,5.049-4.272c0-2.688-1.882-3.974-4.75-3.974c-1.135,0-2.001,0.12-2.45,0.21V413.249z"/>
		<path d="M170.512,426.394c-2.719-0.718-5.377-1.524-7.708-2.331c-0.448-0.149-0.836-0.298-1.225-0.298
			c-4.81-0.18-8.873-3.705-8.873-10.188c0-6.453,3.914-10.605,9.351-10.605c5.497,0,9.052,4.242,9.052,10.188
			c0,5.169-2.39,8.455-5.736,9.65v0.119c2.002,0.508,4.183,0.985,5.886,1.284L170.512,426.394z M161.908,421.643
			c4.123,0,6.453-3.794,6.453-8.365c0-4.033-2.091-8.186-6.364-8.186c-4.392,0-6.542,4.063-6.542,8.425
			c0,4.272,2.33,8.126,6.423,8.126H161.908z"/>
		<path d="M137.851,430.702c0.733-0.109,1.589-0.19,2.526-0.19c1.697,0,2.906,0.38,3.707,1.127c0.829,0.747,1.304,1.82,1.304,3.3
			c0,1.494-0.475,2.716-1.317,3.559c-0.869,0.855-2.282,1.316-4.061,1.316c-0.855,0-1.548-0.026-2.159-0.108V430.702z
			 M139.045,438.808c0.299,0.055,0.733,0.055,1.195,0.055c2.526,0.014,3.897-1.412,3.897-3.884c0.013-2.187-1.209-3.531-3.708-3.531
			c-0.611,0-1.073,0.055-1.385,0.123V438.808z"/>
		<path d="M151.471,438.157c0,0.57,0.027,1.127,0.095,1.575h-1.073l-0.109-0.828h-0.041c-0.354,0.516-1.073,0.978-2.01,0.978
			c-1.331,0-2.01-0.938-2.01-1.888c0-1.589,1.413-2.458,3.952-2.444v-0.136c0-0.543-0.149-1.534-1.494-1.521
			c-0.625,0-1.263,0.176-1.725,0.488l-0.271-0.801c0.543-0.34,1.344-0.57,2.173-0.57c2.023,0,2.512,1.371,2.512,2.688V438.157z
			 M150.303,436.377c-1.304-0.027-2.784,0.204-2.784,1.48c0,0.788,0.516,1.141,1.113,1.141c0.869,0,1.426-0.543,1.616-1.1
			c0.041-0.122,0.054-0.258,0.054-0.381V436.377z"/>
		<path d="M158.885,437.939c0,0.68,0.014,1.277,0.054,1.793h-1.059l-0.068-1.073h-0.027c-0.299,0.53-1.005,1.223-2.173,1.223
			c-1.032,0-2.268-0.584-2.268-2.879v-3.843h1.195v3.625c0,1.25,0.394,2.105,1.467,2.105c0.801,0,1.358-0.557,1.575-1.101
			c0.068-0.162,0.108-0.38,0.108-0.61v-4.02h1.195V437.939z"/>
		<path d="M161.547,436.649c0.027,1.616,1.045,2.282,2.241,2.282c0.855,0,1.385-0.149,1.819-0.326l0.217,0.842
			c-0.421,0.19-1.154,0.421-2.2,0.421c-2.01,0-3.232-1.345-3.232-3.313c0-1.996,1.181-3.558,3.096-3.558
			c2.146,0,2.702,1.888,2.702,3.096c0,0.245-0.013,0.435-0.041,0.57L161.547,436.649z M165.037,435.793
			c0.014-0.746-0.312-1.941-1.643-1.941c-1.222,0-1.738,1.113-1.833,1.941H165.037z"/>
		<path d="M167.685,435.209c0-0.773-0.014-1.439-0.054-2.05h1.045l0.055,1.29h0.041c0.299-0.883,1.032-1.439,1.833-1.439
			c0.123,0,0.218,0.014,0.326,0.04v1.114c-0.136-0.014-0.258-0.027-0.421-0.027c-0.842,0-1.439,0.638-1.603,1.521
			c-0.027,0.177-0.041,0.367-0.041,0.57v3.504h-1.195L167.685,435.209z"/>
	</g>
	<g>
		<path d="M351.836,426.394c-2.719-0.718-5.378-1.524-7.708-2.331c-0.448-0.149-0.837-0.298-1.226-0.298
			c-4.81-0.18-8.873-3.705-8.873-10.188c0-6.453,3.914-10.605,9.352-10.605c5.497,0,9.052,4.242,9.052,10.188
			c0,5.169-2.39,8.455-5.735,9.65v0.119c2.001,0.508,4.183,0.985,5.885,1.284L351.836,426.394z M343.231,421.643
			c4.123,0,6.453-3.794,6.453-8.365c0-4.033-2.092-8.186-6.363-8.186c-4.392,0-6.543,4.063-6.543,8.425
			c0,4.272,2.33,8.126,6.423,8.126H343.231z"/>
		<path d="M358.887,405.51h-6.125v-2.21h14.908v2.21h-6.154v17.926h-2.629V405.51z"/>
		<path d="M334.171,430.702c0.733-0.109,1.589-0.19,2.525-0.19c1.698,0,2.906,0.38,3.708,1.127c0.828,0.747,1.304,1.82,1.304,3.3
			c0,1.494-0.476,2.716-1.317,3.559c-0.869,0.855-2.281,1.316-4.061,1.316c-0.855,0-1.548-0.026-2.159-0.108V430.702z
			 M335.366,438.808c0.299,0.055,0.733,0.055,1.194,0.055c2.526,0.014,3.897-1.412,3.897-3.884c0.014-2.187-1.208-3.531-3.707-3.531
			c-0.611,0-1.073,0.055-1.385,0.123V438.808z"/>
		<path d="M347.791,438.157c0,0.57,0.027,1.127,0.095,1.575h-1.072l-0.108-0.828h-0.041c-0.354,0.516-1.073,0.978-2.01,0.978
			c-1.331,0-2.01-0.938-2.01-1.888c0-1.589,1.412-2.458,3.951-2.444v-0.136c0-0.543-0.149-1.534-1.493-1.521
			c-0.625,0-1.264,0.176-1.725,0.488l-0.272-0.801c0.544-0.34,1.345-0.57,2.173-0.57c2.023,0,2.513,1.371,2.513,2.688V438.157z
			 M346.623,436.377c-1.304-0.027-2.784,0.204-2.784,1.48c0,0.788,0.517,1.141,1.114,1.141c0.869,0,1.426-0.543,1.615-1.1
			c0.041-0.122,0.055-0.258,0.055-0.381V436.377z"/>
		<path d="M355.206,437.939c0,0.68,0.014,1.277,0.055,1.793h-1.06l-0.068-1.073h-0.026c-0.299,0.53-1.005,1.223-2.173,1.223
			c-1.032,0-2.269-0.584-2.269-2.879v-3.843h1.195v3.625c0,1.25,0.394,2.105,1.467,2.105c0.801,0,1.358-0.557,1.575-1.101
			c0.068-0.162,0.108-0.38,0.108-0.61v-4.02h1.195V437.939z"/>
		<path d="M357.867,436.649c0.027,1.616,1.046,2.282,2.241,2.282c0.855,0,1.385-0.149,1.819-0.326l0.218,0.842
			c-0.421,0.19-1.154,0.421-2.2,0.421c-2.01,0-3.232-1.345-3.232-3.313c0-1.996,1.182-3.558,3.097-3.558
			c2.146,0,2.702,1.888,2.702,3.096c0,0.245-0.014,0.435-0.041,0.57L357.867,436.649z M361.357,435.793
			c0.014-0.746-0.313-1.941-1.643-1.941c-1.223,0-1.738,1.113-1.834,1.941H361.357z"/>
		<path d="M364.005,435.209c0-0.773-0.014-1.439-0.055-2.05h1.046l0.055,1.29h0.04c0.299-0.883,1.032-1.439,1.834-1.439
			c0.122,0,0.217,0.014,0.325,0.04v1.114c-0.136-0.014-0.258-0.027-0.421-0.027c-0.842,0-1.439,0.638-1.602,1.521
			c-0.027,0.177-0.041,0.367-0.041,0.57v3.504h-1.195L364.005,435.209z"/>
	</g>
</g>
<g id="Ebene_2">
	<line fill="none" stroke="#000000" stroke-width="4" x1="284.856" y1="373.392" x2="300.254" y2="307.954"/>
	<line fill="none" stroke="#000000" stroke-width="4" x1="300.254" y1="307.954" x2="357.995" y2="307.954"/>
	<path fill="none" stroke="#000000" stroke-width="4" d="M357.995,307.954c19.245-3.851,26.638-76.293,53.89-77.221
		c28.534-0.972,38.494,73.371,57.741,77.221"/>
	<path fill="none" stroke="#000000" stroke-width="4" d="M469.626,307.954c7.33,0,11.91-12.351,23.098-11.549
		c9.906,0.709,13.483,11.549,19.247,11.549"/>
	<line fill="none" stroke="#000000" stroke-width="4" x1="511.971" y1="307.954" x2="581.259" y2="307.954"/>
	<path fill="none" stroke="#000000" stroke-width="4" d="M0,307.954h69.289c14.333-0.609,13.485-36.042,41.262-36.042
		c31.181,0,29.764,35.433,43.425,36.042h84.686v-0.338l11.549,46.531L269.458,69.29l15.398,304.102"/>
</g>
</svg>
