<?xml version="1.0" encoding="UTF-8"?>
<!-- Generator: Adobe Illustrator 12.0.1, SVG Export Plug-In . SVG Version: 6.00 Build 51448)  -->
<!DOCTYPE svg PUBLIC "-//W3C//DTD SVG 1.1//EN" "http://www.w3.org/Graphics/SVG/1.1/DTD/svg11.dtd" [
	<!ENTITY ns_svg "http://www.w3.org/2000/svg">
	<!ENTITY ns_xlink "http://www.w3.org/1999/xlink">
]>
<svg version="1.1" id="Ebene_1" xmlns="http://www.w3.org/2000/svg" xmlns:xlink="http://www.w3.org/1999/xlink" width="209.324" height="170.21" viewBox="0 0 209.324 170.21" overflow="visible" enable-background="new 0 0 209.324 170.21" xml:space="preserve">
<polyline fill="none" stroke="#000000" points="26.043,11.338 26.043,157.324 196.123,157.324 "/>
<line fill="none" stroke="#000000" x1="23.209" y1="150.236" x2="26.043" y2="150.236"/>
<line fill="none" stroke="#000000" x1="23.208" y1="86.457" x2="26.043" y2="86.457"/>
<line fill="none" stroke="#000000" x1="23.208" y1="65.197" x2="26.043" y2="65.197"/>
<line fill="none" stroke="#000000" x1="23.208" y1="43.937" x2="26.043" y2="43.937"/>
<line fill="none" stroke="#000000" x1="23.208" y1="22.677" x2="26.043" y2="22.677"/>
<g>
	<path d="M2.964,150.865v0.768H0v-0.768H2.964z"/>
	<path d="M6.156,147.671H6.132l-1.356,0.731L4.572,147.6l1.704-0.912h0.9v7.8h-1.02V147.671z"/>
	<path d="M12.504,154.621c-1.524,0-2.568-1.429-2.592-4.009c0-2.628,1.14-4.056,2.724-4.056c1.632,0,2.58,1.464,2.58,3.947   c0,2.652-0.996,4.117-2.7,4.117H12.504L12.504,154.621z M12.552,153.804c1.068,0,1.584-1.26,1.584-3.252   c0-1.92-0.48-3.18-1.584-3.18c-0.96,0-1.584,1.224-1.584,3.18c-0.024,2.027,0.6,3.252,1.572,3.252H12.552z"/>
	<path d="M18.66,154.621c-1.524,0-2.568-1.429-2.592-4.009c0-2.628,1.14-4.056,2.724-4.056c1.632,0,2.58,1.464,2.58,3.947   c0,2.652-0.996,4.117-2.7,4.117H18.66L18.66,154.621z M18.708,153.804c1.068,0,1.584-1.26,1.584-3.252c0-1.92-0.48-3.18-1.584-3.18   c-0.96,0-1.584,1.224-1.584,3.18c-0.024,2.027,0.6,3.252,1.572,3.252H18.708z"/>
</g>
<g>
	<path d="M9.12,87.083v0.769H6.155v-0.769H9.12z"/>
	<path d="M13.284,90.708v-2.125H9.66V87.9l3.48-4.992h1.14v4.86h1.092v0.815H14.28v2.125H13.284z M13.284,87.769v-2.616   c0-0.408,0.012-0.816,0.036-1.224h-0.036c-0.24,0.456-0.432,0.792-0.648,1.164l-1.908,2.653v0.023H13.284z"/>
	<path d="M18.659,90.839c-1.524,0-2.568-1.428-2.592-4.008c0-2.627,1.14-4.057,2.724-4.057c1.632,0,2.58,1.464,2.58,3.948   c0,2.651-0.996,4.114-2.7,4.114h-0.012V90.839z M18.707,90.024c1.068,0,1.584-1.26,1.584-3.252c0-1.92-0.48-3.18-1.584-3.18   c-0.96,0-1.584,1.224-1.584,3.18c-0.024,2.028,0.6,3.252,1.572,3.252H18.707z"/>
</g>
<g>
	<path d="M9.12,65.825v0.768H6.155v-0.768H9.12z"/>
	<path d="M10.02,69.449v-0.648l0.828-0.804c1.992-1.896,2.904-2.904,2.904-4.08c0-0.792-0.372-1.524-1.536-1.524   c-0.708,0-1.296,0.36-1.656,0.66l-0.336-0.744c0.528-0.444,1.308-0.792,2.208-0.792c1.668,0,2.376,1.152,2.376,2.268   c0,1.44-1.044,2.604-2.688,4.188l-0.612,0.576v0.024H15v0.876H10.02z"/>
	<path d="M18.659,69.581c-1.524,0-2.568-1.428-2.592-4.008c0-2.628,1.14-4.056,2.724-4.056c1.632,0,2.58,1.464,2.58,3.948   c0,2.652-0.996,4.116-2.7,4.116H18.659z M18.707,68.765c1.068,0,1.584-1.26,1.584-3.252c0-1.92-0.48-3.18-1.584-3.18   c-0.96,0-1.584,1.224-1.584,3.18c-0.024,2.028,0.6,3.252,1.572,3.252H18.707z"/>
</g>
<g>
	<path d="M18.659,48.321c-1.524,0-2.568-1.428-2.592-4.008c0-2.628,1.14-4.056,2.724-4.056c1.632,0,2.58,1.464,2.58,3.948   c0,2.652-0.996,4.116-2.7,4.116H18.659z M18.707,47.505c1.068,0,1.584-1.26,1.584-3.252c0-1.92-0.48-3.18-1.584-3.18   c-0.96,0-1.584,1.224-1.584,3.18c-0.024,2.028,0.6,3.252,1.572,3.252H18.707z"/>
</g>
<g>
	<path d="M10.02,26.929v-0.648l0.828-0.804c1.992-1.896,2.904-2.904,2.904-4.08c0-0.792-0.372-1.524-1.536-1.524   c-0.708,0-1.296,0.36-1.656,0.66l-0.336-0.744c0.528-0.444,1.308-0.792,2.208-0.792c1.668,0,2.376,1.152,2.376,2.268   c0,1.44-1.044,2.604-2.688,4.188l-0.612,0.576v0.024H15v0.876H10.02z"/>
	<path d="M18.659,27.061c-1.524,0-2.568-1.428-2.592-4.008c0-2.628,1.14-4.056,2.724-4.056c1.632,0,2.58,1.464,2.58,3.948   c0,2.652-0.996,4.116-2.7,4.116H18.659z M18.707,26.245c1.068,0,1.584-1.26,1.584-3.252c0-1.92-0.48-3.18-1.584-3.18   c-0.96,0-1.584,1.224-1.584,3.18c-0.024,2.028,0.6,3.252,1.572,3.252H18.707z"/>
</g>
<g>
	<path d="M1.203,14.1V4.536h2.196v0.66H2.03v8.244h1.368v0.66H1.203z"/>
	<path d="M4.514,8.52c0-0.612-0.024-1.092-0.048-1.572H5.39l0.048,0.936h0.036C5.798,7.332,6.338,6.816,7.31,6.816   c0.78,0,1.38,0.48,1.632,1.164h0.024c0.18-0.336,0.42-0.576,0.66-0.756c0.348-0.264,0.72-0.408,1.272-0.408   c0.78,0,1.92,0.504,1.92,2.52v3.42h-1.032V9.468c0-1.128-0.42-1.788-1.26-1.788c-0.612,0-1.068,0.444-1.26,0.948   C9.218,8.784,9.182,8.976,9.182,9.156v3.6H8.15v-3.48c0-0.936-0.408-1.596-1.212-1.596c-0.648,0-1.14,0.528-1.308,1.056   C5.57,8.892,5.546,9.072,5.546,9.252v3.504H4.514V8.52z"/>
	<path d="M16.334,12.756l-2.652-8.088h1.14l1.26,3.984c0.336,1.092,0.636,2.088,0.864,3.024h0.024   c0.228-0.936,0.552-1.956,0.924-3.012l1.368-3.996h1.116l-2.892,8.088H16.334z"/>
	<path d="M23.654,4.536V14.1h-2.196v-0.66h1.368V5.196h-1.368v-0.66H23.654z"/>
</g>
<line fill="none" stroke="#000000" x1="40.217" y1="160.158" x2="40.217" y2="157.324"/>
<line fill="none" stroke="#000000" x1="108.249" y1="160.158" x2="108.249" y2="157.324"/>
<line fill="none" stroke="#000000" x1="179.115" y1="160.158" x2="179.115" y2="157.324"/>
<g>
	<path d="M39.919,170.21c-1.524,0-2.568-1.428-2.592-4.008c0-2.629,1.14-4.058,2.724-4.058c1.632,0,2.58,1.464,2.58,3.946   c0,2.652-0.996,4.117-2.7,4.117h-0.012V170.21z M39.967,169.395c1.068,0,1.584-1.261,1.584-3.252c0-1.92-0.48-3.181-1.584-3.181   c-0.96,0-1.584,1.225-1.584,3.181c-0.024,2.028,0.6,3.252,1.572,3.252H39.967z"/>
</g>
<g>
	<path d="M98.825,170.08v-0.647l0.828-0.806c1.992-1.896,2.904-2.902,2.904-4.08c0-0.791-0.372-1.522-1.536-1.522   c-0.708,0-1.296,0.358-1.656,0.66l-0.336-0.744c0.528-0.442,1.308-0.792,2.208-0.792c1.668,0,2.376,1.15,2.376,2.27   c0,1.438-1.044,2.604-2.688,4.188l-0.612,0.576v0.023h3.492v0.877h-4.98V170.08z"/>
	<path d="M107.465,170.21c-1.523,0-2.568-1.428-2.592-4.008c0-2.629,1.141-4.058,2.725-4.058c1.631,0,2.579,1.464,2.579,3.946   c0,2.652-0.995,4.117-2.7,4.117h-0.012V170.21z M107.514,169.395c1.067,0,1.584-1.261,1.584-3.252c0-1.92-0.479-3.181-1.584-3.181   c-0.961,0-1.584,1.225-1.584,3.181c-0.025,2.028,0.6,3.252,1.571,3.252H107.514z"/>
	<path d="M113.621,170.21c-1.523,0-2.568-1.428-2.592-4.008c0-2.629,1.14-4.058,2.724-4.058c1.632,0,2.58,1.464,2.58,3.946   c0,2.652-0.996,4.117-2.7,4.117h-0.012V170.21z M113.668,169.395c1.068,0,1.584-1.261,1.584-3.252c0-1.92-0.48-3.181-1.584-3.181   c-0.96,0-1.584,1.225-1.584,3.181c-0.023,2.028,0.6,3.252,1.572,3.252H113.668z"/>
</g>
<g>
	<path d="M172.956,170.08v-2.125h-3.624v-0.684l3.48-4.992h1.14v4.86h1.092v0.815h-1.092v2.125H172.956L172.956,170.08z    M172.956,167.139v-2.616c0-0.408,0.012-0.816,0.036-1.225h-0.036c-0.24,0.457-0.433,0.793-0.647,1.164l-1.908,2.652v0.023   L172.956,167.139L172.956,167.139z"/>
	<path d="M178.331,170.21c-1.524,0-2.567-1.428-2.593-4.008c0-2.629,1.141-4.058,2.725-4.058c1.633,0,2.58,1.464,2.58,3.946   c0,2.652-0.996,4.117-2.7,4.117h-0.012V170.21z M178.379,169.395c1.068,0,1.584-1.261,1.584-3.252c0-1.92-0.48-3.181-1.584-3.181   c-0.96,0-1.584,1.225-1.584,3.181c-0.023,2.028,0.6,3.252,1.572,3.252H178.379z"/>
	<path d="M184.486,170.21c-1.523,0-2.567-1.428-2.592-4.008c0-2.629,1.141-4.058,2.725-4.058c1.632,0,2.58,1.464,2.58,3.946   c0,2.652-0.996,4.117-2.7,4.117h-0.013V170.21z M184.535,169.395c1.068,0,1.584-1.261,1.584-3.252c0-1.92-0.48-3.181-1.584-3.181   c-0.96,0-1.584,1.225-1.584,3.181c-0.024,2.028,0.6,3.252,1.572,3.252H184.535z"/>
</g>
<g>
	<path d="M189.691,170.005v-9.564h2.197v0.66h-1.369v8.244h1.369v0.66H189.691z"/>
	<path d="M193.003,164.425c0-0.612-0.024-1.092-0.048-1.572h0.924l0.048,0.936h0.036c0.324-0.552,0.864-1.066,1.836-1.066   c0.78,0,1.381,0.479,1.633,1.162h0.023c0.18-0.336,0.42-0.574,0.66-0.756c0.348-0.264,0.72-0.406,1.271-0.406   c0.78,0,1.921,0.504,1.921,2.521v3.42h-1.031v-3.289c0-1.127-0.42-1.787-1.26-1.787c-0.613,0-1.068,0.442-1.262,0.947   c-0.048,0.155-0.084,0.348-0.084,0.527v3.602h-1.031v-3.48c0-0.936-0.408-1.596-1.212-1.596c-0.647,0-1.141,0.527-1.309,1.056   c-0.062,0.155-0.084,0.336-0.084,0.517v3.504h-1.032L193.003,164.425L193.003,164.425z"/>
	<path d="M202.868,167.593c0.323,0.191,0.876,0.408,1.403,0.408c0.756,0,1.117-0.373,1.117-0.864c0-0.505-0.302-0.78-1.068-1.068   c-1.057-0.384-1.549-0.948-1.549-1.644c0-0.936,0.769-1.704,2.004-1.704c0.588,0,1.104,0.155,1.416,0.36l-0.252,0.756   c-0.229-0.133-0.647-0.336-1.188-0.336c-0.624,0-0.96,0.358-0.96,0.791c0,0.492,0.336,0.709,1.092,0.996   c0.996,0.373,1.524,0.877,1.524,1.752c0,1.033-0.806,1.752-2.16,1.752c-0.638,0-1.226-0.168-1.632-0.408L202.868,167.593z"/>
	<path d="M209.324,160.441v9.564h-2.196v-0.66h1.368v-8.244h-1.368v-0.66H209.324z"/>
</g>
<path fill="none" stroke="#E2001A" d="M34.547,128.976c1.417,0,2.835,0,5.669,0c0-12.755,0-51.355,0-106.299  c4.252,11.338,17.008,11.338,35.433,21.26c11.338,7.086,29.764,14.173,39.685,53.857c4.252,9.922,5.669,25.513,14.173,29.765  c2.834,1.417,39.742,1.417,58.11,1.417"/>
<path fill="none" stroke="#00662C" d="M35.965,143.149c32.599,0,43.937-120.472,72.284-120.506  c28.347,0,28.347,127.593,80.787,127.593"/>
<line fill="none" stroke="#000000" x1="23.209" y1="107.716" x2="26.044" y2="107.716"/>
<g>
	<path d="M9.12,108.343v0.769H6.156v-0.769H9.12z"/>
	<path d="M14.472,104.9c-0.216-0.012-0.492,0.012-0.792,0.061c-1.668,0.265-2.532,1.477-2.712,2.771h0.024   c0.372-0.504,1.032-0.912,1.896-0.912c1.38,0,2.352,1.008,2.352,2.52c0,1.441-0.972,2.762-2.604,2.762   c-1.656,0-2.748-1.296-2.748-3.324c0-1.535,0.54-2.748,1.32-3.527c0.648-0.637,1.512-1.031,2.496-1.151   c0.312-0.048,0.576-0.06,0.768-0.06V104.9z M12.66,111.285c0.9,0,1.512-0.757,1.512-1.873c0-1.115-0.636-1.787-1.608-1.787   c-0.636,0-1.236,0.383-1.524,0.959c-0.06,0.121-0.108,0.266-0.108,0.457c0.012,1.283,0.612,2.244,1.716,2.244H12.66z"/>
	<path d="M18.66,112.1c-1.524,0-2.568-1.429-2.592-4.009c0-2.627,1.14-4.055,2.724-4.055c1.632,0,2.58,1.463,2.58,3.946   c0,2.651-0.996,4.116-2.7,4.116L18.66,112.1L18.66,112.1z M18.708,111.285c1.068,0,1.584-1.261,1.584-3.252   c0-1.921-0.48-3.181-1.584-3.181c-0.96,0-1.584,1.224-1.584,3.181c-0.024,2.027,0.6,3.252,1.572,3.252H18.708z"/>
</g>
<line fill="none" stroke="#000000" x1="23.208" y1="128.976" x2="26.043" y2="128.976"/>
<g>
	<path d="M9.12,129.604v0.769H6.155v-0.769H9.12z"/>
	<path d="M12.636,125.296c1.512,0,2.28,0.936,2.28,1.92c0,0.66-0.336,1.38-1.296,1.824v0.035c0.972,0.385,1.572,1.08,1.572,2.016   c0,1.369-1.164,2.269-2.652,2.269c-1.632,0-2.616-0.96-2.616-2.101c0-0.983,0.588-1.691,1.536-2.1v-0.035   c-0.876-0.408-1.248-1.08-1.248-1.752c0-1.236,1.044-2.076,2.412-2.076H12.636z M12.576,132.591c0.948,0,1.56-0.588,1.56-1.391   c0-0.938-0.66-1.404-1.716-1.705c-0.912,0.264-1.404,0.877-1.404,1.621c-0.036,0.778,0.564,1.475,1.548,1.475H12.576z    M12.6,126.052c-0.876,0-1.356,0.576-1.356,1.248c-0.012,0.779,0.588,1.199,1.488,1.439c0.672-0.229,1.188-0.707,1.188-1.416   c0-0.623-0.372-1.271-1.308-1.271H12.6z"/>
	<path d="M18.659,133.36c-1.524,0-2.568-1.428-2.592-4.008c0-2.628,1.14-4.056,2.724-4.056c1.632,0,2.58,1.463,2.58,3.947   c0,2.651-0.996,4.115-2.7,4.115L18.659,133.36L18.659,133.36z M18.707,132.544c1.068,0,1.584-1.26,1.584-3.252   c0-1.92-0.48-3.182-1.584-3.182c-0.96,0-1.584,1.225-1.584,3.182c-0.024,2.026,0.6,3.252,1.572,3.252H18.707z"/>
</g>
<line fill="none" stroke="#000000" x1="142.264" y1="160.158" x2="142.264" y2="157.324"/>
<g>
	<path d="M133.093,168.878c0.3,0.18,0.984,0.479,1.728,0.479c1.346,0,1.777-0.854,1.766-1.512c-0.012-1.094-0.996-1.561-2.018-1.561   h-0.588v-0.793h0.588c0.77,0,1.74-0.396,1.74-1.32c0-0.623-0.396-1.176-1.367-1.176c-0.625,0-1.225,0.276-1.561,0.518l-0.288-0.77   c0.421-0.3,1.212-0.6,2.052-0.6c1.537,0,2.232,0.912,2.232,1.859c0,0.815-0.492,1.5-1.439,1.849v0.024   c0.959,0.18,1.74,0.898,1.74,1.992c0,1.248-0.984,2.34-2.845,2.34c-0.876,0-1.644-0.276-2.028-0.528L133.093,168.878z"/>
	<path d="M141.48,170.21c-1.524,0-2.568-1.428-2.592-4.008c0-2.629,1.139-4.058,2.723-4.058c1.633,0,2.58,1.464,2.58,3.946   c0,2.652-0.996,4.117-2.699,4.117h-0.012V170.21z M141.529,169.395c1.068,0,1.584-1.261,1.584-3.252c0-1.92-0.48-3.181-1.584-3.181   c-0.961,0-1.584,1.225-1.584,3.181c-0.024,2.028,0.6,3.252,1.572,3.252H141.529z"/>
	<path d="M147.637,170.21c-1.525,0-2.568-1.428-2.593-4.008c0-2.629,1.14-4.058,2.724-4.058c1.633,0,2.58,1.464,2.58,3.946   c0,2.652-0.996,4.117-2.699,4.117h-0.012V170.21z M147.684,169.395c1.068,0,1.584-1.261,1.584-3.252   c0-1.92-0.479-3.181-1.584-3.181c-0.959,0-1.584,1.225-1.584,3.181c-0.022,2.028,0.602,3.252,1.572,3.252H147.684z"/>
</g>
<line fill="none" stroke="#000000" x1="74.232" y1="160.158" x2="74.232" y2="157.324"/>
<g>
	<path d="M67.101,163.263h-0.024l-1.356,0.732l-0.204-0.806l1.704-0.912h0.9v7.802h-1.02V163.263z"/>
	<path d="M73.449,170.21c-1.524,0-2.568-1.428-2.592-4.008c0-2.629,1.14-4.058,2.724-4.058c1.632,0,2.58,1.464,2.58,3.946   c0,2.652-0.996,4.117-2.7,4.117h-0.012V170.21z M73.497,169.395c1.068,0,1.584-1.261,1.584-3.252c0-1.92-0.48-3.181-1.584-3.181   c-0.96,0-1.584,1.225-1.584,3.181c-0.024,2.028,0.6,3.252,1.572,3.252H73.497z"/>
	<path d="M79.604,170.21c-1.524,0-2.568-1.428-2.592-4.008c0-2.629,1.14-4.058,2.724-4.058c1.632,0,2.58,1.464,2.58,3.946   c0,2.652-0.996,4.117-2.7,4.117h-0.012V170.21z M79.652,169.395c1.068,0,1.584-1.261,1.584-3.252c0-1.92-0.48-3.181-1.584-3.181   c-0.96,0-1.584,1.225-1.584,3.181c-0.024,2.028,0.6,3.252,1.572,3.252H79.652z"/>
</g>
<line fill="none" stroke="#000000" stroke-width="0.5" stroke-dasharray="2 2 2 2 2 2" x1="130.925" y1="143.149" x2="130.925" y2="1.417"/>
<line fill="none" stroke="#000000" stroke-width="0.5" stroke-dasharray="2 2 2 2 2 2" x1="115.335" y1="141.732" x2="115.335" y2="0"/>
<g>
	<line fill="none" stroke="#000000" stroke-width="0.5" x1="44.681" y1="16.015" x2="58.854" y2="16.015"/>
	<path d="M45.191,16.015l1.095,1.802l-0.061,0.041l-2.938-1.167c-1.023-0.226-2.047-0.45-3.071-0.676   c1.023-0.225,2.047-0.45,3.071-0.676l2.938-1.167l0.061,0.031L45.191,16.015z"/>
</g>
<line fill="none" stroke="#000000" stroke-width="0.5" x1="110.871" y1="16.015" x2="96.697" y2="16.015"/>
<path d="M110.361,16.015l-1.096,1.802l0.062,0.041l2.938-1.167c1.021-0.226,2.047-0.45,3.069-0.676  c-1.022-0.225-2.047-0.45-3.069-0.676l-2.938-1.167l-0.062,0.031L110.361,16.015z"/>
<g>
	<path d="M66.62,13.129c0,0.378,0.018,0.747,0.063,1.044h-0.711L65.9,13.624h-0.027c-0.234,0.342-0.711,0.648-1.332,0.648   c-0.882,0-1.332-0.621-1.332-1.251c0-1.053,0.936-1.629,2.619-1.62v-0.09c0-0.36-0.099-1.017-0.99-1.008   c-0.414,0-0.837,0.117-1.143,0.324l-0.18-0.531c0.36-0.225,0.891-0.378,1.44-0.378c1.341,0,1.665,0.909,1.665,1.782V13.129z    M65.846,11.95c-0.864-0.018-1.845,0.135-1.845,0.981c0,0.522,0.342,0.756,0.738,0.756c0.576,0,0.945-0.36,1.071-0.729   c0.027-0.081,0.036-0.171,0.036-0.252V11.95z"/>
	<path d="M67.889,7.783h0.792v2.727h0.018c0.279-0.486,0.783-0.792,1.485-0.792c1.08,0,1.836,0.9,1.836,2.214   c0,1.566-0.99,2.34-1.962,2.34c-0.63,0-1.125-0.243-1.458-0.819h-0.018l-0.045,0.72h-0.684c0.027-0.297,0.036-0.738,0.036-1.125   V7.783z M68.681,12.427c0,0.099,0.009,0.198,0.027,0.288c0.153,0.549,0.621,0.927,1.188,0.927c0.837,0,1.323-0.675,1.323-1.674   c0-0.882-0.45-1.629-1.296-1.629c-0.54,0-1.044,0.378-1.197,0.972c-0.027,0.099-0.045,0.207-0.045,0.333V12.427z"/>
	<path d="M72.902,13.372c0.243,0.144,0.657,0.306,1.053,0.306c0.567,0,0.837-0.279,0.837-0.646c0-0.378-0.225-0.585-0.801-0.801   c-0.792-0.288-1.161-0.711-1.161-1.233c0-0.702,0.576-1.278,1.503-1.278c0.441,0,0.828,0.117,1.062,0.271l-0.189,0.567   c-0.171-0.099-0.486-0.252-0.891-0.252c-0.468,0-0.72,0.271-0.72,0.594c0,0.369,0.252,0.531,0.819,0.747   c0.747,0.279,1.143,0.657,1.143,1.314c0,0.774-0.603,1.314-1.62,1.314c-0.477,0-0.918-0.126-1.224-0.306L72.902,13.372z"/>
	<path d="M78.347,14.272c-1.17,0-2.088-0.864-2.088-2.241c0-1.458,0.963-2.313,2.16-2.313c1.251,0,2.097,0.909,2.097,2.232   c0,1.62-1.125,2.322-2.16,2.322H78.347z M78.374,13.678c0.756,0,1.323-0.711,1.323-1.701c0-0.738-0.369-1.665-1.305-1.665   c-0.927,0-1.332,0.864-1.332,1.692c0,0.954,0.54,1.674,1.305,1.674H78.374z"/>
	<path d="M81.515,7.783h0.792v6.39h-0.792V7.783z"/>
	<path d="M87.266,12.985c0,0.45,0.009,0.846,0.036,1.188H86.6l-0.045-0.711h-0.018c-0.198,0.351-0.666,0.81-1.44,0.81   c-0.684,0-1.503-0.387-1.503-1.908V9.817h0.792v2.403c0,0.828,0.261,1.396,0.972,1.396c0.531,0,0.9-0.369,1.044-0.729   c0.045-0.108,0.072-0.252,0.072-0.405V9.817h0.792V12.985z"/>
	<path d="M89.534,8.773v1.044h1.134v0.603h-1.134v2.349c0,0.54,0.153,0.846,0.594,0.846c0.216,0,0.342-0.018,0.459-0.054   l0.036,0.603c-0.153,0.054-0.396,0.108-0.702,0.108c-0.369,0-0.666-0.126-0.855-0.333c-0.216-0.243-0.306-0.63-0.306-1.143V10.42   h-0.675V9.817h0.675V9.016L89.534,8.773z"/>
	<path d="M63.56,19.176c0-0.513-0.009-0.954-0.036-1.359h0.693l0.036,0.855h0.027c0.198-0.585,0.684-0.954,1.215-0.954   c0.081,0,0.144,0.009,0.216,0.027v0.738c-0.09-0.009-0.171-0.018-0.279-0.018c-0.558,0-0.954,0.423-1.062,1.008   c-0.018,0.117-0.027,0.243-0.027,0.378v2.322h-0.792L63.56,19.176z"/>
	<path d="M66.89,20.13c0.018,1.071,0.693,1.512,1.485,1.512c0.567,0,0.918-0.099,1.206-0.216l0.144,0.558   c-0.279,0.126-0.765,0.279-1.458,0.279c-1.332,0-2.142-0.891-2.142-2.196c0-1.323,0.783-2.358,2.052-2.358   c1.422,0,1.791,1.251,1.791,2.052c0,0.162-0.009,0.288-0.027,0.378L66.89,20.13z M69.203,19.563   c0.009-0.495-0.207-1.287-1.089-1.287c-0.81,0-1.152,0.738-1.215,1.287H69.203z"/>
	<path d="M71.021,22.173V18.42h-0.603v-0.603h0.603V17.61c0-0.612,0.144-1.17,0.513-1.521c0.297-0.288,0.693-0.405,1.053-0.405   c0.288,0,0.522,0.063,0.675,0.126l-0.099,0.612c-0.126-0.054-0.279-0.099-0.513-0.099c-0.666,0-0.846,0.594-0.846,1.26v0.234h1.053   v0.603h-1.044v3.753H71.021z"/>
	<path d="M73.586,19.176c0-0.513-0.009-0.954-0.036-1.359h0.693l0.036,0.855h0.027c0.198-0.585,0.684-0.954,1.215-0.954   c0.081,0,0.144,0.009,0.216,0.027v0.738c-0.09-0.009-0.171-0.018-0.279-0.018c-0.558,0-0.954,0.423-1.062,1.008   c-0.018,0.117-0.027,0.243-0.027,0.378v2.322h-0.792L73.586,19.176z"/>
	<path d="M79.535,21.129c0,0.378,0.018,0.747,0.063,1.044h-0.711l-0.072-0.549h-0.027c-0.234,0.342-0.711,0.648-1.332,0.648   c-0.882,0-1.332-0.621-1.332-1.251c0-1.053,0.936-1.629,2.619-1.62v-0.09c0-0.36-0.099-1.017-0.99-1.008   c-0.414,0-0.837,0.117-1.143,0.324l-0.18-0.531c0.36-0.225,0.891-0.378,1.44-0.378c1.341,0,1.665,0.909,1.665,1.782V21.129   L79.535,21.129z M78.761,19.95c-0.864-0.018-1.845,0.135-1.845,0.981c0,0.522,0.342,0.756,0.738,0.756   c0.576,0,0.945-0.36,1.071-0.729c0.027-0.081,0.036-0.171,0.036-0.252V19.95z"/>
	<path d="M81.596,19.815h0.018c0.108-0.153,0.252-0.351,0.378-0.495l1.287-1.503h0.945l-1.683,1.791l1.917,2.565h-0.963   l-1.494-2.097l-0.405,0.459v1.638h-0.792v-6.39h0.792V19.815z"/>
	<path d="M85.979,16.773v1.044h1.134v0.603h-1.134v2.349c0,0.54,0.153,0.846,0.594,0.846c0.216,0,0.342-0.018,0.459-0.054   l0.036,0.603c-0.153,0.054-0.396,0.108-0.702,0.108c-0.369,0-0.666-0.126-0.855-0.333c-0.216-0.243-0.306-0.63-0.306-1.143V18.42   H84.53v-0.603h0.675v-0.801L85.979,16.773z"/>
	<path d="M91.073,21.129c0,0.378,0.018,0.747,0.063,1.044h-0.711l-0.072-0.549h-0.027c-0.234,0.342-0.711,0.648-1.332,0.648   c-0.882,0-1.332-0.621-1.332-1.251c0-1.053,0.936-1.629,2.619-1.62v-0.09c0-0.36-0.099-1.017-0.99-1.008   c-0.414,0-0.837,0.117-1.143,0.324l-0.18-0.531c0.36-0.225,0.891-0.378,1.44-0.378c1.341,0,1.665,0.909,1.665,1.782V21.129   L91.073,21.129z M88.688,17.16c-0.261,0-0.441-0.207-0.441-0.45s0.198-0.45,0.45-0.45c0.243,0,0.432,0.198,0.432,0.45   c0,0.243-0.171,0.45-0.432,0.45H88.688z M90.299,19.95c-0.864-0.018-1.845,0.135-1.845,0.981c0,0.522,0.342,0.756,0.738,0.756   c0.576,0,0.945-0.36,1.071-0.729c0.027-0.081,0.036-0.171,0.036-0.252V19.95z M90.326,17.16c-0.252,0-0.432-0.207-0.432-0.45   s0.189-0.45,0.45-0.45c0.243,0,0.432,0.198,0.432,0.45c0,0.243-0.171,0.45-0.441,0.45H90.326z"/>
	<path d="M92.351,19.176c0-0.513-0.009-0.954-0.036-1.359h0.693l0.036,0.855h0.027c0.198-0.585,0.684-0.954,1.215-0.954   c0.081,0,0.144,0.009,0.216,0.027v0.738c-0.09-0.009-0.171-0.018-0.279-0.018c-0.558,0-0.954,0.423-1.062,1.008   c-0.018,0.117-0.027,0.243-0.027,0.378v2.322h-0.792L92.351,19.176z"/>
</g>
<g>
	<line fill="none" stroke="#000000" stroke-width="0.5" x1="119.799" y1="16.015" x2="125.256" y2="16.015"/>
	<path d="M120.309,16.015l1.096,1.802l-0.062,0.041l-2.938-1.167c-1.021-0.226-2.047-0.45-3.069-0.676   c1.022-0.225,2.047-0.45,3.069-0.676l2.938-1.167l0.062,0.031L120.309,16.015z"/>
</g>
<g>
	<line fill="none" stroke="#000000" stroke-width="0.5" x1="126.461" y1="16.015" x2="121.004" y2="16.015"/>
	<path d="M125.951,16.015l-1.096,1.802l0.062,0.041l2.938-1.167c1.021-0.226,2.047-0.45,3.069-0.676   c-1.022-0.225-2.047-0.45-3.069-0.676l-2.938-1.167l-0.062,0.031L125.951,16.015z"/>
</g>
<g>
	<path d="M133.009,11.176c0-0.513-0.009-0.954-0.036-1.359h0.693l0.036,0.855h0.026c0.197-0.585,0.685-0.954,1.215-0.954   c0.082,0,0.145,0.009,0.217,0.027v0.738c-0.09-0.009-0.172-0.018-0.279-0.018c-0.559,0-0.954,0.423-1.063,1.008   c-0.019,0.117-0.026,0.243-0.026,0.378v2.322H133L133.009,11.176z"/>
	<path d="M136.339,12.13c0.019,1.071,0.693,1.512,1.485,1.512c0.566,0,0.918-0.099,1.205-0.216l0.145,0.558   c-0.279,0.126-0.765,0.279-1.458,0.279c-1.332,0-2.142-0.891-2.142-2.196c0-1.323,0.783-2.358,2.052-2.358   c1.422,0,1.791,1.251,1.791,2.052c0,0.162-0.009,0.288-0.026,0.378L136.339,12.13z M138.652,11.563   c0.009-0.495-0.207-1.287-1.09-1.287c-0.811,0-1.151,0.738-1.215,1.287H138.652z"/>
	<path d="M140.398,7.783h0.791v6.39h-0.791V7.783z"/>
	<path d="M145.573,13.129c0,0.378,0.018,0.747,0.063,1.044h-0.713l-0.07-0.549h-0.027c-0.234,0.342-0.711,0.648-1.332,0.648   c-0.883,0-1.332-0.621-1.332-1.251c0-1.053,0.936-1.629,2.619-1.62v-0.09c0-0.36-0.1-1.017-0.99-1.008   c-0.414,0-0.837,0.117-1.143,0.324l-0.182-0.531c0.36-0.225,0.893-0.378,1.44-0.378c1.341,0,1.665,0.909,1.665,1.782   L145.573,13.129L145.573,13.129z M144.799,11.95c-0.863-0.018-1.845,0.135-1.845,0.981c0,0.522,0.342,0.756,0.737,0.756   c0.576,0,0.945-0.36,1.072-0.729c0.025-0.081,0.034-0.171,0.034-0.252L144.799,11.95L144.799,11.95z"/>
	<path d="M147.759,8.773v1.044h1.134v0.603h-1.134v2.349c0,0.54,0.153,0.846,0.595,0.846c0.215,0,0.342-0.018,0.459-0.054   l0.035,0.603c-0.152,0.054-0.396,0.108-0.701,0.108c-0.369,0-0.666-0.126-0.854-0.333c-0.216-0.243-0.308-0.63-0.308-1.143V10.42   h-0.674V9.817h0.674V9.016L147.759,8.773z"/>
	<path d="M150.163,9.016c-0.297,0-0.495-0.234-0.495-0.513c0-0.279,0.207-0.504,0.514-0.504c0.305,0,0.504,0.225,0.504,0.504   c0,0.279-0.199,0.513-0.514,0.513H150.163z M149.785,14.173V9.817h0.792v4.356H149.785z"/>
	<path d="M152.195,9.817l0.854,2.439c0.146,0.405,0.263,0.765,0.353,1.125h0.027c0.098-0.36,0.225-0.72,0.367-1.125l0.848-2.439   h0.828l-1.711,4.356h-0.757l-1.655-4.356H152.195z"/>
	<path d="M133.009,19.176c0-0.513-0.009-0.954-0.036-1.359h0.693l0.036,0.855h0.026c0.197-0.585,0.685-0.954,1.215-0.954   c0.082,0,0.145,0.009,0.217,0.027v0.738c-0.09-0.009-0.172-0.018-0.279-0.018c-0.559,0-0.954,0.423-1.063,1.008   c-0.019,0.117-0.026,0.243-0.026,0.378v2.322H133L133.009,19.176z"/>
	<path d="M136.339,20.13c0.019,1.071,0.693,1.512,1.485,1.512c0.566,0,0.918-0.099,1.205-0.216l0.145,0.558   c-0.279,0.126-0.765,0.279-1.458,0.279c-1.332,0-2.142-0.891-2.142-2.196c0-1.323,0.783-2.358,2.052-2.358   c1.422,0,1.791,1.251,1.791,2.052c0,0.162-0.009,0.288-0.026,0.378L136.339,20.13z M138.652,19.563   c0.009-0.495-0.207-1.287-1.09-1.287c-0.811,0-1.151,0.738-1.215,1.287H138.652z"/>
	<path d="M140.471,22.173V18.42h-0.604v-0.603h0.604V17.61c0-0.612,0.143-1.17,0.512-1.521c0.297-0.288,0.693-0.405,1.055-0.405   c0.288,0,0.521,0.063,0.675,0.126l-0.101,0.612c-0.125-0.054-0.277-0.099-0.512-0.099c-0.666,0-0.847,0.594-0.847,1.26v0.234h1.054   v0.603h-1.045v3.753H140.471z"/>
	<path d="M143.035,19.176c0-0.513-0.01-0.954-0.036-1.359h0.692l0.037,0.855h0.025c0.198-0.585,0.686-0.954,1.217-0.954   c0.079,0,0.143,0.009,0.215,0.027v0.738c-0.09-0.009-0.17-0.018-0.278-0.018c-0.558,0-0.954,0.423-1.062,1.008   c-0.02,0.117-0.027,0.243-0.027,0.378v2.322h-0.793L143.035,19.176z"/>
	<path d="M148.984,21.129c0,0.378,0.018,0.747,0.063,1.044h-0.711l-0.072-0.549h-0.027c-0.232,0.342-0.711,0.648-1.332,0.648   c-0.881,0-1.33-0.621-1.33-1.251c0-1.053,0.936-1.629,2.617-1.62v-0.09c0-0.36-0.099-1.017-0.988-1.008   c-0.414,0-0.837,0.117-1.145,0.324l-0.18-0.531c0.359-0.225,0.891-0.378,1.439-0.378c1.342,0,1.666,0.909,1.666,1.782V21.129   L148.984,21.129z M148.21,19.95c-0.864-0.018-1.845,0.135-1.845,0.981c0,0.522,0.342,0.756,0.738,0.756   c0.576,0,0.943-0.36,1.069-0.729c0.027-0.081,0.036-0.171,0.036-0.252L148.21,19.95L148.21,19.95z"/>
	<path d="M151.045,19.815h0.018c0.108-0.153,0.252-0.351,0.379-0.495l1.287-1.503h0.944l-1.683,1.791l1.917,2.565h-0.964   l-1.493-2.097l-0.405,0.459v1.638h-0.792v-6.39h0.792V19.815L151.045,19.815z"/>
	<path d="M155.427,16.773v1.044h1.134v0.603h-1.134v2.349c0,0.54,0.153,0.846,0.595,0.846c0.215,0,0.342-0.018,0.459-0.054   l0.035,0.603c-0.151,0.054-0.396,0.108-0.701,0.108c-0.369,0-0.666-0.126-0.854-0.333c-0.216-0.243-0.308-0.63-0.308-1.143V18.42   h-0.674v-0.603h0.674v-0.801L155.427,16.773z"/>
	<path d="M160.521,21.129c0,0.378,0.018,0.747,0.063,1.044h-0.711l-0.072-0.549h-0.027c-0.232,0.342-0.711,0.648-1.332,0.648   c-0.881,0-1.332-0.621-1.332-1.251c0-1.053,0.938-1.629,2.619-1.62v-0.09c0-0.36-0.099-1.017-0.99-1.008   c-0.412,0-0.836,0.117-1.143,0.324l-0.18-0.531c0.359-0.225,0.891-0.378,1.439-0.378c1.342,0,1.666,0.909,1.666,1.782V21.129z    M158.137,17.16c-0.262,0-0.441-0.207-0.441-0.45s0.197-0.45,0.449-0.45c0.244,0,0.434,0.198,0.434,0.45   c0,0.243-0.171,0.45-0.434,0.45H158.137z M159.748,19.95c-0.864-0.018-1.846,0.135-1.846,0.981c0,0.522,0.343,0.756,0.738,0.756   c0.575,0,0.944-0.36,1.07-0.729c0.025-0.081,0.036-0.171,0.036-0.252L159.748,19.95L159.748,19.95z M159.773,17.16   c-0.252,0-0.433-0.207-0.433-0.45s0.188-0.45,0.45-0.45c0.243,0,0.434,0.198,0.434,0.45c0,0.243-0.173,0.45-0.441,0.45H159.773z"/>
	<path d="M161.799,19.176c0-0.513-0.009-0.954-0.035-1.359h0.692l0.036,0.855h0.027c0.196-0.585,0.684-0.954,1.215-0.954   c0.08,0,0.144,0.009,0.216,0.027v0.738c-0.091-0.009-0.171-0.018-0.279-0.018c-0.558,0-0.954,0.423-1.062,1.008   c-0.02,0.117-0.027,0.243-0.027,0.378v2.322h-0.792L161.799,19.176z"/>
</g>
<g>
	<path fill="#FFFFFF" stroke="#000000" d="M204.84,44.857c0,9.92,0,9.92-2.836,9.921h-59.527c-2.834,0-2.834,0-2.834-9.921l0,0   c0-9.922,0-9.922,2.834-9.922h59.527C204.839,34.935,204.839,34.935,204.84,44.857L204.84,44.857z"/>
	<line fill="none" stroke="#CF0000" stroke-width="2" x1="142.479" y1="40.605" x2="156.65" y2="40.605"/>
	<line fill="none" stroke="#00662C" stroke-width="2" x1="142.479" y1="49.109" x2="156.65" y2="49.109"/>
	<g>
		<path d="M159.941,38.032c0.252-0.048,0.582-0.084,1.002-0.084c0.516,0,0.894,0.12,1.134,0.336c0.223,0.192,0.36,0.486,0.36,0.846    c0,0.366-0.108,0.654-0.318,0.864c-0.275,0.294-0.727,0.444-1.235,0.444c-0.155,0-0.301-0.006-0.421-0.036v1.62h-0.521V38.032    L159.941,38.032z M160.463,39.977c0.114,0.03,0.266,0.042,0.434,0.042c0.636,0,1.014-0.312,1.014-0.858    c0-0.54-0.378-0.798-0.954-0.798c-0.228,0-0.401,0.024-0.492,0.042L160.463,39.977L160.463,39.977z"/>
		<path d="M164.146,42.088c-0.779,0-1.393-0.576-1.393-1.494c0-0.972,0.643-1.542,1.439-1.542c0.834,0,1.398,0.606,1.398,1.488    c0,1.08-0.75,1.548-1.439,1.548H164.146z M164.165,41.692c0.504,0,0.882-0.474,0.882-1.134c0-0.492-0.245-1.11-0.869-1.11    c-0.617,0-0.889,0.576-0.889,1.128c0,0.636,0.359,1.116,0.87,1.116H164.165z"/>
		<path d="M166.896,38.422v0.696h0.756v0.402h-0.756v1.566c0,0.36,0.102,0.564,0.396,0.564c0.146,0,0.229-0.012,0.308-0.036    l0.022,0.402c-0.103,0.036-0.265,0.072-0.468,0.072c-0.246,0-0.444-0.084-0.57-0.222c-0.145-0.162-0.204-0.42-0.204-0.762V39.52    h-0.448v-0.402h0.448v-0.534L166.896,38.422z"/>
		<path d="M168.51,40.661c0.012,0.714,0.463,1.008,0.989,1.008c0.379,0,0.612-0.066,0.806-0.144l0.096,0.372    c-0.187,0.084-0.51,0.186-0.973,0.186c-0.889,0-1.429-0.594-1.429-1.464c0-0.882,0.522-1.572,1.368-1.572    c0.947,0,1.193,0.834,1.193,1.368c0,0.108-0.006,0.192-0.018,0.252L168.51,40.661z M170.052,40.282    c0.007-0.33-0.139-0.858-0.727-0.858c-0.54,0-0.769,0.492-0.81,0.858H170.052z"/>
		<path d="M171.215,39.904c0-0.306-0.006-0.546-0.023-0.786h0.469l0.029,0.474h0.013c0.146-0.27,0.479-0.54,0.96-0.54    c0.402,0,1.025,0.24,1.025,1.236v1.734h-0.527v-1.674c0-0.468-0.174-0.864-0.672-0.864c-0.342,0-0.612,0.246-0.709,0.54    c-0.023,0.066-0.035,0.162-0.035,0.246v1.752h-0.528L171.215,39.904L171.215,39.904z"/>
		<path d="M175.157,38.422v0.696h0.756v0.402h-0.756v1.566c0,0.36,0.102,0.564,0.396,0.564c0.146,0,0.229-0.012,0.307-0.036    l0.023,0.402c-0.102,0.036-0.264,0.072-0.468,0.072c-0.246,0-0.444-0.084-0.569-0.222c-0.145-0.162-0.205-0.42-0.205-0.762V39.52    h-0.449v-0.402h0.449v-0.534L175.157,38.422z"/>
		<path d="M176.76,38.584c-0.197,0-0.33-0.156-0.33-0.342c0-0.186,0.139-0.336,0.342-0.336c0.205,0,0.336,0.15,0.336,0.336    c0,0.186-0.131,0.342-0.342,0.342H176.76z M176.508,42.022v-2.904h0.527v2.904H176.508z"/>
		<path d="M179.958,41.327c0,0.252,0.013,0.498,0.042,0.696h-0.475l-0.049-0.366h-0.018c-0.156,0.228-0.475,0.432-0.889,0.432    c-0.588,0-0.889-0.414-0.889-0.834c0-0.702,0.625-1.086,1.746-1.08v-0.06c0-0.24-0.066-0.678-0.66-0.672    c-0.275,0-0.558,0.078-0.762,0.216l-0.12-0.354c0.24-0.15,0.595-0.252,0.96-0.252c0.895,0,1.11,0.606,1.11,1.188v1.086H179.958z     M179.441,40.541c-0.576-0.012-1.229,0.09-1.229,0.654c0,0.348,0.228,0.504,0.492,0.504c0.384,0,0.63-0.24,0.714-0.486    c0.018-0.054,0.023-0.114,0.023-0.168V40.541z"/>
		<path d="M180.803,37.762h0.528v4.26h-0.528V37.762z"/>
	</g>
	<g>
		<path d="M163.35,48.75c-0.029-0.564-0.065-1.248-0.065-1.746h-0.013c-0.145,0.468-0.306,0.978-0.51,1.536l-0.714,1.962h-0.396    l-0.66-1.926c-0.191-0.576-0.348-1.092-0.463-1.572h-0.012c-0.013,0.504-0.041,1.176-0.078,1.788l-0.107,1.734h-0.498l0.282-4.044    h0.666l0.69,1.956c0.168,0.498,0.299,0.942,0.406,1.362h0.014c0.106-0.408,0.252-0.852,0.432-1.362l0.72-1.956h0.666l0.252,4.044    h-0.517L163.35,48.75z"/>
		<path d="M167.195,49.734c0,0.3,0.006,0.564,0.022,0.792h-0.468l-0.029-0.474h-0.013c-0.132,0.234-0.442,0.54-0.96,0.54    c-0.456,0-1.002-0.258-1.002-1.272v-1.698h0.527v1.602c0,0.552,0.175,0.93,0.647,0.93c0.354,0,0.601-0.246,0.696-0.486    c0.029-0.072,0.048-0.168,0.048-0.27v-1.776h0.528v2.112H167.195z"/>
		<path d="M167.999,49.992c0.162,0.096,0.438,0.204,0.702,0.204c0.378,0,0.558-0.186,0.558-0.432c0-0.252-0.149-0.39-0.534-0.534    c-0.526-0.192-0.772-0.474-0.772-0.822c0-0.468,0.384-0.852,1.002-0.852c0.294,0,0.552,0.078,0.708,0.18l-0.126,0.378    c-0.114-0.066-0.324-0.168-0.595-0.168c-0.313,0-0.479,0.18-0.479,0.396c0,0.246,0.168,0.354,0.546,0.498    c0.498,0.186,0.762,0.438,0.762,0.876c0,0.516-0.4,0.876-1.08,0.876c-0.316,0-0.61-0.084-0.814-0.204L167.999,49.992z"/>
		<path d="M170.975,48.954h0.012c0.072-0.102,0.17-0.234,0.254-0.33l0.857-1.002h0.629l-1.121,1.194l1.277,1.71h-0.642l-0.996-1.398    l-0.271,0.306v1.092h-0.529v-4.26h0.529V48.954L170.975,48.954z"/>
		<path d="M173.604,49.165c0.013,0.714,0.463,1.008,0.989,1.008c0.38,0,0.612-0.066,0.806-0.144l0.096,0.372    c-0.186,0.084-0.51,0.186-0.973,0.186c-0.889,0-1.429-0.594-1.429-1.464c0-0.882,0.522-1.572,1.368-1.572    c0.948,0,1.193,0.834,1.193,1.368c0,0.108-0.006,0.192-0.018,0.252L173.604,49.165z M175.146,48.786    c0.006-0.33-0.14-0.858-0.728-0.858c-0.54,0-0.769,0.492-0.81,0.858H175.146z"/>
		<path d="M176.311,46.266h0.526v4.26h-0.526V46.266z"/>
		<path d="M177.643,49.992c0.162,0.096,0.438,0.204,0.701,0.204c0.379,0,0.559-0.186,0.559-0.432c0-0.252-0.15-0.39-0.534-0.534    c-0.527-0.192-0.772-0.474-0.772-0.822c0-0.468,0.383-0.852,1.002-0.852c0.293,0,0.551,0.078,0.707,0.18l-0.125,0.378    c-0.115-0.066-0.324-0.168-0.596-0.168c-0.313,0-0.479,0.18-0.479,0.396c0,0.246,0.168,0.354,0.545,0.498    c0.498,0.186,0.763,0.438,0.763,0.876c0,0.516-0.401,0.876-1.08,0.876c-0.317,0-0.61-0.084-0.815-0.204L177.643,49.992z"/>
		<path d="M180.089,48.57c0-0.372-0.006-0.672-0.022-0.948h0.474l0.03,0.498h0.012c0.21-0.36,0.559-0.564,1.025-0.564    c0.709,0,1.236,0.594,1.236,1.476c0,1.044-0.643,1.56-1.32,1.56c-0.39,0-0.719-0.168-0.895-0.456h-0.012v1.578h-0.528V48.57    L180.089,48.57z M180.617,49.344c0,0.072,0.006,0.15,0.023,0.216c0.09,0.366,0.414,0.618,0.786,0.618    c0.558,0,0.882-0.456,0.882-1.122c0-0.582-0.3-1.08-0.857-1.08c-0.359,0-0.702,0.252-0.805,0.648    c-0.012,0.072-0.029,0.15-0.029,0.216V49.344z"/>
		<path d="M185.549,49.831c0,0.252,0.012,0.498,0.042,0.696h-0.475l-0.048-0.366h-0.019c-0.155,0.228-0.475,0.432-0.889,0.432    c-0.589,0-0.888-0.414-0.888-0.834c0-0.702,0.623-1.086,1.746-1.08v-0.06c0-0.24-0.066-0.678-0.66-0.672    c-0.276,0-0.559,0.078-0.762,0.216l-0.121-0.354c0.24-0.15,0.594-0.252,0.961-0.252c0.894,0,1.109,0.606,1.109,1.188v1.086    H185.549z M185.032,49.044c-0.576-0.012-1.229,0.09-1.229,0.654c0,0.348,0.229,0.504,0.492,0.504c0.385,0,0.63-0.24,0.714-0.486    c0.019-0.054,0.023-0.114,0.023-0.168V49.044z"/>
		<path d="M186.396,48.408c0-0.306-0.008-0.546-0.024-0.786h0.468l0.03,0.474h0.012c0.146-0.27,0.479-0.54,0.96-0.54    c0.402,0,1.026,0.24,1.026,1.236v1.734h-0.528v-1.674c0-0.468-0.174-0.864-0.672-0.864c-0.342,0-0.611,0.246-0.708,0.54    c-0.024,0.066-0.036,0.162-0.036,0.246v1.752h-0.527V48.408L186.396,48.408z"/>
		<path d="M189.727,48.408c0-0.306-0.008-0.546-0.024-0.786h0.468l0.03,0.474h0.012c0.146-0.27,0.479-0.54,0.96-0.54    c0.402,0,1.026,0.24,1.026,1.236v1.734h-0.528v-1.674c0-0.468-0.174-0.864-0.672-0.864c-0.342,0-0.611,0.246-0.708,0.54    c-0.024,0.066-0.036,0.162-0.036,0.246v1.752h-0.527V48.408L189.727,48.408z"/>
		<path d="M195.484,49.734c0,0.3,0.007,0.564,0.023,0.792h-0.468l-0.03-0.474h-0.012c-0.132,0.234-0.443,0.54-0.96,0.54    c-0.456,0-1.002-0.258-1.002-1.272v-1.698h0.528v1.602c0,0.552,0.174,0.93,0.646,0.93c0.354,0,0.602-0.246,0.696-0.486    c0.03-0.072,0.048-0.168,0.048-0.27v-1.776h0.527v2.112H195.484z"/>
		<path d="M196.359,48.408c0-0.306-0.006-0.546-0.022-0.786h0.468l0.03,0.474h0.013c0.145-0.27,0.479-0.54,0.959-0.54    c0.402,0,1.026,0.24,1.026,1.236v1.734h-0.528v-1.674c0-0.468-0.174-0.864-0.672-0.864c-0.342,0-0.611,0.246-0.708,0.54    c-0.024,0.066-0.036,0.162-0.036,0.246v1.752h-0.527v-2.118H196.359z"/>
		<path d="M202.175,50.101c0,0.672-0.138,1.074-0.413,1.332c-0.289,0.258-0.695,0.348-1.063,0.348c-0.35,0-0.732-0.084-0.967-0.24    l0.133-0.408c0.191,0.126,0.49,0.234,0.852,0.234c0.54,0,0.938-0.282,0.938-1.02v-0.318h-0.014    c-0.154,0.27-0.474,0.486-0.924,0.486c-0.72,0-1.236-0.612-1.236-1.422c0-0.984,0.644-1.536,1.314-1.536    c0.504,0,0.773,0.258,0.906,0.498h0.012l0.018-0.432h0.47c-0.019,0.204-0.024,0.438-0.024,0.792L202.175,50.101L202.175,50.101z     M201.646,48.762c0-0.084-0.006-0.162-0.029-0.234c-0.098-0.312-0.35-0.564-0.738-0.564c-0.504,0-0.863,0.426-0.863,1.104    c0,0.564,0.293,1.044,0.857,1.044c0.33,0,0.624-0.204,0.73-0.546c0.03-0.084,0.043-0.186,0.043-0.282V48.762z"/>
	</g>
</g>
</svg>