<?xml version="1.0" encoding="UTF-8" standalone="no"?>
<svg
   xmlns:dc="http://purl.org/dc/elements/1.1/"
   xmlns:cc="http://creativecommons.org/ns#"
   xmlns:rdf="http://www.w3.org/1999/02/22-rdf-syntax-ns#"
   xmlns:svg="http://www.w3.org/2000/svg"
   xmlns="http://www.w3.org/2000/svg"
   xmlns:sodipodi="http://sodipodi.sourceforge.net/DTD/sodipodi-0.dtd"
   xmlns:inkscape="http://www.inkscape.org/namespaces/inkscape"
   width="1052.3622"
   height="744.09448"
   viewBox="0 0 1266 559"
   version="1.0"
   id="svg2"
   sodipodi:version="0.32"
   inkscape:version="0.46"
   sodipodi:docname="top_new.svg"
   inkscape:output_extension="org.inkscape.output.svg.inkscape">
  <metadata
     id="metadata632">
    <rdf:RDF>
      <cc:Work
         rdf:about="">
        <dc:format>image/svg+xml</dc:format>
        <dc:type
           rdf:resource="http://purl.org/dc/dcmitype/StillImage" />
      </cc:Work>
    </rdf:RDF>
  </metadata>
  <defs
     id="defs630">
    <inkscape:perspective
       sodipodi:type="inkscape:persp3d"
       inkscape:vp_x="0 : 349.375 : 1"
       inkscape:vp_y="0 : 1000 : 0"
       inkscape:vp_z="1582.5 : 349.375 : 1"
       inkscape:persp3d-origin="791.25 : 232.91667 : 1"
       id="perspective634" />
  </defs>
  <sodipodi:namedview
     inkscape:window-height="1132"
     inkscape:window-width="2048"
     inkscape:pageshadow="2"
     inkscape:pageopacity="0.0"
     guidetolerance="10.0"
     gridtolerance="10.0"
     objecttolerance="10.0"
     borderopacity="1.0"
     bordercolor="#666666"
     pagecolor="#ffffff"
     id="base"
     showgrid="true"
     inkscape:zoom="0.86001396"
     inkscape:cx="841.64638"
     inkscape:cy="302.20671"
     inkscape:window-x="2048"
     inkscape:window-y="0"
     inkscape:current-layer="svg2"
     inkscape:document-units="mm">
    <inkscape:grid
       type="xygrid"
       id="grid2691"
       units="mm"
       visible="true"
       enabled="true" />
  </sodipodi:namedview>
  <g
     id="surface0"
     transform="matrix(0.1944173,0,0,0.1944173,506.25889,225.16796)">
    <path
       style="fill:#ffffff;fill-opacity:1;fill-rule:evenodd;stroke:none"
       d="M 511.03516,42.304688 C 511.03516,2.78125 451.74609,2.78125 451.74609,42.304688 C 451.74609,81.832031 511.03516,81.832031 511.03516,42.304688"
       id="path5" />
    <path
       style="fill:#ffffff;fill-opacity:1;fill-rule:evenodd;stroke:none"
       d="M 566.80859,42.304688 C 566.80859,2.78125 507.51953,2.78125 507.51953,42.304688 C 507.51953,81.832031 566.80859,81.832031 566.80859,42.304688"
       id="path7" />
    <path
       style="fill:#ffffff;fill-opacity:1;fill-rule:evenodd;stroke:none"
       d="M 622.58594,42.304688 C 622.58594,2.78125 563.29688,2.78125 563.29688,42.304688 C 563.29688,81.832031 622.58594,81.832031 622.58594,42.304688"
       id="path9" />
    <path
       style="fill:#ffffff;fill-opacity:1;fill-rule:evenodd;stroke:none"
       d="M 678.36328,42.304688 C 678.36328,2.78125 619.07422,2.78125 619.07422,42.304688 C 619.07422,81.832031 678.36328,81.832031 678.36328,42.304688"
       id="path11" />
    <path
       style="fill:#ffffff;fill-opacity:1;fill-rule:evenodd;stroke:none"
       d="M 734.13672,42.304688 C 734.13672,2.78125 674.84766,2.78125 674.84766,42.304688 C 674.84766,81.832031 734.13672,81.832031 734.13672,42.304688"
       id="path13" />
    <path
       style="fill:#ffffff;fill-opacity:1;fill-rule:evenodd;stroke:none"
       d="M 789.91406,42.304688 C 789.91406,2.78125 730.625,2.78125 730.625,42.304688 C 730.625,81.832031 789.91406,81.832031 789.91406,42.304688"
       id="path15" />
    <path
       style="fill:#ffffff;fill-opacity:1;fill-rule:evenodd;stroke:none"
       d="M 845.6875,42.304688 C 845.6875,2.78125 786.39844,2.78125 786.39844,42.304688 C 786.39844,81.832031 845.6875,81.832031 845.6875,42.304688"
       id="path17" />
    <path
       style="fill:#ffffff;fill-opacity:1;fill-rule:evenodd;stroke:none"
       d="M 901.46484,42.304688 C 901.46484,2.78125 842.17578,2.78125 842.17578,42.304688 C 842.17578,81.832031 901.46484,81.832031 901.46484,42.304688"
       id="path19" />
    <path
       style="fill:#ffffff;fill-opacity:1;fill-rule:evenodd;stroke:none"
       d="M 511.03516,516.39844 C 511.03516,476.875 451.74609,476.875 451.74609,516.39844 C 451.74609,555.92578 511.03516,555.92578 511.03516,516.39844"
       id="path21" />
    <path
       style="fill:#ffffff;fill-opacity:1;fill-rule:evenodd;stroke:none"
       d="M 566.80859,516.39844 C 566.80859,476.875 507.51953,476.875 507.51953,516.39844 C 507.51953,555.92578 566.80859,555.92578 566.80859,516.39844"
       id="path23" />
    <path
       style="fill:#ffffff;fill-opacity:1;fill-rule:evenodd;stroke:none"
       d="M 622.58594,516.39844 C 622.58594,476.875 563.29688,476.875 563.29688,516.39844 C 563.29688,555.92578 622.58594,555.92578 622.58594,516.39844"
       id="path25" />
    <path
       style="fill:#ffffff;fill-opacity:1;fill-rule:evenodd;stroke:none"
       d="M 678.36328,516.39844 C 678.36328,476.875 619.07422,476.875 619.07422,516.39844 C 619.07422,555.92578 678.36328,555.92578 678.36328,516.39844"
       id="path27" />
    <path
       style="fill:#ffffff;fill-opacity:1;fill-rule:evenodd;stroke:none"
       d="M 734.13672,516.39844 C 734.13672,476.875 674.84766,476.875 674.84766,516.39844 C 674.84766,555.92578 734.13672,555.92578 734.13672,516.39844"
       id="path29" />
    <path
       style="fill:#ffffff;fill-opacity:1;fill-rule:evenodd;stroke:none"
       d="M 789.91406,516.39844 C 789.91406,476.875 730.625,476.875 730.625,516.39844 C 730.625,555.92578 789.91406,555.92578 789.91406,516.39844"
       id="path31" />
    <path
       style="fill:#ffffff;fill-opacity:1;fill-rule:evenodd;stroke:none"
       d="M 845.6875,516.39844 C 845.6875,476.875 786.39844,476.875 786.39844,516.39844 C 786.39844,555.92578 845.6875,555.92578 845.6875,516.39844"
       id="path33" />
    <path
       style="fill:#ffffff;fill-opacity:1;fill-rule:evenodd;stroke:none"
       d="M 901.46484,516.39844 C 901.46484,476.875 842.17578,476.875 842.17578,516.39844 C 842.17578,555.92578 901.46484,555.92578 901.46484,516.39844"
       id="path35" />
    <path
       style="fill:#ffffff;fill-opacity:1;fill-rule:evenodd;stroke:none"
       d="M 455.25781,516.39844 C 455.25781,476.875 395.96875,476.875 395.96875,516.39844 C 395.96875,555.92578 455.25781,555.92578 455.25781,516.39844"
       id="path37" />
    <path
       style="fill:#ffffff;fill-opacity:1;fill-rule:evenodd;stroke:none"
       d="M 894.65625,417.14453 L 916.61719,417.14453 L 916.61719,447.88672 L 894.65625,447.88672 L 894.65625,417.14453 z"
       id="path39" />
    <path
       style="fill:#ffffff;fill-opacity:1;fill-rule:evenodd;stroke:none"
       d="M 872.69922,417.14453 L 894.65625,417.14453 L 894.65625,447.88672 L 872.69922,447.88672 L 872.69922,417.14453 z"
       id="path41" />
    <path
       style="fill:#ffffff;fill-opacity:1;fill-rule:evenodd;stroke:none"
       d="M 850.73828,417.14453 L 872.69922,417.14453 L 872.69922,447.88672 L 850.73828,447.88672 L 850.73828,417.14453 z"
       id="path43" />
    <path
       style="fill:#ffffff;fill-opacity:1;fill-rule:evenodd;stroke:none"
       d="M 828.78125,417.14453 L 850.73828,417.14453 L 850.73828,447.88672 L 828.78125,447.88672 L 828.78125,417.14453 z"
       id="path45" />
    <path
       style="fill:#ffffff;fill-opacity:1;fill-rule:evenodd;stroke:none"
       d="M 806.82031,417.14453 L 828.78125,417.14453 L 828.78125,447.88672 L 806.82031,447.88672 L 806.82031,417.14453 z"
       id="path47" />
    <path
       style="fill:#ffffff;fill-opacity:1;fill-rule:evenodd;stroke:none"
       d="M 784.86328,417.14453 L 806.82031,417.14453 L 806.82031,447.88672 L 784.86328,447.88672 L 784.86328,417.14453 z"
       id="path49" />
    <path
       style="fill:#ffffff;fill-opacity:1;fill-rule:evenodd;stroke:none"
       d="M 762.90234,417.14453 L 784.86328,417.14453 L 784.86328,447.88672 L 762.90234,447.88672 L 762.90234,417.14453 z"
       id="path51" />
    <path
       style="fill:#ffffff;fill-opacity:1;fill-rule:evenodd;stroke:none"
       d="M 740.94531,417.14453 L 762.90234,417.14453 L 762.90234,447.88672 L 740.94531,447.88672 L 740.94531,417.14453 z"
       id="path53" />
    <path
       style="fill:#ffffff;fill-opacity:1;fill-rule:evenodd;stroke:none"
       d="M 718.98438,417.14453 L 740.94531,417.14453 L 740.94531,447.88672 L 718.98438,447.88672 L 718.98438,417.14453 z"
       id="path55" />
    <path
       style="fill:#ffffff;fill-opacity:1;fill-rule:evenodd;stroke:none"
       d="M 697.02734,417.14453 L 718.98438,417.14453 L 718.98438,447.88672 L 697.02734,447.88672 L 697.02734,417.14453 z"
       id="path57" />
    <path
       style="fill:#ffffff;fill-opacity:1;fill-rule:evenodd;stroke:none"
       d="M 675.06641,417.14453 L 697.02734,417.14453 L 697.02734,447.88672 L 675.06641,447.88672 L 675.06641,417.14453 z"
       id="path59" />
    <path
       style="fill:#ffffff;fill-opacity:1;fill-rule:evenodd;stroke:none"
       d="M 653.10938,417.14453 L 675.06641,417.14453 L 675.06641,447.88672 L 653.10938,447.88672 L 653.10938,417.14453 z"
       id="path61" />
    <path
       style="fill:#ffffff;fill-opacity:1;fill-rule:evenodd;stroke:none"
       d="M 631.14844,417.14453 L 653.10938,417.14453 L 653.10938,447.88672 L 631.14844,447.88672 L 631.14844,417.14453 z"
       id="path63" />
    <path
       style="fill:#ffffff;fill-opacity:1;fill-rule:evenodd;stroke:none"
       d="M 609.19141,417.14453 L 631.14844,417.14453 L 631.14844,447.88672 L 609.19141,447.88672 L 609.19141,417.14453 z"
       id="path65" />
    <path
       style="fill:#ffffff;fill-opacity:1;fill-rule:evenodd;stroke:none"
       d="M 587.23047,417.14453 L 609.19141,417.14453 L 609.19141,447.88672 L 587.23047,447.88672 L 587.23047,417.14453 z"
       id="path67" />
    <path
       style="fill:#ffffff;fill-opacity:1;fill-rule:evenodd;stroke:none"
       d="M 565.27344,417.14453 L 587.23047,417.14453 L 587.23047,447.88672 L 565.27344,447.88672 L 565.27344,417.14453 z"
       id="path69" />
    <path
       style="fill:#ffffff;fill-opacity:1;fill-rule:evenodd;stroke:none"
       d="M 543.3125,417.14453 L 565.27344,417.14453 L 565.27344,447.88672 L 543.3125,447.88672 L 543.3125,417.14453 z"
       id="path71" />
    <path
       style="fill:#ffffff;fill-opacity:1;fill-rule:evenodd;stroke:none"
       d="M 521.35547,417.14453 L 543.3125,417.14453 L 543.3125,447.88672 L 521.35547,447.88672 L 521.35547,417.14453 z"
       id="path73" />
    <path
       style="fill:#ffffff;fill-opacity:1;fill-rule:evenodd;stroke:none"
       d="M 894.65625,110.37891 L 916.61719,110.37891 L 916.61719,141.12109 L 894.65625,141.12109 L 894.65625,110.37891 z"
       id="path75" />
    <path
       style="fill:#ffffff;fill-opacity:1;fill-rule:evenodd;stroke:none"
       d="M 872.69922,110.37891 L 894.65625,110.37891 L 894.65625,141.12109 L 872.69922,141.12109 L 872.69922,110.37891 z"
       id="path77" />
    <path
       style="fill:#ffffff;fill-opacity:1;fill-rule:evenodd;stroke:none"
       d="M 850.73828,110.37891 L 872.69922,110.37891 L 872.69922,141.12109 L 850.73828,141.12109 L 850.73828,110.37891 z"
       id="path79" />
    <path
       style="fill:#ffffff;fill-opacity:1;fill-rule:evenodd;stroke:none"
       d="M 828.78125,110.37891 L 850.73828,110.37891 L 850.73828,141.12109 L 828.78125,141.12109 L 828.78125,110.37891 z"
       id="path81" />
    <path
       style="fill:#ffffff;fill-opacity:1;fill-rule:evenodd;stroke:none"
       d="M 806.82031,110.37891 L 828.78125,110.37891 L 828.78125,141.12109 L 806.82031,141.12109 L 806.82031,110.37891 z"
       id="path83" />
    <path
       style="fill:#ffffff;fill-opacity:1;fill-rule:evenodd;stroke:none"
       d="M 784.86328,110.37891 L 806.82031,110.37891 L 806.82031,141.12109 L 784.86328,141.12109 L 784.86328,110.37891 z"
       id="path85" />
    <path
       style="fill:#ffffff;fill-opacity:1;fill-rule:evenodd;stroke:none"
       d="M 762.90234,110.37891 L 784.86328,110.37891 L 784.86328,141.12109 L 762.90234,141.12109 L 762.90234,110.37891 z"
       id="path87" />
    <path
       style="fill:#ffffff;fill-opacity:1;fill-rule:evenodd;stroke:none"
       d="M 740.94531,110.37891 L 762.90234,110.37891 L 762.90234,141.12109 L 740.94531,141.12109 L 740.94531,110.37891 z"
       id="path89" />
    <path
       style="fill:#ffffff;fill-opacity:1;fill-rule:evenodd;stroke:none"
       d="M 718.98438,110.37891 L 740.94531,110.37891 L 740.94531,141.12109 L 718.98438,141.12109 L 718.98438,110.37891 z"
       id="path91" />
    <path
       style="fill:#ffffff;fill-opacity:1;fill-rule:evenodd;stroke:none"
       d="M 697.02734,110.37891 L 718.98438,110.37891 L 718.98438,141.12109 L 697.02734,141.12109 L 697.02734,110.37891 z"
       id="path93" />
    <path
       style="fill:#ffffff;fill-opacity:1;fill-rule:evenodd;stroke:none"
       d="M 675.06641,110.37891 L 697.02734,110.37891 L 697.02734,141.12109 L 675.06641,141.12109 L 675.06641,110.37891 z"
       id="path95" />
    <path
       style="fill:#ffffff;fill-opacity:1;fill-rule:evenodd;stroke:none"
       d="M 653.10938,110.37891 L 675.06641,110.37891 L 675.06641,141.12109 L 653.10938,141.12109 L 653.10938,110.37891 z"
       id="path97" />
    <path
       style="fill:#ffffff;fill-opacity:1;fill-rule:evenodd;stroke:none"
       d="M 631.14844,110.37891 L 653.10938,110.37891 L 653.10938,141.12109 L 631.14844,141.12109 L 631.14844,110.37891 z"
       id="path99" />
    <path
       style="fill:#ffffff;fill-opacity:1;fill-rule:evenodd;stroke:none"
       d="M 609.19141,110.37891 L 631.14844,110.37891 L 631.14844,141.12109 L 609.19141,141.12109 L 609.19141,110.37891 z"
       id="path101" />
    <path
       style="fill:#ffffff;fill-opacity:1;fill-rule:evenodd;stroke:none"
       d="M 587.23047,110.37891 L 609.19141,110.37891 L 609.19141,141.12109 L 587.23047,141.12109 L 587.23047,110.37891 z"
       id="path103" />
    <path
       style="fill:#ffffff;fill-opacity:1;fill-rule:evenodd;stroke:none"
       d="M 565.27344,110.37891 L 587.23047,110.37891 L 587.23047,141.12109 L 565.27344,141.12109 L 565.27344,110.37891 z"
       id="path105" />
    <path
       style="fill:#ffffff;fill-opacity:1;fill-rule:evenodd;stroke:none"
       d="M 543.3125,110.37891 L 565.27344,110.37891 L 565.27344,141.12109 L 543.3125,141.12109 L 543.3125,110.37891 z"
       id="path107" />
    <path
       style="fill:#ffffff;fill-opacity:1;fill-rule:evenodd;stroke:none"
       d="M 521.35547,110.37891 L 543.3125,110.37891 L 543.3125,141.12109 L 521.35547,141.12109 L 521.35547,110.37891 z"
       id="path109" />
    <path
       style="fill:#ffffff;fill-opacity:1;fill-rule:evenodd;stroke:none"
       d="M 489.29687,226.76172 L 489.29687,204.80078 L 520.03906,204.80078 L 520.03906,226.76172 L 489.29687,226.76172 z"
       id="path111" />
    <path
       style="fill:#ffffff;fill-opacity:1;fill-rule:evenodd;stroke:none"
       d="M 489.29687,248.71875 L 489.29687,226.76172 L 520.03906,226.76172 L 520.03906,248.71875 L 489.29687,248.71875 z"
       id="path113" />
    <path
       style="fill:#ffffff;fill-opacity:1;fill-rule:evenodd;stroke:none"
       d="M 489.29687,270.67969 L 489.29687,248.71875 L 520.03906,248.71875 L 520.03906,270.67969 L 489.29687,270.67969 z"
       id="path115" />
    <path
       style="fill:#ffffff;fill-opacity:1;fill-rule:evenodd;stroke:none"
       d="M 489.29687,292.63672 L 489.29687,270.67969 L 520.03906,270.67969 L 520.03906,292.63672 L 489.29687,292.63672 z"
       id="path117" />
    <path
       style="fill:#ffffff;fill-opacity:1;fill-rule:evenodd;stroke:none"
       d="M 489.29687,314.59766 L 489.29687,292.63672 L 520.03906,292.63672 L 520.03906,314.59766 L 489.29687,314.59766 z"
       id="path119" />
    <path
       style="fill:#ffffff;fill-opacity:1;fill-rule:evenodd;stroke:none"
       d="M 489.29687,336.55469 L 489.29687,314.59766 L 520.03906,314.59766 L 520.03906,336.55469 L 489.29687,336.55469 z"
       id="path121" />
    <path
       style="fill:#ffffff;fill-opacity:1;fill-rule:evenodd;stroke:none"
       d="M 489.29687,358.51562 L 489.29687,336.55469 L 520.03906,336.55469 L 520.03906,358.51562 L 489.29687,358.51562 z"
       id="path123" />
    <path
       style="fill:#ffffff;fill-opacity:1;fill-rule:evenodd;stroke:none"
       d="M 957.24219,42.304688 C 957.24219,2.78125 897.95312,2.78125 897.95312,42.304688 C 897.95312,81.832031 957.24219,81.832031 957.24219,42.304688"
       id="path125" />
    <path
       style="fill:#ffffff;fill-opacity:1;fill-rule:evenodd;stroke:none"
       d="M 455.25781,42.304688 C 455.25781,2.78125 395.96875,2.78125 395.96875,42.304688 C 395.96875,81.832031 455.25781,81.832031 455.25781,42.304688"
       id="path127" />
    <path
       style="fill:#ffffff;fill-opacity:1;fill-rule:evenodd;stroke:none"
       d="M 957.24219,516.39844 C 957.24219,476.875 897.95312,476.875 897.95312,516.39844 C 897.95312,555.92578 957.24219,555.92578 957.24219,516.39844"
       id="path129" />
    <path
       style="fill:#ffffff;fill-opacity:1;fill-rule:evenodd;stroke:none"
       d="M 366.98437,242.13281 L 366.98437,223.24609 L 393.11328,223.24609 L 393.11328,242.13281 L 366.98437,242.13281 z"
       id="path131" />
    <path
       style="fill:#ffffff;fill-opacity:1;fill-rule:evenodd;stroke:none"
       d="M 366.98437,221.49219 L 366.98437,202.60547 L 393.11328,202.60547 L 393.11328,221.49219 L 366.98437,221.49219 z"
       id="path133" />
    <path
       style="fill:#ffffff;fill-opacity:1;fill-rule:evenodd;stroke:none"
       d="M 366.98437,200.41016 L 366.98437,181.52734 L 393.11328,181.52734 L 393.11328,200.41016 L 366.98437,200.41016 z"
       id="path135" />
    <path
       style="fill:#ffffff;fill-opacity:1;fill-rule:evenodd;stroke:none"
       d="M 310.10938,200.41016 L 310.10938,181.52734 L 336.24219,181.52734 L 336.24219,200.41016 L 310.10938,200.41016 z"
       id="path137" />
    <path
       style="fill:#ffffff;fill-opacity:1;fill-rule:evenodd;stroke:none"
       d="M 310.10938,242.13281 L 310.10938,223.24609 L 336.24219,223.24609 L 336.24219,242.13281 L 310.10938,242.13281 z"
       id="path139" />
    <path
       style="fill:#ffffff;fill-opacity:1;fill-rule:evenodd;stroke:none"
       d="M 314.28125,102.03516 L 347.21875,102.03516 L 347.21875,141.55859 L 314.28125,141.55859 L 314.28125,102.03516 z"
       id="path141" />
    <path
       style="fill:#ffffff;fill-opacity:1;fill-rule:evenodd;stroke:none"
       d="M 356.00391,102.03516 L 388.94141,102.03516 L 388.94141,141.55859 L 356.00391,141.55859 L 356.00391,102.03516 z"
       id="path143" />
    <path
       style="fill:#ffffff;fill-opacity:1;fill-rule:evenodd;stroke:none"
       d="M 384.11328,308.66797 L 355.56641,308.66797 L 355.56641,277.92578 L 384.11328,277.92578 L 384.11328,308.66797 z"
       id="path145" />
    <path
       style="fill:#ffffff;fill-opacity:1;fill-rule:evenodd;stroke:none"
       d="M 346.78125,308.66797 L 318.23437,308.66797 L 318.23437,277.92578 L 346.78125,277.92578 L 346.78125,308.66797 z"
       id="path147" />
    <path
       style="fill:#ffffff;fill-opacity:1;fill-rule:evenodd;stroke:none"
       d="M 426.49219,354.12109 L 426.49219,325.57812 L 457.23437,325.57812 L 457.23437,354.12109 L 426.49219,354.12109 z"
       id="path149" />
    <path
       style="fill:#ffffff;fill-opacity:1;fill-rule:evenodd;stroke:none"
       d="M 426.49219,316.79297 L 426.49219,288.24609 L 457.23437,288.24609 L 457.23437,316.79297 L 426.49219,316.79297 z"
       id="path151" />
    <path
       style="fill:#ffffff;fill-opacity:1;fill-rule:evenodd;stroke:none"
       d="M 384.33203,385.30469 L 355.78516,385.30469 L 355.78516,354.5625 L 384.33203,354.5625 L 384.33203,385.30469 z"
       id="path153" />
    <path
       style="fill:#ffffff;fill-opacity:1;fill-rule:evenodd;stroke:none"
       d="M 347,385.30469 L 318.45312,385.30469 L 318.45312,354.5625 L 347,354.5625 L 347,385.30469 z"
       id="path155" />
    <path
       style="fill:#ffffff;fill-opacity:1;fill-rule:evenodd;stroke:none"
       d="M 384.33203,455.13281 L 355.78516,455.13281 L 355.78516,424.39062 L 384.33203,424.39062 L 384.33203,455.13281 z"
       id="path157" />
    <path
       style="fill:#ffffff;fill-opacity:1;fill-rule:evenodd;stroke:none"
       d="M 347,455.13281 L 318.45312,455.13281 L 318.45312,424.39062 L 347,424.39062 L 347,455.13281 z"
       id="path159" />
    <path
       style="fill:#ffffff;fill-opacity:1;fill-rule:evenodd;stroke:none"
       d="M 426.49219,455.13281 L 426.49219,426.58594 L 457.23437,426.58594 L 457.23437,455.13281 L 426.49219,455.13281 z"
       id="path161" />
    <path
       style="fill:#ffffff;fill-opacity:1;fill-rule:evenodd;stroke:none"
       d="M 426.49219,417.80469 L 426.49219,389.25781 L 457.23437,389.25781 L 457.23437,417.80469 L 426.49219,417.80469 z"
       id="path163" />
    <path
       style="fill:#000000;fill-opacity:1;fill-rule:evenodd;stroke:none"
       d="M 504.44531,42.304688 C 504.44531,11.5625 458.33203,11.5625 458.33203,42.304688 C 458.33203,73.046875 504.44531,73.046875 504.44531,42.304688"
       id="path165" />
    <path
       style="fill:#000000;fill-opacity:1;fill-rule:evenodd;stroke:none"
       d="M 560.22266,42.304688 C 560.22266,11.5625 514.10938,11.5625 514.10938,42.304688 C 514.10938,73.046875 560.22266,73.046875 560.22266,42.304688"
       id="path167" />
    <path
       style="fill:#000000;fill-opacity:1;fill-rule:evenodd;stroke:none"
       d="M 616,42.304688 C 616,11.5625 569.88281,11.5625 569.88281,42.304688 C 569.88281,73.046875 616,73.046875 616,42.304688"
       id="path169" />
    <path
       style="fill:#000000;fill-opacity:1;fill-rule:evenodd;stroke:none"
       d="M 671.77344,42.304688 C 671.77344,11.5625 625.66016,11.5625 625.66016,42.304688 C 625.66016,73.046875 671.77344,73.046875 671.77344,42.304688"
       id="path171" />
    <path
       style="fill:#000000;fill-opacity:1;fill-rule:evenodd;stroke:none"
       d="M 727.55078,42.304688 C 727.55078,11.5625 681.4375,11.5625 681.4375,42.304688 C 681.4375,73.046875 727.55078,73.046875 727.55078,42.304688"
       id="path173" />
    <path
       style="fill:#000000;fill-opacity:1;fill-rule:evenodd;stroke:none"
       d="M 783.32422,42.304688 C 783.32422,11.5625 737.21094,11.5625 737.21094,42.304688 C 737.21094,73.046875 783.32422,73.046875 783.32422,42.304688"
       id="path175" />
    <path
       style="fill:#000000;fill-opacity:1;fill-rule:evenodd;stroke:none"
       d="M 839.10156,42.304688 C 839.10156,11.5625 792.98828,11.5625 792.98828,42.304688 C 792.98828,73.046875 839.10156,73.046875 839.10156,42.304688"
       id="path177" />
    <path
       style="fill:#000000;fill-opacity:1;fill-rule:evenodd;stroke:none"
       d="M 894.87891,42.304688 C 894.87891,11.5625 848.76172,11.5625 848.76172,42.304688 C 848.76172,73.046875 894.87891,73.046875 894.87891,42.304688"
       id="path179" />
    <path
       style="fill:#000000;fill-opacity:1;fill-rule:evenodd;stroke:none"
       d="M 504.44531,516.39844 C 504.44531,485.65625 458.33203,485.65625 458.33203,516.39844 C 458.33203,547.14062 504.44531,547.14062 504.44531,516.39844"
       id="path181" />
    <path
       style="fill:#000000;fill-opacity:1;fill-rule:evenodd;stroke:none"
       d="M 560.22266,516.39844 C 560.22266,485.65625 514.10938,485.65625 514.10938,516.39844 C 514.10938,547.14062 560.22266,547.14062 560.22266,516.39844"
       id="path183" />
    <path
       style="fill:#000000;fill-opacity:1;fill-rule:evenodd;stroke:none"
       d="M 616,516.39844 C 616,485.65625 569.88281,485.65625 569.88281,516.39844 C 569.88281,547.14062 616,547.14062 616,516.39844"
       id="path185" />
    <path
       style="fill:#000000;fill-opacity:1;fill-rule:evenodd;stroke:none"
       d="M 671.77344,516.39844 C 671.77344,485.65625 625.66016,485.65625 625.66016,516.39844 C 625.66016,547.14062 671.77344,547.14062 671.77344,516.39844"
       id="path187" />
    <path
       style="fill:#000000;fill-opacity:1;fill-rule:evenodd;stroke:none"
       d="M 727.55078,516.39844 C 727.55078,485.65625 681.4375,485.65625 681.4375,516.39844 C 681.4375,547.14062 727.55078,547.14062 727.55078,516.39844"
       id="path189" />
    <path
       style="fill:#000000;fill-opacity:1;fill-rule:evenodd;stroke:none"
       d="M 783.32422,516.39844 C 783.32422,485.65625 737.21094,485.65625 737.21094,516.39844 C 737.21094,547.14062 783.32422,547.14062 783.32422,516.39844"
       id="path191" />
    <path
       style="fill:#000000;fill-opacity:1;fill-rule:evenodd;stroke:none"
       d="M 839.10156,516.39844 C 839.10156,485.65625 792.98828,485.65625 792.98828,516.39844 C 792.98828,547.14062 839.10156,547.14062 839.10156,516.39844"
       id="path193" />
    <path
       style="fill:#000000;fill-opacity:1;fill-rule:evenodd;stroke:none"
       d="M 894.87891,516.39844 C 894.87891,485.65625 848.76172,485.65625 848.76172,516.39844 C 848.76172,547.14062 894.87891,547.14062 894.87891,516.39844"
       id="path195" />
    <path
       style="fill:#000000;fill-opacity:1;fill-rule:evenodd;stroke:none"
       d="M 448.67188,516.39844 C 448.67188,485.65625 402.55859,485.65625 402.55859,516.39844 C 402.55859,547.14062 448.67188,547.14062 448.67188,516.39844"
       id="path197" />
    <path
       style="fill:#000000;fill-opacity:1;fill-rule:evenodd;stroke:none"
       d="M 896.85156,419.33984 L 914.42188,419.33984 L 914.42188,445.69141 L 896.85156,445.69141 L 896.85156,419.33984 z"
       id="path199" />
    <path
       style="fill:#000000;fill-opacity:1;fill-rule:evenodd;stroke:none"
       d="M 874.89453,419.33984 L 892.46094,419.33984 L 892.46094,445.69141 L 874.89453,445.69141 L 874.89453,419.33984 z"
       id="path201" />
    <path
       style="fill:#000000;fill-opacity:1;fill-rule:evenodd;stroke:none"
       d="M 852.93359,419.33984 L 870.50391,419.33984 L 870.50391,445.69141 L 852.93359,445.69141 L 852.93359,419.33984 z"
       id="path203" />
    <path
       style="fill:#000000;fill-opacity:1;fill-rule:evenodd;stroke:none"
       d="M 830.97656,419.33984 L 848.54297,419.33984 L 848.54297,445.69141 L 830.97656,445.69141 L 830.97656,419.33984 z"
       id="path205" />
    <path
       style="fill:#000000;fill-opacity:1;fill-rule:evenodd;stroke:none"
       d="M 809.01953,419.33984 L 826.58594,419.33984 L 826.58594,445.69141 L 809.01953,445.69141 L 809.01953,419.33984 z"
       id="path207" />
    <path
       style="fill:#000000;fill-opacity:1;fill-rule:evenodd;stroke:none"
       d="M 787.05859,419.33984 L 804.625,419.33984 L 804.625,445.69141 L 787.05859,445.69141 L 787.05859,419.33984 z"
       id="path209" />
    <path
       style="fill:#000000;fill-opacity:1;fill-rule:evenodd;stroke:none"
       d="M 765.10156,419.33984 L 782.66797,419.33984 L 782.66797,445.69141 L 765.10156,445.69141 L 765.10156,419.33984 z"
       id="path211" />
    <path
       style="fill:#000000;fill-opacity:1;fill-rule:evenodd;stroke:none"
       d="M 743.14062,419.33984 L 760.70703,419.33984 L 760.70703,445.69141 L 743.14062,445.69141 L 743.14062,419.33984 z"
       id="path213" />
    <path
       style="fill:#000000;fill-opacity:1;fill-rule:evenodd;stroke:none"
       d="M 721.18359,419.33984 L 738.75,419.33984 L 738.75,445.69141 L 721.18359,445.69141 L 721.18359,419.33984 z"
       id="path215" />
    <path
       style="fill:#000000;fill-opacity:1;fill-rule:evenodd;stroke:none"
       d="M 699.22266,419.33984 L 716.78906,419.33984 L 716.78906,445.69141 L 699.22266,445.69141 L 699.22266,419.33984 z"
       id="path217" />
    <path
       style="fill:#000000;fill-opacity:1;fill-rule:evenodd;stroke:none"
       d="M 677.26562,419.33984 L 694.83203,419.33984 L 694.83203,445.69141 L 677.26562,445.69141 L 677.26562,419.33984 z"
       id="path219" />
    <path
       style="fill:#000000;fill-opacity:1;fill-rule:evenodd;stroke:none"
       d="M 655.30469,419.33984 L 672.87109,419.33984 L 672.87109,445.69141 L 655.30469,445.69141 L 655.30469,419.33984 z"
       id="path221" />
    <path
       style="fill:#000000;fill-opacity:1;fill-rule:evenodd;stroke:none"
       d="M 633.34766,419.33984 L 650.91406,419.33984 L 650.91406,445.69141 L 633.34766,445.69141 L 633.34766,419.33984 z"
       id="path223" />
    <path
       style="fill:#000000;fill-opacity:1;fill-rule:evenodd;stroke:none"
       d="M 611.38672,419.33984 L 628.95312,419.33984 L 628.95312,445.69141 L 611.38672,445.69141 L 611.38672,419.33984 z"
       id="path225" />
    <path
       style="fill:#000000;fill-opacity:1;fill-rule:evenodd;stroke:none"
       d="M 589.42969,419.33984 L 606.99609,419.33984 L 606.99609,445.69141 L 589.42969,445.69141 L 589.42969,419.33984 z"
       id="path227" />
    <path
       style="fill:#000000;fill-opacity:1;fill-rule:evenodd;stroke:none"
       d="M 567.46875,419.33984 L 585.03516,419.33984 L 585.03516,445.69141 L 567.46875,445.69141 L 567.46875,419.33984 z"
       id="path229" />
    <path
       style="fill:#000000;fill-opacity:1;fill-rule:evenodd;stroke:none"
       d="M 545.51172,419.33984 L 563.07812,419.33984 L 563.07812,445.69141 L 545.51172,445.69141 L 545.51172,419.33984 z"
       id="path231" />
    <path
       style="fill:#000000;fill-opacity:1;fill-rule:evenodd;stroke:none"
       d="M 523.55078,419.33984 L 541.11719,419.33984 L 541.11719,445.69141 L 523.55078,445.69141 L 523.55078,419.33984 z"
       id="path233" />
    <path
       style="fill:#000000;fill-opacity:1;fill-rule:evenodd;stroke:none"
       d="M 896.85156,112.57422 L 914.42188,112.57422 L 914.42188,138.92578 L 896.85156,138.92578 L 896.85156,112.57422 z"
       id="path235" />
    <path
       style="fill:#000000;fill-opacity:1;fill-rule:evenodd;stroke:none"
       d="M 874.89453,112.57422 L 892.46094,112.57422 L 892.46094,138.92578 L 874.89453,138.92578 L 874.89453,112.57422 z"
       id="path237" />
    <path
       style="fill:#000000;fill-opacity:1;fill-rule:evenodd;stroke:none"
       d="M 852.93359,112.57422 L 870.50391,112.57422 L 870.50391,138.92578 L 852.93359,138.92578 L 852.93359,112.57422 z"
       id="path239" />
    <path
       style="fill:#000000;fill-opacity:1;fill-rule:evenodd;stroke:none"
       d="M 830.97656,112.57422 L 848.54297,112.57422 L 848.54297,138.92578 L 830.97656,138.92578 L 830.97656,112.57422 z"
       id="path241" />
    <path
       style="fill:#000000;fill-opacity:1;fill-rule:evenodd;stroke:none"
       d="M 809.01953,112.57422 L 826.58594,112.57422 L 826.58594,138.92578 L 809.01953,138.92578 L 809.01953,112.57422 z"
       id="path243" />
    <path
       style="fill:#000000;fill-opacity:1;fill-rule:evenodd;stroke:none"
       d="M 787.05859,112.57422 L 804.625,112.57422 L 804.625,138.92578 L 787.05859,138.92578 L 787.05859,112.57422 z"
       id="path245" />
    <path
       style="fill:#000000;fill-opacity:1;fill-rule:evenodd;stroke:none"
       d="M 765.10156,112.57422 L 782.66797,112.57422 L 782.66797,138.92578 L 765.10156,138.92578 L 765.10156,112.57422 z"
       id="path247" />
    <path
       style="fill:#000000;fill-opacity:1;fill-rule:evenodd;stroke:none"
       d="M 743.14062,112.57422 L 760.70703,112.57422 L 760.70703,138.92578 L 743.14062,138.92578 L 743.14062,112.57422 z"
       id="path249" />
    <path
       style="fill:#000000;fill-opacity:1;fill-rule:evenodd;stroke:none"
       d="M 721.18359,112.57422 L 738.75,112.57422 L 738.75,138.92578 L 721.18359,138.92578 L 721.18359,112.57422 z"
       id="path251" />
    <path
       style="fill:#000000;fill-opacity:1;fill-rule:evenodd;stroke:none"
       d="M 699.22266,112.57422 L 716.78906,112.57422 L 716.78906,138.92578 L 699.22266,138.92578 L 699.22266,112.57422 z"
       id="path253" />
    <path
       style="fill:#000000;fill-opacity:1;fill-rule:evenodd;stroke:none"
       d="M 677.26562,112.57422 L 694.83203,112.57422 L 694.83203,138.92578 L 677.26562,138.92578 L 677.26562,112.57422 z"
       id="path255" />
    <path
       style="fill:#000000;fill-opacity:1;fill-rule:evenodd;stroke:none"
       d="M 655.30469,112.57422 L 672.87109,112.57422 L 672.87109,138.92578 L 655.30469,138.92578 L 655.30469,112.57422 z"
       id="path257" />
    <path
       style="fill:#000000;fill-opacity:1;fill-rule:evenodd;stroke:none"
       d="M 633.34766,112.57422 L 650.91406,112.57422 L 650.91406,138.92578 L 633.34766,138.92578 L 633.34766,112.57422 z"
       id="path259" />
    <path
       style="fill:#000000;fill-opacity:1;fill-rule:evenodd;stroke:none"
       d="M 611.38672,112.57422 L 628.95312,112.57422 L 628.95312,138.92578 L 611.38672,138.92578 L 611.38672,112.57422 z"
       id="path261" />
    <path
       style="fill:#000000;fill-opacity:1;fill-rule:evenodd;stroke:none"
       d="M 589.42969,112.57422 L 606.99609,112.57422 L 606.99609,138.92578 L 589.42969,138.92578 L 589.42969,112.57422 z"
       id="path263" />
    <path
       style="fill:#000000;fill-opacity:1;fill-rule:evenodd;stroke:none"
       d="M 567.46875,112.57422 L 585.03516,112.57422 L 585.03516,138.92578 L 567.46875,138.92578 L 567.46875,112.57422 z"
       id="path265" />
    <path
       style="fill:#000000;fill-opacity:1;fill-rule:evenodd;stroke:none"
       d="M 545.51172,112.57422 L 563.07812,112.57422 L 563.07812,138.92578 L 545.51172,138.92578 L 545.51172,112.57422 z"
       id="path267" />
    <path
       style="fill:#000000;fill-opacity:1;fill-rule:evenodd;stroke:none"
       d="M 523.55078,112.57422 L 541.11719,112.57422 L 541.11719,138.92578 L 523.55078,138.92578 L 523.55078,112.57422 z"
       id="path269" />
    <path
       style="fill:#000000;fill-opacity:1;fill-rule:evenodd;stroke:none"
       d="M 491.49219,224.56641 L 491.49219,206.99609 L 517.83984,206.99609 L 517.83984,224.56641 L 491.49219,224.56641 z"
       id="path271" />
    <path
       style="fill:#000000;fill-opacity:1;fill-rule:evenodd;stroke:none"
       d="M 491.49219,246.52344 L 491.49219,228.95703 L 517.83984,228.95703 L 517.83984,246.52344 L 491.49219,246.52344 z"
       id="path273" />
    <path
       style="fill:#000000;fill-opacity:1;fill-rule:evenodd;stroke:none"
       d="M 491.49219,268.48437 L 491.49219,250.91406 L 517.83984,250.91406 L 517.83984,268.48437 L 491.49219,268.48437 z"
       id="path275" />
    <path
       style="fill:#000000;fill-opacity:1;fill-rule:evenodd;stroke:none"
       d="M 491.49219,290.44141 L 491.49219,272.875 L 517.83984,272.875 L 517.83984,290.44141 L 491.49219,290.44141 z"
       id="path277" />
    <path
       style="fill:#000000;fill-opacity:1;fill-rule:evenodd;stroke:none"
       d="M 491.49219,312.40234 L 491.49219,294.83203 L 517.83984,294.83203 L 517.83984,312.40234 L 491.49219,312.40234 z"
       id="path279" />
    <path
       style="fill:#000000;fill-opacity:1;fill-rule:evenodd;stroke:none"
       d="M 491.49219,334.35938 L 491.49219,316.79297 L 517.83984,316.79297 L 517.83984,334.35938 L 491.49219,334.35938 z"
       id="path281" />
    <path
       style="fill:#000000;fill-opacity:1;fill-rule:evenodd;stroke:none"
       d="M 491.49219,356.32031 L 491.49219,338.75 L 517.83984,338.75 L 517.83984,356.32031 L 491.49219,356.32031 z"
       id="path283" />
    <path
       style="fill:none;stroke:#000000;stroke-width:0.015748;stroke-linecap:round;stroke-linejoin:miter;stroke-miterlimit:10;stroke-opacity:1"
       d="M 0.559451,0.776771 L 0.559451,0.818897"
       transform="matrix(557.75763,0,0,-557.75763,264.21577,559)"
       id="path285" />
    <path
       style="fill:none;stroke:#000000;stroke-width:0.015748;stroke-linecap:round;stroke-linejoin:miter;stroke-miterlimit:10;stroke-opacity:1"
       d="M 0.559451,0.818897 L 0.551971,0.826377"
       transform="matrix(557.75763,0,0,-557.75763,264.21577,559)"
       id="path287" />
    <path
       style="fill:none;stroke:#000000;stroke-width:0.015748;stroke-linecap:round;stroke-linejoin:miter;stroke-miterlimit:10;stroke-opacity:1"
       d="M 0.551971,0.826377 L 0.41457,0.826377"
       transform="matrix(557.75763,0,0,-557.75763,264.21577,559)"
       id="path289" />
    <path
       style="fill:none;stroke:#000000;stroke-width:0.015748;stroke-linecap:round;stroke-linejoin:miter;stroke-miterlimit:10;stroke-opacity:1"
       d="M 0.41457,0.826377 L 0.389371,0.851575"
       transform="matrix(557.75763,0,0,-557.75763,264.21577,559)"
       id="path291" />
    <path
       style="fill:none;stroke:#000000;stroke-width:0.015748;stroke-linecap:round;stroke-linejoin:miter;stroke-miterlimit:10;stroke-opacity:1"
       d="M 0.389371,0.851575 L 0.389371,0.92638"
       transform="matrix(557.75763,0,0,-557.75763,264.21577,559)"
       id="path293" />
    <path
       style="fill:none;stroke:#000000;stroke-width:0.015748;stroke-linecap:round;stroke-linejoin:miter;stroke-miterlimit:10;stroke-opacity:1"
       d="M 0.598818,0.776771 L 0.598818,0.829528"
       transform="matrix(557.75763,0,0,-557.75763,264.21577,559)"
       id="path295" />
    <path
       style="fill:none;stroke:#000000;stroke-width:0.015748;stroke-linecap:round;stroke-linejoin:miter;stroke-miterlimit:10;stroke-opacity:1"
       d="M 0.598818,0.829528 L 0.577163,0.851575"
       transform="matrix(557.75763,0,0,-557.75763,264.21577,559)"
       id="path297" />
    <path
       style="fill:none;stroke:#000000;stroke-width:0.015748;stroke-linecap:round;stroke-linejoin:miter;stroke-miterlimit:10;stroke-opacity:1"
       d="M 0.577163,0.851575 L 0.501966,0.851575"
       transform="matrix(557.75763,0,0,-557.75763,264.21577,559)"
       id="path299" />
    <path
       style="fill:none;stroke:#000000;stroke-width:0.015748;stroke-linecap:round;stroke-linejoin:miter;stroke-miterlimit:10;stroke-opacity:1"
       d="M 0.501966,0.851575 L 0.489367,0.863782"
       transform="matrix(557.75763,0,0,-557.75763,264.21577,559)"
       id="path301" />
    <path
       style="fill:none;stroke:#000000;stroke-width:0.015748;stroke-linecap:round;stroke-linejoin:miter;stroke-miterlimit:10;stroke-opacity:1"
       d="M 0.489367,0.863782 L 0.489367,0.92638"
       transform="matrix(557.75763,0,0,-557.75763,264.21577,559)"
       id="path303" />
    <path
       style="fill:none;stroke:#000000;stroke-width:0.015748;stroke-linecap:round;stroke-linejoin:miter;stroke-miterlimit:10;stroke-opacity:1"
       d="M 0.638191,0.776771 L 0.638191,0.84016"
       transform="matrix(557.75763,0,0,-557.75763,264.21577,559)"
       id="path305" />
    <path
       style="fill:none;stroke:#000000;stroke-width:0.015748;stroke-linecap:round;stroke-linejoin:miter;stroke-miterlimit:10;stroke-opacity:1"
       d="M 0.638191,0.84016 L 0.58937,0.888974"
       transform="matrix(557.75763,0,0,-557.75763,264.21577,559)"
       id="path307" />
    <path
       style="fill:none;stroke:#000000;stroke-width:0.015748;stroke-linecap:round;stroke-linejoin:miter;stroke-miterlimit:10;stroke-opacity:1"
       d="M 0.58937,0.888974 L 0.58937,0.92638"
       transform="matrix(557.75763,0,0,-557.75763,264.21577,559)"
       id="path309" />
    <path
       style="fill:none;stroke:#000000;stroke-width:0.015748;stroke-linecap:round;stroke-linejoin:miter;stroke-miterlimit:10;stroke-opacity:1"
       d="M 0.677558,0.776771 L 0.677558,0.914565"
       transform="matrix(557.75763,0,0,-557.75763,264.21577,559)"
       id="path311" />
    <path
       style="fill:none;stroke:#000000;stroke-width:0.015748;stroke-linecap:round;stroke-linejoin:miter;stroke-miterlimit:10;stroke-opacity:1"
       d="M 0.677558,0.914565 L 0.689373,0.92638"
       transform="matrix(557.75763,0,0,-557.75763,264.21577,559)"
       id="path313" />
    <path
       style="fill:none;stroke:#000000;stroke-width:0.015748;stroke-linecap:round;stroke-linejoin:miter;stroke-miterlimit:10;stroke-opacity:1"
       d="M 0.835038,0.776771 L 0.835038,0.818113"
       transform="matrix(557.75763,0,0,-557.75763,264.21577,559)"
       id="path315" />
    <path
       style="fill:none;stroke:#000000;stroke-width:0.015748;stroke-linecap:round;stroke-linejoin:miter;stroke-miterlimit:10;stroke-opacity:1"
       d="M 0.835038,0.818113 L 0.826774,0.826377"
       transform="matrix(557.75763,0,0,-557.75763,264.21577,559)"
       id="path317" />
    <path
       style="fill:none;stroke:#000000;stroke-width:0.015748;stroke-linecap:round;stroke-linejoin:miter;stroke-miterlimit:10;stroke-opacity:1"
       d="M 0.826774,0.826377 L 0.801968,0.826377"
       transform="matrix(557.75763,0,0,-557.75763,264.21577,559)"
       id="path319" />
    <path
       style="fill:none;stroke:#000000;stroke-width:0.015748;stroke-linecap:round;stroke-linejoin:miter;stroke-miterlimit:10;stroke-opacity:1"
       d="M 0.801968,0.826377 L 0.789369,0.838976"
       transform="matrix(557.75763,0,0,-557.75763,264.21577,559)"
       id="path321" />
    <path
       style="fill:none;stroke:#000000;stroke-width:0.015748;stroke-linecap:round;stroke-linejoin:miter;stroke-miterlimit:10;stroke-opacity:1"
       d="M 0.789369,0.838976 L 0.789369,0.92638"
       transform="matrix(557.75763,0,0,-557.75763,264.21577,559)"
       id="path323" />
    <path
       style="fill:#000000;fill-opacity:1;fill-rule:evenodd;stroke:none"
       d="M 950.65234,42.304688 C 950.65234,11.5625 904.53906,11.5625 904.53906,42.304688 C 904.53906,73.046875 950.65234,73.046875 950.65234,42.304688"
       id="path325" />
    <path
       style="fill:none;stroke:#000000;stroke-width:0.015748;stroke-linecap:round;stroke-linejoin:miter;stroke-miterlimit:10;stroke-opacity:1"
       d="M 1.031893,0.776771 L 1.031893,0.818897"
       transform="matrix(557.75763,0,0,-557.75763,264.21577,559)"
       id="path327" />
    <path
       style="fill:none;stroke:#000000;stroke-width:0.015748;stroke-linecap:round;stroke-linejoin:miter;stroke-miterlimit:10;stroke-opacity:1"
       d="M 1.031893,0.818897 L 1.039372,0.826377"
       transform="matrix(557.75763,0,0,-557.75763,264.21577,559)"
       id="path329" />
    <path
       style="fill:none;stroke:#000000;stroke-width:0.015748;stroke-linecap:round;stroke-linejoin:miter;stroke-miterlimit:10;stroke-opacity:1"
       d="M 1.039372,0.826377 L 1.177166,0.826377"
       transform="matrix(557.75763,0,0,-557.75763,264.21577,559)"
       id="path331" />
    <path
       style="fill:none;stroke:#000000;stroke-width:0.015748;stroke-linecap:round;stroke-linejoin:miter;stroke-miterlimit:10;stroke-opacity:1"
       d="M 1.177166,0.826377 L 1.189373,0.838976"
       transform="matrix(557.75763,0,0,-557.75763,264.21577,559)"
       id="path333" />
    <path
       style="fill:none;stroke:#000000;stroke-width:0.015748;stroke-linecap:round;stroke-linejoin:miter;stroke-miterlimit:10;stroke-opacity:1"
       d="M 1.189373,0.838976 L 1.189373,0.92638"
       transform="matrix(557.75763,0,0,-557.75763,264.21577,559)"
       id="path335" />
    <path
       style="fill:#000000;fill-opacity:1;fill-rule:evenodd;stroke:none"
       d="M 448.67188,42.304688 C 448.67188,11.5625 402.55859,11.5625 402.55859,42.304688 C 402.55859,73.046875 448.67188,73.046875 448.67188,42.304688"
       id="path337" />
    <path
       style="fill:#000000;fill-opacity:1;fill-rule:evenodd;stroke:none"
       d="M 950.65234,516.39844 C 950.65234,485.65625 904.53906,485.65625 904.53906,516.39844 C 904.53906,547.14062 950.65234,547.14062 950.65234,516.39844"
       id="path339" />
    <path
       style="fill:none;stroke:#000000;stroke-width:0.015748;stroke-linecap:round;stroke-linejoin:miter;stroke-miterlimit:10;stroke-opacity:1"
       d="M 0.431105,0.379134 L 0.431105,0.418501"
       transform="matrix(557.75763,0,0,-557.75763,264.21577,559)"
       id="path341" />
    <path
       style="fill:none;stroke:#000000;stroke-width:0.015748;stroke-linecap:round;stroke-linejoin:miter;stroke-miterlimit:10;stroke-opacity:1"
       d="M 0.431105,0.457874 L 0.431105,0.497241"
       transform="matrix(557.75763,0,0,-557.75763,264.21577,559)"
       id="path343" />
    <path
       style="fill:none;stroke:#000000;stroke-width:0.015748;stroke-linecap:round;stroke-linejoin:miter;stroke-miterlimit:10;stroke-opacity:1"
       d="M 0.874412,0.776771 L 0.874412,0.824017"
       transform="matrix(557.75763,0,0,-557.75763,264.21577,559)"
       id="path345" />
    <path
       style="fill:none;stroke:#000000;stroke-width:0.015748;stroke-linecap:round;stroke-linejoin:miter;stroke-miterlimit:10;stroke-opacity:1"
       d="M 0.874412,0.824017 L 0.889372,0.838976"
       transform="matrix(557.75763,0,0,-557.75763,264.21577,559)"
       id="path347" />
    <path
       style="fill:none;stroke:#000000;stroke-width:0.015748;stroke-linecap:round;stroke-linejoin:miter;stroke-miterlimit:10;stroke-opacity:1"
       d="M 0.889372,0.838976 L 0.889372,0.92638"
       transform="matrix(557.75763,0,0,-557.75763,264.21577,559)"
       id="path349" />
    <path
       style="fill:#000000;fill-opacity:1;fill-rule:evenodd;stroke:none"
       d="M 443.40234,111.91406 C 443.40234,92.882812 414.85547,92.882812 414.85547,111.91406 C 414.85547,130.94531 443.40234,130.94531 443.40234,111.91406"
       id="path351" />
    <path
       style="fill:none;stroke:#000000;stroke-width:0.015748;stroke-linecap:round;stroke-linejoin:miter;stroke-miterlimit:10;stroke-opacity:1"
       d="M 0.716932,0.226773 L 0.716932,0.166536"
       transform="matrix(557.75763,0,0,-557.75763,264.21577,559)"
       id="path353" />
    <path
       style="fill:none;stroke:#000000;stroke-width:0.015748;stroke-linecap:round;stroke-linejoin:miter;stroke-miterlimit:10;stroke-opacity:1"
       d="M 0.716932,0.166536 L 0.689373,0.138977"
       transform="matrix(557.75763,0,0,-557.75763,264.21577,559)"
       id="path355" />
    <path
       style="fill:none;stroke:#000000;stroke-width:0.015748;stroke-linecap:round;stroke-linejoin:miter;stroke-miterlimit:10;stroke-opacity:1"
       d="M 0.689373,0.138977 L 0.689373,0.0763801"
       transform="matrix(557.75763,0,0,-557.75763,264.21577,559)"
       id="path357" />
    <path
       style="fill:none;stroke:#000000;stroke-width:0.015748;stroke-linecap:round;stroke-linejoin:miter;stroke-miterlimit:10;stroke-opacity:1"
       d="M 0.677558,0.226773 L 0.677558,0.177167"
       transform="matrix(557.75763,0,0,-557.75763,264.21577,559)"
       id="path359" />
    <path
       style="fill:none;stroke:#000000;stroke-width:0.015748;stroke-linecap:round;stroke-linejoin:miter;stroke-miterlimit:10;stroke-opacity:1"
       d="M 0.677558,0.177167 L 0.639368,0.138977"
       transform="matrix(557.75763,0,0,-557.75763,264.21577,559)"
       id="path361" />
    <path
       style="fill:none;stroke:#000000;stroke-width:0.015748;stroke-linecap:round;stroke-linejoin:miter;stroke-miterlimit:10;stroke-opacity:1"
       d="M 0.639368,0.138977 L 0.601969,0.138977"
       transform="matrix(557.75763,0,0,-557.75763,264.21577,559)"
       id="path363" />
    <path
       style="fill:none;stroke:#000000;stroke-width:0.015748;stroke-linecap:round;stroke-linejoin:miter;stroke-miterlimit:10;stroke-opacity:1"
       d="M 0.601969,0.138977 L 0.58937,0.126378"
       transform="matrix(557.75763,0,0,-557.75763,264.21577,559)"
       id="path365" />
    <path
       style="fill:none;stroke:#000000;stroke-width:0.015748;stroke-linecap:round;stroke-linejoin:miter;stroke-miterlimit:10;stroke-opacity:1"
       d="M 0.58937,0.126378 L 0.58937,0.0763801"
       transform="matrix(557.75763,0,0,-557.75763,264.21577,559)"
       id="path367" />
    <path
       style="fill:none;stroke:#000000;stroke-width:0.015748;stroke-linecap:round;stroke-linejoin:miter;stroke-miterlimit:10;stroke-opacity:1"
       d="M 0.756298,0.226773 L 0.756298,0.109451"
       transform="matrix(557.75763,0,0,-557.75763,264.21577,559)"
       id="path369" />
    <path
       style="fill:none;stroke:#000000;stroke-width:0.015748;stroke-linecap:round;stroke-linejoin:miter;stroke-miterlimit:10;stroke-opacity:1"
       d="M 0.756298,0.109451 L 0.789369,0.0763801"
       transform="matrix(557.75763,0,0,-557.75763,264.21577,559)"
       id="path371" />
    <path
       style="fill:none;stroke:#000000;stroke-width:0.015748;stroke-linecap:round;stroke-linejoin:miter;stroke-miterlimit:10;stroke-opacity:1"
       d="M 0.795672,0.226773 L 0.795672,0.15748"
       transform="matrix(557.75763,0,0,-557.75763,264.21577,559)"
       id="path373" />
    <path
       style="fill:none;stroke:#000000;stroke-width:0.015748;stroke-linecap:round;stroke-linejoin:miter;stroke-miterlimit:10;stroke-opacity:1"
       d="M 0.795672,0.15748 L 0.814567,0.138977"
       transform="matrix(557.75763,0,0,-557.75763,264.21577,559)"
       id="path375" />
    <path
       style="fill:none;stroke:#000000;stroke-width:0.015748;stroke-linecap:round;stroke-linejoin:miter;stroke-miterlimit:10;stroke-opacity:1"
       d="M 0.814567,0.138977 L 0.826774,0.138977"
       transform="matrix(557.75763,0,0,-557.75763,264.21577,559)"
       id="path377" />
    <path
       style="fill:none;stroke:#000000;stroke-width:0.015748;stroke-linecap:round;stroke-linejoin:miter;stroke-miterlimit:10;stroke-opacity:1"
       d="M 0.826774,0.138977 L 0.889372,0.0763801"
       transform="matrix(557.75763,0,0,-557.75763,264.21577,559)"
       id="path379" />
    <path
       style="fill:none;stroke:#000000;stroke-width:0.015748;stroke-linecap:round;stroke-linejoin:miter;stroke-miterlimit:10;stroke-opacity:1"
       d="M 0.835038,0.226773 L 0.835038,0.180711"
       transform="matrix(557.75763,0,0,-557.75763,264.21577,559)"
       id="path381" />
    <path
       style="fill:none;stroke:#000000;stroke-width:0.015748;stroke-linecap:round;stroke-linejoin:miter;stroke-miterlimit:10;stroke-opacity:1"
       d="M 0.835038,0.180711 L 0.851966,0.163777"
       transform="matrix(557.75763,0,0,-557.75763,264.21577,559)"
       id="path383" />
    <path
       style="fill:none;stroke:#000000;stroke-width:0.015748;stroke-linecap:round;stroke-linejoin:miter;stroke-miterlimit:10;stroke-opacity:1"
       d="M 0.851966,0.163777 L 0.901971,0.163777"
       transform="matrix(557.75763,0,0,-557.75763,264.21577,559)"
       id="path385" />
    <path
       style="fill:none;stroke:#000000;stroke-width:0.015748;stroke-linecap:round;stroke-linejoin:miter;stroke-miterlimit:10;stroke-opacity:1"
       d="M 0.901971,0.163777 L 0.989367,0.0763801"
       transform="matrix(557.75763,0,0,-557.75763,264.21577,559)"
       id="path387" />
    <path
       style="fill:none;stroke:#000000;stroke-width:0.015748;stroke-linecap:round;stroke-linejoin:miter;stroke-miterlimit:10;stroke-opacity:1"
       d="M 0.639368,0.226381 L 0.639368,0.188975"
       transform="matrix(557.75763,0,0,-557.75763,264.21577,559)"
       id="path389" />
    <path
       style="fill:none;stroke:#000000;stroke-width:0.015748;stroke-linecap:round;stroke-linejoin:miter;stroke-miterlimit:10;stroke-opacity:1"
       d="M 0.639368,0.188975 L 0.626769,0.176376"
       transform="matrix(557.75763,0,0,-557.75763,264.21577,559)"
       id="path391" />
    <path
       style="fill:none;stroke:#000000;stroke-width:0.015748;stroke-linecap:round;stroke-linejoin:miter;stroke-miterlimit:10;stroke-opacity:1"
       d="M 0.626769,0.176376 L 0.577163,0.176376"
       transform="matrix(557.75763,0,0,-557.75763,264.21577,559)"
       id="path393" />
    <path
       style="fill:none;stroke:#000000;stroke-width:0.015748;stroke-linecap:round;stroke-linejoin:miter;stroke-miterlimit:10;stroke-opacity:1"
       d="M 0.577163,0.176376 L 0.489367,0.0889793"
       transform="matrix(557.75763,0,0,-557.75763,264.21577,559)"
       id="path395" />
    <path
       style="fill:none;stroke:#000000;stroke-width:0.015748;stroke-linecap:round;stroke-linejoin:miter;stroke-miterlimit:10;stroke-opacity:1"
       d="M 0.489367,0.0889793 L 0.489367,0.0763801"
       transform="matrix(557.75763,0,0,-557.75763,264.21577,559)"
       id="path397" />
    <path
       style="fill:none;stroke:#000000;stroke-width:0.023622;stroke-linecap:round;stroke-linejoin:miter;stroke-miterlimit:10;stroke-opacity:1"
       d="M 0.431105,0.379134 L 0.337006,0.379134"
       transform="matrix(557.75763,0,0,-557.75763,264.21577,559)"
       id="path399" />
    <path
       style="fill:none;stroke:#000000;stroke-width:0.023622;stroke-linecap:round;stroke-linejoin:miter;stroke-miterlimit:10;stroke-opacity:1"
       d="M 0.337006,0.379134 L 0.318503,0.392917"
       transform="matrix(557.75763,0,0,-557.75763,264.21577,559)"
       id="path401" />
    <path
       style="fill:#000000;fill-opacity:1;fill-rule:evenodd;stroke:none"
       d="M 502.69141,146.83203 C 502.69141,127.80078 474.14453,127.80078 474.14453,146.83203 C 474.14453,165.86328 502.69141,165.86328 502.69141,146.83203"
       id="path403" />
    <path
       style="fill:none;stroke:#000000;stroke-width:0.0314961;stroke-linecap:round;stroke-linejoin:miter;stroke-miterlimit:10;stroke-opacity:1"
       d="M 0.194093,0.783859 L 0.194093,0.853543"
       transform="matrix(557.75763,0,0,-557.75763,264.21577,559)"
       id="path405" />
    <path
       style="fill:none;stroke:#000000;stroke-width:0.0314961;stroke-linecap:round;stroke-linejoin:miter;stroke-miterlimit:10;stroke-opacity:1"
       d="M 0.194093,0.853543 L 0.289369,0.92638"
       transform="matrix(557.75763,0,0,-557.75763,264.21577,559)"
       id="path407" />
    <path
       style="fill:#000000;fill-opacity:1;fill-rule:evenodd;stroke:none"
       d="M 345.90234,42.304688 C 345.90234,23.273438 317.35547,23.273438 317.35547,42.304688 C 317.35547,61.335938 345.90234,61.335938 345.90234,42.304688"
       id="path409" />
    <path
       style="fill:none;stroke:#000000;stroke-width:0.023622;stroke-linecap:round;stroke-linejoin:miter;stroke-miterlimit:10;stroke-opacity:1"
       d="M 0.120865,0.775987 L 0.120865,0.92638"
       transform="matrix(557.75763,0,0,-557.75763,264.21577,559)"
       id="path411" />
    <path
       style="fill:none;stroke:#000000;stroke-width:0.015748;stroke-linecap:round;stroke-linejoin:miter;stroke-miterlimit:10;stroke-opacity:1"
       d="M 0.953152,0.776771 L 0.953152,0.890158"
       transform="matrix(557.75763,0,0,-557.75763,264.21577,559)"
       id="path413" />
    <path
       style="fill:none;stroke:#000000;stroke-width:0.015748;stroke-linecap:round;stroke-linejoin:miter;stroke-miterlimit:10;stroke-opacity:1"
       d="M 0.953152,0.890158 L 0.989367,0.92638"
       transform="matrix(557.75763,0,0,-557.75763,264.21577,559)"
       id="path415" />
    <path
       style="fill:none;stroke:#000000;stroke-width:0.015748;stroke-linecap:round;stroke-linejoin:miter;stroke-miterlimit:10;stroke-opacity:1"
       d="M 0.992519,0.776771 L 0.992519,0.829528"
       transform="matrix(557.75763,0,0,-557.75763,264.21577,559)"
       id="path417" />
    <path
       style="fill:none;stroke:#000000;stroke-width:0.015748;stroke-linecap:round;stroke-linejoin:miter;stroke-miterlimit:10;stroke-opacity:1"
       d="M 0.992519,0.829528 L 1.026773,0.863782"
       transform="matrix(557.75763,0,0,-557.75763,264.21577,559)"
       id="path419" />
    <path
       style="fill:none;stroke:#000000;stroke-width:0.015748;stroke-linecap:round;stroke-linejoin:miter;stroke-miterlimit:10;stroke-opacity:1"
       d="M 1.026773,0.863782 L 1.064564,0.863782"
       transform="matrix(557.75763,0,0,-557.75763,264.21577,559)"
       id="path421" />
    <path
       style="fill:none;stroke:#000000;stroke-width:0.015748;stroke-linecap:round;stroke-linejoin:miter;stroke-miterlimit:10;stroke-opacity:1"
       d="M 1.064564,0.863782 L 1.08937,0.888974"
       transform="matrix(557.75763,0,0,-557.75763,264.21577,559)"
       id="path423" />
    <path
       style="fill:none;stroke:#000000;stroke-width:0.015748;stroke-linecap:round;stroke-linejoin:miter;stroke-miterlimit:10;stroke-opacity:1"
       d="M 1.08937,0.888974 L 1.08937,0.92638"
       transform="matrix(557.75763,0,0,-557.75763,264.21577,559)"
       id="path425" />
    <path
       style="fill:#000000;fill-opacity:1;fill-rule:evenodd;stroke:none"
       d="M 851.17969,474.67578 C 851.17969,455.64844 822.63281,455.64844 822.63281,474.67578 C 822.63281,493.70703 851.17969,493.70703 851.17969,474.67578"
       id="path427" />
    <path
       style="fill:none;stroke:#000000;stroke-width:0.015748;stroke-linecap:round;stroke-linejoin:miter;stroke-miterlimit:10;stroke-opacity:1"
       d="M 1.08937,0.0763801 L 1.08937,0.0889793"
       transform="matrix(557.75763,0,0,-557.75763,264.21577,559)"
       id="path429" />
    <path
       style="fill:none;stroke:#000000;stroke-width:0.015748;stroke-linecap:round;stroke-linejoin:miter;stroke-miterlimit:10;stroke-opacity:1"
       d="M 1.08937,0.0889793 L 1.026773,0.151577"
       transform="matrix(557.75763,0,0,-557.75763,264.21577,559)"
       id="path431" />
    <path
       style="fill:none;stroke:#000000;stroke-width:0.0314961;stroke-linecap:round;stroke-linejoin:miter;stroke-miterlimit:10;stroke-opacity:1"
       d="M 0.295672,0.801178 L 0.277168,0.776379"
       transform="matrix(557.75763,0,0,-557.75763,264.21577,559)"
       id="path433" />
    <path
       style="fill:none;stroke:#000000;stroke-width:0.0314961;stroke-linecap:round;stroke-linejoin:miter;stroke-miterlimit:10;stroke-opacity:1"
       d="M 0.277168,0.776379 L 0.276377,0.460234"
       transform="matrix(557.75763,0,0,-557.75763,264.21577,559)"
       id="path435" />
    <path
       style="fill:#000000;fill-opacity:1;fill-rule:evenodd;stroke:none"
       d="M 467.77344,188.77344 C 467.77344,169.74219 439.23047,169.74219 439.23047,188.77344 C 439.23047,207.80469 467.77344,207.80469 467.77344,188.77344"
       id="path437" />
    <path
       style="fill:none;stroke:#000000;stroke-width:0.015748;stroke-linecap:round;stroke-linejoin:miter;stroke-miterlimit:10;stroke-opacity:1"
       d="M 1.071259,0.226773 L 1.071259,0.181888"
       transform="matrix(557.75763,0,0,-557.75763,264.21577,559)"
       id="path439" />
    <path
       style="fill:none;stroke:#000000;stroke-width:0.015748;stroke-linecap:round;stroke-linejoin:miter;stroke-miterlimit:10;stroke-opacity:1"
       d="M 1.071259,0.181888 L 1.08937,0.163777"
       transform="matrix(557.75763,0,0,-557.75763,264.21577,559)"
       id="path441" />
    <path
       style="fill:none;stroke:#000000;stroke-width:0.015748;stroke-linecap:round;stroke-linejoin:miter;stroke-miterlimit:10;stroke-opacity:1"
       d="M 1.08937,0.163777 L 1.126769,0.163777"
       transform="matrix(557.75763,0,0,-557.75763,264.21577,559)"
       id="path443" />
    <path
       style="fill:none;stroke:#000000;stroke-width:0.015748;stroke-linecap:round;stroke-linejoin:miter;stroke-miterlimit:10;stroke-opacity:1"
       d="M 1.126769,0.163777 L 1.189373,0.101179"
       transform="matrix(557.75763,0,0,-557.75763,264.21577,559)"
       id="path445" />
    <path
       style="fill:none;stroke:#000000;stroke-width:0.015748;stroke-linecap:round;stroke-linejoin:miter;stroke-miterlimit:10;stroke-opacity:1"
       d="M 1.189373,0.101179 L 1.189373,0.0763801"
       transform="matrix(557.75763,0,0,-557.75763,264.21577,559)"
       id="path447" />
    <path
       style="fill:#000000;fill-opacity:1;fill-rule:evenodd;stroke:none"
       d="M 467.77344,251.57422 C 467.77344,232.54297 439.23047,232.54297 439.23047,251.57422 C 439.23047,270.60547 467.77344,270.60547 467.77344,251.57422"
       id="path449" />
    <path
       style="fill:none;stroke:#000000;stroke-width:0.023622;stroke-linecap:round;stroke-linejoin:miter;stroke-miterlimit:10;stroke-opacity:1"
       d="M 0.431105,0.457874 L 0.318503,0.459842"
       transform="matrix(557.75763,0,0,-557.75763,264.21577,559)"
       id="path451" />
    <path
       style="fill:none;stroke:#000000;stroke-width:0.015748;stroke-linecap:round;stroke-linejoin:miter;stroke-miterlimit:10;stroke-opacity:1"
       d="M 0.431105,0.536614 L 0.360237,0.536614"
       transform="matrix(557.75763,0,0,-557.75763,264.21577,559)"
       id="path453" />
    <path
       style="fill:none;stroke:#000000;stroke-width:0.015748;stroke-linecap:round;stroke-linejoin:miter;stroke-miterlimit:10;stroke-opacity:1"
       d="M 0.360237,0.536614 L 0.339373,0.551574"
       transform="matrix(557.75763,0,0,-557.75763,264.21577,559)"
       id="path455" />
    <path
       style="fill:none;stroke:#000000;stroke-width:0.015748;stroke-linecap:round;stroke-linejoin:miter;stroke-miterlimit:10;stroke-opacity:1"
       d="M 0.431105,0.575981 L 0.389764,0.575981"
       transform="matrix(557.75763,0,0,-557.75763,264.21577,559)"
       id="path457" />
    <path
       style="fill:none;stroke:#000000;stroke-width:0.015748;stroke-linecap:round;stroke-linejoin:miter;stroke-miterlimit:10;stroke-opacity:1"
       d="M 0.389764,0.575981 L 0.364565,0.60118"
       transform="matrix(557.75763,0,0,-557.75763,264.21577,559)"
       id="path459" />
    <path
       style="fill:none;stroke:#000000;stroke-width:0.015748;stroke-linecap:round;stroke-linejoin:miter;stroke-miterlimit:10;stroke-opacity:1"
       d="M 0.364565,0.60118 L 0.339373,0.626378"
       transform="matrix(557.75763,0,0,-557.75763,264.21577,559)"
       id="path461" />
    <path
       style="fill:none;stroke:#000000;stroke-width:0.015748;stroke-linecap:round;stroke-linejoin:miter;stroke-miterlimit:10;stroke-opacity:1"
       d="M 0.339373,0.626378 L 0.339373,0.663777"
       transform="matrix(557.75763,0,0,-557.75763,264.21577,559)"
       id="path463" />
    <path
       style="fill:none;stroke:#000000;stroke-width:0.015748;stroke-linecap:round;stroke-linejoin:miter;stroke-miterlimit:10;stroke-opacity:1"
       d="M 0.431105,0.615355 L 0.425194,0.615355"
       transform="matrix(557.75763,0,0,-557.75763,264.21577,559)"
       id="path465" />
    <path
       style="fill:none;stroke:#000000;stroke-width:0.015748;stroke-linecap:round;stroke-linejoin:miter;stroke-miterlimit:10;stroke-opacity:1"
       d="M 0.425194,0.615355 L 0.401971,0.638977"
       transform="matrix(557.75763,0,0,-557.75763,264.21577,559)"
       id="path467" />
    <path
       style="fill:none;stroke:#000000;stroke-width:0.015748;stroke-linecap:round;stroke-linejoin:miter;stroke-miterlimit:10;stroke-opacity:1"
       d="M 0.401971,0.638977 L 0.401971,0.738973"
       transform="matrix(557.75763,0,0,-557.75763,264.21577,559)"
       id="path469" />
    <path
       style="fill:#000000;fill-opacity:1;fill-rule:evenodd;stroke:none"
       d="M 369.17969,239.9375 L 369.17969,225.44531 L 390.91797,225.44531 L 390.91797,239.9375 L 369.17969,239.9375 z"
       id="path471" />
    <path
       style="fill:#000000;fill-opacity:1;fill-rule:evenodd;stroke:none"
       d="M 369.17969,219.29297 L 369.17969,204.80078 L 390.91797,204.80078 L 390.91797,219.29297 L 369.17969,219.29297 z"
       id="path473" />
    <path
       style="fill:#000000;fill-opacity:1;fill-rule:evenodd;stroke:none"
       d="M 369.17969,198.21484 L 369.17969,183.72266 L 390.91797,183.72266 L 390.91797,198.21484 L 369.17969,198.21484 z"
       id="path475" />
    <path
       style="fill:#000000;fill-opacity:1;fill-rule:evenodd;stroke:none"
       d="M 312.30469,198.21484 L 312.30469,183.72266 L 334.04688,183.72266 L 334.04688,198.21484 L 312.30469,198.21484 z"
       id="path477" />
    <path
       style="fill:#000000;fill-opacity:1;fill-rule:evenodd;stroke:none"
       d="M 312.30469,239.9375 L 312.30469,225.44531 L 334.04688,225.44531 L 334.04688,239.9375 L 312.30469,239.9375 z"
       id="path479" />
    <path
       style="fill:#000000;fill-opacity:1;fill-rule:evenodd;stroke:none"
       d="M 316.47656,104.23047 L 345.02344,104.23047 L 345.02344,139.36328 L 316.47656,139.36328 L 316.47656,104.23047 z"
       id="path481" />
    <path
       style="fill:#000000;fill-opacity:1;fill-rule:evenodd;stroke:none"
       d="M 358.19922,104.23047 L 386.74609,104.23047 L 386.74609,139.36328 L 358.19922,139.36328 L 358.19922,104.23047 z"
       id="path483" />
    <path
       style="fill:#000000;fill-opacity:1;fill-rule:evenodd;stroke:none"
       d="M 381.91406,306.47266 L 357.76172,306.47266 L 357.76172,280.12109 L 381.91406,280.12109 L 381.91406,306.47266 z"
       id="path485" />
    <path
       style="fill:#000000;fill-opacity:1;fill-rule:evenodd;stroke:none"
       d="M 344.58594,306.47266 L 320.42969,306.47266 L 320.42969,280.12109 L 344.58594,280.12109 L 344.58594,306.47266 z"
       id="path487" />
    <path
       style="fill:#000000;fill-opacity:1;fill-rule:evenodd;stroke:none"
       d="M 428.6875,351.92578 L 428.6875,327.77344 L 455.03906,327.77344 L 455.03906,351.92578 L 428.6875,351.92578 z"
       id="path489" />
    <path
       style="fill:#000000;fill-opacity:1;fill-rule:evenodd;stroke:none"
       d="M 428.6875,314.59766 L 428.6875,290.44141 L 455.03906,290.44141 L 455.03906,314.59766 L 428.6875,314.59766 z"
       id="path491" />
    <path
       style="fill:none;stroke:#000000;stroke-width:0.015748;stroke-linecap:round;stroke-linejoin:miter;stroke-miterlimit:10;stroke-opacity:1"
       d="M 0.207484,0.659841 L 0.164566,0.660233"
       transform="matrix(557.75763,0,0,-557.75763,264.21577,559)"
       id="path493" />
    <path
       style="fill:none;stroke:#000000;stroke-width:0.015748;stroke-linecap:round;stroke-linejoin:miter;stroke-miterlimit:10;stroke-opacity:1"
       d="M 0.164566,0.660233 L 0.164566,0.585828"
       transform="matrix(557.75763,0,0,-557.75763,264.21577,559)"
       id="path495" />
    <path
       style="fill:none;stroke:#000000;stroke-width:0.015748;stroke-linecap:round;stroke-linejoin:miter;stroke-miterlimit:10;stroke-opacity:1"
       d="M 0.164566,0.585828 L 0.207484,0.585037"
       transform="matrix(557.75763,0,0,-557.75763,264.21577,559)"
       id="path497" />
    <path
       style="fill:none;stroke:#000000;stroke-width:0.023622;stroke-linecap:round;stroke-linejoin:miter;stroke-miterlimit:10;stroke-opacity:1"
       d="M 0.0456681,0.646457 L 0.0456681,0.761812"
       transform="matrix(557.75763,0,0,-557.75763,264.21577,559)"
       id="path499" />
    <path
       style="fill:none;stroke:#000000;stroke-width:0.023622;stroke-linecap:round;stroke-linejoin:miter;stroke-miterlimit:10;stroke-opacity:1"
       d="M 0.0456681,0.761812 L 0.0724424,0.783859"
       transform="matrix(557.75763,0,0,-557.75763,264.21577,559)"
       id="path501" />
    <path
       style="fill:none;stroke:#000000;stroke-width:0.023622;stroke-linecap:round;stroke-linejoin:miter;stroke-miterlimit:10;stroke-opacity:1"
       d="M 0.0724424,0.783859 L 0.119289,0.783859"
       transform="matrix(557.75763,0,0,-557.75763,264.21577,559)"
       id="path503" />
    <path
       style="fill:#000000;fill-opacity:1;fill-rule:evenodd;stroke:none"
       d="M 382.13672,383.10938 L 357.98047,383.10938 L 357.98047,356.75781 L 382.13672,356.75781 L 382.13672,383.10938 z"
       id="path505" />
    <path
       style="fill:#000000;fill-opacity:1;fill-rule:evenodd;stroke:none"
       d="M 344.80469,383.10938 L 320.64844,383.10938 L 320.64844,356.75781 L 344.80469,356.75781 L 344.80469,383.10938 z"
       id="path507" />
    <path
       style="fill:none;stroke:#000000;stroke-width:0.023622;stroke-linecap:round;stroke-linejoin:miter;stroke-miterlimit:10;stroke-opacity:1"
       d="M 0.105513,0.585037 L 0.105905,0.53071"
       transform="matrix(557.75763,0,0,-557.75763,264.21577,559)"
       id="path509" />
    <path
       style="fill:none;stroke:#000000;stroke-width:0.023622;stroke-linecap:round;stroke-linejoin:miter;stroke-miterlimit:10;stroke-opacity:1"
       d="M 0.105905,0.53071 L 0.12244,0.513776"
       transform="matrix(557.75763,0,0,-557.75763,264.21577,559)"
       id="path511" />
    <path
       style="fill:#000000;fill-opacity:1;fill-rule:evenodd;stroke:none"
       d="M 382.13672,452.9375 L 357.98047,452.9375 L 357.98047,426.58594 L 382.13672,426.58594 L 382.13672,452.9375 z"
       id="path513" />
    <path
       style="fill:#000000;fill-opacity:1;fill-rule:evenodd;stroke:none"
       d="M 344.80469,452.9375 L 320.64844,452.9375 L 320.64844,426.58594 L 344.80469,426.58594 L 344.80469,452.9375 z"
       id="path515" />
    <path
       style="fill:#000000;fill-opacity:1;fill-rule:evenodd;stroke:none"
       d="M 428.6875,452.9375 L 428.6875,428.78516 L 455.03906,428.78516 L 455.03906,452.9375 L 428.6875,452.9375 z"
       id="path517" />
    <path
       style="fill:#000000;fill-opacity:1;fill-rule:evenodd;stroke:none"
       d="M 428.6875,415.60938 L 428.6875,391.45312 L 455.03906,391.45312 L 455.03906,415.60938 L 428.6875,415.60938 z"
       id="path519" />
    <path
       style="fill:none;stroke:#000000;stroke-width:0.023622;stroke-linecap:round;stroke-linejoin:miter;stroke-miterlimit:10;stroke-opacity:1"
       d="M 0.122833,0.213782 L 0.0645635,0.213782"
       transform="matrix(557.75763,0,0,-557.75763,264.21577,559)"
       id="path521" />
    <path
       style="fill:none;stroke:#000000;stroke-width:0.023622;stroke-linecap:round;stroke-linejoin:miter;stroke-miterlimit:10;stroke-opacity:1"
       d="M 0.0645635,0.213782 L 0.0456681,0.232677"
       transform="matrix(557.75763,0,0,-557.75763,264.21577,559)"
       id="path523" />
    <path
       style="fill:none;stroke:#000000;stroke-width:0.023622;stroke-linecap:round;stroke-linejoin:miter;stroke-miterlimit:10;stroke-opacity:1"
       d="M 0.0456681,0.232677 L 0.0456681,0.645274"
       transform="matrix(557.75763,0,0,-557.75763,264.21577,559)"
       id="path525" />
    <path
       style="fill:#000000;fill-opacity:1;fill-rule:evenodd;stroke:none"
       d="M 352.71094,502.34766 C 352.71094,483.31641 324.16406,483.31641 324.16406,502.34766 C 324.16406,521.37891 352.71094,521.37891 352.71094,502.34766"
       id="path527" />
    <path
       style="fill:none;stroke:#000000;stroke-width:0.0314961;stroke-linecap:round;stroke-linejoin:miter;stroke-miterlimit:10;stroke-opacity:1"
       d="M 0.318503,0.392917 L 0.318503,0.279131"
       transform="matrix(557.75763,0,0,-557.75763,264.21577,559)"
       id="path529" />
    <path
       style="fill:none;stroke:#000000;stroke-width:0.0314961;stroke-linecap:round;stroke-linejoin:miter;stroke-miterlimit:10;stroke-opacity:1"
       d="M 0.318503,0.279131 L 0.318503,0.278739"
       transform="matrix(557.75763,0,0,-557.75763,264.21577,559)"
       id="path531" />
    <path
       style="fill:none;stroke:#000000;stroke-width:0.023622;stroke-linecap:round;stroke-linejoin:miter;stroke-miterlimit:10;stroke-opacity:1"
       d="M 0.207484,0.62205 L 0.277168,0.62205"
       transform="matrix(557.75763,0,0,-557.75763,264.21577,559)"
       id="path533" />
    <path
       style="fill:none;stroke:#000000;stroke-width:0.0314961;stroke-linecap:round;stroke-linejoin:miter;stroke-miterlimit:10;stroke-opacity:1"
       d="M 0.12244,0.513776 L 0.12244,0.414172"
       transform="matrix(557.75763,0,0,-557.75763,264.21577,559)"
       id="path535" />
    <path
       style="fill:none;stroke:#000000;stroke-width:0.0314961;stroke-linecap:round;stroke-linejoin:miter;stroke-miterlimit:10;stroke-opacity:1"
       d="M 0.12244,0.414172 L 0.122833,0.338976"
       transform="matrix(557.75763,0,0,-557.75763,264.21577,559)"
       id="path537" />
    <path
       style="fill:none;stroke:#000000;stroke-width:0.0314961;stroke-linecap:round;stroke-linejoin:miter;stroke-miterlimit:10;stroke-opacity:1"
       d="M 0.207484,0.666144 L 0.207484,0.701967"
       transform="matrix(557.75763,0,0,-557.75763,264.21577,559)"
       id="path539" />
    <path
       style="fill:none;stroke:#000000;stroke-width:0.0314961;stroke-linecap:round;stroke-linejoin:miter;stroke-miterlimit:10;stroke-opacity:1"
       d="M 0.207484,0.701967 L 0.195669,0.713782"
       transform="matrix(557.75763,0,0,-557.75763,264.21577,559)"
       id="path541" />
    <path
       style="fill:none;stroke:#000000;stroke-width:0.0314961;stroke-linecap:round;stroke-linejoin:miter;stroke-miterlimit:10;stroke-opacity:1"
       d="M 0.195669,0.713782 L 0.195669,0.781891"
       transform="matrix(557.75763,0,0,-557.75763,264.21577,559)"
       id="path543" />
    <path
       style="fill:none;stroke:#000000;stroke-width:0.0314961;stroke-linecap:round;stroke-linejoin:miter;stroke-miterlimit:10;stroke-opacity:1"
       d="M 0.195669,0.781891 L 0.194093,0.783859"
       transform="matrix(557.75763,0,0,-557.75763,264.21577,559)"
       id="path545" />
    <path
       style="fill:none;stroke:#000000;stroke-width:0.0314961;stroke-linecap:round;stroke-linejoin:miter;stroke-miterlimit:10;stroke-opacity:1"
       d="M 0.189373,0.476377 L 0.245667,0.476377"
       transform="matrix(557.75763,0,0,-557.75763,264.21577,559)"
       id="path547" />
    <path
       style="fill:none;stroke:#000000;stroke-width:0.0314961;stroke-linecap:round;stroke-linejoin:miter;stroke-miterlimit:10;stroke-opacity:1"
       d="M 0.245667,0.476377 L 0.264569,0.457482"
       transform="matrix(557.75763,0,0,-557.75763,264.21577,559)"
       id="path549" />
    <path
       style="fill:none;stroke:#000000;stroke-width:0.0314961;stroke-linecap:round;stroke-linejoin:miter;stroke-miterlimit:10;stroke-opacity:1"
       d="M 0.264569,0.457482 L 0.316535,0.457482"
       transform="matrix(557.75763,0,0,-557.75763,264.21577,559)"
       id="path551" />
    <path
       style="fill:none;stroke:#000000;stroke-width:0.0314961;stroke-linecap:round;stroke-linejoin:miter;stroke-miterlimit:10;stroke-opacity:1"
       d="M 0.316535,0.457482 L 0.318503,0.459842"
       transform="matrix(557.75763,0,0,-557.75763,264.21577,559)"
       id="path553" />
    <path
       style="fill:none;stroke:#000000;stroke-width:0.0314961;stroke-linecap:round;stroke-linejoin:miter;stroke-miterlimit:10;stroke-opacity:1"
       d="M 0.189765,0.338976 L 0.314567,0.338976"
       transform="matrix(557.75763,0,0,-557.75763,264.21577,559)"
       id="path555" />
    <path
       style="fill:none;stroke:#000000;stroke-width:0.0314961;stroke-linecap:round;stroke-linejoin:miter;stroke-miterlimit:10;stroke-opacity:1"
       d="M 0.318503,0.211814 L 0.253938,0.211814"
       transform="matrix(557.75763,0,0,-557.75763,264.21577,559)"
       id="path557" />
    <path
       style="fill:none;stroke:#000000;stroke-width:0.0314961;stroke-linecap:round;stroke-linejoin:miter;stroke-miterlimit:10;stroke-opacity:1"
       d="M 0.253938,0.211814 L 0.25197,0.213782"
       transform="matrix(557.75763,0,0,-557.75763,264.21577,559)"
       id="path559" />
    <path
       style="fill:none;stroke:#000000;stroke-width:0.0314961;stroke-linecap:round;stroke-linejoin:miter;stroke-miterlimit:10;stroke-opacity:1"
       d="M 0.25197,0.213782 L 0.189765,0.213782"
       transform="matrix(557.75763,0,0,-557.75763,264.21577,559)"
       id="path561" />
    <path
       style="fill:none;stroke:#000000;stroke-width:0.0314961;stroke-linecap:round;stroke-linejoin:miter;stroke-miterlimit:10;stroke-opacity:1"
       d="M 0.189765,0.213782 L 0.189765,0.157873"
       transform="matrix(557.75763,0,0,-557.75763,264.21577,559)"
       id="path563" />
    <path
       style="fill:none;stroke:#000000;stroke-width:0.0314961;stroke-linecap:round;stroke-linejoin:miter;stroke-miterlimit:10;stroke-opacity:1"
       d="M 0.189765,0.157873 L 0.133072,0.101179"
       transform="matrix(557.75763,0,0,-557.75763,264.21577,559)"
       id="path565" />
    <path
       style="fill:none;stroke:#ff7d73;stroke-width:0.0019685;stroke-linecap:round;stroke-linejoin:miter;stroke-miterlimit:10;stroke-opacity:1"
       d="M 0.000789741,1.001184 L 1.389372,1.001184"
       transform="matrix(557.75763,0,0,-557.75763,264.21577,559)"
       id="path567" />
    <path
       style="fill:none;stroke:#ff7d73;stroke-width:0.0019685;stroke-linecap:round;stroke-linejoin:miter;stroke-miterlimit:10;stroke-opacity:1"
       d="M 1.389372,1.001184 L 1.389372,0.00118359"
       transform="matrix(557.75763,0,0,-557.75763,264.21577,559)"
       id="path569" />
    <path
       style="fill:none;stroke:#ff7d73;stroke-width:0.0019685;stroke-linecap:round;stroke-linejoin:miter;stroke-miterlimit:10;stroke-opacity:1"
       d="M 1.389372,0.00118359 L 0.00196633,0.00118359"
       transform="matrix(557.75763,0,0,-557.75763,264.21577,559)"
       id="path571" />
    <path
       style="fill:none;stroke:#ff7d73;stroke-width:0.0019685;stroke-linecap:round;stroke-linejoin:miter;stroke-miterlimit:10;stroke-opacity:1"
       d="M 0.00196633,0.00118359 L 0.00196633,1.001184"
       transform="matrix(557.75763,0,0,-557.75763,264.21577,559)"
       id="path573" />
    <path
       style="fill:#ffffff;fill-opacity:1;fill-rule:evenodd;stroke:none"
       d="M 345.08984,502.10938 C 345.08984,493.18359 331.70312,493.18359 331.70312,502.10938 C 331.70312,511.03125 345.08984,511.03125 345.08984,502.10938"
       id="path575" />
    <path
       style="fill:#ffffff;fill-opacity:1;fill-rule:evenodd;stroke:none"
       d="M 459.98828,251.67578 C 459.98828,242.75 446.60156,242.75 446.60156,251.67578 C 446.60156,260.60156 459.98828,260.60156 459.98828,251.67578"
       id="path577" />
    <path
       style="fill:#ffffff;fill-opacity:1;fill-rule:evenodd;stroke:none"
       d="M 459.98828,188.64844 C 459.98828,179.72656 446.60156,179.72656 446.60156,188.64844 C 446.60156,197.57422 459.98828,197.57422 459.98828,188.64844"
       id="path579" />
    <path
       style="fill:#ffffff;fill-opacity:1;fill-rule:evenodd;stroke:none"
       d="M 495.12891,146.81641 C 495.12891,137.89453 481.74219,137.89453 481.74219,146.81641 C 481.74219,155.74219 495.12891,155.74219 495.12891,146.81641"
       id="path581" />
    <path
       style="fill:#ffffff;fill-opacity:1;fill-rule:evenodd;stroke:none"
       d="M 436.00391,111.67969 C 436.00391,102.75391 422.61719,102.75391 422.61719,111.67969 C 422.61719,120.60156 436.00391,120.60156 436.00391,111.67969"
       id="path583" />
    <path
       style="fill:#ffffff;fill-opacity:1;fill-rule:evenodd;stroke:none"
       d="M 338.39844,42.515625 C 338.39844,33.59375 325.01172,33.59375 325.01172,42.515625 C 325.01172,51.441406 338.39844,51.441406 338.39844,42.515625"
       id="path585" />
    <path
       style="fill:#ffffff;fill-opacity:1;fill-rule:evenodd;stroke:none"
       d="M 843.72656,474.77734 C 843.72656,465.85547 830.33984,465.85547 830.33984,474.77734 C 830.33984,483.70312 843.72656,483.70312 843.72656,474.77734"
       id="path587" />
    <path
       style="fill:#ffffff;fill-opacity:1;fill-rule:evenodd;stroke:none"
       d="M 435.16797,516.60938 C 435.16797,503.59766 415.64844,503.59766 415.64844,516.60938 C 415.64844,529.625 435.16797,529.625 435.16797,516.60938"
       id="path589" />
    <path
       style="fill:#ffffff;fill-opacity:1;fill-rule:evenodd;stroke:none"
       d="M 490.94531,516.60938 C 490.94531,503.59766 471.42187,503.59766 471.42187,516.60938 C 471.42187,529.625 490.94531,529.625 490.94531,516.60938"
       id="path591" />
    <path
       style="fill:#ffffff;fill-opacity:1;fill-rule:evenodd;stroke:none"
       d="M 546.71875,516.60938 C 546.71875,503.59766 527.19922,503.59766 527.19922,516.60938 C 527.19922,529.625 546.71875,529.625 546.71875,516.60938"
       id="path593" />
    <path
       style="fill:#ffffff;fill-opacity:1;fill-rule:evenodd;stroke:none"
       d="M 602.49609,516.60938 C 602.49609,503.59766 582.97266,503.59766 582.97266,516.60938 C 582.97266,529.625 602.49609,529.625 602.49609,516.60938"
       id="path595" />
    <path
       style="fill:#ffffff;fill-opacity:1;fill-rule:evenodd;stroke:none"
       d="M 658.27344,516.60938 C 658.27344,503.59766 638.75,503.59766 638.75,516.60938 C 638.75,529.625 658.27344,529.625 658.27344,516.60938"
       id="path597" />
    <path
       style="fill:#ffffff;fill-opacity:1;fill-rule:evenodd;stroke:none"
       d="M 714.04688,516.60938 C 714.04688,503.59766 694.52734,503.59766 694.52734,516.60938 C 694.52734,529.625 714.04688,529.625 714.04688,516.60938"
       id="path599" />
    <path
       style="fill:#ffffff;fill-opacity:1;fill-rule:evenodd;stroke:none"
       d="M 769.82422,516.60938 C 769.82422,503.59766 750.30078,503.59766 750.30078,516.60938 C 750.30078,529.625 769.82422,529.625 769.82422,516.60938"
       id="path601" />
    <path
       style="fill:#ffffff;fill-opacity:1;fill-rule:evenodd;stroke:none"
       d="M 825.59766,516.60938 C 825.59766,503.59766 806.07812,503.59766 806.07812,516.60938 C 806.07812,529.625 825.59766,529.625 825.59766,516.60938"
       id="path603" />
    <path
       style="fill:#ffffff;fill-opacity:1;fill-rule:evenodd;stroke:none"
       d="M 881.375,516.60938 C 881.375,503.59766 861.85156,503.59766 861.85156,516.60938 C 861.85156,529.625 881.375,529.625 881.375,516.60938"
       id="path605" />
    <path
       style="fill:#ffffff;fill-opacity:1;fill-rule:evenodd;stroke:none"
       d="M 937.14844,516.60938 C 937.14844,503.59766 917.62891,503.59766 917.62891,516.60938 C 917.62891,529.625 937.14844,529.625 937.14844,516.60938"
       id="path607" />
    <path
       style="fill:#ffffff;fill-opacity:1;fill-rule:evenodd;stroke:none"
       d="M 937.14844,42.515625 C 937.14844,29.503906 917.62891,29.503906 917.62891,42.515625 C 917.62891,55.53125 937.14844,55.53125 937.14844,42.515625"
       id="path609" />
    <path
       style="fill:#ffffff;fill-opacity:1;fill-rule:evenodd;stroke:none"
       d="M 881.375,42.515625 C 881.375,29.503906 861.85156,29.503906 861.85156,42.515625 C 861.85156,55.53125 881.375,55.53125 881.375,42.515625"
       id="path611" />
    <path
       style="fill:#ffffff;fill-opacity:1;fill-rule:evenodd;stroke:none"
       d="M 825.59766,42.515625 C 825.59766,29.503906 806.07812,29.503906 806.07812,42.515625 C 806.07812,55.53125 825.59766,55.53125 825.59766,42.515625"
       id="path613" />
    <path
       style="fill:#ffffff;fill-opacity:1;fill-rule:evenodd;stroke:none"
       d="M 769.82422,42.515625 C 769.82422,29.503906 750.30078,29.503906 750.30078,42.515625 C 750.30078,55.53125 769.82422,55.53125 769.82422,42.515625"
       id="path615" />
    <path
       style="fill:#ffffff;fill-opacity:1;fill-rule:evenodd;stroke:none"
       d="M 714.04688,42.515625 C 714.04688,29.503906 694.52734,29.503906 694.52734,42.515625 C 694.52734,55.53125 714.04688,55.53125 714.04688,42.515625"
       id="path617" />
    <path
       style="fill:#ffffff;fill-opacity:1;fill-rule:evenodd;stroke:none"
       d="M 658.27344,42.515625 C 658.27344,29.503906 638.75,29.503906 638.75,42.515625 C 638.75,55.53125 658.27344,55.53125 658.27344,42.515625"
       id="path619" />
    <path
       style="fill:#ffffff;fill-opacity:1;fill-rule:evenodd;stroke:none"
       d="M 602.49609,42.515625 C 602.49609,29.503906 582.97266,29.503906 582.97266,42.515625 C 582.97266,55.53125 602.49609,55.53125 602.49609,42.515625"
       id="path621" />
    <path
       style="fill:#ffffff;fill-opacity:1;fill-rule:evenodd;stroke:none"
       d="M 546.71875,42.515625 C 546.71875,29.503906 527.19922,29.503906 527.19922,42.515625 C 527.19922,55.53125 546.71875,55.53125 546.71875,42.515625"
       id="path623" />
    <path
       style="fill:#ffffff;fill-opacity:1;fill-rule:evenodd;stroke:none"
       d="M 490.94531,42.515625 C 490.94531,29.503906 471.42187,29.503906 471.42187,42.515625 C 471.42187,55.53125 490.94531,55.53125 490.94531,42.515625"
       id="path625" />
    <path
       style="fill:#ffffff;fill-opacity:1;fill-rule:evenodd;stroke:none"
       d="M 435.16797,42.515625 C 435.16797,29.503906 415.64844,29.503906 415.64844,42.515625 C 415.64844,55.53125 435.16797,55.53125 435.16797,42.515625"
       id="path627" />
  </g>
</svg>
