<?xml version="1.0" encoding="UTF-8"?>
<svg xmlns="http://www.w3.org/2000/svg" xmlns:xlink="http://www.w3.org/1999/xlink" width="1326pt" height="779pt" viewBox="0 0 1326 779" version="1.1">
<g id="surface0">
<path style="fill:none;stroke-width:0.0019685;stroke-linecap:round;stroke-linejoin:miter;stroke:rgb(75.686275%,0%,87.843137%);stroke-opacity:1;stroke-miterlimit:10;" d="M 0.00078758 1.00118 L 1.38937 1.00118 " transform="matrix(740.447189,0,0,-740.447189,148.330901,760.598138)"/>
<path style="fill:none;stroke-width:0.0019685;stroke-linecap:round;stroke-linejoin:miter;stroke:rgb(75.686275%,0%,87.843137%);stroke-opacity:1;stroke-miterlimit:10;" d="M 1.38937 1.00118 L 1.38937 0.00118237 " transform="matrix(740.447189,0,0,-740.447189,148.330901,760.598138)"/>
<path style="fill:none;stroke-width:0.0019685;stroke-linecap:round;stroke-linejoin:miter;stroke:rgb(75.686275%,0%,87.843137%);stroke-opacity:1;stroke-miterlimit:10;" d="M 1.38937 0.00118237 L 0.0019693 0.00118237 " transform="matrix(740.447189,0,0,-740.447189,148.330901,760.598138)"/>
<path style="fill:none;stroke-width:0.0019685;stroke-linecap:round;stroke-linejoin:miter;stroke:rgb(75.686275%,0%,87.843137%);stroke-opacity:1;stroke-miterlimit:10;" d="M 0.0019693 0.00118237 L 0.0019693 1.00118 " transform="matrix(740.447189,0,0,-740.447189,148.330901,760.598138)"/>
<path style=" stroke:none;fill-rule:evenodd;fill:rgb(100%,49.803922%,45.098039%);fill-opacity:1;" d="M 467.246094 74.664062 C 467.246094 33.851562 406.03125 33.851562 406.03125 74.664062 C 406.03125 115.476562 467.246094 115.476562 467.246094 74.664062 "/>
<path style=" stroke:none;fill-rule:evenodd;fill:rgb(100%,49.803922%,45.098039%);fill-opacity:1;" d="M 541.292969 74.664062 C 541.292969 33.851562 480.074219 33.851562 480.074219 74.664062 C 480.074219 115.476562 541.292969 115.476562 541.292969 74.664062 "/>
<path style=" stroke:none;fill-rule:evenodd;fill:rgb(100%,49.803922%,45.098039%);fill-opacity:1;" d="M 615.335938 74.664062 C 615.335938 33.851562 554.121094 33.851562 554.121094 74.664062 C 554.121094 115.476562 615.335938 115.476562 615.335938 74.664062 "/>
<path style=" stroke:none;fill-rule:evenodd;fill:rgb(100%,49.803922%,45.098039%);fill-opacity:1;" d="M 689.382812 74.664062 C 689.382812 33.851562 628.164062 33.851562 628.164062 74.664062 C 628.164062 115.476562 689.382812 115.476562 689.382812 74.664062 "/>
<path style=" stroke:none;fill-rule:evenodd;fill:rgb(100%,49.803922%,45.098039%);fill-opacity:1;" d="M 763.425781 74.664062 C 763.425781 33.851562 702.207031 33.851562 702.207031 74.664062 C 702.207031 115.476562 763.425781 115.476562 763.425781 74.664062 "/>
<path style=" stroke:none;fill-rule:evenodd;fill:rgb(100%,49.803922%,45.098039%);fill-opacity:1;" d="M 837.472656 74.664062 C 837.472656 33.851562 776.253906 33.851562 776.253906 74.664062 C 776.253906 115.476562 837.472656 115.476562 837.472656 74.664062 "/>
<path style=" stroke:none;fill-rule:evenodd;fill:rgb(100%,49.803922%,45.098039%);fill-opacity:1;" d="M 911.515625 74.664062 C 911.515625 33.851562 850.296875 33.851562 850.296875 74.664062 C 850.296875 115.476562 911.515625 115.476562 911.515625 74.664062 "/>
<path style=" stroke:none;fill-rule:evenodd;fill:rgb(100%,49.803922%,45.098039%);fill-opacity:1;" d="M 985.5625 74.664062 C 985.5625 33.851562 924.34375 33.851562 924.34375 74.664062 C 924.34375 115.476562 985.5625 115.476562 985.5625 74.664062 "/>
<path style=" stroke:none;fill-rule:evenodd;fill:rgb(100%,49.803922%,45.098039%);fill-opacity:1;" d="M 467.246094 704.042969 C 467.246094 663.230469 406.03125 663.230469 406.03125 704.042969 C 406.03125 744.855469 467.246094 744.855469 467.246094 704.042969 "/>
<path style=" stroke:none;fill-rule:evenodd;fill:rgb(100%,49.803922%,45.098039%);fill-opacity:1;" d="M 541.292969 704.042969 C 541.292969 663.230469 480.074219 663.230469 480.074219 704.042969 C 480.074219 744.855469 541.292969 744.855469 541.292969 704.042969 "/>
<path style=" stroke:none;fill-rule:evenodd;fill:rgb(100%,49.803922%,45.098039%);fill-opacity:1;" d="M 615.335938 704.042969 C 615.335938 663.230469 554.121094 663.230469 554.121094 704.042969 C 554.121094 744.855469 615.335938 744.855469 615.335938 704.042969 "/>
<path style=" stroke:none;fill-rule:evenodd;fill:rgb(100%,49.803922%,45.098039%);fill-opacity:1;" d="M 689.382812 704.042969 C 689.382812 663.230469 628.164062 663.230469 628.164062 704.042969 C 628.164062 744.855469 689.382812 744.855469 689.382812 704.042969 "/>
<path style=" stroke:none;fill-rule:evenodd;fill:rgb(100%,49.803922%,45.098039%);fill-opacity:1;" d="M 763.425781 704.042969 C 763.425781 663.230469 702.207031 663.230469 702.207031 704.042969 C 702.207031 744.855469 763.425781 744.855469 763.425781 704.042969 "/>
<path style=" stroke:none;fill-rule:evenodd;fill:rgb(100%,49.803922%,45.098039%);fill-opacity:1;" d="M 837.472656 704.042969 C 837.472656 663.230469 776.253906 663.230469 776.253906 704.042969 C 776.253906 744.855469 837.472656 744.855469 837.472656 704.042969 "/>
<path style=" stroke:none;fill-rule:evenodd;fill:rgb(100%,49.803922%,45.098039%);fill-opacity:1;" d="M 911.515625 704.042969 C 911.515625 663.230469 850.296875 663.230469 850.296875 704.042969 C 850.296875 744.855469 911.515625 744.855469 911.515625 704.042969 "/>
<path style=" stroke:none;fill-rule:evenodd;fill:rgb(100%,49.803922%,45.098039%);fill-opacity:1;" d="M 985.5625 704.042969 C 985.5625 663.230469 924.34375 663.230469 924.34375 704.042969 C 924.34375 744.855469 985.5625 744.855469 985.5625 704.042969 "/>
<path style=" stroke:none;fill-rule:evenodd;fill:rgb(100%,49.803922%,45.098039%);fill-opacity:1;" d="M 393.203125 704.042969 C 393.203125 663.230469 331.984375 663.230469 331.984375 704.042969 C 331.984375 744.855469 393.203125 744.855469 393.203125 704.042969 "/>
<path style=" stroke:none;fill-rule:evenodd;fill:rgb(100%,49.803922%,45.098039%);fill-opacity:1;" d="M 1059.605469 74.664062 C 1059.605469 33.851562 998.386719 33.851562 998.386719 74.664062 C 998.386719 115.476562 1059.605469 115.476562 1059.605469 74.664062 "/>
<path style=" stroke:none;fill-rule:evenodd;fill:rgb(100%,49.803922%,45.098039%);fill-opacity:1;" d="M 393.203125 74.664062 C 393.203125 33.851562 331.984375 33.851562 331.984375 74.664062 C 331.984375 115.476562 393.203125 115.476562 393.203125 74.664062 "/>
<path style=" stroke:none;fill-rule:evenodd;fill:rgb(100%,49.803922%,45.098039%);fill-opacity:1;" d="M 1059.605469 704.042969 C 1059.605469 663.230469 998.386719 663.230469 998.386719 704.042969 C 998.386719 744.855469 1059.605469 744.855469 1059.605469 704.042969 "/>
<path style="fill:none;stroke-width:0.019685;stroke-linecap:round;stroke-linejoin:miter;stroke:rgb(100%,49.803922%,45.098039%);stroke-opacity:1;stroke-miterlimit:10;" d="M 0.889371 0.926378 L 0.889371 0.82638 " transform="matrix(740.447189,0,0,-740.447189,148.330901,760.598138)"/>
<path style="fill:none;stroke-width:0.019685;stroke-linecap:round;stroke-linejoin:miter;stroke:rgb(100%,49.803922%,45.098039%);stroke-opacity:1;stroke-miterlimit:10;" d="M 0.889371 0.82638 L 0.870865 0.807478 " transform="matrix(740.447189,0,0,-740.447189,148.330901,760.598138)"/>
<path style="fill:none;stroke-width:0.019685;stroke-linecap:round;stroke-linejoin:miter;stroke:rgb(100%,49.803922%,45.098039%);stroke-opacity:1;stroke-miterlimit:10;" d="M 0.870865 0.807478 L 0.389372 0.807478 " transform="matrix(740.447189,0,0,-740.447189,148.330901,760.598138)"/>
<path style=" stroke:none;fill-rule:evenodd;fill:rgb(100%,49.803922%,45.098039%);fill-opacity:1;" d="M 386.207031 167.074219 C 386.207031 141.808594 348.308594 141.808594 348.308594 167.074219 C 348.308594 192.339844 386.207031 192.339844 386.207031 167.074219 "/>
<path style=" stroke:none;fill-rule:evenodd;fill:rgb(100%,49.803922%,45.098039%);fill-opacity:1;" d="M 464.914062 213.425781 C 464.914062 188.160156 427.019531 188.160156 427.019531 213.425781 C 427.019531 238.691406 464.914062 238.691406 464.914062 213.425781 "/>
<path style=" stroke:none;fill-rule:evenodd;fill:rgb(100%,49.803922%,45.098039%);fill-opacity:1;" d="M 256.773438 74.664062 C 256.773438 49.398438 218.878906 49.398438 218.878906 74.664062 C 218.878906 99.929688 256.773438 99.929688 256.773438 74.664062 "/>
<path style=" stroke:none;fill-rule:evenodd;fill:rgb(100%,49.803922%,45.098039%);fill-opacity:1;" d="M 927.550781 648.65625 C 927.550781 623.390625 889.652344 623.390625 889.652344 648.65625 C 889.652344 673.921875 927.550781 673.921875 927.550781 648.65625 "/>
<path style=" stroke:none;fill-rule:evenodd;fill:rgb(100%,49.803922%,45.098039%);fill-opacity:1;" d="M 418.566406 269.105469 C 418.566406 243.839844 380.667969 243.839844 380.667969 269.105469 C 380.667969 294.367188 418.566406 294.367188 418.566406 269.105469 "/>
<path style=" stroke:none;fill-rule:evenodd;fill:rgb(100%,49.803922%,45.098039%);fill-opacity:1;" d="M 418.566406 352.476562 C 418.566406 327.214844 380.667969 327.214844 380.667969 352.476562 C 380.667969 377.742188 418.566406 377.742188 418.566406 352.476562 "/>
<path style="fill:none;stroke-width:0.019685;stroke-linecap:round;stroke-linejoin:miter;stroke:rgb(100%,49.803922%,45.098039%);stroke-opacity:1;stroke-miterlimit:10;" d="M 0.789368 0.924015 L 0.789368 0.863779 " transform="matrix(740.447189,0,0,-740.447189,148.330901,760.598138)"/>
<path style="fill:none;stroke-width:0.019685;stroke-linecap:round;stroke-linejoin:miter;stroke:rgb(100%,49.803922%,45.098039%);stroke-opacity:1;stroke-miterlimit:10;" d="M 0.789368 0.863779 L 0.777166 0.851576 " transform="matrix(740.447189,0,0,-740.447189,148.330901,760.598138)"/>
<path style="fill:none;stroke-width:0.019685;stroke-linecap:round;stroke-linejoin:miter;stroke:rgb(100%,49.803922%,45.098039%);stroke-opacity:1;stroke-miterlimit:10;" d="M 0.777166 0.851576 L 0.155514 0.851967 " transform="matrix(740.447189,0,0,-740.447189,148.330901,760.598138)"/>
<path style="fill:none;stroke-width:0.019685;stroke-linecap:round;stroke-linejoin:miter;stroke:rgb(100%,49.803922%,45.098039%);stroke-opacity:1;stroke-miterlimit:10;" d="M 0.155514 0.851967 L 0.120864 0.886616 " transform="matrix(740.447189,0,0,-740.447189,148.330901,760.598138)"/>
<path style="fill:none;stroke-width:0.019685;stroke-linecap:round;stroke-linejoin:miter;stroke:rgb(100%,49.803922%,45.098039%);stroke-opacity:1;stroke-miterlimit:10;" d="M 0.120864 0.886616 L 0.120864 0.926378 " transform="matrix(740.447189,0,0,-740.447189,148.330901,760.598138)"/>
<path style="fill:none;stroke-width:0.015748;stroke-linecap:round;stroke-linejoin:miter;stroke:rgb(100%,49.803922%,45.098039%);stroke-opacity:1;stroke-miterlimit:10;" d="M 0.295669 0.801179 L 0.295669 0.849999 " transform="matrix(740.447189,0,0,-740.447189,148.330901,760.598138)"/>
<path style="fill:none;stroke-width:0.019685;stroke-linecap:round;stroke-linejoin:miter;stroke:rgb(100%,49.803922%,45.098039%);stroke-opacity:1;stroke-miterlimit:10;" d="M 0.337794 0.664174 L 0.270868 0.595275 " transform="matrix(740.447189,0,0,-740.447189,148.330901,760.598138)"/>
<path style="fill:none;stroke-width:0.019685;stroke-linecap:round;stroke-linejoin:miter;stroke:rgb(100%,49.803922%,45.098039%);stroke-opacity:1;stroke-miterlimit:10;" d="M 0.270868 0.595275 L 0.270868 0.0826787 " transform="matrix(740.447189,0,0,-740.447189,148.330901,760.598138)"/>
<path style="fill:none;stroke-width:0.019685;stroke-linecap:round;stroke-linejoin:miter;stroke:rgb(100%,49.803922%,45.098039%);stroke-opacity:1;stroke-miterlimit:10;" d="M 0.270868 0.0826787 L 0.28937 0.0763797 " transform="matrix(740.447189,0,0,-740.447189,148.330901,760.598138)"/>
<path style="fill:none;stroke-width:0.019685;stroke-linecap:round;stroke-linejoin:miter;stroke:rgb(100%,49.803922%,45.098039%);stroke-opacity:1;stroke-miterlimit:10;" d="M 0.339371 0.551573 L 0.339371 0.445276 " transform="matrix(740.447189,0,0,-740.447189,148.330901,760.598138)"/>
<path style="fill:none;stroke-width:0.019685;stroke-linecap:round;stroke-linejoin:miter;stroke:rgb(100%,49.803922%,45.098039%);stroke-opacity:1;stroke-miterlimit:10;" d="M 0.339371 0.445276 L 0.339371 0.15748 " transform="matrix(740.447189,0,0,-740.447189,148.330901,760.598138)"/>
<path style="fill:none;stroke-width:0.019685;stroke-linecap:round;stroke-linejoin:miter;stroke:rgb(100%,49.803922%,45.098039%);stroke-opacity:1;stroke-miterlimit:10;" d="M 0.339371 0.15748 L 0.389372 0.104329 " transform="matrix(740.447189,0,0,-740.447189,148.330901,760.598138)"/>
<path style="fill:none;stroke-width:0.019685;stroke-linecap:round;stroke-linejoin:miter;stroke:rgb(100%,49.803922%,45.098039%);stroke-opacity:1;stroke-miterlimit:10;" d="M 0.389372 0.104329 L 0.389372 0.0763797 " transform="matrix(740.447189,0,0,-740.447189,148.330901,760.598138)"/>
<path style="fill:none;stroke-width:0.019685;stroke-linecap:round;stroke-linejoin:miter;stroke:rgb(100%,49.803922%,45.098039%);stroke-opacity:1;stroke-miterlimit:10;" d="M 1.026772 0.151577 L 0.439369 0.151577 " transform="matrix(740.447189,0,0,-740.447189,148.330901,760.598138)"/>
<path style="fill:none;stroke-width:0.019685;stroke-linecap:round;stroke-linejoin:miter;stroke:rgb(100%,49.803922%,45.098039%);stroke-opacity:1;stroke-miterlimit:10;" d="M 0.439369 0.151577 L 0.40197 0.188975 " transform="matrix(740.447189,0,0,-740.447189,148.330901,760.598138)"/>
<path style="fill:none;stroke-width:0.019685;stroke-linecap:round;stroke-linejoin:miter;stroke:rgb(100%,49.803922%,45.098039%);stroke-opacity:1;stroke-miterlimit:10;" d="M 0.40197 0.188975 L 0.40197 0.738976 " transform="matrix(740.447189,0,0,-740.447189,148.330901,760.598138)"/>
<path style="fill:none;stroke-width:0.015748;stroke-linecap:round;stroke-linejoin:miter;stroke:rgb(100%,49.803922%,45.098039%);stroke-opacity:1;stroke-miterlimit:10;" d="M 0.295669 0.838978 L 0.308266 0.851576 " transform="matrix(740.447189,0,0,-740.447189,148.330901,760.598138)"/>
<path style="fill:none;stroke-width:0.015748;stroke-linecap:round;stroke-linejoin:miter;stroke:rgb(100%,49.803922%,45.098039%);stroke-opacity:1;stroke-miterlimit:10;" d="M 0.295669 0.838978 L 0.283071 0.851576 " transform="matrix(740.447189,0,0,-740.447189,148.330901,760.598138)"/>
<path style="fill:none;stroke-width:0.019685;stroke-linecap:round;stroke-linejoin:miter;stroke:rgb(100%,49.803922%,45.098039%);stroke-opacity:1;stroke-miterlimit:10;" d="M 0.133071 0.10118 L 0.170865 0.10118 " transform="matrix(740.447189,0,0,-740.447189,148.330901,760.598138)"/>
<path style="fill:none;stroke-width:0.019685;stroke-linecap:round;stroke-linejoin:miter;stroke:rgb(100%,49.803922%,45.098039%);stroke-opacity:1;stroke-miterlimit:10;" d="M 0.170865 0.10118 L 0.20197 0.132675 " transform="matrix(740.447189,0,0,-740.447189,148.330901,760.598138)"/>
<path style="fill:none;stroke-width:0.019685;stroke-linecap:round;stroke-linejoin:miter;stroke:rgb(100%,49.803922%,45.098039%);stroke-opacity:1;stroke-miterlimit:10;" d="M 0.20197 0.132675 L 0.20197 0.638978 " transform="matrix(740.447189,0,0,-740.447189,148.330901,760.598138)"/>
<path style="fill:none;stroke-width:0.019685;stroke-linecap:round;stroke-linejoin:miter;stroke:rgb(100%,49.803922%,45.098039%);stroke-opacity:1;stroke-miterlimit:10;" d="M 0.20197 0.638978 L 0.389372 0.807478 " transform="matrix(740.447189,0,0,-740.447189,148.330901,760.598138)"/>
<path style=" stroke:none;fill-rule:evenodd;fill:rgb(100%,49.803922%,45.098039%);fill-opacity:1;" d="M 265.8125 685.386719 C 265.8125 660.121094 227.914062 660.121094 227.914062 685.386719 C 227.914062 710.652344 265.8125 710.652344 265.8125 685.386719 "/>
<path style=" stroke:none;fill-rule:evenodd;fill:rgb(45.098039%,45.098039%,87.058824%);fill-opacity:1;" d="M 255.695312 685.074219 C 255.695312 673.226562 237.925781 673.226562 237.925781 685.074219 C 237.925781 696.917969 255.695312 696.917969 255.695312 685.074219 "/>
<path style=" stroke:none;fill-rule:evenodd;fill:rgb(45.098039%,45.098039%,87.058824%);fill-opacity:1;" d="M 408.226562 352.613281 C 408.226562 340.765625 390.457031 340.765625 390.457031 352.613281 C 390.457031 364.457031 408.226562 364.457031 408.226562 352.613281 "/>
<path style=" stroke:none;fill-rule:evenodd;fill:rgb(45.098039%,45.098039%,87.058824%);fill-opacity:1;" d="M 408.226562 268.941406 C 408.226562 257.09375 390.457031 257.09375 390.457031 268.941406 C 390.457031 280.789062 408.226562 280.789062 408.226562 268.941406 "/>
<path style=" stroke:none;fill-rule:evenodd;fill:rgb(45.098039%,45.098039%,87.058824%);fill-opacity:1;" d="M 454.875 213.40625 C 454.875 201.558594 437.105469 201.558594 437.105469 213.40625 C 437.105469 225.253906 454.875 225.253906 454.875 213.40625 "/>
<path style=" stroke:none;fill-rule:evenodd;fill:rgb(45.098039%,45.098039%,87.058824%);fill-opacity:1;" d="M 376.386719 166.757812 C 376.386719 154.914062 358.617188 154.914062 358.617188 166.757812 C 358.617188 178.605469 376.386719 178.605469 376.386719 166.757812 "/>
<path style=" stroke:none;fill-rule:evenodd;fill:rgb(45.098039%,45.098039%,87.058824%);fill-opacity:1;" d="M 246.808594 74.945312 C 246.808594 63.097656 229.039062 63.097656 229.039062 74.945312 C 229.039062 86.792969 246.808594 86.792969 246.808594 74.945312 "/>
<path style=" stroke:none;fill-rule:evenodd;fill:rgb(45.098039%,45.098039%,87.058824%);fill-opacity:1;" d="M 917.65625 648.789062 C 917.65625 636.945312 899.886719 636.945312 899.886719 648.789062 C 899.886719 660.636719 917.65625 660.636719 917.65625 648.789062 "/>
<path style=" stroke:none;fill-rule:evenodd;fill:rgb(45.098039%,45.098039%,87.058824%);fill-opacity:1;" d="M 375.277344 704.324219 C 375.277344 687.046875 349.363281 687.046875 349.363281 704.324219 C 349.363281 721.601562 375.277344 721.601562 375.277344 704.324219 "/>
<path style=" stroke:none;fill-rule:evenodd;fill:rgb(45.098039%,45.098039%,87.058824%);fill-opacity:1;" d="M 449.324219 704.324219 C 449.324219 687.046875 423.40625 687.046875 423.40625 704.324219 C 423.40625 721.601562 449.324219 721.601562 449.324219 704.324219 "/>
<path style=" stroke:none;fill-rule:evenodd;fill:rgb(45.098039%,45.098039%,87.058824%);fill-opacity:1;" d="M 523.367188 704.324219 C 523.367188 687.046875 497.453125 687.046875 497.453125 704.324219 C 497.453125 721.601562 523.367188 721.601562 523.367188 704.324219 "/>
<path style=" stroke:none;fill-rule:evenodd;fill:rgb(45.098039%,45.098039%,87.058824%);fill-opacity:1;" d="M 597.414062 704.324219 C 597.414062 687.046875 571.496094 687.046875 571.496094 704.324219 C 571.496094 721.601562 597.414062 721.601562 597.414062 704.324219 "/>
<path style=" stroke:none;fill-rule:evenodd;fill:rgb(45.098039%,45.098039%,87.058824%);fill-opacity:1;" d="M 671.457031 704.324219 C 671.457031 687.046875 645.542969 687.046875 645.542969 704.324219 C 645.542969 721.601562 671.457031 721.601562 671.457031 704.324219 "/>
<path style=" stroke:none;fill-rule:evenodd;fill:rgb(45.098039%,45.098039%,87.058824%);fill-opacity:1;" d="M 745.5 704.324219 C 745.5 687.046875 719.585938 687.046875 719.585938 704.324219 C 719.585938 721.601562 745.5 721.601562 745.5 704.324219 "/>
<path style=" stroke:none;fill-rule:evenodd;fill:rgb(45.098039%,45.098039%,87.058824%);fill-opacity:1;" d="M 819.546875 704.324219 C 819.546875 687.046875 793.628906 687.046875 793.628906 704.324219 C 793.628906 721.601562 819.546875 721.601562 819.546875 704.324219 "/>
<path style=" stroke:none;fill-rule:evenodd;fill:rgb(45.098039%,45.098039%,87.058824%);fill-opacity:1;" d="M 893.589844 704.324219 C 893.589844 687.046875 867.675781 687.046875 867.675781 704.324219 C 867.675781 721.601562 893.589844 721.601562 893.589844 704.324219 "/>
<path style=" stroke:none;fill-rule:evenodd;fill:rgb(45.098039%,45.098039%,87.058824%);fill-opacity:1;" d="M 967.636719 704.324219 C 967.636719 687.046875 941.71875 687.046875 941.71875 704.324219 C 941.71875 721.601562 967.636719 721.601562 967.636719 704.324219 "/>
<path style=" stroke:none;fill-rule:evenodd;fill:rgb(45.098039%,45.098039%,87.058824%);fill-opacity:1;" d="M 1041.679688 704.324219 C 1041.679688 687.046875 1015.765625 687.046875 1015.765625 704.324219 C 1015.765625 721.601562 1041.679688 721.601562 1041.679688 704.324219 "/>
<path style=" stroke:none;fill-rule:evenodd;fill:rgb(45.098039%,45.098039%,87.058824%);fill-opacity:1;" d="M 1041.679688 74.945312 C 1041.679688 57.667969 1015.765625 57.667969 1015.765625 74.945312 C 1015.765625 92.222656 1041.679688 92.222656 1041.679688 74.945312 "/>
<path style=" stroke:none;fill-rule:evenodd;fill:rgb(45.098039%,45.098039%,87.058824%);fill-opacity:1;" d="M 967.636719 74.945312 C 967.636719 57.667969 941.71875 57.667969 941.71875 74.945312 C 941.71875 92.222656 967.636719 92.222656 967.636719 74.945312 "/>
<path style=" stroke:none;fill-rule:evenodd;fill:rgb(45.098039%,45.098039%,87.058824%);fill-opacity:1;" d="M 893.589844 74.945312 C 893.589844 57.667969 867.675781 57.667969 867.675781 74.945312 C 867.675781 92.222656 893.589844 92.222656 893.589844 74.945312 "/>
<path style=" stroke:none;fill-rule:evenodd;fill:rgb(45.098039%,45.098039%,87.058824%);fill-opacity:1;" d="M 819.546875 74.945312 C 819.546875 57.667969 793.628906 57.667969 793.628906 74.945312 C 793.628906 92.222656 819.546875 92.222656 819.546875 74.945312 "/>
<path style=" stroke:none;fill-rule:evenodd;fill:rgb(45.098039%,45.098039%,87.058824%);fill-opacity:1;" d="M 745.5 74.945312 C 745.5 57.667969 719.585938 57.667969 719.585938 74.945312 C 719.585938 92.222656 745.5 92.222656 745.5 74.945312 "/>
<path style=" stroke:none;fill-rule:evenodd;fill:rgb(45.098039%,45.098039%,87.058824%);fill-opacity:1;" d="M 671.457031 74.945312 C 671.457031 57.667969 645.542969 57.667969 645.542969 74.945312 C 645.542969 92.222656 671.457031 92.222656 671.457031 74.945312 "/>
<path style=" stroke:none;fill-rule:evenodd;fill:rgb(45.098039%,45.098039%,87.058824%);fill-opacity:1;" d="M 597.414062 74.945312 C 597.414062 57.667969 571.496094 57.667969 571.496094 74.945312 C 571.496094 92.222656 597.414062 92.222656 597.414062 74.945312 "/>
<path style=" stroke:none;fill-rule:evenodd;fill:rgb(45.098039%,45.098039%,87.058824%);fill-opacity:1;" d="M 523.367188 74.945312 C 523.367188 57.667969 497.453125 57.667969 497.453125 74.945312 C 497.453125 92.222656 523.367188 92.222656 523.367188 74.945312 "/>
<path style=" stroke:none;fill-rule:evenodd;fill:rgb(45.098039%,45.098039%,87.058824%);fill-opacity:1;" d="M 449.324219 74.945312 C 449.324219 57.667969 423.40625 57.667969 423.40625 74.945312 C 423.40625 92.222656 449.324219 92.222656 449.324219 74.945312 "/>
<path style=" stroke:none;fill-rule:evenodd;fill:rgb(45.098039%,45.098039%,87.058824%);fill-opacity:1;" d="M 375.277344 74.945312 C 375.277344 57.667969 349.363281 57.667969 349.363281 74.945312 C 349.363281 92.222656 375.277344 92.222656 375.277344 74.945312 "/>
</g>
</svg>
