<?xml version="1.0" encoding="UTF-8" standalone="no"?>
<svg
   xmlns:dc="http://purl.org/dc/elements/1.1/"
   xmlns:cc="http://creativecommons.org/ns#"
   xmlns:rdf="http://www.w3.org/1999/02/22-rdf-syntax-ns#"
   xmlns:svg="http://www.w3.org/2000/svg"
   xmlns="http://www.w3.org/2000/svg"
   xmlns:sodipodi="http://sodipodi.sourceforge.net/DTD/sodipodi-0.dtd"
   xmlns:inkscape="http://www.inkscape.org/namespaces/inkscape"
   width="1052.3622"
   height="744.09448"
   viewBox="0 0 1266 555"
   version="1.0"
   id="svg3755"
   sodipodi:version="0.32"
   inkscape:version="0.46"
   sodipodi:docname="bottom_new.svg"
   inkscape:output_extension="org.inkscape.output.svg.inkscape">
  <metadata
     id="metadata3967">
    <rdf:RDF>
      <cc:Work
         rdf:about="">
        <dc:format>image/svg+xml</dc:format>
        <dc:type
           rdf:resource="http://purl.org/dc/dcmitype/StillImage" />
      </cc:Work>
    </rdf:RDF>
  </metadata>
  <defs
     id="defs3965">
    <inkscape:perspective
       sodipodi:type="inkscape:persp3d"
       inkscape:vp_x="0 : 346.875 : 1"
       inkscape:vp_y="0 : 1000 : 0"
       inkscape:vp_z="1582.5 : 346.875 : 1"
       inkscape:persp3d-origin="791.25 : 231.25 : 1"
       id="perspective3969" />
  </defs>
  <sodipodi:namedview
     inkscape:window-height="1127"
     inkscape:window-width="2004"
     inkscape:pageshadow="2"
     inkscape:pageopacity="0.0"
     guidetolerance="10.0"
     gridtolerance="10.0"
     objecttolerance="10.0"
     borderopacity="1.0"
     bordercolor="#666666"
     pagecolor="#ffffff"
     id="base"
     showgrid="true"
     inkscape:zoom="0.86001395"
     inkscape:cx="322.60665"
     inkscape:cy="452.97622"
     inkscape:window-x="2082"
     inkscape:window-y="0"
     inkscape:current-layer="svg3755">
    <inkscape:grid
       type="xygrid"
       id="grid3349"
       units="mm"
       visible="true"
       enabled="true"
       dotted="false" />
  </sodipodi:namedview>
  <g
     id="surface0"
     transform="matrix(0.2033776,0,0,0.2033776,504.262,221.06269)">
    <path
       style="fill:#ffffff;fill-opacity:1;fill-rule:evenodd;stroke:none"
       d="M 499.76562,53.195312 C 499.76562,15.808594 443.69141,15.808594 443.69141,53.195312 C 443.69141,90.578125 499.76562,90.578125 499.76562,53.195312"
       id="path3758" />
    <path
       style="fill:#ffffff;fill-opacity:1;fill-rule:evenodd;stroke:none"
       d="M 552.51953,53.195312 C 552.51953,15.808594 496.44531,15.808594 496.44531,53.195312 C 496.44531,90.578125 552.51953,90.578125 552.51953,53.195312"
       id="path3760" />
    <path
       style="fill:#ffffff;fill-opacity:1;fill-rule:evenodd;stroke:none"
       d="M 605.27344,53.195312 C 605.27344,15.808594 549.19531,15.808594 549.19531,53.195312 C 549.19531,90.578125 605.27344,90.578125 605.27344,53.195312"
       id="path3762" />
    <path
       style="fill:#ffffff;fill-opacity:1;fill-rule:evenodd;stroke:none"
       d="M 658.02734,53.195312 C 658.02734,15.808594 601.94922,15.808594 601.94922,53.195312 C 601.94922,90.578125 658.02734,90.578125 658.02734,53.195312"
       id="path3764" />
    <path
       style="fill:#ffffff;fill-opacity:1;fill-rule:evenodd;stroke:none"
       d="M 710.78125,53.195312 C 710.78125,15.808594 654.70312,15.808594 654.70312,53.195312 C 654.70312,90.578125 710.78125,90.578125 710.78125,53.195312"
       id="path3766" />
    <path
       style="fill:#ffffff;fill-opacity:1;fill-rule:evenodd;stroke:none"
       d="M 763.53516,53.195312 C 763.53516,15.808594 707.45703,15.808594 707.45703,53.195312 C 707.45703,90.578125 763.53516,90.578125 763.53516,53.195312"
       id="path3768" />
    <path
       style="fill:#ffffff;fill-opacity:1;fill-rule:evenodd;stroke:none"
       d="M 816.28516,53.195312 C 816.28516,15.808594 760.21094,15.808594 760.21094,53.195312 C 760.21094,90.578125 816.28516,90.578125 816.28516,53.195312"
       id="path3770" />
    <path
       style="fill:#ffffff;fill-opacity:1;fill-rule:evenodd;stroke:none"
       d="M 869.03906,53.195312 C 869.03906,15.808594 812.96484,15.808594 812.96484,53.195312 C 812.96484,90.578125 869.03906,90.578125 869.03906,53.195312"
       id="path3772" />
    <path
       style="fill:#ffffff;fill-opacity:1;fill-rule:evenodd;stroke:none"
       d="M 499.76562,501.59766 C 499.76562,464.21484 443.69141,464.21484 443.69141,501.59766 C 443.69141,538.98047 499.76562,538.98047 499.76562,501.59766"
       id="path3774" />
    <path
       style="fill:#ffffff;fill-opacity:1;fill-rule:evenodd;stroke:none"
       d="M 552.51953,501.59766 C 552.51953,464.21484 496.44531,464.21484 496.44531,501.59766 C 496.44531,538.98047 552.51953,538.98047 552.51953,501.59766"
       id="path3776" />
    <path
       style="fill:#ffffff;fill-opacity:1;fill-rule:evenodd;stroke:none"
       d="M 605.27344,501.59766 C 605.27344,464.21484 549.19531,464.21484 549.19531,501.59766 C 549.19531,538.98047 605.27344,538.98047 605.27344,501.59766"
       id="path3778" />
    <path
       style="fill:#ffffff;fill-opacity:1;fill-rule:evenodd;stroke:none"
       d="M 658.02734,501.59766 C 658.02734,464.21484 601.94922,464.21484 601.94922,501.59766 C 601.94922,538.98047 658.02734,538.98047 658.02734,501.59766"
       id="path3780" />
    <path
       style="fill:#ffffff;fill-opacity:1;fill-rule:evenodd;stroke:none"
       d="M 710.78125,501.59766 C 710.78125,464.21484 654.70312,464.21484 654.70312,501.59766 C 654.70312,538.98047 710.78125,538.98047 710.78125,501.59766"
       id="path3782" />
    <path
       style="fill:#ffffff;fill-opacity:1;fill-rule:evenodd;stroke:none"
       d="M 763.53516,501.59766 C 763.53516,464.21484 707.45703,464.21484 707.45703,501.59766 C 707.45703,538.98047 763.53516,538.98047 763.53516,501.59766"
       id="path3784" />
    <path
       style="fill:#ffffff;fill-opacity:1;fill-rule:evenodd;stroke:none"
       d="M 816.28516,501.59766 C 816.28516,464.21484 760.21094,464.21484 760.21094,501.59766 C 760.21094,538.98047 816.28516,538.98047 816.28516,501.59766"
       id="path3786" />
    <path
       style="fill:#ffffff;fill-opacity:1;fill-rule:evenodd;stroke:none"
       d="M 869.03906,501.59766 C 869.03906,464.21484 812.96484,464.21484 812.96484,501.59766 C 812.96484,538.98047 869.03906,538.98047 869.03906,501.59766"
       id="path3788" />
    <path
       style="fill:#ffffff;fill-opacity:1;fill-rule:evenodd;stroke:none"
       d="M 447.01172,501.59766 C 447.01172,464.21484 390.9375,464.21484 390.9375,501.59766 C 390.9375,538.98047 447.01172,538.98047 447.01172,501.59766"
       id="path3790" />
    <path
       style="fill:#ffffff;fill-opacity:1;fill-rule:evenodd;stroke:none"
       d="M 921.79297,53.195312 C 921.79297,15.808594 865.71875,15.808594 865.71875,53.195312 C 865.71875,90.578125 921.79297,90.578125 921.79297,53.195312"
       id="path3792" />
    <path
       style="fill:#ffffff;fill-opacity:1;fill-rule:evenodd;stroke:none"
       d="M 447.01172,53.195312 C 447.01172,15.808594 390.9375,15.808594 390.9375,53.195312 C 390.9375,90.578125 447.01172,90.578125 447.01172,53.195312"
       id="path3794" />
    <path
       style="fill:#ffffff;fill-opacity:1;fill-rule:evenodd;stroke:none"
       d="M 921.79297,501.59766 C 921.79297,464.21484 865.71875,464.21484 865.71875,501.59766 C 865.71875,538.98047 921.79297,538.98047 921.79297,501.59766"
       id="path3796" />
    <path
       style="fill:none;stroke:#bf00de;stroke-width:0.0019685;stroke-linecap:round;stroke-linejoin:miter;stroke-miterlimit:10;stroke-opacity:1"
       d="M 0.000787133,1.001179 L 1.38937,1.001179"
       transform="matrix(527.53298,0,0,-527.53298,266.32304,541.88956)"
       id="path3798" />
    <path
       style="fill:none;stroke:#bf00de;stroke-width:0.0019685;stroke-linecap:round;stroke-linejoin:miter;stroke-miterlimit:10;stroke-opacity:1"
       d="M 1.38937,1.001179 L 1.38937,0.00118274"
       transform="matrix(527.53298,0,0,-527.53298,266.32304,541.88956)"
       id="path3800" />
    <path
       style="fill:none;stroke:#bf00de;stroke-width:0.0019685;stroke-linecap:round;stroke-linejoin:miter;stroke-miterlimit:10;stroke-opacity:1"
       d="M 1.38937,0.00118274 L 0.00197189,0.00118274"
       transform="matrix(527.53298,0,0,-527.53298,266.32304,541.88956)"
       id="path3802" />
    <path
       style="fill:none;stroke:#bf00de;stroke-width:0.0019685;stroke-linecap:round;stroke-linejoin:miter;stroke-miterlimit:10;stroke-opacity:1"
       d="M 0.00197189,0.00118274 L 0.00197189,1.001179"
       transform="matrix(527.53298,0,0,-527.53298,266.32304,541.88956)"
       id="path3804" />
    <path
       style="fill:#000000;fill-opacity:1;fill-rule:evenodd;stroke:none"
       d="M 493.53516,53.195312 C 493.53516,24.117188 449.92187,24.117188 449.92187,53.195312 C 449.92187,82.269531 493.53516,82.269531 493.53516,53.195312"
       id="path3806" />
    <path
       style="fill:#000000;fill-opacity:1;fill-rule:evenodd;stroke:none"
       d="M 546.28906,53.195312 C 546.28906,24.117188 502.67578,24.117188 502.67578,53.195312 C 502.67578,82.269531 546.28906,82.269531 546.28906,53.195312"
       id="path3808" />
    <path
       style="fill:#000000;fill-opacity:1;fill-rule:evenodd;stroke:none"
       d="M 599.04297,53.195312 C 599.04297,24.117188 555.42578,24.117188 555.42578,53.195312 C 555.42578,82.269531 599.04297,82.269531 599.04297,53.195312"
       id="path3810" />
    <path
       style="fill:#000000;fill-opacity:1;fill-rule:evenodd;stroke:none"
       d="M 651.79688,53.195312 C 651.79688,24.117188 608.17969,24.117188 608.17969,53.195312 C 608.17969,82.269531 651.79688,82.269531 651.79688,53.195312"
       id="path3812" />
    <path
       style="fill:#000000;fill-opacity:1;fill-rule:evenodd;stroke:none"
       d="M 704.55078,53.195312 C 704.55078,24.117188 660.93359,24.117188 660.93359,53.195312 C 660.93359,82.269531 704.55078,82.269531 704.55078,53.195312"
       id="path3814" />
    <path
       style="fill:#000000;fill-opacity:1;fill-rule:evenodd;stroke:none"
       d="M 757.30078,53.195312 C 757.30078,24.117188 713.6875,24.117188 713.6875,53.195312 C 713.6875,82.269531 757.30078,82.269531 757.30078,53.195312"
       id="path3816" />
    <path
       style="fill:#000000;fill-opacity:1;fill-rule:evenodd;stroke:none"
       d="M 810.05469,53.195312 C 810.05469,24.117188 766.44141,24.117188 766.44141,53.195312 C 766.44141,82.269531 810.05469,82.269531 810.05469,53.195312"
       id="path3818" />
    <path
       style="fill:#000000;fill-opacity:1;fill-rule:evenodd;stroke:none"
       d="M 862.80859,53.195312 C 862.80859,24.117188 819.19531,24.117188 819.19531,53.195312 C 819.19531,82.269531 862.80859,82.269531 862.80859,53.195312"
       id="path3820" />
    <path
       style="fill:#000000;fill-opacity:1;fill-rule:evenodd;stroke:none"
       d="M 493.53516,501.59766 C 493.53516,472.51953 449.92187,472.51953 449.92187,501.59766 C 449.92187,530.67578 493.53516,530.67578 493.53516,501.59766"
       id="path3822" />
    <path
       style="fill:#000000;fill-opacity:1;fill-rule:evenodd;stroke:none"
       d="M 546.28906,501.59766 C 546.28906,472.51953 502.67578,472.51953 502.67578,501.59766 C 502.67578,530.67578 546.28906,530.67578 546.28906,501.59766"
       id="path3824" />
    <path
       style="fill:#000000;fill-opacity:1;fill-rule:evenodd;stroke:none"
       d="M 599.04297,501.59766 C 599.04297,472.51953 555.42578,472.51953 555.42578,501.59766 C 555.42578,530.67578 599.04297,530.67578 599.04297,501.59766"
       id="path3826" />
    <path
       style="fill:#000000;fill-opacity:1;fill-rule:evenodd;stroke:none"
       d="M 651.79688,501.59766 C 651.79688,472.51953 608.17969,472.51953 608.17969,501.59766 C 608.17969,530.67578 651.79688,530.67578 651.79688,501.59766"
       id="path3828" />
    <path
       style="fill:#000000;fill-opacity:1;fill-rule:evenodd;stroke:none"
       d="M 704.55078,501.59766 C 704.55078,472.51953 660.93359,472.51953 660.93359,501.59766 C 660.93359,530.67578 704.55078,530.67578 704.55078,501.59766"
       id="path3830" />
    <path
       style="fill:#000000;fill-opacity:1;fill-rule:evenodd;stroke:none"
       d="M 757.30078,501.59766 C 757.30078,472.51953 713.6875,472.51953 713.6875,501.59766 C 713.6875,530.67578 757.30078,530.67578 757.30078,501.59766"
       id="path3832" />
    <path
       style="fill:#000000;fill-opacity:1;fill-rule:evenodd;stroke:none"
       d="M 810.05469,501.59766 C 810.05469,472.51953 766.44141,472.51953 766.44141,501.59766 C 766.44141,530.67578 810.05469,530.67578 810.05469,501.59766"
       id="path3834" />
    <path
       style="fill:#000000;fill-opacity:1;fill-rule:evenodd;stroke:none"
       d="M 862.80859,501.59766 C 862.80859,472.51953 819.19531,472.51953 819.19531,501.59766 C 819.19531,530.67578 862.80859,530.67578 862.80859,501.59766"
       id="path3836" />
    <path
       style="fill:#000000;fill-opacity:1;fill-rule:evenodd;stroke:none"
       d="M 440.78125,501.59766 C 440.78125,472.51953 397.16797,472.51953 397.16797,501.59766 C 397.16797,530.67578 440.78125,530.67578 440.78125,501.59766"
       id="path3838" />
    <path
       style="fill:#000000;fill-opacity:1;fill-rule:evenodd;stroke:none"
       d="M 915.5625,53.195312 C 915.5625,24.117188 871.94922,24.117188 871.94922,53.195312 C 871.94922,82.269531 915.5625,82.269531 915.5625,53.195312"
       id="path3840" />
    <path
       style="fill:#000000;fill-opacity:1;fill-rule:evenodd;stroke:none"
       d="M 440.78125,53.195312 C 440.78125,24.117188 397.16797,24.117188 397.16797,53.195312 C 397.16797,82.269531 440.78125,82.269531 440.78125,53.195312"
       id="path3842" />
    <path
       style="fill:#000000;fill-opacity:1;fill-rule:evenodd;stroke:none"
       d="M 915.5625,501.59766 C 915.5625,472.51953 871.94922,472.51953 871.94922,501.59766 C 871.94922,530.67578 915.5625,530.67578 915.5625,501.59766"
       id="path3844" />
    <path
       style="fill:none;stroke:#000000;stroke-width:0.019685;stroke-linecap:round;stroke-linejoin:miter;stroke-miterlimit:10;stroke-opacity:1"
       d="M 0.889372,0.926377 L 0.889372,0.826376"
       transform="matrix(527.53298,0,0,-527.53298,266.32304,541.88956)"
       id="path3846" />
    <path
       style="fill:none;stroke:#000000;stroke-width:0.019685;stroke-linecap:round;stroke-linejoin:miter;stroke-miterlimit:10;stroke-opacity:1"
       d="M 0.889372,0.826376 L 0.870868,0.807479"
       transform="matrix(527.53298,0,0,-527.53298,266.32304,541.88956)"
       id="path3848" />
    <path
       style="fill:none;stroke:#000000;stroke-width:0.019685;stroke-linecap:round;stroke-linejoin:miter;stroke-miterlimit:10;stroke-opacity:1"
       d="M 0.870868,0.807479 L 0.389374,0.807479"
       transform="matrix(527.53298,0,0,-527.53298,266.32304,541.88956)"
       id="path3850" />
    <path
       style="fill:#000000;fill-opacity:1;fill-rule:evenodd;stroke:none"
       d="M 435.79687,119.03125 C 435.79687,101.03125 408.79687,101.03125 408.79687,119.03125 C 408.79687,137.03125 435.79687,137.03125 435.79687,119.03125"
       id="path3852" />
    <path
       style="fill:#000000;fill-opacity:1;fill-rule:evenodd;stroke:none"
       d="M 491.875,152.05469 C 491.875,134.05469 464.875,134.05469 464.875,152.05469 C 464.875,170.05469 491.875,170.05469 491.875,152.05469"
       id="path3854" />
    <path
       style="fill:#000000;fill-opacity:1;fill-rule:evenodd;stroke:none"
       d="M 343.58203,53.195312 C 343.58203,35.195312 316.58594,35.195312 316.58594,53.195312 C 316.58594,71.195312 343.58203,71.195312 343.58203,53.195312"
       id="path3856" />
    <path
       style="fill:#000000;fill-opacity:1;fill-rule:evenodd;stroke:none"
       d="M 821.48047,462.13672 C 821.48047,444.13672 794.48047,444.13672 794.48047,462.13672 C 794.48047,480.13672 821.48047,480.13672 821.48047,462.13672"
       id="path3858" />
    <path
       style="fill:#000000;fill-opacity:1;fill-rule:evenodd;stroke:none"
       d="M 458.85156,191.72266 C 458.85156,173.72266 431.85156,173.72266 431.85156,191.72266 C 431.85156,209.72266 458.85156,209.72266 458.85156,191.72266"
       id="path3860" />
    <path
       style="fill:#000000;fill-opacity:1;fill-rule:evenodd;stroke:none"
       d="M 458.85156,251.125 C 458.85156,233.125 431.85156,233.125 431.85156,251.125 C 431.85156,269.125 458.85156,269.125 458.85156,251.125"
       id="path3862" />
    <path
       style="fill:none;stroke:#000000;stroke-width:0.019685;stroke-linecap:round;stroke-linejoin:miter;stroke-miterlimit:10;stroke-opacity:1"
       d="M 0.789371,0.924015 L 0.789371,0.863777"
       transform="matrix(527.53298,0,0,-527.53298,266.32304,541.88956)"
       id="path3864" />
    <path
       style="fill:none;stroke:#000000;stroke-width:0.019685;stroke-linecap:round;stroke-linejoin:miter;stroke-miterlimit:10;stroke-opacity:1"
       d="M 0.789371,0.863777 L 0.777168,0.851574"
       transform="matrix(527.53298,0,0,-527.53298,266.32304,541.88956)"
       id="path3866" />
    <path
       style="fill:none;stroke:#000000;stroke-width:0.019685;stroke-linecap:round;stroke-linejoin:miter;stroke-miterlimit:10;stroke-opacity:1"
       d="M 0.777168,0.851574 L 0.155509,0.851966"
       transform="matrix(527.53298,0,0,-527.53298,266.32304,541.88956)"
       id="path3868" />
    <path
       style="fill:none;stroke:#000000;stroke-width:0.019685;stroke-linecap:round;stroke-linejoin:miter;stroke-miterlimit:10;stroke-opacity:1"
       d="M 0.155509,0.851966 L 0.120863,0.886613"
       transform="matrix(527.53298,0,0,-527.53298,266.32304,541.88956)"
       id="path3870" />
    <path
       style="fill:none;stroke:#000000;stroke-width:0.019685;stroke-linecap:round;stroke-linejoin:miter;stroke-miterlimit:10;stroke-opacity:1"
       d="M 0.120863,0.886613 L 0.120863,0.926377"
       transform="matrix(527.53298,0,0,-527.53298,266.32304,541.88956)"
       id="path3872" />
    <path
       style="fill:none;stroke:#000000;stroke-width:0.015748;stroke-linecap:round;stroke-linejoin:miter;stroke-miterlimit:10;stroke-opacity:1"
       d="M 0.295667,0.801185 L 0.295667,0.849997"
       transform="matrix(527.53298,0,0,-527.53298,266.32304,541.88956)"
       id="path3874" />
    <path
       style="fill:none;stroke:#000000;stroke-width:0.019685;stroke-linecap:round;stroke-linejoin:miter;stroke-miterlimit:10;stroke-opacity:1"
       d="M 0.337792,0.664174 L 0.270868,0.595273"
       transform="matrix(527.53298,0,0,-527.53298,266.32304,541.88956)"
       id="path3876" />
    <path
       style="fill:none;stroke:#000000;stroke-width:0.019685;stroke-linecap:round;stroke-linejoin:miter;stroke-miterlimit:10;stroke-opacity:1"
       d="M 0.270868,0.595273 L 0.270868,0.0826794"
       transform="matrix(527.53298,0,0,-527.53298,266.32304,541.88956)"
       id="path3878" />
    <path
       style="fill:none;stroke:#000000;stroke-width:0.019685;stroke-linecap:round;stroke-linejoin:miter;stroke-miterlimit:10;stroke-opacity:1"
       d="M 0.270868,0.0826794 L 0.289372,0.076378"
       transform="matrix(527.53298,0,0,-527.53298,266.32304,541.88956)"
       id="path3880" />
    <path
       style="fill:none;stroke:#000000;stroke-width:0.019685;stroke-linecap:round;stroke-linejoin:miter;stroke-miterlimit:10;stroke-opacity:1"
       d="M 0.339369,0.551578 L 0.339369,0.445275"
       transform="matrix(527.53298,0,0,-527.53298,266.32304,541.88956)"
       id="path3882" />
    <path
       style="fill:none;stroke:#000000;stroke-width:0.019685;stroke-linecap:round;stroke-linejoin:miter;stroke-miterlimit:10;stroke-opacity:1"
       d="M 0.339369,0.445275 L 0.339369,0.157482"
       transform="matrix(527.53298,0,0,-527.53298,266.32304,541.88956)"
       id="path3884" />
    <path
       style="fill:none;stroke:#000000;stroke-width:0.019685;stroke-linecap:round;stroke-linejoin:miter;stroke-miterlimit:10;stroke-opacity:1"
       d="M 0.339369,0.157482 L 0.389374,0.104331"
       transform="matrix(527.53298,0,0,-527.53298,266.32304,541.88956)"
       id="path3886" />
    <path
       style="fill:none;stroke:#000000;stroke-width:0.019685;stroke-linecap:round;stroke-linejoin:miter;stroke-miterlimit:10;stroke-opacity:1"
       d="M 0.389374,0.104331 L 0.389374,0.076378"
       transform="matrix(527.53298,0,0,-527.53298,266.32304,541.88956)"
       id="path3888" />
    <path
       style="fill:none;stroke:#000000;stroke-width:0.019685;stroke-linecap:round;stroke-linejoin:miter;stroke-miterlimit:10;stroke-opacity:1"
       d="M 1.026775,0.151573 L 0.43937,0.151573"
       transform="matrix(527.53298,0,0,-527.53298,266.32304,541.88956)"
       id="path3890" />
    <path
       style="fill:none;stroke:#000000;stroke-width:0.019685;stroke-linecap:round;stroke-linejoin:miter;stroke-miterlimit:10;stroke-opacity:1"
       d="M 0.43937,0.151573 L 0.401969,0.188975"
       transform="matrix(527.53298,0,0,-527.53298,266.32304,541.88956)"
       id="path3892" />
    <path
       style="fill:none;stroke:#000000;stroke-width:0.019685;stroke-linecap:round;stroke-linejoin:miter;stroke-miterlimit:10;stroke-opacity:1"
       d="M 0.401969,0.188975 L 0.401969,0.738977"
       transform="matrix(527.53298,0,0,-527.53298,266.32304,541.88956)"
       id="path3894" />
    <path
       style="fill:none;stroke:#000000;stroke-width:0.015748;stroke-linecap:round;stroke-linejoin:miter;stroke-miterlimit:10;stroke-opacity:1"
       d="M 0.295667,0.838978 L 0.308269,0.851574"
       transform="matrix(527.53298,0,0,-527.53298,266.32304,541.88956)"
       id="path3896" />
    <path
       style="fill:none;stroke:#000000;stroke-width:0.015748;stroke-linecap:round;stroke-linejoin:miter;stroke-miterlimit:10;stroke-opacity:1"
       d="M 0.295667,0.838978 L 0.283071,0.851574"
       transform="matrix(527.53298,0,0,-527.53298,266.32304,541.88956)"
       id="path3898" />
    <path
       style="fill:none;stroke:#000000;stroke-width:0.019685;stroke-linecap:round;stroke-linejoin:miter;stroke-miterlimit:10;stroke-opacity:1"
       d="M 0.133073,0.101184 L 0.170867,0.101184"
       transform="matrix(527.53298,0,0,-527.53298,266.32304,541.88956)"
       id="path3900" />
    <path
       style="fill:none;stroke:#000000;stroke-width:0.019685;stroke-linecap:round;stroke-linejoin:miter;stroke-miterlimit:10;stroke-opacity:1"
       d="M 0.170867,0.101184 L 0.201967,0.132676"
       transform="matrix(527.53298,0,0,-527.53298,266.32304,541.88956)"
       id="path3902" />
    <path
       style="fill:none;stroke:#000000;stroke-width:0.019685;stroke-linecap:round;stroke-linejoin:miter;stroke-miterlimit:10;stroke-opacity:1"
       d="M 0.201967,0.132676 L 0.201967,0.638976"
       transform="matrix(527.53298,0,0,-527.53298,266.32304,541.88956)"
       id="path3904" />
    <path
       style="fill:none;stroke:#000000;stroke-width:0.019685;stroke-linecap:round;stroke-linejoin:miter;stroke-miterlimit:10;stroke-opacity:1"
       d="M 0.201967,0.638976 L 0.389374,0.807479"
       transform="matrix(527.53298,0,0,-527.53298,266.32304,541.88956)"
       id="path3906" />
    <path
       style="fill:#000000;fill-opacity:1;fill-rule:evenodd;stroke:none"
       d="M 350.02344,488.30469 C 350.02344,470.30469 323.02344,470.30469 323.02344,488.30469 C 323.02344,506.30469 350.02344,506.30469 350.02344,488.30469"
       id="path3908" />
    <path
       style="fill:#ffffff;fill-opacity:1;fill-rule:evenodd;stroke:none"
       d="M 342.81641,488.08203 C 342.81641,479.64063 330.15625,479.64063 330.15625,488.08203 C 330.15625,496.52344 342.81641,496.52344 342.81641,488.08203"
       id="path3910" />
    <path
       style="fill:#ffffff;fill-opacity:1;fill-rule:evenodd;stroke:none"
       d="M 451.48828,251.21875 C 451.48828,242.77734 438.82812,242.77734 438.82812,251.21875 C 438.82812,259.66016 451.48828,259.66016 451.48828,251.21875"
       id="path3912" />
    <path
       style="fill:#ffffff;fill-opacity:1;fill-rule:evenodd;stroke:none"
       d="M 451.48828,191.60937 C 451.48828,183.16797 438.82812,183.16797 438.82812,191.60937 C 438.82812,200.04687 451.48828,200.04687 451.48828,191.60937"
       id="path3914" />
    <path
       style="fill:#ffffff;fill-opacity:1;fill-rule:evenodd;stroke:none"
       d="M 484.72266,152.04297 C 484.72266,143.60156 472.0625,143.60156 472.0625,152.04297 C 472.0625,160.48438 484.72266,160.48438 484.72266,152.04297"
       id="path3916" />
    <path
       style="fill:#ffffff;fill-opacity:1;fill-rule:evenodd;stroke:none"
       d="M 428.80469,118.80859 C 428.80469,110.36719 416.14063,110.36719 416.14063,118.80859 C 416.14063,127.25 428.80469,127.25 428.80469,118.80859"
       id="path3918" />
    <path
       style="fill:#ffffff;fill-opacity:1;fill-rule:evenodd;stroke:none"
       d="M 336.48437,53.394531 C 336.48437,44.953125 323.82422,44.953125 323.82422,53.394531 C 323.82422,61.835938 336.48437,61.835938 336.48437,53.394531"
       id="path3920" />
    <path
       style="fill:#ffffff;fill-opacity:1;fill-rule:evenodd;stroke:none"
       d="M 814.42969,462.23047 C 814.42969,453.79297 801.76953,453.79297 801.76953,462.23047 C 801.76953,470.67188 814.42969,470.67188 814.42969,462.23047"
       id="path3922" />
    <path
       style="fill:#ffffff;fill-opacity:1;fill-rule:evenodd;stroke:none"
       d="M 428.01172,501.79687 C 428.01172,489.48828 409.54688,489.48828 409.54688,501.79687 C 409.54688,514.10547 428.01172,514.10547 428.01172,501.79687"
       id="path3924" />
    <path
       style="fill:#ffffff;fill-opacity:1;fill-rule:evenodd;stroke:none"
       d="M 480.76562,501.79687 C 480.76562,489.48828 462.30078,489.48828 462.30078,501.79687 C 462.30078,514.10547 480.76562,514.10547 480.76562,501.79687"
       id="path3926" />
    <path
       style="fill:#ffffff;fill-opacity:1;fill-rule:evenodd;stroke:none"
       d="M 533.51953,501.79687 C 533.51953,489.48828 515.05469,489.48828 515.05469,501.79687 C 515.05469,514.10547 533.51953,514.10547 533.51953,501.79687"
       id="path3928" />
    <path
       style="fill:#ffffff;fill-opacity:1;fill-rule:evenodd;stroke:none"
       d="M 586.27344,501.79687 C 586.27344,489.48828 567.80859,489.48828 567.80859,501.79687 C 567.80859,514.10547 586.27344,514.10547 586.27344,501.79687"
       id="path3930" />
    <path
       style="fill:#ffffff;fill-opacity:1;fill-rule:evenodd;stroke:none"
       d="M 639.02344,501.79687 C 639.02344,489.48828 620.5625,489.48828 620.5625,501.79687 C 620.5625,514.10547 639.02344,514.10547 639.02344,501.79687"
       id="path3932" />
    <path
       style="fill:#ffffff;fill-opacity:1;fill-rule:evenodd;stroke:none"
       d="M 691.77734,501.79687 C 691.77734,489.48828 673.31641,489.48828 673.31641,501.79687 C 673.31641,514.10547 691.77734,514.10547 691.77734,501.79687"
       id="path3934" />
    <path
       style="fill:#ffffff;fill-opacity:1;fill-rule:evenodd;stroke:none"
       d="M 744.53125,501.79687 C 744.53125,489.48828 726.06641,489.48828 726.06641,501.79687 C 726.06641,514.10547 744.53125,514.10547 744.53125,501.79687"
       id="path3936" />
    <path
       style="fill:#ffffff;fill-opacity:1;fill-rule:evenodd;stroke:none"
       d="M 797.28516,501.79687 C 797.28516,489.48828 778.82031,489.48828 778.82031,501.79687 C 778.82031,514.10547 797.28516,514.10547 797.28516,501.79687"
       id="path3938" />
    <path
       style="fill:#ffffff;fill-opacity:1;fill-rule:evenodd;stroke:none"
       d="M 850.03906,501.79687 C 850.03906,489.48828 831.57422,489.48828 831.57422,501.79687 C 831.57422,514.10547 850.03906,514.10547 850.03906,501.79687"
       id="path3940" />
    <path
       style="fill:#ffffff;fill-opacity:1;fill-rule:evenodd;stroke:none"
       d="M 902.79297,501.79687 C 902.79297,489.48828 884.32812,489.48828 884.32812,501.79687 C 884.32812,514.10547 902.79297,514.10547 902.79297,501.79687"
       id="path3942" />
    <path
       style="fill:#ffffff;fill-opacity:1;fill-rule:evenodd;stroke:none"
       d="M 902.79297,53.394531 C 902.79297,41.085938 884.32812,41.085938 884.32812,53.394531 C 884.32812,65.703125 902.79297,65.703125 902.79297,53.394531"
       id="path3944" />
    <path
       style="fill:#ffffff;fill-opacity:1;fill-rule:evenodd;stroke:none"
       d="M 850.03906,53.394531 C 850.03906,41.085938 831.57422,41.085938 831.57422,53.394531 C 831.57422,65.703125 850.03906,65.703125 850.03906,53.394531"
       id="path3946" />
    <path
       style="fill:#ffffff;fill-opacity:1;fill-rule:evenodd;stroke:none"
       d="M 797.28516,53.394531 C 797.28516,41.085938 778.82031,41.085938 778.82031,53.394531 C 778.82031,65.703125 797.28516,65.703125 797.28516,53.394531"
       id="path3948" />
    <path
       style="fill:#ffffff;fill-opacity:1;fill-rule:evenodd;stroke:none"
       d="M 744.53125,53.394531 C 744.53125,41.085938 726.06641,41.085938 726.06641,53.394531 C 726.06641,65.703125 744.53125,65.703125 744.53125,53.394531"
       id="path3950" />
    <path
       style="fill:#ffffff;fill-opacity:1;fill-rule:evenodd;stroke:none"
       d="M 691.77734,53.394531 C 691.77734,41.085938 673.31641,41.085938 673.31641,53.394531 C 673.31641,65.703125 691.77734,65.703125 691.77734,53.394531"
       id="path3952" />
    <path
       style="fill:#ffffff;fill-opacity:1;fill-rule:evenodd;stroke:none"
       d="M 639.02344,53.394531 C 639.02344,41.085938 620.5625,41.085938 620.5625,53.394531 C 620.5625,65.703125 639.02344,65.703125 639.02344,53.394531"
       id="path3954" />
    <path
       style="fill:#ffffff;fill-opacity:1;fill-rule:evenodd;stroke:none"
       d="M 586.27344,53.394531 C 586.27344,41.085938 567.80859,41.085938 567.80859,53.394531 C 567.80859,65.703125 586.27344,65.703125 586.27344,53.394531"
       id="path3956" />
    <path
       style="fill:#ffffff;fill-opacity:1;fill-rule:evenodd;stroke:none"
       d="M 533.51953,53.394531 C 533.51953,41.085938 515.05469,41.085938 515.05469,53.394531 C 515.05469,65.703125 533.51953,65.703125 533.51953,53.394531"
       id="path3958" />
    <path
       style="fill:#ffffff;fill-opacity:1;fill-rule:evenodd;stroke:none"
       d="M 480.76562,53.394531 C 480.76562,41.085938 462.30078,41.085938 462.30078,53.394531 C 462.30078,65.703125 480.76562,65.703125 480.76562,53.394531"
       id="path3960" />
    <path
       style="fill:#ffffff;fill-opacity:1;fill-rule:evenodd;stroke:none"
       d="M 428.01172,53.394531 C 428.01172,41.085938 409.54688,41.085938 409.54688,53.394531 C 409.54688,65.703125 428.01172,65.703125 428.01172,53.394531"
       id="path3962" />
  </g>
</svg>
