<?xml version="1.0" encoding="UTF-8"?>
<svg xmlns="http://www.w3.org/2000/svg" xmlns:xlink="http://www.w3.org/1999/xlink" width="1326pt" height="779pt" viewBox="0 0 1326 779" version="1.1">
<g id="surface0">
<path style=" stroke:none;fill-rule:evenodd;fill:rgb(45.882353%,94.901961%,40.392157%);fill-opacity:1;" d="M 458.832031 64.773438 C 458.832031 22.285156 395.09375 22.285156 395.09375 64.773438 C 395.09375 107.265625 458.832031 107.265625 458.832031 64.773438 "/>
<path style=" stroke:none;fill-rule:evenodd;fill:rgb(45.882353%,94.901961%,40.392157%);fill-opacity:1;" d="M 535.921875 64.773438 C 535.921875 22.285156 472.183594 22.285156 472.183594 64.773438 C 472.183594 107.265625 535.921875 107.265625 535.921875 64.773438 "/>
<path style=" stroke:none;fill-rule:evenodd;fill:rgb(45.882353%,94.901961%,40.392157%);fill-opacity:1;" d="M 613.007812 64.773438 C 613.007812 22.285156 549.273438 22.285156 549.273438 64.773438 C 549.273438 107.265625 613.007812 107.265625 613.007812 64.773438 "/>
<path style=" stroke:none;fill-rule:evenodd;fill:rgb(45.882353%,94.901961%,40.392157%);fill-opacity:1;" d="M 690.097656 64.773438 C 690.097656 22.285156 626.363281 22.285156 626.363281 64.773438 C 626.363281 107.265625 690.097656 107.265625 690.097656 64.773438 "/>
<path style=" stroke:none;fill-rule:evenodd;fill:rgb(45.882353%,94.901961%,40.392157%);fill-opacity:1;" d="M 767.1875 64.773438 C 767.1875 22.285156 703.453125 22.285156 703.453125 64.773438 C 703.453125 107.265625 767.1875 107.265625 767.1875 64.773438 "/>
<path style=" stroke:none;fill-rule:evenodd;fill:rgb(45.882353%,94.901961%,40.392157%);fill-opacity:1;" d="M 844.277344 64.773438 C 844.277344 22.285156 780.542969 22.285156 780.542969 64.773438 C 780.542969 107.265625 844.277344 107.265625 844.277344 64.773438 "/>
<path style=" stroke:none;fill-rule:evenodd;fill:rgb(45.882353%,94.901961%,40.392157%);fill-opacity:1;" d="M 921.367188 64.773438 C 921.367188 22.285156 857.632812 22.285156 857.632812 64.773438 C 857.632812 107.265625 921.367188 107.265625 921.367188 64.773438 "/>
<path style=" stroke:none;fill-rule:evenodd;fill:rgb(45.882353%,94.901961%,40.392157%);fill-opacity:1;" d="M 998.457031 64.773438 C 998.457031 22.285156 934.71875 22.285156 934.71875 64.773438 C 934.71875 107.265625 998.457031 107.265625 998.457031 64.773438 "/>
<path style=" stroke:none;fill-rule:evenodd;fill:rgb(45.882353%,94.901961%,40.392157%);fill-opacity:1;" d="M 458.832031 720.03125 C 458.832031 677.542969 395.09375 677.542969 395.09375 720.03125 C 395.09375 762.523438 458.832031 762.523438 458.832031 720.03125 "/>
<path style=" stroke:none;fill-rule:evenodd;fill:rgb(45.882353%,94.901961%,40.392157%);fill-opacity:1;" d="M 535.921875 720.03125 C 535.921875 677.542969 472.183594 677.542969 472.183594 720.03125 C 472.183594 762.523438 535.921875 762.523438 535.921875 720.03125 "/>
<path style=" stroke:none;fill-rule:evenodd;fill:rgb(45.882353%,94.901961%,40.392157%);fill-opacity:1;" d="M 613.007812 720.03125 C 613.007812 677.542969 549.273438 677.542969 549.273438 720.03125 C 549.273438 762.523438 613.007812 762.523438 613.007812 720.03125 "/>
<path style=" stroke:none;fill-rule:evenodd;fill:rgb(45.882353%,94.901961%,40.392157%);fill-opacity:1;" d="M 690.097656 720.03125 C 690.097656 677.542969 626.363281 677.542969 626.363281 720.03125 C 626.363281 762.523438 690.097656 762.523438 690.097656 720.03125 "/>
<path style=" stroke:none;fill-rule:evenodd;fill:rgb(45.882353%,94.901961%,40.392157%);fill-opacity:1;" d="M 767.1875 720.03125 C 767.1875 677.542969 703.453125 677.542969 703.453125 720.03125 C 703.453125 762.523438 767.1875 762.523438 767.1875 720.03125 "/>
<path style=" stroke:none;fill-rule:evenodd;fill:rgb(45.882353%,94.901961%,40.392157%);fill-opacity:1;" d="M 844.277344 720.03125 C 844.277344 677.542969 780.542969 677.542969 780.542969 720.03125 C 780.542969 762.523438 844.277344 762.523438 844.277344 720.03125 "/>
<path style=" stroke:none;fill-rule:evenodd;fill:rgb(45.882353%,94.901961%,40.392157%);fill-opacity:1;" d="M 921.367188 720.03125 C 921.367188 677.542969 857.632812 677.542969 857.632812 720.03125 C 857.632812 762.523438 921.367188 762.523438 921.367188 720.03125 "/>
<path style=" stroke:none;fill-rule:evenodd;fill:rgb(45.882353%,94.901961%,40.392157%);fill-opacity:1;" d="M 998.457031 720.03125 C 998.457031 677.542969 934.71875 677.542969 934.71875 720.03125 C 934.71875 762.523438 998.457031 762.523438 998.457031 720.03125 "/>
<path style=" stroke:none;fill-rule:evenodd;fill:rgb(45.882353%,94.901961%,40.392157%);fill-opacity:1;" d="M 381.742188 720.03125 C 381.742188 677.542969 318.007812 677.542969 318.007812 720.03125 C 318.007812 762.523438 381.742188 762.523438 381.742188 720.03125 "/>
<path style=" stroke:none;fill-rule:evenodd;fill:rgb(45.882353%,94.901961%,40.392157%);fill-opacity:1;" d="M 1001.1875 585.886719 L 1025.46875 585.886719 L 1025.46875 622.304688 L 1001.1875 622.304688 L 1001.1875 585.886719 Z M 1001.1875 585.886719 "/>
<path style=" stroke:none;fill-rule:evenodd;fill:rgb(45.882353%,94.901961%,40.392157%);fill-opacity:1;" d="M 970.835938 585.886719 L 995.117188 585.886719 L 995.117188 622.304688 L 970.835938 622.304688 L 970.835938 585.886719 Z M 970.835938 585.886719 "/>
<path style=" stroke:none;fill-rule:evenodd;fill:rgb(45.882353%,94.901961%,40.392157%);fill-opacity:1;" d="M 940.488281 585.886719 L 964.765625 585.886719 L 964.765625 622.304688 L 940.488281 622.304688 L 940.488281 585.886719 Z M 940.488281 585.886719 "/>
<path style=" stroke:none;fill-rule:evenodd;fill:rgb(45.882353%,94.901961%,40.392157%);fill-opacity:1;" d="M 910.136719 585.886719 L 934.417969 585.886719 L 934.417969 622.304688 L 910.136719 622.304688 L 910.136719 585.886719 Z M 910.136719 585.886719 "/>
<path style=" stroke:none;fill-rule:evenodd;fill:rgb(45.882353%,94.901961%,40.392157%);fill-opacity:1;" d="M 879.785156 585.886719 L 904.066406 585.886719 L 904.066406 622.304688 L 879.785156 622.304688 L 879.785156 585.886719 Z M 879.785156 585.886719 "/>
<path style=" stroke:none;fill-rule:evenodd;fill:rgb(45.882353%,94.901961%,40.392157%);fill-opacity:1;" d="M 849.4375 585.886719 L 873.71875 585.886719 L 873.71875 622.304688 L 849.4375 622.304688 L 849.4375 585.886719 Z M 849.4375 585.886719 "/>
<path style=" stroke:none;fill-rule:evenodd;fill:rgb(45.882353%,94.901961%,40.392157%);fill-opacity:1;" d="M 819.085938 585.886719 L 843.367188 585.886719 L 843.367188 622.304688 L 819.085938 622.304688 L 819.085938 585.886719 Z M 819.085938 585.886719 "/>
<path style=" stroke:none;fill-rule:evenodd;fill:rgb(45.882353%,94.901961%,40.392157%);fill-opacity:1;" d="M 788.738281 585.886719 L 813.015625 585.886719 L 813.015625 622.304688 L 788.738281 622.304688 L 788.738281 585.886719 Z M 788.738281 585.886719 "/>
<path style=" stroke:none;fill-rule:evenodd;fill:rgb(45.882353%,94.901961%,40.392157%);fill-opacity:1;" d="M 758.386719 585.886719 L 782.667969 585.886719 L 782.667969 622.304688 L 758.386719 622.304688 L 758.386719 585.886719 Z M 758.386719 585.886719 "/>
<path style=" stroke:none;fill-rule:evenodd;fill:rgb(45.882353%,94.901961%,40.392157%);fill-opacity:1;" d="M 728.035156 585.886719 L 752.316406 585.886719 L 752.316406 622.304688 L 728.035156 622.304688 L 728.035156 585.886719 Z M 728.035156 585.886719 "/>
<path style=" stroke:none;fill-rule:evenodd;fill:rgb(45.882353%,94.901961%,40.392157%);fill-opacity:1;" d="M 697.6875 585.886719 L 721.964844 585.886719 L 721.964844 622.304688 L 697.6875 622.304688 L 697.6875 585.886719 Z M 697.6875 585.886719 "/>
<path style=" stroke:none;fill-rule:evenodd;fill:rgb(45.882353%,94.901961%,40.392157%);fill-opacity:1;" d="M 667.335938 585.886719 L 691.617188 585.886719 L 691.617188 622.304688 L 667.335938 622.304688 L 667.335938 585.886719 Z M 667.335938 585.886719 "/>
<path style=" stroke:none;fill-rule:evenodd;fill:rgb(45.882353%,94.901961%,40.392157%);fill-opacity:1;" d="M 636.984375 585.886719 L 661.265625 585.886719 L 661.265625 622.304688 L 636.984375 622.304688 L 636.984375 585.886719 Z M 636.984375 585.886719 "/>
<path style=" stroke:none;fill-rule:evenodd;fill:rgb(45.882353%,94.901961%,40.392157%);fill-opacity:1;" d="M 606.636719 585.886719 L 630.914062 585.886719 L 630.914062 622.304688 L 606.636719 622.304688 L 606.636719 585.886719 Z M 606.636719 585.886719 "/>
<path style=" stroke:none;fill-rule:evenodd;fill:rgb(45.882353%,94.901961%,40.392157%);fill-opacity:1;" d="M 576.285156 585.886719 L 600.566406 585.886719 L 600.566406 622.304688 L 576.285156 622.304688 L 576.285156 585.886719 Z M 576.285156 585.886719 "/>
<path style=" stroke:none;fill-rule:evenodd;fill:rgb(45.882353%,94.901961%,40.392157%);fill-opacity:1;" d="M 545.9375 585.886719 L 570.214844 585.886719 L 570.214844 622.304688 L 545.9375 622.304688 L 545.9375 585.886719 Z M 545.9375 585.886719 "/>
<path style=" stroke:none;fill-rule:evenodd;fill:rgb(45.882353%,94.901961%,40.392157%);fill-opacity:1;" d="M 515.585938 585.886719 L 539.867188 585.886719 L 539.867188 622.304688 L 515.585938 622.304688 L 515.585938 585.886719 Z M 515.585938 585.886719 "/>
<path style=" stroke:none;fill-rule:evenodd;fill:rgb(45.882353%,94.901961%,40.392157%);fill-opacity:1;" d="M 485.234375 585.886719 L 509.515625 585.886719 L 509.515625 622.304688 L 485.234375 622.304688 L 485.234375 585.886719 Z M 485.234375 585.886719 "/>
<path style=" stroke:none;fill-rule:evenodd;fill:rgb(45.882353%,94.901961%,40.392157%);fill-opacity:1;" d="M 1001.1875 161.894531 L 1025.46875 161.894531 L 1025.46875 198.3125 L 1001.1875 198.3125 L 1001.1875 161.894531 Z M 1001.1875 161.894531 "/>
<path style=" stroke:none;fill-rule:evenodd;fill:rgb(45.882353%,94.901961%,40.392157%);fill-opacity:1;" d="M 970.835938 161.894531 L 995.117188 161.894531 L 995.117188 198.3125 L 970.835938 198.3125 L 970.835938 161.894531 Z M 970.835938 161.894531 "/>
<path style=" stroke:none;fill-rule:evenodd;fill:rgb(45.882353%,94.901961%,40.392157%);fill-opacity:1;" d="M 940.488281 161.894531 L 964.765625 161.894531 L 964.765625 198.3125 L 940.488281 198.3125 L 940.488281 161.894531 Z M 940.488281 161.894531 "/>
<path style=" stroke:none;fill-rule:evenodd;fill:rgb(45.882353%,94.901961%,40.392157%);fill-opacity:1;" d="M 910.136719 161.894531 L 934.417969 161.894531 L 934.417969 198.3125 L 910.136719 198.3125 L 910.136719 161.894531 Z M 910.136719 161.894531 "/>
<path style=" stroke:none;fill-rule:evenodd;fill:rgb(45.882353%,94.901961%,40.392157%);fill-opacity:1;" d="M 879.785156 161.894531 L 904.066406 161.894531 L 904.066406 198.3125 L 879.785156 198.3125 L 879.785156 161.894531 Z M 879.785156 161.894531 "/>
<path style=" stroke:none;fill-rule:evenodd;fill:rgb(45.882353%,94.901961%,40.392157%);fill-opacity:1;" d="M 849.4375 161.894531 L 873.71875 161.894531 L 873.71875 198.3125 L 849.4375 198.3125 L 849.4375 161.894531 Z M 849.4375 161.894531 "/>
<path style=" stroke:none;fill-rule:evenodd;fill:rgb(45.882353%,94.901961%,40.392157%);fill-opacity:1;" d="M 819.085938 161.894531 L 843.367188 161.894531 L 843.367188 198.3125 L 819.085938 198.3125 L 819.085938 161.894531 Z M 819.085938 161.894531 "/>
<path style=" stroke:none;fill-rule:evenodd;fill:rgb(45.882353%,94.901961%,40.392157%);fill-opacity:1;" d="M 788.738281 161.894531 L 813.015625 161.894531 L 813.015625 198.3125 L 788.738281 198.3125 L 788.738281 161.894531 Z M 788.738281 161.894531 "/>
<path style=" stroke:none;fill-rule:evenodd;fill:rgb(45.882353%,94.901961%,40.392157%);fill-opacity:1;" d="M 758.386719 161.894531 L 782.667969 161.894531 L 782.667969 198.3125 L 758.386719 198.3125 L 758.386719 161.894531 Z M 758.386719 161.894531 "/>
<path style=" stroke:none;fill-rule:evenodd;fill:rgb(45.882353%,94.901961%,40.392157%);fill-opacity:1;" d="M 728.035156 161.894531 L 752.316406 161.894531 L 752.316406 198.3125 L 728.035156 198.3125 L 728.035156 161.894531 Z M 728.035156 161.894531 "/>
<path style=" stroke:none;fill-rule:evenodd;fill:rgb(45.882353%,94.901961%,40.392157%);fill-opacity:1;" d="M 697.6875 161.894531 L 721.964844 161.894531 L 721.964844 198.3125 L 697.6875 198.3125 L 697.6875 161.894531 Z M 697.6875 161.894531 "/>
<path style=" stroke:none;fill-rule:evenodd;fill:rgb(45.882353%,94.901961%,40.392157%);fill-opacity:1;" d="M 667.335938 161.894531 L 691.617188 161.894531 L 691.617188 198.3125 L 667.335938 198.3125 L 667.335938 161.894531 Z M 667.335938 161.894531 "/>
<path style=" stroke:none;fill-rule:evenodd;fill:rgb(45.882353%,94.901961%,40.392157%);fill-opacity:1;" d="M 636.984375 161.894531 L 661.265625 161.894531 L 661.265625 198.3125 L 636.984375 198.3125 L 636.984375 161.894531 Z M 636.984375 161.894531 "/>
<path style=" stroke:none;fill-rule:evenodd;fill:rgb(45.882353%,94.901961%,40.392157%);fill-opacity:1;" d="M 606.636719 161.894531 L 630.914062 161.894531 L 630.914062 198.3125 L 606.636719 198.3125 L 606.636719 161.894531 Z M 606.636719 161.894531 "/>
<path style=" stroke:none;fill-rule:evenodd;fill:rgb(45.882353%,94.901961%,40.392157%);fill-opacity:1;" d="M 576.285156 161.894531 L 600.566406 161.894531 L 600.566406 198.3125 L 576.285156 198.3125 L 576.285156 161.894531 Z M 576.285156 161.894531 "/>
<path style=" stroke:none;fill-rule:evenodd;fill:rgb(45.882353%,94.901961%,40.392157%);fill-opacity:1;" d="M 545.9375 161.894531 L 570.214844 161.894531 L 570.214844 198.3125 L 545.9375 198.3125 L 545.9375 161.894531 Z M 545.9375 161.894531 "/>
<path style=" stroke:none;fill-rule:evenodd;fill:rgb(45.882353%,94.901961%,40.392157%);fill-opacity:1;" d="M 515.585938 161.894531 L 539.867188 161.894531 L 539.867188 198.3125 L 515.585938 198.3125 L 515.585938 161.894531 Z M 515.585938 161.894531 "/>
<path style=" stroke:none;fill-rule:evenodd;fill:rgb(45.882353%,94.901961%,40.392157%);fill-opacity:1;" d="M 485.234375 161.894531 L 509.515625 161.894531 L 509.515625 198.3125 L 485.234375 198.3125 L 485.234375 161.894531 Z M 485.234375 161.894531 "/>
<path style=" stroke:none;fill-rule:evenodd;fill:rgb(45.882353%,94.901961%,40.392157%);fill-opacity:1;" d="M 440.925781 316.679688 L 440.925781 292.398438 L 477.34375 292.398438 L 477.34375 316.679688 L 440.925781 316.679688 Z M 440.925781 316.679688 "/>
<path style=" stroke:none;fill-rule:evenodd;fill:rgb(45.882353%,94.901961%,40.392157%);fill-opacity:1;" d="M 440.925781 347.03125 L 440.925781 322.75 L 477.34375 322.75 L 477.34375 347.03125 L 440.925781 347.03125 Z M 440.925781 347.03125 "/>
<path style=" stroke:none;fill-rule:evenodd;fill:rgb(45.882353%,94.901961%,40.392157%);fill-opacity:1;" d="M 440.925781 377.378906 L 440.925781 353.101562 L 477.34375 353.101562 L 477.34375 377.378906 L 440.925781 377.378906 Z M 440.925781 377.378906 "/>
<path style=" stroke:none;fill-rule:evenodd;fill:rgb(45.882353%,94.901961%,40.392157%);fill-opacity:1;" d="M 440.925781 407.730469 L 440.925781 383.449219 L 477.34375 383.449219 L 477.34375 407.730469 L 440.925781 407.730469 Z M 440.925781 407.730469 "/>
<path style=" stroke:none;fill-rule:evenodd;fill:rgb(45.882353%,94.901961%,40.392157%);fill-opacity:1;" d="M 440.925781 438.082031 L 440.925781 413.800781 L 477.34375 413.800781 L 477.34375 438.082031 L 440.925781 438.082031 Z M 440.925781 438.082031 "/>
<path style=" stroke:none;fill-rule:evenodd;fill:rgb(45.882353%,94.901961%,40.392157%);fill-opacity:1;" d="M 440.925781 468.429688 L 440.925781 444.152344 L 477.34375 444.152344 L 477.34375 468.429688 L 440.925781 468.429688 Z M 440.925781 468.429688 "/>
<path style=" stroke:none;fill-rule:evenodd;fill:rgb(45.882353%,94.901961%,40.392157%);fill-opacity:1;" d="M 440.925781 498.78125 L 440.925781 474.5 L 477.34375 474.5 L 477.34375 498.78125 L 440.925781 498.78125 Z M 440.925781 498.78125 "/>
<path style="fill:none;stroke-width:0.015748;stroke-linecap:round;stroke-linejoin:miter;stroke:rgb(45.882353%,94.901961%,40.392157%);stroke-opacity:1;stroke-miterlimit:10;" d="M 0.559447 0.77677 L 0.559447 0.818899 " transform="matrix(770.893166,0,0,-770.893166,126.800373,778.912307)"/>
<path style="fill:none;stroke-width:0.015748;stroke-linecap:round;stroke-linejoin:miter;stroke:rgb(45.882353%,94.901961%,40.392157%);stroke-opacity:1;stroke-miterlimit:10;" d="M 0.559447 0.818899 L 0.551968 0.826378 " transform="matrix(770.893166,0,0,-770.893166,126.800373,778.912307)"/>
<path style="fill:none;stroke-width:0.015748;stroke-linecap:round;stroke-linejoin:miter;stroke:rgb(45.882353%,94.901961%,40.392157%);stroke-opacity:1;stroke-miterlimit:10;" d="M 0.551968 0.826378 L 0.414566 0.826378 " transform="matrix(770.893166,0,0,-770.893166,126.800373,778.912307)"/>
<path style="fill:none;stroke-width:0.015748;stroke-linecap:round;stroke-linejoin:miter;stroke:rgb(45.882353%,94.901961%,40.392157%);stroke-opacity:1;stroke-miterlimit:10;" d="M 0.414566 0.826378 L 0.389372 0.851577 " transform="matrix(770.893166,0,0,-770.893166,126.800373,778.912307)"/>
<path style="fill:none;stroke-width:0.015748;stroke-linecap:round;stroke-linejoin:miter;stroke:rgb(45.882353%,94.901961%,40.392157%);stroke-opacity:1;stroke-miterlimit:10;" d="M 0.389372 0.851577 L 0.389372 0.926379 " transform="matrix(770.893166,0,0,-770.893166,126.800373,778.912307)"/>
<path style="fill:none;stroke-width:0.015748;stroke-linecap:round;stroke-linejoin:miter;stroke:rgb(45.882353%,94.901961%,40.392157%);stroke-opacity:1;stroke-miterlimit:10;" d="M 0.598819 0.77677 L 0.598819 0.82953 " transform="matrix(770.893166,0,0,-770.893166,126.800373,778.912307)"/>
<path style="fill:none;stroke-width:0.015748;stroke-linecap:round;stroke-linejoin:miter;stroke:rgb(45.882353%,94.901961%,40.392157%);stroke-opacity:1;stroke-miterlimit:10;" d="M 0.598819 0.82953 L 0.577167 0.851577 " transform="matrix(770.893166,0,0,-770.893166,126.800373,778.912307)"/>
<path style="fill:none;stroke-width:0.015748;stroke-linecap:round;stroke-linejoin:miter;stroke:rgb(45.882353%,94.901961%,40.392157%);stroke-opacity:1;stroke-miterlimit:10;" d="M 0.577167 0.851577 L 0.50197 0.851577 " transform="matrix(770.893166,0,0,-770.893166,126.800373,778.912307)"/>
<path style="fill:none;stroke-width:0.015748;stroke-linecap:round;stroke-linejoin:miter;stroke:rgb(45.882353%,94.901961%,40.392157%);stroke-opacity:1;stroke-miterlimit:10;" d="M 0.50197 0.851577 L 0.489368 0.863779 " transform="matrix(770.893166,0,0,-770.893166,126.800373,778.912307)"/>
<path style="fill:none;stroke-width:0.015748;stroke-linecap:round;stroke-linejoin:miter;stroke:rgb(45.882353%,94.901961%,40.392157%);stroke-opacity:1;stroke-miterlimit:10;" d="M 0.489368 0.863779 L 0.489368 0.926379 " transform="matrix(770.893166,0,0,-770.893166,126.800373,778.912307)"/>
<path style="fill:none;stroke-width:0.015748;stroke-linecap:round;stroke-linejoin:miter;stroke:rgb(45.882353%,94.901961%,40.392157%);stroke-opacity:1;stroke-miterlimit:10;" d="M 0.638191 0.77677 L 0.638191 0.840155 " transform="matrix(770.893166,0,0,-770.893166,126.800373,778.912307)"/>
<path style="fill:none;stroke-width:0.015748;stroke-linecap:round;stroke-linejoin:miter;stroke:rgb(45.882353%,94.901961%,40.392157%);stroke-opacity:1;stroke-miterlimit:10;" d="M 0.638191 0.840155 L 0.589369 0.888978 " transform="matrix(770.893166,0,0,-770.893166,126.800373,778.912307)"/>
<path style="fill:none;stroke-width:0.015748;stroke-linecap:round;stroke-linejoin:miter;stroke:rgb(45.882353%,94.901961%,40.392157%);stroke-opacity:1;stroke-miterlimit:10;" d="M 0.589369 0.888978 L 0.589369 0.926379 " transform="matrix(770.893166,0,0,-770.893166,126.800373,778.912307)"/>
<path style="fill:none;stroke-width:0.015748;stroke-linecap:round;stroke-linejoin:miter;stroke:rgb(45.882353%,94.901961%,40.392157%);stroke-opacity:1;stroke-miterlimit:10;" d="M 0.677558 0.77677 L 0.677558 0.914567 " transform="matrix(770.893166,0,0,-770.893166,126.800373,778.912307)"/>
<path style="fill:none;stroke-width:0.015748;stroke-linecap:round;stroke-linejoin:miter;stroke:rgb(45.882353%,94.901961%,40.392157%);stroke-opacity:1;stroke-miterlimit:10;" d="M 0.677558 0.914567 L 0.689369 0.926379 " transform="matrix(770.893166,0,0,-770.893166,126.800373,778.912307)"/>
<path style="fill:none;stroke-width:0.015748;stroke-linecap:round;stroke-linejoin:miter;stroke:rgb(45.882353%,94.901961%,40.392157%);stroke-opacity:1;stroke-miterlimit:10;" d="M 0.83504 0.77677 L 0.83504 0.818108 " transform="matrix(770.893166,0,0,-770.893166,126.800373,778.912307)"/>
<path style="fill:none;stroke-width:0.015748;stroke-linecap:round;stroke-linejoin:miter;stroke:rgb(45.882353%,94.901961%,40.392157%);stroke-opacity:1;stroke-miterlimit:10;" d="M 0.83504 0.818108 L 0.826771 0.826378 " transform="matrix(770.893166,0,0,-770.893166,126.800373,778.912307)"/>
<path style="fill:none;stroke-width:0.015748;stroke-linecap:round;stroke-linejoin:miter;stroke:rgb(45.882353%,94.901961%,40.392157%);stroke-opacity:1;stroke-miterlimit:10;" d="M 0.826771 0.826378 L 0.801967 0.826378 " transform="matrix(770.893166,0,0,-770.893166,126.800373,778.912307)"/>
<path style="fill:none;stroke-width:0.015748;stroke-linecap:round;stroke-linejoin:miter;stroke:rgb(45.882353%,94.901961%,40.392157%);stroke-opacity:1;stroke-miterlimit:10;" d="M 0.801967 0.826378 L 0.78937 0.838975 " transform="matrix(770.893166,0,0,-770.893166,126.800373,778.912307)"/>
<path style="fill:none;stroke-width:0.015748;stroke-linecap:round;stroke-linejoin:miter;stroke:rgb(45.882353%,94.901961%,40.392157%);stroke-opacity:1;stroke-miterlimit:10;" d="M 0.78937 0.838975 L 0.78937 0.926379 " transform="matrix(770.893166,0,0,-770.893166,126.800373,778.912307)"/>
<path style=" stroke:none;fill-rule:evenodd;fill:rgb(45.882353%,94.901961%,40.392157%);fill-opacity:1;" d="M 1075.546875 64.773438 C 1075.546875 22.285156 1011.808594 22.285156 1011.808594 64.773438 C 1011.808594 107.265625 1075.546875 107.265625 1075.546875 64.773438 "/>
<path style="fill:none;stroke-width:0.015748;stroke-linecap:round;stroke-linejoin:miter;stroke:rgb(45.882353%,94.901961%,40.392157%);stroke-opacity:1;stroke-miterlimit:10;" d="M 1.03189 0.77677 L 1.03189 0.818899 " transform="matrix(770.893166,0,0,-770.893166,126.800373,778.912307)"/>
<path style="fill:none;stroke-width:0.015748;stroke-linecap:round;stroke-linejoin:miter;stroke:rgb(45.882353%,94.901961%,40.392157%);stroke-opacity:1;stroke-miterlimit:10;" d="M 1.03189 0.818899 L 1.039369 0.826378 " transform="matrix(770.893166,0,0,-770.893166,126.800373,778.912307)"/>
<path style="fill:none;stroke-width:0.015748;stroke-linecap:round;stroke-linejoin:miter;stroke:rgb(45.882353%,94.901961%,40.392157%);stroke-opacity:1;stroke-miterlimit:10;" d="M 1.039369 0.826378 L 1.177166 0.826378 " transform="matrix(770.893166,0,0,-770.893166,126.800373,778.912307)"/>
<path style="fill:none;stroke-width:0.015748;stroke-linecap:round;stroke-linejoin:miter;stroke:rgb(45.882353%,94.901961%,40.392157%);stroke-opacity:1;stroke-miterlimit:10;" d="M 1.177166 0.826378 L 1.189368 0.838975 " transform="matrix(770.893166,0,0,-770.893166,126.800373,778.912307)"/>
<path style="fill:none;stroke-width:0.015748;stroke-linecap:round;stroke-linejoin:miter;stroke:rgb(45.882353%,94.901961%,40.392157%);stroke-opacity:1;stroke-miterlimit:10;" d="M 1.189368 0.838975 L 1.189368 0.926379 " transform="matrix(770.893166,0,0,-770.893166,126.800373,778.912307)"/>
<path style=" stroke:none;fill-rule:evenodd;fill:rgb(45.882353%,94.901961%,40.392157%);fill-opacity:1;" d="M 381.742188 64.773438 C 381.742188 22.285156 318.007812 22.285156 318.007812 64.773438 C 318.007812 107.265625 381.742188 107.265625 381.742188 64.773438 "/>
<path style=" stroke:none;fill-rule:evenodd;fill:rgb(45.882353%,94.901961%,40.392157%);fill-opacity:1;" d="M 1075.546875 720.03125 C 1075.546875 677.542969 1011.808594 677.542969 1011.808594 720.03125 C 1011.808594 762.523438 1075.546875 762.523438 1075.546875 720.03125 "/>
<path style="fill:none;stroke-width:0.015748;stroke-linecap:round;stroke-linejoin:miter;stroke:rgb(45.882353%,94.901961%,40.392157%);stroke-opacity:1;stroke-miterlimit:10;" d="M 0.431101 0.379134 L 0.431101 0.418506 " transform="matrix(770.893166,0,0,-770.893166,126.800373,778.912307)"/>
<path style="fill:none;stroke-width:0.015748;stroke-linecap:round;stroke-linejoin:miter;stroke:rgb(45.882353%,94.901961%,40.392157%);stroke-opacity:1;stroke-miterlimit:10;" d="M 0.431101 0.457873 L 0.431101 0.497245 " transform="matrix(770.893166,0,0,-770.893166,126.800373,778.912307)"/>
<path style="fill:none;stroke-width:0.015748;stroke-linecap:round;stroke-linejoin:miter;stroke:rgb(45.882353%,94.901961%,40.392157%);stroke-opacity:1;stroke-miterlimit:10;" d="M 0.874407 0.77677 L 0.874407 0.824017 " transform="matrix(770.893166,0,0,-770.893166,126.800373,778.912307)"/>
<path style="fill:none;stroke-width:0.015748;stroke-linecap:round;stroke-linejoin:miter;stroke:rgb(45.882353%,94.901961%,40.392157%);stroke-opacity:1;stroke-miterlimit:10;" d="M 0.874407 0.824017 L 0.889371 0.838975 " transform="matrix(770.893166,0,0,-770.893166,126.800373,778.912307)"/>
<path style="fill:none;stroke-width:0.015748;stroke-linecap:round;stroke-linejoin:miter;stroke:rgb(45.882353%,94.901961%,40.392157%);stroke-opacity:1;stroke-miterlimit:10;" d="M 0.889371 0.838975 L 0.889371 0.926379 " transform="matrix(770.893166,0,0,-770.893166,126.800373,778.912307)"/>
<path style=" stroke:none;fill-rule:evenodd;fill:rgb(45.882353%,94.901961%,40.392157%);fill-opacity:1;" d="M 374.457031 160.984375 C 374.457031 134.679688 335.003906 134.679688 335.003906 160.984375 C 335.003906 187.289062 374.457031 187.289062 374.457031 160.984375 "/>
<path style="fill:none;stroke-width:0.015748;stroke-linecap:round;stroke-linejoin:miter;stroke:rgb(45.882353%,94.901961%,40.392157%);stroke-opacity:1;stroke-miterlimit:10;" d="M 0.71693 0.226774 L 0.71693 0.166535 " transform="matrix(770.893166,0,0,-770.893166,126.800373,778.912307)"/>
<path style="fill:none;stroke-width:0.015748;stroke-linecap:round;stroke-linejoin:miter;stroke:rgb(45.882353%,94.901961%,40.392157%);stroke-opacity:1;stroke-miterlimit:10;" d="M 0.71693 0.166535 L 0.689369 0.138975 " transform="matrix(770.893166,0,0,-770.893166,126.800373,778.912307)"/>
<path style="fill:none;stroke-width:0.015748;stroke-linecap:round;stroke-linejoin:miter;stroke:rgb(45.882353%,94.901961%,40.392157%);stroke-opacity:1;stroke-miterlimit:10;" d="M 0.689369 0.138975 L 0.689369 0.0763803 " transform="matrix(770.893166,0,0,-770.893166,126.800373,778.912307)"/>
<path style="fill:none;stroke-width:0.015748;stroke-linecap:round;stroke-linejoin:miter;stroke:rgb(45.882353%,94.901961%,40.392157%);stroke-opacity:1;stroke-miterlimit:10;" d="M 0.677558 0.226774 L 0.677558 0.177166 " transform="matrix(770.893166,0,0,-770.893166,126.800373,778.912307)"/>
<path style="fill:none;stroke-width:0.015748;stroke-linecap:round;stroke-linejoin:miter;stroke:rgb(45.882353%,94.901961%,40.392157%);stroke-opacity:1;stroke-miterlimit:10;" d="M 0.677558 0.177166 L 0.639372 0.138975 " transform="matrix(770.893166,0,0,-770.893166,126.800373,778.912307)"/>
<path style="fill:none;stroke-width:0.015748;stroke-linecap:round;stroke-linejoin:miter;stroke:rgb(45.882353%,94.901961%,40.392157%);stroke-opacity:1;stroke-miterlimit:10;" d="M 0.639372 0.138975 L 0.601971 0.138975 " transform="matrix(770.893166,0,0,-770.893166,126.800373,778.912307)"/>
<path style="fill:none;stroke-width:0.015748;stroke-linecap:round;stroke-linejoin:miter;stroke:rgb(45.882353%,94.901961%,40.392157%);stroke-opacity:1;stroke-miterlimit:10;" d="M 0.601971 0.138975 L 0.589369 0.126378 " transform="matrix(770.893166,0,0,-770.893166,126.800373,778.912307)"/>
<path style="fill:none;stroke-width:0.015748;stroke-linecap:round;stroke-linejoin:miter;stroke:rgb(45.882353%,94.901961%,40.392157%);stroke-opacity:1;stroke-miterlimit:10;" d="M 0.589369 0.126378 L 0.589369 0.0763803 " transform="matrix(770.893166,0,0,-770.893166,126.800373,778.912307)"/>
<path style="fill:none;stroke-width:0.015748;stroke-linecap:round;stroke-linejoin:miter;stroke:rgb(45.882353%,94.901961%,40.392157%);stroke-opacity:1;stroke-miterlimit:10;" d="M 0.756302 0.226774 L 0.756302 0.109449 " transform="matrix(770.893166,0,0,-770.893166,126.800373,778.912307)"/>
<path style="fill:none;stroke-width:0.015748;stroke-linecap:round;stroke-linejoin:miter;stroke:rgb(45.882353%,94.901961%,40.392157%);stroke-opacity:1;stroke-miterlimit:10;" d="M 0.756302 0.109449 L 0.78937 0.0763803 " transform="matrix(770.893166,0,0,-770.893166,126.800373,778.912307)"/>
<path style="fill:none;stroke-width:0.015748;stroke-linecap:round;stroke-linejoin:miter;stroke:rgb(45.882353%,94.901961%,40.392157%);stroke-opacity:1;stroke-miterlimit:10;" d="M 0.795668 0.226774 L 0.795668 0.15748 " transform="matrix(770.893166,0,0,-770.893166,126.800373,778.912307)"/>
<path style="fill:none;stroke-width:0.015748;stroke-linecap:round;stroke-linejoin:miter;stroke:rgb(45.882353%,94.901961%,40.392157%);stroke-opacity:1;stroke-miterlimit:10;" d="M 0.795668 0.15748 L 0.814569 0.138975 " transform="matrix(770.893166,0,0,-770.893166,126.800373,778.912307)"/>
<path style="fill:none;stroke-width:0.015748;stroke-linecap:round;stroke-linejoin:miter;stroke:rgb(45.882353%,94.901961%,40.392157%);stroke-opacity:1;stroke-miterlimit:10;" d="M 0.814569 0.138975 L 0.826771 0.138975 " transform="matrix(770.893166,0,0,-770.893166,126.800373,778.912307)"/>
<path style="fill:none;stroke-width:0.015748;stroke-linecap:round;stroke-linejoin:miter;stroke:rgb(45.882353%,94.901961%,40.392157%);stroke-opacity:1;stroke-miterlimit:10;" d="M 0.826771 0.138975 L 0.889371 0.0763803 " transform="matrix(770.893166,0,0,-770.893166,126.800373,778.912307)"/>
<path style="fill:none;stroke-width:0.015748;stroke-linecap:round;stroke-linejoin:miter;stroke:rgb(45.882353%,94.901961%,40.392157%);stroke-opacity:1;stroke-miterlimit:10;" d="M 0.83504 0.226774 L 0.83504 0.180708 " transform="matrix(770.893166,0,0,-770.893166,126.800373,778.912307)"/>
<path style="fill:none;stroke-width:0.015748;stroke-linecap:round;stroke-linejoin:miter;stroke:rgb(45.882353%,94.901961%,40.392157%);stroke-opacity:1;stroke-miterlimit:10;" d="M 0.83504 0.180708 L 0.85197 0.163779 " transform="matrix(770.893166,0,0,-770.893166,126.800373,778.912307)"/>
<path style="fill:none;stroke-width:0.015748;stroke-linecap:round;stroke-linejoin:miter;stroke:rgb(45.882353%,94.901961%,40.392157%);stroke-opacity:1;stroke-miterlimit:10;" d="M 0.85197 0.163779 L 0.901968 0.163779 " transform="matrix(770.893166,0,0,-770.893166,126.800373,778.912307)"/>
<path style="fill:none;stroke-width:0.015748;stroke-linecap:round;stroke-linejoin:miter;stroke:rgb(45.882353%,94.901961%,40.392157%);stroke-opacity:1;stroke-miterlimit:10;" d="M 0.901968 0.163779 L 0.989371 0.0763803 " transform="matrix(770.893166,0,0,-770.893166,126.800373,778.912307)"/>
<path style="fill:none;stroke-width:0.015748;stroke-linecap:round;stroke-linejoin:miter;stroke:rgb(45.882353%,94.901961%,40.392157%);stroke-opacity:1;stroke-miterlimit:10;" d="M 0.639372 0.226379 L 0.639372 0.188978 " transform="matrix(770.893166,0,0,-770.893166,126.800373,778.912307)"/>
<path style="fill:none;stroke-width:0.015748;stroke-linecap:round;stroke-linejoin:miter;stroke:rgb(45.882353%,94.901961%,40.392157%);stroke-opacity:1;stroke-miterlimit:10;" d="M 0.639372 0.188978 L 0.626769 0.176376 " transform="matrix(770.893166,0,0,-770.893166,126.800373,778.912307)"/>
<path style="fill:none;stroke-width:0.015748;stroke-linecap:round;stroke-linejoin:miter;stroke:rgb(45.882353%,94.901961%,40.392157%);stroke-opacity:1;stroke-miterlimit:10;" d="M 0.626769 0.176376 L 0.577167 0.176376 " transform="matrix(770.893166,0,0,-770.893166,126.800373,778.912307)"/>
<path style="fill:none;stroke-width:0.015748;stroke-linecap:round;stroke-linejoin:miter;stroke:rgb(45.882353%,94.901961%,40.392157%);stroke-opacity:1;stroke-miterlimit:10;" d="M 0.577167 0.176376 L 0.489368 0.0889773 " transform="matrix(770.893166,0,0,-770.893166,126.800373,778.912307)"/>
<path style="fill:none;stroke-width:0.015748;stroke-linecap:round;stroke-linejoin:miter;stroke:rgb(45.882353%,94.901961%,40.392157%);stroke-opacity:1;stroke-miterlimit:10;" d="M 0.489368 0.0889773 L 0.489368 0.0763803 " transform="matrix(770.893166,0,0,-770.893166,126.800373,778.912307)"/>
<path style="fill:none;stroke-width:0.023622;stroke-linecap:round;stroke-linejoin:miter;stroke:rgb(45.882353%,94.901961%,40.392157%);stroke-opacity:1;stroke-miterlimit:10;" d="M 0.431101 0.379134 L 0.337008 0.379134 " transform="matrix(770.893166,0,0,-770.893166,126.800373,778.912307)"/>
<path style="fill:none;stroke-width:0.023622;stroke-linecap:round;stroke-linejoin:miter;stroke:rgb(45.882353%,94.901961%,40.392157%);stroke-opacity:1;stroke-miterlimit:10;" d="M 0.337008 0.379134 L 0.318503 0.392911 " transform="matrix(770.893166,0,0,-770.893166,126.800373,778.912307)"/>
<path style=" stroke:none;fill-rule:evenodd;fill:rgb(45.882353%,94.901961%,40.392157%);fill-opacity:1;" d="M 456.402344 209.242188 C 456.402344 182.9375 416.949219 182.9375 416.949219 209.242188 C 416.949219 235.542969 456.402344 235.542969 456.402344 209.242188 "/>
<path style="fill:none;stroke-width:0.0314961;stroke-linecap:round;stroke-linejoin:miter;stroke:rgb(45.882353%,94.901961%,40.392157%);stroke-opacity:1;stroke-miterlimit:10;" d="M 0.194094 0.783859 L 0.194094 0.853543 " transform="matrix(770.893166,0,0,-770.893166,126.800373,778.912307)"/>
<path style="fill:none;stroke-width:0.0314961;stroke-linecap:round;stroke-linejoin:miter;stroke:rgb(45.882353%,94.901961%,40.392157%);stroke-opacity:1;stroke-miterlimit:10;" d="M 0.194094 0.853543 L 0.289372 0.926379 " transform="matrix(770.893166,0,0,-770.893166,126.800373,778.912307)"/>
<path style=" stroke:none;fill-rule:evenodd;fill:rgb(45.882353%,94.901961%,40.392157%);fill-opacity:1;" d="M 239.703125 64.773438 C 239.703125 38.46875 200.246094 38.46875 200.246094 64.773438 C 200.246094 91.078125 239.703125 91.078125 239.703125 64.773438 "/>
<path style="fill:none;stroke-width:0.023622;stroke-linecap:round;stroke-linejoin:miter;stroke:rgb(45.882353%,94.901961%,40.392157%);stroke-opacity:1;stroke-miterlimit:10;" d="M 0.120868 0.775985 L 0.120868 0.926379 " transform="matrix(770.893166,0,0,-770.893166,126.800373,778.912307)"/>
<path style="fill:none;stroke-width:0.015748;stroke-linecap:round;stroke-linejoin:miter;stroke:rgb(45.882353%,94.901961%,40.392157%);stroke-opacity:1;stroke-miterlimit:10;" d="M 0.953151 0.77677 L 0.953151 0.890158 " transform="matrix(770.893166,0,0,-770.893166,126.800373,778.912307)"/>
<path style="fill:none;stroke-width:0.015748;stroke-linecap:round;stroke-linejoin:miter;stroke:rgb(45.882353%,94.901961%,40.392157%);stroke-opacity:1;stroke-miterlimit:10;" d="M 0.953151 0.890158 L 0.989371 0.926379 " transform="matrix(770.893166,0,0,-770.893166,126.800373,778.912307)"/>
<path style="fill:none;stroke-width:0.015748;stroke-linecap:round;stroke-linejoin:miter;stroke:rgb(45.882353%,94.901961%,40.392157%);stroke-opacity:1;stroke-miterlimit:10;" d="M 0.992518 0.77677 L 0.992518 0.82953 " transform="matrix(770.893166,0,0,-770.893166,126.800373,778.912307)"/>
<path style="fill:none;stroke-width:0.015748;stroke-linecap:round;stroke-linejoin:miter;stroke:rgb(45.882353%,94.901961%,40.392157%);stroke-opacity:1;stroke-miterlimit:10;" d="M 0.992518 0.82953 L 1.026772 0.863779 " transform="matrix(770.893166,0,0,-770.893166,126.800373,778.912307)"/>
<path style="fill:none;stroke-width:0.015748;stroke-linecap:round;stroke-linejoin:miter;stroke:rgb(45.882353%,94.901961%,40.392157%);stroke-opacity:1;stroke-miterlimit:10;" d="M 1.026772 0.863779 L 1.064568 0.863779 " transform="matrix(770.893166,0,0,-770.893166,126.800373,778.912307)"/>
<path style="fill:none;stroke-width:0.015748;stroke-linecap:round;stroke-linejoin:miter;stroke:rgb(45.882353%,94.901961%,40.392157%);stroke-opacity:1;stroke-miterlimit:10;" d="M 1.064568 0.863779 L 1.089372 0.888978 " transform="matrix(770.893166,0,0,-770.893166,126.800373,778.912307)"/>
<path style="fill:none;stroke-width:0.015748;stroke-linecap:round;stroke-linejoin:miter;stroke:rgb(45.882353%,94.901961%,40.392157%);stroke-opacity:1;stroke-miterlimit:10;" d="M 1.089372 0.888978 L 1.089372 0.926379 " transform="matrix(770.893166,0,0,-770.893166,126.800373,778.912307)"/>
<path style=" stroke:none;fill-rule:evenodd;fill:rgb(45.882353%,94.901961%,40.392157%);fill-opacity:1;" d="M 938.058594 662.367188 C 938.058594 636.0625 898.605469 636.0625 898.605469 662.367188 C 898.605469 688.671875 938.058594 688.671875 938.058594 662.367188 "/>
<path style="fill:none;stroke-width:0.015748;stroke-linecap:round;stroke-linejoin:miter;stroke:rgb(45.882353%,94.901961%,40.392157%);stroke-opacity:1;stroke-miterlimit:10;" d="M 1.089372 0.0763803 L 1.089372 0.0889773 " transform="matrix(770.893166,0,0,-770.893166,126.800373,778.912307)"/>
<path style="fill:none;stroke-width:0.015748;stroke-linecap:round;stroke-linejoin:miter;stroke:rgb(45.882353%,94.901961%,40.392157%);stroke-opacity:1;stroke-miterlimit:10;" d="M 1.089372 0.0889773 L 1.026772 0.151577 " transform="matrix(770.893166,0,0,-770.893166,126.800373,778.912307)"/>
<path style="fill:none;stroke-width:0.0314961;stroke-linecap:round;stroke-linejoin:miter;stroke:rgb(45.882353%,94.901961%,40.392157%);stroke-opacity:1;stroke-miterlimit:10;" d="M 0.29567 0.801179 L 0.277165 0.77638 " transform="matrix(770.893166,0,0,-770.893166,126.800373,778.912307)"/>
<path style="fill:none;stroke-width:0.0314961;stroke-linecap:round;stroke-linejoin:miter;stroke:rgb(45.882353%,94.901961%,40.392157%);stroke-opacity:1;stroke-miterlimit:10;" d="M 0.277165 0.77638 L 0.276379 0.460234 " transform="matrix(770.893166,0,0,-770.893166,126.800373,778.912307)"/>
<path style=" stroke:none;fill-rule:evenodd;fill:rgb(45.882353%,94.901961%,40.392157%);fill-opacity:1;" d="M 408.144531 267.210938 C 408.144531 240.90625 368.691406 240.90625 368.691406 267.210938 C 368.691406 293.511719 408.144531 293.511719 408.144531 267.210938 "/>
<path style="fill:none;stroke-width:0.015748;stroke-linecap:round;stroke-linejoin:miter;stroke:rgb(45.882353%,94.901961%,40.392157%);stroke-opacity:1;stroke-miterlimit:10;" d="M 1.071262 0.226774 L 1.071262 0.181889 " transform="matrix(770.893166,0,0,-770.893166,126.800373,778.912307)"/>
<path style="fill:none;stroke-width:0.015748;stroke-linecap:round;stroke-linejoin:miter;stroke:rgb(45.882353%,94.901961%,40.392157%);stroke-opacity:1;stroke-miterlimit:10;" d="M 1.071262 0.181889 L 1.089372 0.163779 " transform="matrix(770.893166,0,0,-770.893166,126.800373,778.912307)"/>
<path style="fill:none;stroke-width:0.015748;stroke-linecap:round;stroke-linejoin:miter;stroke:rgb(45.882353%,94.901961%,40.392157%);stroke-opacity:1;stroke-miterlimit:10;" d="M 1.089372 0.163779 L 1.126773 0.163779 " transform="matrix(770.893166,0,0,-770.893166,126.800373,778.912307)"/>
<path style="fill:none;stroke-width:0.015748;stroke-linecap:round;stroke-linejoin:miter;stroke:rgb(45.882353%,94.901961%,40.392157%);stroke-opacity:1;stroke-miterlimit:10;" d="M 1.126773 0.163779 L 1.189368 0.101179 " transform="matrix(770.893166,0,0,-770.893166,126.800373,778.912307)"/>
<path style="fill:none;stroke-width:0.015748;stroke-linecap:round;stroke-linejoin:miter;stroke:rgb(45.882353%,94.901961%,40.392157%);stroke-opacity:1;stroke-miterlimit:10;" d="M 1.189368 0.101179 L 1.189368 0.0763803 " transform="matrix(770.893166,0,0,-770.893166,126.800373,778.912307)"/>
<path style=" stroke:none;fill-rule:evenodd;fill:rgb(45.882353%,94.901961%,40.392157%);fill-opacity:1;" d="M 408.144531 354.011719 C 408.144531 327.707031 368.691406 327.707031 368.691406 354.011719 C 368.691406 380.3125 408.144531 380.3125 408.144531 354.011719 "/>
<path style="fill:none;stroke-width:0.023622;stroke-linecap:round;stroke-linejoin:miter;stroke:rgb(45.882353%,94.901961%,40.392157%);stroke-opacity:1;stroke-miterlimit:10;" d="M 0.431101 0.457873 L 0.318503 0.459844 " transform="matrix(770.893166,0,0,-770.893166,126.800373,778.912307)"/>
<path style="fill:none;stroke-width:0.015748;stroke-linecap:round;stroke-linejoin:miter;stroke:rgb(45.882353%,94.901961%,40.392157%);stroke-opacity:1;stroke-miterlimit:10;" d="M 0.431101 0.536617 L 0.360236 0.536617 " transform="matrix(770.893166,0,0,-770.893166,126.800373,778.912307)"/>
<path style="fill:none;stroke-width:0.015748;stroke-linecap:round;stroke-linejoin:miter;stroke:rgb(45.882353%,94.901961%,40.392157%);stroke-opacity:1;stroke-miterlimit:10;" d="M 0.360236 0.536617 L 0.339369 0.551575 " transform="matrix(770.893166,0,0,-770.893166,126.800373,778.912307)"/>
<path style="fill:none;stroke-width:0.015748;stroke-linecap:round;stroke-linejoin:miter;stroke:rgb(45.882353%,94.901961%,40.392157%);stroke-opacity:1;stroke-miterlimit:10;" d="M 0.431101 0.575983 L 0.389763 0.575983 " transform="matrix(770.893166,0,0,-770.893166,126.800373,778.912307)"/>
<path style="fill:none;stroke-width:0.015748;stroke-linecap:round;stroke-linejoin:miter;stroke:rgb(45.882353%,94.901961%,40.392157%);stroke-opacity:1;stroke-miterlimit:10;" d="M 0.389763 0.575983 L 0.364569 0.601182 " transform="matrix(770.893166,0,0,-770.893166,126.800373,778.912307)"/>
<path style="fill:none;stroke-width:0.015748;stroke-linecap:round;stroke-linejoin:miter;stroke:rgb(45.882353%,94.901961%,40.392157%);stroke-opacity:1;stroke-miterlimit:10;" d="M 0.364569 0.601182 L 0.339369 0.626376 " transform="matrix(770.893166,0,0,-770.893166,126.800373,778.912307)"/>
<path style="fill:none;stroke-width:0.015748;stroke-linecap:round;stroke-linejoin:miter;stroke:rgb(45.882353%,94.901961%,40.392157%);stroke-opacity:1;stroke-miterlimit:10;" d="M 0.339369 0.626376 L 0.339369 0.663777 " transform="matrix(770.893166,0,0,-770.893166,126.800373,778.912307)"/>
<path style="fill:none;stroke-width:0.015748;stroke-linecap:round;stroke-linejoin:miter;stroke:rgb(45.882353%,94.901961%,40.392157%);stroke-opacity:1;stroke-miterlimit:10;" d="M 0.431101 0.615355 L 0.425197 0.615355 " transform="matrix(770.893166,0,0,-770.893166,126.800373,778.912307)"/>
<path style="fill:none;stroke-width:0.015748;stroke-linecap:round;stroke-linejoin:miter;stroke:rgb(45.882353%,94.901961%,40.392157%);stroke-opacity:1;stroke-miterlimit:10;" d="M 0.425197 0.615355 L 0.401969 0.638979 " transform="matrix(770.893166,0,0,-770.893166,126.800373,778.912307)"/>
<path style="fill:none;stroke-width:0.015748;stroke-linecap:round;stroke-linejoin:miter;stroke:rgb(45.882353%,94.901961%,40.392157%);stroke-opacity:1;stroke-miterlimit:10;" d="M 0.401969 0.638979 L 0.401969 0.738974 " transform="matrix(770.893166,0,0,-770.893166,126.800373,778.912307)"/>
<path style=" stroke:none;fill-rule:evenodd;fill:rgb(45.882353%,94.901961%,40.392157%);fill-opacity:1;" d="M 271.875 337.925781 L 271.875 317.894531 L 301.921875 317.894531 L 301.921875 337.925781 L 271.875 337.925781 Z M 271.875 337.925781 "/>
<path style=" stroke:none;fill-rule:evenodd;fill:rgb(45.882353%,94.901961%,40.392157%);fill-opacity:1;" d="M 271.875 309.394531 L 271.875 289.363281 L 301.921875 289.363281 L 301.921875 309.394531 L 271.875 309.394531 Z M 271.875 309.394531 "/>
<path style=" stroke:none;fill-rule:evenodd;fill:rgb(45.882353%,94.901961%,40.392157%);fill-opacity:1;" d="M 271.875 280.257812 L 271.875 260.230469 L 301.921875 260.230469 L 301.921875 280.257812 L 271.875 280.257812 Z M 271.875 280.257812 "/>
<path style=" stroke:none;fill-rule:evenodd;fill:rgb(45.882353%,94.901961%,40.392157%);fill-opacity:1;" d="M 193.265625 280.257812 L 193.265625 260.230469 L 223.3125 260.230469 L 223.3125 280.257812 L 193.265625 280.257812 Z M 193.265625 280.257812 "/>
<path style=" stroke:none;fill-rule:evenodd;fill:rgb(45.882353%,94.901961%,40.392157%);fill-opacity:1;" d="M 193.265625 337.925781 L 193.265625 317.894531 L 223.3125 317.894531 L 223.3125 337.925781 L 193.265625 337.925781 Z M 193.265625 337.925781 "/>
<path style=" stroke:none;fill-rule:evenodd;fill:rgb(45.882353%,94.901961%,40.392157%);fill-opacity:1;" d="M 199.035156 150.359375 L 238.488281 150.359375 L 238.488281 198.921875 L 199.035156 198.921875 L 199.035156 150.359375 Z M 199.035156 150.359375 "/>
<path style=" stroke:none;fill-rule:evenodd;fill:rgb(45.882353%,94.901961%,40.392157%);fill-opacity:1;" d="M 256.699219 150.359375 L 296.152344 150.359375 L 296.152344 198.921875 L 256.699219 198.921875 L 256.699219 150.359375 Z M 256.699219 150.359375 "/>
<path style=" stroke:none;fill-rule:evenodd;fill:rgb(45.882353%,94.901961%,40.392157%);fill-opacity:1;" d="M 289.476562 429.886719 L 256.09375 429.886719 L 256.09375 393.464844 L 289.476562 393.464844 L 289.476562 429.886719 Z M 289.476562 429.886719 "/>
<path style=" stroke:none;fill-rule:evenodd;fill:rgb(45.882353%,94.901961%,40.392157%);fill-opacity:1;" d="M 237.882812 429.886719 L 204.496094 429.886719 L 204.496094 393.464844 L 237.882812 393.464844 L 237.882812 429.886719 Z M 237.882812 429.886719 "/>
<path style=" stroke:none;fill-rule:evenodd;fill:rgb(45.882353%,94.901961%,40.392157%);fill-opacity:1;" d="M 354.121094 492.710938 L 354.121094 459.324219 L 390.542969 459.324219 L 390.542969 492.710938 L 354.121094 492.710938 Z M 354.121094 492.710938 "/>
<path style=" stroke:none;fill-rule:evenodd;fill:rgb(45.882353%,94.901961%,40.392157%);fill-opacity:1;" d="M 354.121094 441.117188 L 354.121094 407.730469 L 390.542969 407.730469 L 390.542969 441.117188 L 354.121094 441.117188 Z M 354.121094 441.117188 "/>
<path style="fill:none;stroke-width:0.015748;stroke-linecap:round;stroke-linejoin:miter;stroke:rgb(45.882353%,94.901961%,40.392157%);stroke-opacity:1;stroke-miterlimit:10;" d="M 0.207481 0.65984 L 0.164567 0.660235 " transform="matrix(770.893166,0,0,-770.893166,126.800373,778.912307)"/>
<path style="fill:none;stroke-width:0.015748;stroke-linecap:round;stroke-linejoin:miter;stroke:rgb(45.882353%,94.901961%,40.392157%);stroke-opacity:1;stroke-miterlimit:10;" d="M 0.164567 0.660235 L 0.164567 0.585829 " transform="matrix(770.893166,0,0,-770.893166,126.800373,778.912307)"/>
<path style="fill:none;stroke-width:0.015748;stroke-linecap:round;stroke-linejoin:miter;stroke:rgb(45.882353%,94.901961%,40.392157%);stroke-opacity:1;stroke-miterlimit:10;" d="M 0.164567 0.585829 L 0.207481 0.585038 " transform="matrix(770.893166,0,0,-770.893166,126.800373,778.912307)"/>
<path style="fill:none;stroke-width:0.023622;stroke-linecap:round;stroke-linejoin:miter;stroke:rgb(45.882353%,94.901961%,40.392157%);stroke-opacity:1;stroke-miterlimit:10;" d="M 0.045671 0.646458 L 0.045671 0.761812 " transform="matrix(770.893166,0,0,-770.893166,126.800373,778.912307)"/>
<path style="fill:none;stroke-width:0.023622;stroke-linecap:round;stroke-linejoin:miter;stroke:rgb(45.882353%,94.901961%,40.392157%);stroke-opacity:1;stroke-miterlimit:10;" d="M 0.045671 0.761812 L 0.0724409 0.783859 " transform="matrix(770.893166,0,0,-770.893166,126.800373,778.912307)"/>
<path style="fill:none;stroke-width:0.023622;stroke-linecap:round;stroke-linejoin:miter;stroke:rgb(45.882353%,94.901961%,40.392157%);stroke-opacity:1;stroke-miterlimit:10;" d="M 0.0724409 0.783859 L 0.119292 0.783859 " transform="matrix(770.893166,0,0,-770.893166,126.800373,778.912307)"/>
<path style=" stroke:none;fill-rule:evenodd;fill:rgb(45.882353%,94.901961%,40.392157%);fill-opacity:1;" d="M 289.78125 535.808594 L 256.394531 535.808594 L 256.394531 499.386719 L 289.78125 499.386719 L 289.78125 535.808594 Z M 289.78125 535.808594 "/>
<path style=" stroke:none;fill-rule:evenodd;fill:rgb(45.882353%,94.901961%,40.392157%);fill-opacity:1;" d="M 238.183594 535.808594 L 204.800781 535.808594 L 204.800781 499.386719 L 238.183594 499.386719 L 238.183594 535.808594 Z M 238.183594 535.808594 "/>
<path style="fill:none;stroke-width:0.023622;stroke-linecap:round;stroke-linejoin:miter;stroke:rgb(45.882353%,94.901961%,40.392157%);stroke-opacity:1;stroke-miterlimit:10;" d="M 0.105514 0.585038 L 0.105904 0.530708 " transform="matrix(770.893166,0,0,-770.893166,126.800373,778.912307)"/>
<path style="fill:none;stroke-width:0.023622;stroke-linecap:round;stroke-linejoin:miter;stroke:rgb(45.882353%,94.901961%,40.392157%);stroke-opacity:1;stroke-miterlimit:10;" d="M 0.105904 0.530708 L 0.122439 0.513779 " transform="matrix(770.893166,0,0,-770.893166,126.800373,778.912307)"/>
<path style=" stroke:none;fill-rule:evenodd;fill:rgb(45.882353%,94.901961%,40.392157%);fill-opacity:1;" d="M 289.78125 632.320312 L 256.394531 632.320312 L 256.394531 595.902344 L 289.78125 595.902344 L 289.78125 632.320312 Z M 289.78125 632.320312 "/>
<path style=" stroke:none;fill-rule:evenodd;fill:rgb(45.882353%,94.901961%,40.392157%);fill-opacity:1;" d="M 238.183594 632.320312 L 204.800781 632.320312 L 204.800781 595.902344 L 238.183594 595.902344 L 238.183594 632.320312 Z M 238.183594 632.320312 "/>
<path style=" stroke:none;fill-rule:evenodd;fill:rgb(45.882353%,94.901961%,40.392157%);fill-opacity:1;" d="M 354.121094 632.320312 L 354.121094 598.9375 L 390.542969 598.9375 L 390.542969 632.320312 L 354.121094 632.320312 Z M 354.121094 632.320312 "/>
<path style=" stroke:none;fill-rule:evenodd;fill:rgb(45.882353%,94.901961%,40.392157%);fill-opacity:1;" d="M 354.121094 580.726562 L 354.121094 547.339844 L 390.542969 547.339844 L 390.542969 580.726562 L 354.121094 580.726562 Z M 354.121094 580.726562 "/>
<path style="fill:none;stroke-width:0.023622;stroke-linecap:round;stroke-linejoin:miter;stroke:rgb(45.882353%,94.901961%,40.392157%);stroke-opacity:1;stroke-miterlimit:10;" d="M 0.122834 0.213782 L 0.0645665 0.213782 " transform="matrix(770.893166,0,0,-770.893166,126.800373,778.912307)"/>
<path style="fill:none;stroke-width:0.023622;stroke-linecap:round;stroke-linejoin:miter;stroke:rgb(45.882353%,94.901961%,40.392157%);stroke-opacity:1;stroke-miterlimit:10;" d="M 0.0645665 0.213782 L 0.045671 0.232677 " transform="matrix(770.893166,0,0,-770.893166,126.800373,778.912307)"/>
<path style="fill:none;stroke-width:0.023622;stroke-linecap:round;stroke-linejoin:miter;stroke:rgb(45.882353%,94.901961%,40.392157%);stroke-opacity:1;stroke-miterlimit:10;" d="M 0.045671 0.232677 L 0.045671 0.645277 " transform="matrix(770.893166,0,0,-770.893166,126.800373,778.912307)"/>
<path style=" stroke:none;fill-rule:evenodd;fill:rgb(45.882353%,94.901961%,40.392157%);fill-opacity:1;" d="M 249.113281 700.609375 C 249.113281 674.304688 209.65625 674.304688 209.65625 700.609375 C 209.65625 726.914062 249.113281 726.914062 249.113281 700.609375 "/>
<path style="fill:none;stroke-width:0.0314961;stroke-linecap:round;stroke-linejoin:miter;stroke:rgb(45.882353%,94.901961%,40.392157%);stroke-opacity:1;stroke-miterlimit:10;" d="M 0.318503 0.392911 L 0.318503 0.279133 " transform="matrix(770.893166,0,0,-770.893166,126.800373,778.912307)"/>
<path style="fill:none;stroke-width:0.0314961;stroke-linecap:round;stroke-linejoin:miter;stroke:rgb(45.882353%,94.901961%,40.392157%);stroke-opacity:1;stroke-miterlimit:10;" d="M 0.318503 0.279133 L 0.318503 0.278738 " transform="matrix(770.893166,0,0,-770.893166,126.800373,778.912307)"/>
<path style="fill:none;stroke-width:0.023622;stroke-linecap:round;stroke-linejoin:miter;stroke:rgb(45.882353%,94.901961%,40.392157%);stroke-opacity:1;stroke-miterlimit:10;" d="M 0.207481 0.622049 L 0.277165 0.622049 " transform="matrix(770.893166,0,0,-770.893166,126.800373,778.912307)"/>
<path style="fill:none;stroke-width:0.0314961;stroke-linecap:round;stroke-linejoin:miter;stroke:rgb(45.882353%,94.901961%,40.392157%);stroke-opacity:1;stroke-miterlimit:10;" d="M 0.122439 0.513779 L 0.122439 0.414173 " transform="matrix(770.893166,0,0,-770.893166,126.800373,778.912307)"/>
<path style="fill:none;stroke-width:0.0314961;stroke-linecap:round;stroke-linejoin:miter;stroke:rgb(45.882353%,94.901961%,40.392157%);stroke-opacity:1;stroke-miterlimit:10;" d="M 0.122439 0.414173 L 0.122834 0.338976 " transform="matrix(770.893166,0,0,-770.893166,126.800373,778.912307)"/>
<path style="fill:none;stroke-width:0.0314961;stroke-linecap:round;stroke-linejoin:miter;stroke:rgb(45.882353%,94.901961%,40.392157%);stroke-opacity:1;stroke-miterlimit:10;" d="M 0.207481 0.666144 L 0.207481 0.701969 " transform="matrix(770.893166,0,0,-770.893166,126.800373,778.912307)"/>
<path style="fill:none;stroke-width:0.0314961;stroke-linecap:round;stroke-linejoin:miter;stroke:rgb(45.882353%,94.901961%,40.392157%);stroke-opacity:1;stroke-miterlimit:10;" d="M 0.207481 0.701969 L 0.195669 0.71378 " transform="matrix(770.893166,0,0,-770.893166,126.800373,778.912307)"/>
<path style="fill:none;stroke-width:0.0314961;stroke-linecap:round;stroke-linejoin:miter;stroke:rgb(45.882353%,94.901961%,40.392157%);stroke-opacity:1;stroke-miterlimit:10;" d="M 0.195669 0.71378 L 0.195669 0.781888 " transform="matrix(770.893166,0,0,-770.893166,126.800373,778.912307)"/>
<path style="fill:none;stroke-width:0.0314961;stroke-linecap:round;stroke-linejoin:miter;stroke:rgb(45.882353%,94.901961%,40.392157%);stroke-opacity:1;stroke-miterlimit:10;" d="M 0.195669 0.781888 L 0.194094 0.783859 " transform="matrix(770.893166,0,0,-770.893166,126.800373,778.912307)"/>
<path style="fill:none;stroke-width:0.0314961;stroke-linecap:round;stroke-linejoin:miter;stroke:rgb(45.882353%,94.901961%,40.392157%);stroke-opacity:1;stroke-miterlimit:10;" d="M 0.189371 0.476378 L 0.245667 0.476378 " transform="matrix(770.893166,0,0,-770.893166,126.800373,778.912307)"/>
<path style="fill:none;stroke-width:0.0314961;stroke-linecap:round;stroke-linejoin:miter;stroke:rgb(45.882353%,94.901961%,40.392157%);stroke-opacity:1;stroke-miterlimit:10;" d="M 0.245667 0.476378 L 0.264568 0.457482 " transform="matrix(770.893166,0,0,-770.893166,126.800373,778.912307)"/>
<path style="fill:none;stroke-width:0.0314961;stroke-linecap:round;stroke-linejoin:miter;stroke:rgb(45.882353%,94.901961%,40.392157%);stroke-opacity:1;stroke-miterlimit:10;" d="M 0.264568 0.457482 L 0.316537 0.457482 " transform="matrix(770.893166,0,0,-770.893166,126.800373,778.912307)"/>
<path style="fill:none;stroke-width:0.0314961;stroke-linecap:round;stroke-linejoin:miter;stroke:rgb(45.882353%,94.901961%,40.392157%);stroke-opacity:1;stroke-miterlimit:10;" d="M 0.316537 0.457482 L 0.318503 0.459844 " transform="matrix(770.893166,0,0,-770.893166,126.800373,778.912307)"/>
<path style="fill:none;stroke-width:0.0314961;stroke-linecap:round;stroke-linejoin:miter;stroke:rgb(45.882353%,94.901961%,40.392157%);stroke-opacity:1;stroke-miterlimit:10;" d="M 0.189766 0.338976 L 0.314566 0.338976 " transform="matrix(770.893166,0,0,-770.893166,126.800373,778.912307)"/>
<path style="fill:none;stroke-width:0.0314961;stroke-linecap:round;stroke-linejoin:miter;stroke:rgb(45.882353%,94.901961%,40.392157%);stroke-opacity:1;stroke-miterlimit:10;" d="M 0.318503 0.211811 L 0.253937 0.211811 " transform="matrix(770.893166,0,0,-770.893166,126.800373,778.912307)"/>
<path style="fill:none;stroke-width:0.0314961;stroke-linecap:round;stroke-linejoin:miter;stroke:rgb(45.882353%,94.901961%,40.392157%);stroke-opacity:1;stroke-miterlimit:10;" d="M 0.253937 0.211811 L 0.251971 0.213782 " transform="matrix(770.893166,0,0,-770.893166,126.800373,778.912307)"/>
<path style="fill:none;stroke-width:0.0314961;stroke-linecap:round;stroke-linejoin:miter;stroke:rgb(45.882353%,94.901961%,40.392157%);stroke-opacity:1;stroke-miterlimit:10;" d="M 0.251971 0.213782 L 0.189766 0.213782 " transform="matrix(770.893166,0,0,-770.893166,126.800373,778.912307)"/>
<path style="fill:none;stroke-width:0.0314961;stroke-linecap:round;stroke-linejoin:miter;stroke:rgb(45.882353%,94.901961%,40.392157%);stroke-opacity:1;stroke-miterlimit:10;" d="M 0.189766 0.213782 L 0.189766 0.157876 " transform="matrix(770.893166,0,0,-770.893166,126.800373,778.912307)"/>
<path style="fill:none;stroke-width:0.0314961;stroke-linecap:round;stroke-linejoin:miter;stroke:rgb(45.882353%,94.901961%,40.392157%);stroke-opacity:1;stroke-miterlimit:10;" d="M 0.189766 0.157876 L 0.13307 0.101179 " transform="matrix(770.893166,0,0,-770.893166,126.800373,778.912307)"/>
<path style="fill:none;stroke-width:0.0019685;stroke-linecap:round;stroke-linejoin:miter;stroke:rgb(100%,49.803922%,45.098039%);stroke-opacity:1;stroke-miterlimit:10;" d="M 0.000785942 1.00118 L 1.389369 1.00118 " transform="matrix(770.893166,0,0,-770.893166,126.800373,778.912307)"/>
<path style="fill:none;stroke-width:0.0019685;stroke-linecap:round;stroke-linejoin:miter;stroke:rgb(100%,49.803922%,45.098039%);stroke-opacity:1;stroke-miterlimit:10;" d="M 1.389369 1.00118 L 1.389369 0.00118344 " transform="matrix(770.893166,0,0,-770.893166,126.800373,778.912307)"/>
<path style="fill:none;stroke-width:0.0019685;stroke-linecap:round;stroke-linejoin:miter;stroke:rgb(100%,49.803922%,45.098039%);stroke-opacity:1;stroke-miterlimit:10;" d="M 1.389369 0.00118344 L 0.00196659 0.00118344 " transform="matrix(770.893166,0,0,-770.893166,126.800373,778.912307)"/>
<path style="fill:none;stroke-width:0.0019685;stroke-linecap:round;stroke-linejoin:miter;stroke:rgb(100%,49.803922%,45.098039%);stroke-opacity:1;stroke-miterlimit:10;" d="M 0.00196659 0.00118344 L 0.00196659 1.00118 " transform="matrix(770.893166,0,0,-770.893166,126.800373,778.912307)"/>
<path style=" stroke:none;fill-rule:evenodd;fill:rgb(45.098039%,45.098039%,87.058824%);fill-opacity:1;" d="M 238.578125 700.28125 C 238.578125 687.945312 220.078125 687.945312 220.078125 700.28125 C 220.078125 712.617188 238.578125 712.617188 238.578125 700.28125 "/>
<path style=" stroke:none;fill-rule:evenodd;fill:rgb(45.098039%,45.098039%,87.058824%);fill-opacity:1;" d="M 397.382812 354.148438 C 397.382812 341.816406 378.882812 341.816406 378.882812 354.148438 C 378.882812 366.484375 397.382812 366.484375 397.382812 354.148438 "/>
<path style=" stroke:none;fill-rule:evenodd;fill:rgb(45.098039%,45.098039%,87.058824%);fill-opacity:1;" d="M 397.382812 267.039062 C 397.382812 254.703125 378.882812 254.703125 378.882812 267.039062 C 378.882812 279.375 397.382812 279.375 397.382812 267.039062 "/>
<path style=" stroke:none;fill-rule:evenodd;fill:rgb(45.098039%,45.098039%,87.058824%);fill-opacity:1;" d="M 445.949219 209.222656 C 445.949219 196.886719 427.449219 196.886719 427.449219 209.222656 C 427.449219 221.554688 445.949219 221.554688 445.949219 209.222656 "/>
<path style=" stroke:none;fill-rule:evenodd;fill:rgb(45.098039%,45.098039%,87.058824%);fill-opacity:1;" d="M 364.234375 160.65625 C 364.234375 148.320312 345.734375 148.320312 345.734375 160.65625 C 345.734375 172.992188 364.234375 172.992188 364.234375 160.65625 "/>
<path style=" stroke:none;fill-rule:evenodd;fill:rgb(45.098039%,45.098039%,87.058824%);fill-opacity:1;" d="M 229.328125 65.066406 C 229.328125 52.730469 210.828125 52.730469 210.828125 65.066406 C 210.828125 77.398438 229.328125 77.398438 229.328125 65.066406 "/>
<path style=" stroke:none;fill-rule:evenodd;fill:rgb(45.098039%,45.098039%,87.058824%);fill-opacity:1;" d="M 927.757812 662.507812 C 927.757812 650.171875 909.257812 650.171875 909.257812 662.507812 C 909.257812 674.839844 927.757812 674.839844 927.757812 662.507812 "/>
<path style=" stroke:none;fill-rule:evenodd;fill:rgb(45.098039%,45.098039%,87.058824%);fill-opacity:1;" d="M 363.078125 720.324219 C 363.078125 702.335938 336.097656 702.335938 336.097656 720.324219 C 336.097656 738.3125 363.078125 738.3125 363.078125 720.324219 "/>
<path style=" stroke:none;fill-rule:evenodd;fill:rgb(45.098039%,45.098039%,87.058824%);fill-opacity:1;" d="M 440.167969 720.324219 C 440.167969 702.335938 413.1875 702.335938 413.1875 720.324219 C 413.1875 738.3125 440.167969 738.3125 440.167969 720.324219 "/>
<path style=" stroke:none;fill-rule:evenodd;fill:rgb(45.098039%,45.098039%,87.058824%);fill-opacity:1;" d="M 517.257812 720.324219 C 517.257812 702.335938 490.277344 702.335938 490.277344 720.324219 C 490.277344 738.3125 517.257812 738.3125 517.257812 720.324219 "/>
<path style=" stroke:none;fill-rule:evenodd;fill:rgb(45.098039%,45.098039%,87.058824%);fill-opacity:1;" d="M 594.347656 720.324219 C 594.347656 702.335938 567.367188 702.335938 567.367188 720.324219 C 567.367188 738.3125 594.347656 738.3125 594.347656 720.324219 "/>
<path style=" stroke:none;fill-rule:evenodd;fill:rgb(45.098039%,45.098039%,87.058824%);fill-opacity:1;" d="M 671.4375 720.324219 C 671.4375 702.335938 644.457031 702.335938 644.457031 720.324219 C 644.457031 738.3125 671.4375 738.3125 671.4375 720.324219 "/>
<path style=" stroke:none;fill-rule:evenodd;fill:rgb(45.098039%,45.098039%,87.058824%);fill-opacity:1;" d="M 748.527344 720.324219 C 748.527344 702.335938 721.542969 702.335938 721.542969 720.324219 C 721.542969 738.3125 748.527344 738.3125 748.527344 720.324219 "/>
<path style=" stroke:none;fill-rule:evenodd;fill:rgb(45.098039%,45.098039%,87.058824%);fill-opacity:1;" d="M 825.613281 720.324219 C 825.613281 702.335938 798.632812 702.335938 798.632812 720.324219 C 798.632812 738.3125 825.613281 738.3125 825.613281 720.324219 "/>
<path style=" stroke:none;fill-rule:evenodd;fill:rgb(45.098039%,45.098039%,87.058824%);fill-opacity:1;" d="M 902.703125 720.324219 C 902.703125 702.335938 875.722656 702.335938 875.722656 720.324219 C 875.722656 738.3125 902.703125 738.3125 902.703125 720.324219 "/>
<path style=" stroke:none;fill-rule:evenodd;fill:rgb(45.098039%,45.098039%,87.058824%);fill-opacity:1;" d="M 979.792969 720.324219 C 979.792969 702.335938 952.8125 702.335938 952.8125 720.324219 C 952.8125 738.3125 979.792969 738.3125 979.792969 720.324219 "/>
<path style=" stroke:none;fill-rule:evenodd;fill:rgb(45.098039%,45.098039%,87.058824%);fill-opacity:1;" d="M 1056.882812 720.324219 C 1056.882812 702.335938 1029.902344 702.335938 1029.902344 720.324219 C 1029.902344 738.3125 1056.882812 738.3125 1056.882812 720.324219 "/>
<path style=" stroke:none;fill-rule:evenodd;fill:rgb(45.098039%,45.098039%,87.058824%);fill-opacity:1;" d="M 1056.882812 65.066406 C 1056.882812 47.078125 1029.902344 47.078125 1029.902344 65.066406 C 1029.902344 83.054688 1056.882812 83.054688 1056.882812 65.066406 "/>
<path style=" stroke:none;fill-rule:evenodd;fill:rgb(45.098039%,45.098039%,87.058824%);fill-opacity:1;" d="M 979.792969 65.066406 C 979.792969 47.078125 952.8125 47.078125 952.8125 65.066406 C 952.8125 83.054688 979.792969 83.054688 979.792969 65.066406 "/>
<path style=" stroke:none;fill-rule:evenodd;fill:rgb(45.098039%,45.098039%,87.058824%);fill-opacity:1;" d="M 902.703125 65.066406 C 902.703125 47.078125 875.722656 47.078125 875.722656 65.066406 C 875.722656 83.054688 902.703125 83.054688 902.703125 65.066406 "/>
<path style=" stroke:none;fill-rule:evenodd;fill:rgb(45.098039%,45.098039%,87.058824%);fill-opacity:1;" d="M 825.613281 65.066406 C 825.613281 47.078125 798.632812 47.078125 798.632812 65.066406 C 798.632812 83.054688 825.613281 83.054688 825.613281 65.066406 "/>
<path style=" stroke:none;fill-rule:evenodd;fill:rgb(45.098039%,45.098039%,87.058824%);fill-opacity:1;" d="M 748.527344 65.066406 C 748.527344 47.078125 721.542969 47.078125 721.542969 65.066406 C 721.542969 83.054688 748.527344 83.054688 748.527344 65.066406 "/>
<path style=" stroke:none;fill-rule:evenodd;fill:rgb(45.098039%,45.098039%,87.058824%);fill-opacity:1;" d="M 671.4375 65.066406 C 671.4375 47.078125 644.457031 47.078125 644.457031 65.066406 C 644.457031 83.054688 671.4375 83.054688 671.4375 65.066406 "/>
<path style=" stroke:none;fill-rule:evenodd;fill:rgb(45.098039%,45.098039%,87.058824%);fill-opacity:1;" d="M 594.347656 65.066406 C 594.347656 47.078125 567.367188 47.078125 567.367188 65.066406 C 567.367188 83.054688 594.347656 83.054688 594.347656 65.066406 "/>
<path style=" stroke:none;fill-rule:evenodd;fill:rgb(45.098039%,45.098039%,87.058824%);fill-opacity:1;" d="M 517.257812 65.066406 C 517.257812 47.078125 490.277344 47.078125 490.277344 65.066406 C 490.277344 83.054688 517.257812 83.054688 517.257812 65.066406 "/>
<path style=" stroke:none;fill-rule:evenodd;fill:rgb(45.098039%,45.098039%,87.058824%);fill-opacity:1;" d="M 440.167969 65.066406 C 440.167969 47.078125 413.1875 47.078125 413.1875 65.066406 C 413.1875 83.054688 440.167969 83.054688 440.167969 65.066406 "/>
<path style=" stroke:none;fill-rule:evenodd;fill:rgb(45.098039%,45.098039%,87.058824%);fill-opacity:1;" d="M 363.078125 65.066406 C 363.078125 47.078125 336.097656 47.078125 336.097656 65.066406 C 336.097656 83.054688 363.078125 83.054688 363.078125 65.066406 "/>
</g>
</svg>
