<?xml version="1.0" encoding="UTF-8"?>
<svg xmlns="http://www.w3.org/2000/svg" xmlns:xlink="http://www.w3.org/1999/xlink" width="1266pt" height="555pt" viewBox="0 0 1266 555" version="1.1">
<g id="surface0">
<path style=" stroke:none;fill-rule:evenodd;fill:rgb(100%,100%,100%);fill-opacity:1;" d="M 499.765625 53.195312 C 499.765625 15.808594 443.691406 15.808594 443.691406 53.195312 C 443.691406 90.578125 499.765625 90.578125 499.765625 53.195312 "/>
<path style=" stroke:none;fill-rule:evenodd;fill:rgb(100%,100%,100%);fill-opacity:1;" d="M 552.519531 53.195312 C 552.519531 15.808594 496.445312 15.808594 496.445312 53.195312 C 496.445312 90.578125 552.519531 90.578125 552.519531 53.195312 "/>
<path style=" stroke:none;fill-rule:evenodd;fill:rgb(100%,100%,100%);fill-opacity:1;" d="M 605.273438 53.195312 C 605.273438 15.808594 549.195312 15.808594 549.195312 53.195312 C 549.195312 90.578125 605.273438 90.578125 605.273438 53.195312 "/>
<path style=" stroke:none;fill-rule:evenodd;fill:rgb(100%,100%,100%);fill-opacity:1;" d="M 658.027344 53.195312 C 658.027344 15.808594 601.949219 15.808594 601.949219 53.195312 C 601.949219 90.578125 658.027344 90.578125 658.027344 53.195312 "/>
<path style=" stroke:none;fill-rule:evenodd;fill:rgb(100%,100%,100%);fill-opacity:1;" d="M 710.78125 53.195312 C 710.78125 15.808594 654.703125 15.808594 654.703125 53.195312 C 654.703125 90.578125 710.78125 90.578125 710.78125 53.195312 "/>
<path style=" stroke:none;fill-rule:evenodd;fill:rgb(100%,100%,100%);fill-opacity:1;" d="M 763.535156 53.195312 C 763.535156 15.808594 707.457031 15.808594 707.457031 53.195312 C 707.457031 90.578125 763.535156 90.578125 763.535156 53.195312 "/>
<path style=" stroke:none;fill-rule:evenodd;fill:rgb(100%,100%,100%);fill-opacity:1;" d="M 816.285156 53.195312 C 816.285156 15.808594 760.210938 15.808594 760.210938 53.195312 C 760.210938 90.578125 816.285156 90.578125 816.285156 53.195312 "/>
<path style=" stroke:none;fill-rule:evenodd;fill:rgb(100%,100%,100%);fill-opacity:1;" d="M 869.039062 53.195312 C 869.039062 15.808594 812.964844 15.808594 812.964844 53.195312 C 812.964844 90.578125 869.039062 90.578125 869.039062 53.195312 "/>
<path style=" stroke:none;fill-rule:evenodd;fill:rgb(100%,100%,100%);fill-opacity:1;" d="M 499.765625 501.597656 C 499.765625 464.214844 443.691406 464.214844 443.691406 501.597656 C 443.691406 538.980469 499.765625 538.980469 499.765625 501.597656 "/>
<path style=" stroke:none;fill-rule:evenodd;fill:rgb(100%,100%,100%);fill-opacity:1;" d="M 552.519531 501.597656 C 552.519531 464.214844 496.445312 464.214844 496.445312 501.597656 C 496.445312 538.980469 552.519531 538.980469 552.519531 501.597656 "/>
<path style=" stroke:none;fill-rule:evenodd;fill:rgb(100%,100%,100%);fill-opacity:1;" d="M 605.273438 501.597656 C 605.273438 464.214844 549.195312 464.214844 549.195312 501.597656 C 549.195312 538.980469 605.273438 538.980469 605.273438 501.597656 "/>
<path style=" stroke:none;fill-rule:evenodd;fill:rgb(100%,100%,100%);fill-opacity:1;" d="M 658.027344 501.597656 C 658.027344 464.214844 601.949219 464.214844 601.949219 501.597656 C 601.949219 538.980469 658.027344 538.980469 658.027344 501.597656 "/>
<path style=" stroke:none;fill-rule:evenodd;fill:rgb(100%,100%,100%);fill-opacity:1;" d="M 710.78125 501.597656 C 710.78125 464.214844 654.703125 464.214844 654.703125 501.597656 C 654.703125 538.980469 710.78125 538.980469 710.78125 501.597656 "/>
<path style=" stroke:none;fill-rule:evenodd;fill:rgb(100%,100%,100%);fill-opacity:1;" d="M 763.535156 501.597656 C 763.535156 464.214844 707.457031 464.214844 707.457031 501.597656 C 707.457031 538.980469 763.535156 538.980469 763.535156 501.597656 "/>
<path style=" stroke:none;fill-rule:evenodd;fill:rgb(100%,100%,100%);fill-opacity:1;" d="M 816.285156 501.597656 C 816.285156 464.214844 760.210938 464.214844 760.210938 501.597656 C 760.210938 538.980469 816.285156 538.980469 816.285156 501.597656 "/>
<path style=" stroke:none;fill-rule:evenodd;fill:rgb(100%,100%,100%);fill-opacity:1;" d="M 869.039062 501.597656 C 869.039062 464.214844 812.964844 464.214844 812.964844 501.597656 C 812.964844 538.980469 869.039062 538.980469 869.039062 501.597656 "/>
<path style=" stroke:none;fill-rule:evenodd;fill:rgb(100%,100%,100%);fill-opacity:1;" d="M 447.011719 501.597656 C 447.011719 464.214844 390.9375 464.214844 390.9375 501.597656 C 390.9375 538.980469 447.011719 538.980469 447.011719 501.597656 "/>
<path style=" stroke:none;fill-rule:evenodd;fill:rgb(100%,100%,100%);fill-opacity:1;" d="M 921.792969 53.195312 C 921.792969 15.808594 865.71875 15.808594 865.71875 53.195312 C 865.71875 90.578125 921.792969 90.578125 921.792969 53.195312 "/>
<path style=" stroke:none;fill-rule:evenodd;fill:rgb(100%,100%,100%);fill-opacity:1;" d="M 447.011719 53.195312 C 447.011719 15.808594 390.9375 15.808594 390.9375 53.195312 C 390.9375 90.578125 447.011719 90.578125 447.011719 53.195312 "/>
<path style=" stroke:none;fill-rule:evenodd;fill:rgb(100%,100%,100%);fill-opacity:1;" d="M 921.792969 501.597656 C 921.792969 464.214844 865.71875 464.214844 865.71875 501.597656 C 865.71875 538.980469 921.792969 538.980469 921.792969 501.597656 "/>
<path style="fill:none;stroke-width:0.0019685;stroke-linecap:round;stroke-linejoin:miter;stroke:rgb(75.686275%,0%,87.843137%);stroke-opacity:1;stroke-miterlimit:10;" d="M 0.000787133 1.001179 L 1.38937 1.001179 " transform="matrix(527.532978,0,0,-527.532978,266.323042,541.889559)"/>
<path style="fill:none;stroke-width:0.0019685;stroke-linecap:round;stroke-linejoin:miter;stroke:rgb(75.686275%,0%,87.843137%);stroke-opacity:1;stroke-miterlimit:10;" d="M 1.38937 1.001179 L 1.38937 0.00118274 " transform="matrix(527.532978,0,0,-527.532978,266.323042,541.889559)"/>
<path style="fill:none;stroke-width:0.0019685;stroke-linecap:round;stroke-linejoin:miter;stroke:rgb(75.686275%,0%,87.843137%);stroke-opacity:1;stroke-miterlimit:10;" d="M 1.38937 0.00118274 L 0.00197189 0.00118274 " transform="matrix(527.532978,0,0,-527.532978,266.323042,541.889559)"/>
<path style="fill:none;stroke-width:0.0019685;stroke-linecap:round;stroke-linejoin:miter;stroke:rgb(75.686275%,0%,87.843137%);stroke-opacity:1;stroke-miterlimit:10;" d="M 0.00197189 0.00118274 L 0.00197189 1.001179 " transform="matrix(527.532978,0,0,-527.532978,266.323042,541.889559)"/>
<path style=" stroke:none;fill-rule:evenodd;fill:rgb(0%,0%,0%);fill-opacity:1;" d="M 493.535156 53.195312 C 493.535156 24.117188 449.921875 24.117188 449.921875 53.195312 C 449.921875 82.269531 493.535156 82.269531 493.535156 53.195312 "/>
<path style=" stroke:none;fill-rule:evenodd;fill:rgb(0%,0%,0%);fill-opacity:1;" d="M 546.289062 53.195312 C 546.289062 24.117188 502.675781 24.117188 502.675781 53.195312 C 502.675781 82.269531 546.289062 82.269531 546.289062 53.195312 "/>
<path style=" stroke:none;fill-rule:evenodd;fill:rgb(0%,0%,0%);fill-opacity:1;" d="M 599.042969 53.195312 C 599.042969 24.117188 555.425781 24.117188 555.425781 53.195312 C 555.425781 82.269531 599.042969 82.269531 599.042969 53.195312 "/>
<path style=" stroke:none;fill-rule:evenodd;fill:rgb(0%,0%,0%);fill-opacity:1;" d="M 651.796875 53.195312 C 651.796875 24.117188 608.179688 24.117188 608.179688 53.195312 C 608.179688 82.269531 651.796875 82.269531 651.796875 53.195312 "/>
<path style=" stroke:none;fill-rule:evenodd;fill:rgb(0%,0%,0%);fill-opacity:1;" d="M 704.550781 53.195312 C 704.550781 24.117188 660.933594 24.117188 660.933594 53.195312 C 660.933594 82.269531 704.550781 82.269531 704.550781 53.195312 "/>
<path style=" stroke:none;fill-rule:evenodd;fill:rgb(0%,0%,0%);fill-opacity:1;" d="M 757.300781 53.195312 C 757.300781 24.117188 713.6875 24.117188 713.6875 53.195312 C 713.6875 82.269531 757.300781 82.269531 757.300781 53.195312 "/>
<path style=" stroke:none;fill-rule:evenodd;fill:rgb(0%,0%,0%);fill-opacity:1;" d="M 810.054688 53.195312 C 810.054688 24.117188 766.441406 24.117188 766.441406 53.195312 C 766.441406 82.269531 810.054688 82.269531 810.054688 53.195312 "/>
<path style=" stroke:none;fill-rule:evenodd;fill:rgb(0%,0%,0%);fill-opacity:1;" d="M 862.808594 53.195312 C 862.808594 24.117188 819.195312 24.117188 819.195312 53.195312 C 819.195312 82.269531 862.808594 82.269531 862.808594 53.195312 "/>
<path style=" stroke:none;fill-rule:evenodd;fill:rgb(0%,0%,0%);fill-opacity:1;" d="M 493.535156 501.597656 C 493.535156 472.519531 449.921875 472.519531 449.921875 501.597656 C 449.921875 530.675781 493.535156 530.675781 493.535156 501.597656 "/>
<path style=" stroke:none;fill-rule:evenodd;fill:rgb(0%,0%,0%);fill-opacity:1;" d="M 546.289062 501.597656 C 546.289062 472.519531 502.675781 472.519531 502.675781 501.597656 C 502.675781 530.675781 546.289062 530.675781 546.289062 501.597656 "/>
<path style=" stroke:none;fill-rule:evenodd;fill:rgb(0%,0%,0%);fill-opacity:1;" d="M 599.042969 501.597656 C 599.042969 472.519531 555.425781 472.519531 555.425781 501.597656 C 555.425781 530.675781 599.042969 530.675781 599.042969 501.597656 "/>
<path style=" stroke:none;fill-rule:evenodd;fill:rgb(0%,0%,0%);fill-opacity:1;" d="M 651.796875 501.597656 C 651.796875 472.519531 608.179688 472.519531 608.179688 501.597656 C 608.179688 530.675781 651.796875 530.675781 651.796875 501.597656 "/>
<path style=" stroke:none;fill-rule:evenodd;fill:rgb(0%,0%,0%);fill-opacity:1;" d="M 704.550781 501.597656 C 704.550781 472.519531 660.933594 472.519531 660.933594 501.597656 C 660.933594 530.675781 704.550781 530.675781 704.550781 501.597656 "/>
<path style=" stroke:none;fill-rule:evenodd;fill:rgb(0%,0%,0%);fill-opacity:1;" d="M 757.300781 501.597656 C 757.300781 472.519531 713.6875 472.519531 713.6875 501.597656 C 713.6875 530.675781 757.300781 530.675781 757.300781 501.597656 "/>
<path style=" stroke:none;fill-rule:evenodd;fill:rgb(0%,0%,0%);fill-opacity:1;" d="M 810.054688 501.597656 C 810.054688 472.519531 766.441406 472.519531 766.441406 501.597656 C 766.441406 530.675781 810.054688 530.675781 810.054688 501.597656 "/>
<path style=" stroke:none;fill-rule:evenodd;fill:rgb(0%,0%,0%);fill-opacity:1;" d="M 862.808594 501.597656 C 862.808594 472.519531 819.195312 472.519531 819.195312 501.597656 C 819.195312 530.675781 862.808594 530.675781 862.808594 501.597656 "/>
<path style=" stroke:none;fill-rule:evenodd;fill:rgb(0%,0%,0%);fill-opacity:1;" d="M 440.78125 501.597656 C 440.78125 472.519531 397.167969 472.519531 397.167969 501.597656 C 397.167969 530.675781 440.78125 530.675781 440.78125 501.597656 "/>
<path style=" stroke:none;fill-rule:evenodd;fill:rgb(0%,0%,0%);fill-opacity:1;" d="M 915.5625 53.195312 C 915.5625 24.117188 871.949219 24.117188 871.949219 53.195312 C 871.949219 82.269531 915.5625 82.269531 915.5625 53.195312 "/>
<path style=" stroke:none;fill-rule:evenodd;fill:rgb(0%,0%,0%);fill-opacity:1;" d="M 440.78125 53.195312 C 440.78125 24.117188 397.167969 24.117188 397.167969 53.195312 C 397.167969 82.269531 440.78125 82.269531 440.78125 53.195312 "/>
<path style=" stroke:none;fill-rule:evenodd;fill:rgb(0%,0%,0%);fill-opacity:1;" d="M 915.5625 501.597656 C 915.5625 472.519531 871.949219 472.519531 871.949219 501.597656 C 871.949219 530.675781 915.5625 530.675781 915.5625 501.597656 "/>
<path style="fill:none;stroke-width:0.019685;stroke-linecap:round;stroke-linejoin:miter;stroke:rgb(0%,0%,0%);stroke-opacity:1;stroke-miterlimit:10;" d="M 0.889372 0.926377 L 0.889372 0.826376 " transform="matrix(527.532978,0,0,-527.532978,266.323042,541.889559)"/>
<path style="fill:none;stroke-width:0.019685;stroke-linecap:round;stroke-linejoin:miter;stroke:rgb(0%,0%,0%);stroke-opacity:1;stroke-miterlimit:10;" d="M 0.889372 0.826376 L 0.870868 0.807479 " transform="matrix(527.532978,0,0,-527.532978,266.323042,541.889559)"/>
<path style="fill:none;stroke-width:0.019685;stroke-linecap:round;stroke-linejoin:miter;stroke:rgb(0%,0%,0%);stroke-opacity:1;stroke-miterlimit:10;" d="M 0.870868 0.807479 L 0.389374 0.807479 " transform="matrix(527.532978,0,0,-527.532978,266.323042,541.889559)"/>
<path style=" stroke:none;fill-rule:evenodd;fill:rgb(0%,0%,0%);fill-opacity:1;" d="M 435.796875 119.03125 C 435.796875 101.03125 408.796875 101.03125 408.796875 119.03125 C 408.796875 137.03125 435.796875 137.03125 435.796875 119.03125 "/>
<path style=" stroke:none;fill-rule:evenodd;fill:rgb(0%,0%,0%);fill-opacity:1;" d="M 491.875 152.054688 C 491.875 134.054688 464.875 134.054688 464.875 152.054688 C 464.875 170.054688 491.875 170.054688 491.875 152.054688 "/>
<path style=" stroke:none;fill-rule:evenodd;fill:rgb(0%,0%,0%);fill-opacity:1;" d="M 343.582031 53.195312 C 343.582031 35.195312 316.585938 35.195312 316.585938 53.195312 C 316.585938 71.195312 343.582031 71.195312 343.582031 53.195312 "/>
<path style=" stroke:none;fill-rule:evenodd;fill:rgb(0%,0%,0%);fill-opacity:1;" d="M 821.480469 462.136719 C 821.480469 444.136719 794.480469 444.136719 794.480469 462.136719 C 794.480469 480.136719 821.480469 480.136719 821.480469 462.136719 "/>
<path style=" stroke:none;fill-rule:evenodd;fill:rgb(0%,0%,0%);fill-opacity:1;" d="M 458.851562 191.722656 C 458.851562 173.722656 431.851562 173.722656 431.851562 191.722656 C 431.851562 209.722656 458.851562 209.722656 458.851562 191.722656 "/>
<path style=" stroke:none;fill-rule:evenodd;fill:rgb(0%,0%,0%);fill-opacity:1;" d="M 458.851562 251.125 C 458.851562 233.125 431.851562 233.125 431.851562 251.125 C 431.851562 269.125 458.851562 269.125 458.851562 251.125 "/>
<path style="fill:none;stroke-width:0.019685;stroke-linecap:round;stroke-linejoin:miter;stroke:rgb(0%,0%,0%);stroke-opacity:1;stroke-miterlimit:10;" d="M 0.789371 0.924015 L 0.789371 0.863777 " transform="matrix(527.532978,0,0,-527.532978,266.323042,541.889559)"/>
<path style="fill:none;stroke-width:0.019685;stroke-linecap:round;stroke-linejoin:miter;stroke:rgb(0%,0%,0%);stroke-opacity:1;stroke-miterlimit:10;" d="M 0.789371 0.863777 L 0.777168 0.851574 " transform="matrix(527.532978,0,0,-527.532978,266.323042,541.889559)"/>
<path style="fill:none;stroke-width:0.019685;stroke-linecap:round;stroke-linejoin:miter;stroke:rgb(0%,0%,0%);stroke-opacity:1;stroke-miterlimit:10;" d="M 0.777168 0.851574 L 0.155509 0.851966 " transform="matrix(527.532978,0,0,-527.532978,266.323042,541.889559)"/>
<path style="fill:none;stroke-width:0.019685;stroke-linecap:round;stroke-linejoin:miter;stroke:rgb(0%,0%,0%);stroke-opacity:1;stroke-miterlimit:10;" d="M 0.155509 0.851966 L 0.120863 0.886613 " transform="matrix(527.532978,0,0,-527.532978,266.323042,541.889559)"/>
<path style="fill:none;stroke-width:0.019685;stroke-linecap:round;stroke-linejoin:miter;stroke:rgb(0%,0%,0%);stroke-opacity:1;stroke-miterlimit:10;" d="M 0.120863 0.886613 L 0.120863 0.926377 " transform="matrix(527.532978,0,0,-527.532978,266.323042,541.889559)"/>
<path style="fill:none;stroke-width:0.015748;stroke-linecap:round;stroke-linejoin:miter;stroke:rgb(0%,0%,0%);stroke-opacity:1;stroke-miterlimit:10;" d="M 0.295667 0.801185 L 0.295667 0.849997 " transform="matrix(527.532978,0,0,-527.532978,266.323042,541.889559)"/>
<path style="fill:none;stroke-width:0.019685;stroke-linecap:round;stroke-linejoin:miter;stroke:rgb(0%,0%,0%);stroke-opacity:1;stroke-miterlimit:10;" d="M 0.337792 0.664174 L 0.270868 0.595273 " transform="matrix(527.532978,0,0,-527.532978,266.323042,541.889559)"/>
<path style="fill:none;stroke-width:0.019685;stroke-linecap:round;stroke-linejoin:miter;stroke:rgb(0%,0%,0%);stroke-opacity:1;stroke-miterlimit:10;" d="M 0.270868 0.595273 L 0.270868 0.0826794 " transform="matrix(527.532978,0,0,-527.532978,266.323042,541.889559)"/>
<path style="fill:none;stroke-width:0.019685;stroke-linecap:round;stroke-linejoin:miter;stroke:rgb(0%,0%,0%);stroke-opacity:1;stroke-miterlimit:10;" d="M 0.270868 0.0826794 L 0.289372 0.076378 " transform="matrix(527.532978,0,0,-527.532978,266.323042,541.889559)"/>
<path style="fill:none;stroke-width:0.019685;stroke-linecap:round;stroke-linejoin:miter;stroke:rgb(0%,0%,0%);stroke-opacity:1;stroke-miterlimit:10;" d="M 0.339369 0.551578 L 0.339369 0.445275 " transform="matrix(527.532978,0,0,-527.532978,266.323042,541.889559)"/>
<path style="fill:none;stroke-width:0.019685;stroke-linecap:round;stroke-linejoin:miter;stroke:rgb(0%,0%,0%);stroke-opacity:1;stroke-miterlimit:10;" d="M 0.339369 0.445275 L 0.339369 0.157482 " transform="matrix(527.532978,0,0,-527.532978,266.323042,541.889559)"/>
<path style="fill:none;stroke-width:0.019685;stroke-linecap:round;stroke-linejoin:miter;stroke:rgb(0%,0%,0%);stroke-opacity:1;stroke-miterlimit:10;" d="M 0.339369 0.157482 L 0.389374 0.104331 " transform="matrix(527.532978,0,0,-527.532978,266.323042,541.889559)"/>
<path style="fill:none;stroke-width:0.019685;stroke-linecap:round;stroke-linejoin:miter;stroke:rgb(0%,0%,0%);stroke-opacity:1;stroke-miterlimit:10;" d="M 0.389374 0.104331 L 0.389374 0.076378 " transform="matrix(527.532978,0,0,-527.532978,266.323042,541.889559)"/>
<path style="fill:none;stroke-width:0.019685;stroke-linecap:round;stroke-linejoin:miter;stroke:rgb(0%,0%,0%);stroke-opacity:1;stroke-miterlimit:10;" d="M 1.026775 0.151573 L 0.43937 0.151573 " transform="matrix(527.532978,0,0,-527.532978,266.323042,541.889559)"/>
<path style="fill:none;stroke-width:0.019685;stroke-linecap:round;stroke-linejoin:miter;stroke:rgb(0%,0%,0%);stroke-opacity:1;stroke-miterlimit:10;" d="M 0.43937 0.151573 L 0.401969 0.188975 " transform="matrix(527.532978,0,0,-527.532978,266.323042,541.889559)"/>
<path style="fill:none;stroke-width:0.019685;stroke-linecap:round;stroke-linejoin:miter;stroke:rgb(0%,0%,0%);stroke-opacity:1;stroke-miterlimit:10;" d="M 0.401969 0.188975 L 0.401969 0.738977 " transform="matrix(527.532978,0,0,-527.532978,266.323042,541.889559)"/>
<path style="fill:none;stroke-width:0.015748;stroke-linecap:round;stroke-linejoin:miter;stroke:rgb(0%,0%,0%);stroke-opacity:1;stroke-miterlimit:10;" d="M 0.295667 0.838978 L 0.308269 0.851574 " transform="matrix(527.532978,0,0,-527.532978,266.323042,541.889559)"/>
<path style="fill:none;stroke-width:0.015748;stroke-linecap:round;stroke-linejoin:miter;stroke:rgb(0%,0%,0%);stroke-opacity:1;stroke-miterlimit:10;" d="M 0.295667 0.838978 L 0.283071 0.851574 " transform="matrix(527.532978,0,0,-527.532978,266.323042,541.889559)"/>
<path style="fill:none;stroke-width:0.019685;stroke-linecap:round;stroke-linejoin:miter;stroke:rgb(0%,0%,0%);stroke-opacity:1;stroke-miterlimit:10;" d="M 0.133073 0.101184 L 0.170867 0.101184 " transform="matrix(527.532978,0,0,-527.532978,266.323042,541.889559)"/>
<path style="fill:none;stroke-width:0.019685;stroke-linecap:round;stroke-linejoin:miter;stroke:rgb(0%,0%,0%);stroke-opacity:1;stroke-miterlimit:10;" d="M 0.170867 0.101184 L 0.201967 0.132676 " transform="matrix(527.532978,0,0,-527.532978,266.323042,541.889559)"/>
<path style="fill:none;stroke-width:0.019685;stroke-linecap:round;stroke-linejoin:miter;stroke:rgb(0%,0%,0%);stroke-opacity:1;stroke-miterlimit:10;" d="M 0.201967 0.132676 L 0.201967 0.638976 " transform="matrix(527.532978,0,0,-527.532978,266.323042,541.889559)"/>
<path style="fill:none;stroke-width:0.019685;stroke-linecap:round;stroke-linejoin:miter;stroke:rgb(0%,0%,0%);stroke-opacity:1;stroke-miterlimit:10;" d="M 0.201967 0.638976 L 0.389374 0.807479 " transform="matrix(527.532978,0,0,-527.532978,266.323042,541.889559)"/>
<path style=" stroke:none;fill-rule:evenodd;fill:rgb(0%,0%,0%);fill-opacity:1;" d="M 350.023438 488.304688 C 350.023438 470.304688 323.023438 470.304688 323.023438 488.304688 C 323.023438 506.304688 350.023438 506.304688 350.023438 488.304688 "/>
<path style=" stroke:none;fill-rule:evenodd;fill:rgb(100%,100%,100%);fill-opacity:1;" d="M 342.816406 488.082031 C 342.816406 479.640625 330.15625 479.640625 330.15625 488.082031 C 330.15625 496.523438 342.816406 496.523438 342.816406 488.082031 "/>
<path style=" stroke:none;fill-rule:evenodd;fill:rgb(100%,100%,100%);fill-opacity:1;" d="M 451.488281 251.21875 C 451.488281 242.777344 438.828125 242.777344 438.828125 251.21875 C 438.828125 259.660156 451.488281 259.660156 451.488281 251.21875 "/>
<path style=" stroke:none;fill-rule:evenodd;fill:rgb(100%,100%,100%);fill-opacity:1;" d="M 451.488281 191.609375 C 451.488281 183.167969 438.828125 183.167969 438.828125 191.609375 C 438.828125 200.046875 451.488281 200.046875 451.488281 191.609375 "/>
<path style=" stroke:none;fill-rule:evenodd;fill:rgb(100%,100%,100%);fill-opacity:1;" d="M 484.722656 152.042969 C 484.722656 143.601562 472.0625 143.601562 472.0625 152.042969 C 472.0625 160.484375 484.722656 160.484375 484.722656 152.042969 "/>
<path style=" stroke:none;fill-rule:evenodd;fill:rgb(100%,100%,100%);fill-opacity:1;" d="M 428.804688 118.808594 C 428.804688 110.367188 416.140625 110.367188 416.140625 118.808594 C 416.140625 127.25 428.804688 127.25 428.804688 118.808594 "/>
<path style=" stroke:none;fill-rule:evenodd;fill:rgb(100%,100%,100%);fill-opacity:1;" d="M 336.484375 53.394531 C 336.484375 44.953125 323.824219 44.953125 323.824219 53.394531 C 323.824219 61.835938 336.484375 61.835938 336.484375 53.394531 "/>
<path style=" stroke:none;fill-rule:evenodd;fill:rgb(100%,100%,100%);fill-opacity:1;" d="M 814.429688 462.230469 C 814.429688 453.792969 801.769531 453.792969 801.769531 462.230469 C 801.769531 470.671875 814.429688 470.671875 814.429688 462.230469 "/>
<path style=" stroke:none;fill-rule:evenodd;fill:rgb(100%,100%,100%);fill-opacity:1;" d="M 428.011719 501.796875 C 428.011719 489.488281 409.546875 489.488281 409.546875 501.796875 C 409.546875 514.105469 428.011719 514.105469 428.011719 501.796875 "/>
<path style=" stroke:none;fill-rule:evenodd;fill:rgb(100%,100%,100%);fill-opacity:1;" d="M 480.765625 501.796875 C 480.765625 489.488281 462.300781 489.488281 462.300781 501.796875 C 462.300781 514.105469 480.765625 514.105469 480.765625 501.796875 "/>
<path style=" stroke:none;fill-rule:evenodd;fill:rgb(100%,100%,100%);fill-opacity:1;" d="M 533.519531 501.796875 C 533.519531 489.488281 515.054688 489.488281 515.054688 501.796875 C 515.054688 514.105469 533.519531 514.105469 533.519531 501.796875 "/>
<path style=" stroke:none;fill-rule:evenodd;fill:rgb(100%,100%,100%);fill-opacity:1;" d="M 586.273438 501.796875 C 586.273438 489.488281 567.808594 489.488281 567.808594 501.796875 C 567.808594 514.105469 586.273438 514.105469 586.273438 501.796875 "/>
<path style=" stroke:none;fill-rule:evenodd;fill:rgb(100%,100%,100%);fill-opacity:1;" d="M 639.023438 501.796875 C 639.023438 489.488281 620.5625 489.488281 620.5625 501.796875 C 620.5625 514.105469 639.023438 514.105469 639.023438 501.796875 "/>
<path style=" stroke:none;fill-rule:evenodd;fill:rgb(100%,100%,100%);fill-opacity:1;" d="M 691.777344 501.796875 C 691.777344 489.488281 673.316406 489.488281 673.316406 501.796875 C 673.316406 514.105469 691.777344 514.105469 691.777344 501.796875 "/>
<path style=" stroke:none;fill-rule:evenodd;fill:rgb(100%,100%,100%);fill-opacity:1;" d="M 744.53125 501.796875 C 744.53125 489.488281 726.066406 489.488281 726.066406 501.796875 C 726.066406 514.105469 744.53125 514.105469 744.53125 501.796875 "/>
<path style=" stroke:none;fill-rule:evenodd;fill:rgb(100%,100%,100%);fill-opacity:1;" d="M 797.285156 501.796875 C 797.285156 489.488281 778.820312 489.488281 778.820312 501.796875 C 778.820312 514.105469 797.285156 514.105469 797.285156 501.796875 "/>
<path style=" stroke:none;fill-rule:evenodd;fill:rgb(100%,100%,100%);fill-opacity:1;" d="M 850.039062 501.796875 C 850.039062 489.488281 831.574219 489.488281 831.574219 501.796875 C 831.574219 514.105469 850.039062 514.105469 850.039062 501.796875 "/>
<path style=" stroke:none;fill-rule:evenodd;fill:rgb(100%,100%,100%);fill-opacity:1;" d="M 902.792969 501.796875 C 902.792969 489.488281 884.328125 489.488281 884.328125 501.796875 C 884.328125 514.105469 902.792969 514.105469 902.792969 501.796875 "/>
<path style=" stroke:none;fill-rule:evenodd;fill:rgb(100%,100%,100%);fill-opacity:1;" d="M 902.792969 53.394531 C 902.792969 41.085938 884.328125 41.085938 884.328125 53.394531 C 884.328125 65.703125 902.792969 65.703125 902.792969 53.394531 "/>
<path style=" stroke:none;fill-rule:evenodd;fill:rgb(100%,100%,100%);fill-opacity:1;" d="M 850.039062 53.394531 C 850.039062 41.085938 831.574219 41.085938 831.574219 53.394531 C 831.574219 65.703125 850.039062 65.703125 850.039062 53.394531 "/>
<path style=" stroke:none;fill-rule:evenodd;fill:rgb(100%,100%,100%);fill-opacity:1;" d="M 797.285156 53.394531 C 797.285156 41.085938 778.820312 41.085938 778.820312 53.394531 C 778.820312 65.703125 797.285156 65.703125 797.285156 53.394531 "/>
<path style=" stroke:none;fill-rule:evenodd;fill:rgb(100%,100%,100%);fill-opacity:1;" d="M 744.53125 53.394531 C 744.53125 41.085938 726.066406 41.085938 726.066406 53.394531 C 726.066406 65.703125 744.53125 65.703125 744.53125 53.394531 "/>
<path style=" stroke:none;fill-rule:evenodd;fill:rgb(100%,100%,100%);fill-opacity:1;" d="M 691.777344 53.394531 C 691.777344 41.085938 673.316406 41.085938 673.316406 53.394531 C 673.316406 65.703125 691.777344 65.703125 691.777344 53.394531 "/>
<path style=" stroke:none;fill-rule:evenodd;fill:rgb(100%,100%,100%);fill-opacity:1;" d="M 639.023438 53.394531 C 639.023438 41.085938 620.5625 41.085938 620.5625 53.394531 C 620.5625 65.703125 639.023438 65.703125 639.023438 53.394531 "/>
<path style=" stroke:none;fill-rule:evenodd;fill:rgb(100%,100%,100%);fill-opacity:1;" d="M 586.273438 53.394531 C 586.273438 41.085938 567.808594 41.085938 567.808594 53.394531 C 567.808594 65.703125 586.273438 65.703125 586.273438 53.394531 "/>
<path style=" stroke:none;fill-rule:evenodd;fill:rgb(100%,100%,100%);fill-opacity:1;" d="M 533.519531 53.394531 C 533.519531 41.085938 515.054688 41.085938 515.054688 53.394531 C 515.054688 65.703125 533.519531 65.703125 533.519531 53.394531 "/>
<path style=" stroke:none;fill-rule:evenodd;fill:rgb(100%,100%,100%);fill-opacity:1;" d="M 480.765625 53.394531 C 480.765625 41.085938 462.300781 41.085938 462.300781 53.394531 C 462.300781 65.703125 480.765625 65.703125 480.765625 53.394531 "/>
<path style=" stroke:none;fill-rule:evenodd;fill:rgb(100%,100%,100%);fill-opacity:1;" d="M 428.011719 53.394531 C 428.011719 41.085938 409.546875 41.085938 409.546875 53.394531 C 409.546875 65.703125 428.011719 65.703125 428.011719 53.394531 "/>
</g>
</svg>
