%FSLAX32Y32*%
%MOMM*%
%LNCUIVRE1*%
G71*
G01*
%ADD10C, 2.10*%
%ADD11C, 0.40*%
%ADD12C, 1.30*%
%ADD13C, 0.60*%
%ADD14C, 0.80*%
%LPD*%
X989Y2353D02*
G54D10*
D03*
X1243Y2353D02*
G54D10*
D03*
X1497Y2353D02*
G54D10*
D03*
X1751Y2353D02*
G54D10*
D03*
X2005Y2353D02*
G54D10*
D03*
X2259Y2353D02*
G54D10*
D03*
X2513Y2353D02*
G54D10*
D03*
X2767Y2353D02*
G54D10*
D03*
X989Y194D02*
G54D10*
D03*
X1243Y194D02*
G54D10*
D03*
X1497Y194D02*
G54D10*
D03*
X1751Y194D02*
G54D10*
D03*
X2005Y194D02*
G54D10*
D03*
X2259Y194D02*
G54D10*
D03*
X2513Y194D02*
G54D10*
D03*
X2767Y194D02*
G54D10*
D03*
X735Y194D02*
G54D10*
D03*
G36*
X2881Y636D02*
X2961Y636D01*
X2961Y516D01*
X2881Y516D01*
X2881Y636D01*
G37*
G36*
X2781Y636D02*
X2861Y636D01*
X2861Y516D01*
X2781Y516D01*
X2781Y636D01*
G37*
G36*
X2681Y636D02*
X2761Y636D01*
X2761Y516D01*
X2681Y516D01*
X2681Y636D01*
G37*
G36*
X2581Y636D02*
X2661Y636D01*
X2661Y516D01*
X2581Y516D01*
X2581Y636D01*
G37*
G36*
X2481Y636D02*
X2561Y636D01*
X2561Y516D01*
X2481Y516D01*
X2481Y636D01*
G37*
G36*
X2381Y636D02*
X2461Y636D01*
X2461Y516D01*
X2381Y516D01*
X2381Y636D01*
G37*
G36*
X2281Y636D02*
X2361Y636D01*
X2361Y516D01*
X2281Y516D01*
X2281Y636D01*
G37*
G36*
X2181Y636D02*
X2261Y636D01*
X2261Y516D01*
X2181Y516D01*
X2181Y636D01*
G37*
G36*
X2081Y636D02*
X2161Y636D01*
X2161Y516D01*
X2081Y516D01*
X2081Y636D01*
G37*
G36*
X1981Y636D02*
X2061Y636D01*
X2061Y516D01*
X1981Y516D01*
X1981Y636D01*
G37*
G36*
X1881Y636D02*
X1961Y636D01*
X1961Y516D01*
X1881Y516D01*
X1881Y636D01*
G37*
G36*
X1781Y636D02*
X1861Y636D01*
X1861Y516D01*
X1781Y516D01*
X1781Y636D01*
G37*
G36*
X1681Y636D02*
X1761Y636D01*
X1761Y516D01*
X1681Y516D01*
X1681Y636D01*
G37*
G36*
X1581Y636D02*
X1661Y636D01*
X1661Y516D01*
X1581Y516D01*
X1581Y636D01*
G37*
G36*
X1481Y636D02*
X1561Y636D01*
X1561Y516D01*
X1481Y516D01*
X1481Y636D01*
G37*
G36*
X1381Y636D02*
X1461Y636D01*
X1461Y516D01*
X1381Y516D01*
X1381Y636D01*
G37*
G36*
X1281Y636D02*
X1361Y636D01*
X1361Y516D01*
X1281Y516D01*
X1281Y636D01*
G37*
G36*
X1181Y636D02*
X1261Y636D01*
X1261Y516D01*
X1181Y516D01*
X1181Y636D01*
G37*
G36*
X2881Y2033D02*
X2961Y2033D01*
X2961Y1913D01*
X2881Y1913D01*
X2881Y2033D01*
G37*
G36*
X2781Y2033D02*
X2861Y2033D01*
X2861Y1913D01*
X2781Y1913D01*
X2781Y2033D01*
G37*
G36*
X2681Y2033D02*
X2761Y2033D01*
X2761Y1913D01*
X2681Y1913D01*
X2681Y2033D01*
G37*
G36*
X2581Y2033D02*
X2661Y2033D01*
X2661Y1913D01*
X2581Y1913D01*
X2581Y2033D01*
G37*
G36*
X2481Y2033D02*
X2561Y2033D01*
X2561Y1913D01*
X2481Y1913D01*
X2481Y2033D01*
G37*
G36*
X2381Y2033D02*
X2461Y2033D01*
X2461Y1913D01*
X2381Y1913D01*
X2381Y2033D01*
G37*
G36*
X2281Y2033D02*
X2361Y2033D01*
X2361Y1913D01*
X2281Y1913D01*
X2281Y2033D01*
G37*
G36*
X2181Y2033D02*
X2261Y2033D01*
X2261Y1913D01*
X2181Y1913D01*
X2181Y2033D01*
G37*
G36*
X2081Y2033D02*
X2161Y2033D01*
X2161Y1913D01*
X2081Y1913D01*
X2081Y2033D01*
G37*
G36*
X1981Y2033D02*
X2061Y2033D01*
X2061Y1913D01*
X1981Y1913D01*
X1981Y2033D01*
G37*
G36*
X1881Y2033D02*
X1961Y2033D01*
X1961Y1913D01*
X1881Y1913D01*
X1881Y2033D01*
G37*
G36*
X1781Y2033D02*
X1861Y2033D01*
X1861Y1913D01*
X1781Y1913D01*
X1781Y2033D01*
G37*
G36*
X1681Y2033D02*
X1761Y2033D01*
X1761Y1913D01*
X1681Y1913D01*
X1681Y2033D01*
G37*
G36*
X1581Y2033D02*
X1661Y2033D01*
X1661Y1913D01*
X1581Y1913D01*
X1581Y2033D01*
G37*
G36*
X1481Y2033D02*
X1561Y2033D01*
X1561Y1913D01*
X1481Y1913D01*
X1481Y2033D01*
G37*
G36*
X1381Y2033D02*
X1461Y2033D01*
X1461Y1913D01*
X1381Y1913D01*
X1381Y2033D01*
G37*
G36*
X1281Y2033D02*
X1361Y2033D01*
X1361Y1913D01*
X1281Y1913D01*
X1281Y2033D01*
G37*
G36*
X1181Y2033D02*
X1261Y2033D01*
X1261Y1913D01*
X1181Y1913D01*
X1181Y2033D01*
G37*
G36*
X1035Y1523D02*
X1035Y1603D01*
X1155Y1603D01*
X1155Y1523D01*
X1035Y1523D01*
G37*
G36*
X1035Y1423D02*
X1035Y1503D01*
X1155Y1503D01*
X1155Y1423D01*
X1035Y1423D01*
G37*
G36*
X1035Y1323D02*
X1035Y1403D01*
X1155Y1403D01*
X1155Y1323D01*
X1035Y1323D01*
G37*
G36*
X1035Y1223D02*
X1035Y1303D01*
X1155Y1303D01*
X1155Y1223D01*
X1035Y1223D01*
G37*
G36*
X1035Y1123D02*
X1035Y1203D01*
X1155Y1203D01*
X1155Y1123D01*
X1035Y1123D01*
G37*
G36*
X1035Y1023D02*
X1035Y1103D01*
X1155Y1103D01*
X1155Y1023D01*
X1035Y1023D01*
G37*
G36*
X1035Y923D02*
X1035Y1003D01*
X1155Y1003D01*
X1155Y923D01*
X1035Y923D01*
G37*
G54D11*
X1421Y1973D02*
X1421Y2080D01*
X1402Y2099D01*
X1053Y2099D01*
X989Y2163D01*
X989Y2353D01*
G54D11*
X1521Y1973D02*
X1521Y2107D01*
X1466Y2163D01*
X1275Y2163D01*
X1243Y2194D01*
X1243Y2353D01*
G54D11*
X1621Y1973D02*
X1621Y2134D01*
X1497Y2258D01*
X1497Y2353D01*
G54D11*
X1721Y1973D02*
X1721Y2323D01*
X1751Y2353D01*
G54D11*
X2121Y1973D02*
X2121Y2078D01*
X2100Y2099D01*
X2037Y2099D01*
X2005Y2131D01*
X2005Y2353D01*
X3021Y2353D02*
G54D10*
D03*
G54D11*
X2621Y1973D02*
X2621Y2080D01*
X2640Y2099D01*
X2990Y2099D01*
X3021Y2131D01*
X3021Y2353D01*
X735Y2353D02*
G54D10*
D03*
X3021Y194D02*
G54D10*
D03*
G54D11*
X1095Y963D02*
X1095Y1063D01*
G54D11*
X1095Y1163D02*
X1095Y1263D01*
G54D11*
X2221Y1973D02*
X2221Y2093D01*
X2259Y2131D01*
X2259Y2353D01*
X751Y2036D02*
G54D12*
D03*
G54D11*
X1821Y576D02*
X1821Y423D01*
X1751Y353D01*
X1751Y194D01*
G54D11*
X1721Y576D02*
X1721Y450D01*
X1624Y353D01*
X1529Y353D01*
X1497Y321D01*
X1497Y194D01*
G54D11*
X1921Y576D02*
X1921Y278D01*
X2005Y194D01*
G54D11*
X2021Y576D02*
X2021Y400D01*
X2069Y353D01*
X2100Y353D01*
X2259Y194D01*
G54D11*
X2121Y576D02*
X2121Y459D01*
X2164Y416D01*
X2291Y416D01*
X2513Y194D01*
G54D11*
X1624Y575D02*
X1624Y480D01*
X1592Y448D01*
X1466Y448D01*
X1243Y226D01*
X1243Y194D01*
G54D13*
X1095Y963D02*
X856Y963D01*
X809Y998D01*
X1021Y1877D02*
G54D12*
D03*
G54D14*
X493Y1991D02*
X493Y2168D01*
X735Y2353D01*
X307Y2353D02*
G54D12*
D03*
G54D13*
X307Y1971D02*
X307Y2353D01*
G54D11*
X2421Y1973D02*
X2421Y2261D01*
X2513Y2353D01*
G54D11*
X2521Y1973D02*
X2521Y2107D01*
X2608Y2194D01*
X2704Y2194D01*
X2767Y2258D01*
X2767Y2353D01*
X2608Y384D02*
G54D12*
D03*
G54D11*
X2767Y194D02*
X2767Y226D01*
X2608Y385D01*
G54D14*
X751Y2035D02*
X704Y1972D01*
X702Y1169D01*
X862Y1686D02*
G54D12*
D03*
G54D11*
X2721Y576D02*
X2721Y462D01*
X2767Y416D01*
X2862Y416D01*
X3021Y257D01*
X3021Y194D01*
X862Y1400D02*
G54D12*
D03*
G54D13*
X1095Y1163D02*
X809Y1168D01*
G54D11*
X1095Y1363D02*
X915Y1363D01*
X862Y1401D01*
G54D11*
X1095Y1463D02*
X990Y1463D01*
X926Y1527D01*
X862Y1591D01*
X862Y1686D01*
G54D11*
X1095Y1563D02*
X1080Y1563D01*
X1021Y1623D01*
X1021Y1877D01*
G36*
X478Y1453D02*
X478Y1519D01*
X577Y1519D01*
X577Y1453D01*
X478Y1453D01*
G37*
G36*
X478Y1547D02*
X478Y1613D01*
X577Y1613D01*
X577Y1547D01*
X478Y1547D01*
G37*
G36*
X478Y1643D02*
X478Y1709D01*
X577Y1709D01*
X577Y1643D01*
X478Y1643D01*
G37*
G36*
X219Y1643D02*
X219Y1709D01*
X318Y1709D01*
X318Y1643D01*
X219Y1643D01*
G37*
G36*
X219Y1453D02*
X219Y1519D01*
X318Y1519D01*
X318Y1453D01*
X219Y1453D01*
G37*
G36*
X238Y2071D02*
X368Y2071D01*
X368Y1911D01*
X238Y1911D01*
X238Y2071D01*
G37*
G36*
X428Y2071D02*
X558Y2071D01*
X558Y1911D01*
X428Y1911D01*
X428Y2071D01*
G37*
G36*
X536Y1150D02*
X426Y1150D01*
X426Y1270D01*
X536Y1270D01*
X536Y1150D01*
G37*
G36*
X366Y1150D02*
X256Y1150D01*
X256Y1270D01*
X366Y1270D01*
X366Y1150D01*
G37*
G36*
X749Y943D02*
X749Y1053D01*
X869Y1053D01*
X869Y943D01*
X749Y943D01*
G37*
G36*
X749Y1113D02*
X749Y1223D01*
X869Y1223D01*
X869Y1113D01*
X749Y1113D01*
G37*
G54D11*
X527Y1676D02*
X418Y1677D01*
X418Y1488D01*
X527Y1486D01*
G54D13*
X116Y1642D02*
X116Y1935D01*
X184Y1991D01*
X303Y1991D01*
G36*
X537Y801D02*
X427Y801D01*
X427Y921D01*
X537Y921D01*
X537Y801D01*
G37*
G36*
X367Y801D02*
X257Y801D01*
X257Y921D01*
X367Y921D01*
X367Y801D01*
G37*
G54D13*
X268Y1486D02*
X269Y1348D01*
X311Y1305D01*
G36*
X537Y483D02*
X427Y483D01*
X427Y603D01*
X537Y603D01*
X537Y483D01*
G37*
G36*
X367Y483D02*
X257Y483D01*
X257Y603D01*
X367Y603D01*
X367Y483D01*
G37*
G36*
X749Y483D02*
X749Y593D01*
X869Y593D01*
X869Y483D01*
X749Y483D01*
G37*
G36*
X749Y653D02*
X749Y763D01*
X869Y763D01*
X869Y653D01*
X749Y653D01*
G37*
G54D13*
X312Y543D02*
X164Y543D01*
X116Y591D01*
X116Y1639D01*
X338Y258D02*
G54D12*
D03*
G54D14*
X809Y998D02*
X809Y709D01*
X809Y708D01*
G54D13*
X527Y1580D02*
X704Y1580D01*
G54D14*
X311Y1305D02*
X311Y1052D01*
X312Y861D01*
G54D14*
X527Y1692D02*
X527Y1783D01*
X497Y1813D01*
X497Y1986D01*
X493Y1991D01*
G54D14*
X481Y1210D02*
X624Y1210D01*
X672Y1162D01*
X804Y1162D01*
X809Y1168D01*
G54D14*
X482Y861D02*
X799Y861D01*
G54D14*
X809Y538D02*
X645Y538D01*
X640Y543D01*
X482Y543D01*
G54D14*
X482Y543D02*
X482Y401D01*
X338Y257D01*
M02*
