<?xml version="1.0" encoding="UTF-8"?>
<svg xmlns="http://www.w3.org/2000/svg" xmlns:xlink="http://www.w3.org/1999/xlink" width="1266pt" height="559pt" viewBox="0 0 1266 559" version="1.1">
<g id="surface0">
<path style=" stroke:none;fill-rule:evenodd;fill:rgb(0%,0%,0%);fill-opacity:1;" d="M 511.035156 42.304688 C 511.035156 2.78125 451.746094 2.78125 451.746094 42.304688 C 451.746094 81.832031 511.035156 81.832031 511.035156 42.304688 "/>
<path style=" stroke:none;fill-rule:evenodd;fill:rgb(0%,0%,0%);fill-opacity:1;" d="M 566.808594 42.304688 C 566.808594 2.78125 507.519531 2.78125 507.519531 42.304688 C 507.519531 81.832031 566.808594 81.832031 566.808594 42.304688 "/>
<path style=" stroke:none;fill-rule:evenodd;fill:rgb(0%,0%,0%);fill-opacity:1;" d="M 622.585938 42.304688 C 622.585938 2.78125 563.296875 2.78125 563.296875 42.304688 C 563.296875 81.832031 622.585938 81.832031 622.585938 42.304688 "/>
<path style=" stroke:none;fill-rule:evenodd;fill:rgb(0%,0%,0%);fill-opacity:1;" d="M 678.363281 42.304688 C 678.363281 2.78125 619.074219 2.78125 619.074219 42.304688 C 619.074219 81.832031 678.363281 81.832031 678.363281 42.304688 "/>
<path style=" stroke:none;fill-rule:evenodd;fill:rgb(0%,0%,0%);fill-opacity:1;" d="M 734.136719 42.304688 C 734.136719 2.78125 674.847656 2.78125 674.847656 42.304688 C 674.847656 81.832031 734.136719 81.832031 734.136719 42.304688 "/>
<path style=" stroke:none;fill-rule:evenodd;fill:rgb(0%,0%,0%);fill-opacity:1;" d="M 789.914062 42.304688 C 789.914062 2.78125 730.625 2.78125 730.625 42.304688 C 730.625 81.832031 789.914062 81.832031 789.914062 42.304688 "/>
<path style=" stroke:none;fill-rule:evenodd;fill:rgb(0%,0%,0%);fill-opacity:1;" d="M 845.6875 42.304688 C 845.6875 2.78125 786.398438 2.78125 786.398438 42.304688 C 786.398438 81.832031 845.6875 81.832031 845.6875 42.304688 "/>
<path style=" stroke:none;fill-rule:evenodd;fill:rgb(0%,0%,0%);fill-opacity:1;" d="M 901.464844 42.304688 C 901.464844 2.78125 842.175781 2.78125 842.175781 42.304688 C 842.175781 81.832031 901.464844 81.832031 901.464844 42.304688 "/>
<path style=" stroke:none;fill-rule:evenodd;fill:rgb(0%,0%,0%);fill-opacity:1;" d="M 511.035156 516.398438 C 511.035156 476.875 451.746094 476.875 451.746094 516.398438 C 451.746094 555.925781 511.035156 555.925781 511.035156 516.398438 "/>
<path style=" stroke:none;fill-rule:evenodd;fill:rgb(0%,0%,0%);fill-opacity:1;" d="M 566.808594 516.398438 C 566.808594 476.875 507.519531 476.875 507.519531 516.398438 C 507.519531 555.925781 566.808594 555.925781 566.808594 516.398438 "/>
<path style=" stroke:none;fill-rule:evenodd;fill:rgb(0%,0%,0%);fill-opacity:1;" d="M 622.585938 516.398438 C 622.585938 476.875 563.296875 476.875 563.296875 516.398438 C 563.296875 555.925781 622.585938 555.925781 622.585938 516.398438 "/>
<path style=" stroke:none;fill-rule:evenodd;fill:rgb(0%,0%,0%);fill-opacity:1;" d="M 678.363281 516.398438 C 678.363281 476.875 619.074219 476.875 619.074219 516.398438 C 619.074219 555.925781 678.363281 555.925781 678.363281 516.398438 "/>
<path style=" stroke:none;fill-rule:evenodd;fill:rgb(0%,0%,0%);fill-opacity:1;" d="M 734.136719 516.398438 C 734.136719 476.875 674.847656 476.875 674.847656 516.398438 C 674.847656 555.925781 734.136719 555.925781 734.136719 516.398438 "/>
<path style=" stroke:none;fill-rule:evenodd;fill:rgb(0%,0%,0%);fill-opacity:1;" d="M 789.914062 516.398438 C 789.914062 476.875 730.625 476.875 730.625 516.398438 C 730.625 555.925781 789.914062 555.925781 789.914062 516.398438 "/>
<path style=" stroke:none;fill-rule:evenodd;fill:rgb(0%,0%,0%);fill-opacity:1;" d="M 845.6875 516.398438 C 845.6875 476.875 786.398438 476.875 786.398438 516.398438 C 786.398438 555.925781 845.6875 555.925781 845.6875 516.398438 "/>
<path style=" stroke:none;fill-rule:evenodd;fill:rgb(0%,0%,0%);fill-opacity:1;" d="M 901.464844 516.398438 C 901.464844 476.875 842.175781 476.875 842.175781 516.398438 C 842.175781 555.925781 901.464844 555.925781 901.464844 516.398438 "/>
<path style=" stroke:none;fill-rule:evenodd;fill:rgb(0%,0%,0%);fill-opacity:1;" d="M 455.257812 516.398438 C 455.257812 476.875 395.96875 476.875 395.96875 516.398438 C 395.96875 555.925781 455.257812 555.925781 455.257812 516.398438 "/>
<path style=" stroke:none;fill-rule:evenodd;fill:rgb(0%,0%,0%);fill-opacity:1;" d="M 894.65625 417.144531 L 916.617188 417.144531 L 916.617188 447.886719 L 894.65625 447.886719 L 894.65625 417.144531 Z M 894.65625 417.144531 "/>
<path style=" stroke:none;fill-rule:evenodd;fill:rgb(0%,0%,0%);fill-opacity:1;" d="M 872.699219 417.144531 L 894.65625 417.144531 L 894.65625 447.886719 L 872.699219 447.886719 L 872.699219 417.144531 Z M 872.699219 417.144531 "/>
<path style=" stroke:none;fill-rule:evenodd;fill:rgb(0%,0%,0%);fill-opacity:1;" d="M 850.738281 417.144531 L 872.699219 417.144531 L 872.699219 447.886719 L 850.738281 447.886719 L 850.738281 417.144531 Z M 850.738281 417.144531 "/>
<path style=" stroke:none;fill-rule:evenodd;fill:rgb(0%,0%,0%);fill-opacity:1;" d="M 828.78125 417.144531 L 850.738281 417.144531 L 850.738281 447.886719 L 828.78125 447.886719 L 828.78125 417.144531 Z M 828.78125 417.144531 "/>
<path style=" stroke:none;fill-rule:evenodd;fill:rgb(0%,0%,0%);fill-opacity:1;" d="M 806.820312 417.144531 L 828.78125 417.144531 L 828.78125 447.886719 L 806.820312 447.886719 L 806.820312 417.144531 Z M 806.820312 417.144531 "/>
<path style=" stroke:none;fill-rule:evenodd;fill:rgb(0%,0%,0%);fill-opacity:1;" d="M 784.863281 417.144531 L 806.820312 417.144531 L 806.820312 447.886719 L 784.863281 447.886719 L 784.863281 417.144531 Z M 784.863281 417.144531 "/>
<path style=" stroke:none;fill-rule:evenodd;fill:rgb(0%,0%,0%);fill-opacity:1;" d="M 762.902344 417.144531 L 784.863281 417.144531 L 784.863281 447.886719 L 762.902344 447.886719 L 762.902344 417.144531 Z M 762.902344 417.144531 "/>
<path style=" stroke:none;fill-rule:evenodd;fill:rgb(0%,0%,0%);fill-opacity:1;" d="M 740.945312 417.144531 L 762.902344 417.144531 L 762.902344 447.886719 L 740.945312 447.886719 L 740.945312 417.144531 Z M 740.945312 417.144531 "/>
<path style=" stroke:none;fill-rule:evenodd;fill:rgb(0%,0%,0%);fill-opacity:1;" d="M 718.984375 417.144531 L 740.945312 417.144531 L 740.945312 447.886719 L 718.984375 447.886719 L 718.984375 417.144531 Z M 718.984375 417.144531 "/>
<path style=" stroke:none;fill-rule:evenodd;fill:rgb(0%,0%,0%);fill-opacity:1;" d="M 697.027344 417.144531 L 718.984375 417.144531 L 718.984375 447.886719 L 697.027344 447.886719 L 697.027344 417.144531 Z M 697.027344 417.144531 "/>
<path style=" stroke:none;fill-rule:evenodd;fill:rgb(0%,0%,0%);fill-opacity:1;" d="M 675.066406 417.144531 L 697.027344 417.144531 L 697.027344 447.886719 L 675.066406 447.886719 L 675.066406 417.144531 Z M 675.066406 417.144531 "/>
<path style=" stroke:none;fill-rule:evenodd;fill:rgb(0%,0%,0%);fill-opacity:1;" d="M 653.109375 417.144531 L 675.066406 417.144531 L 675.066406 447.886719 L 653.109375 447.886719 L 653.109375 417.144531 Z M 653.109375 417.144531 "/>
<path style=" stroke:none;fill-rule:evenodd;fill:rgb(0%,0%,0%);fill-opacity:1;" d="M 631.148438 417.144531 L 653.109375 417.144531 L 653.109375 447.886719 L 631.148438 447.886719 L 631.148438 417.144531 Z M 631.148438 417.144531 "/>
<path style=" stroke:none;fill-rule:evenodd;fill:rgb(0%,0%,0%);fill-opacity:1;" d="M 609.191406 417.144531 L 631.148438 417.144531 L 631.148438 447.886719 L 609.191406 447.886719 L 609.191406 417.144531 Z M 609.191406 417.144531 "/>
<path style=" stroke:none;fill-rule:evenodd;fill:rgb(0%,0%,0%);fill-opacity:1;" d="M 587.230469 417.144531 L 609.191406 417.144531 L 609.191406 447.886719 L 587.230469 447.886719 L 587.230469 417.144531 Z M 587.230469 417.144531 "/>
<path style=" stroke:none;fill-rule:evenodd;fill:rgb(0%,0%,0%);fill-opacity:1;" d="M 565.273438 417.144531 L 587.230469 417.144531 L 587.230469 447.886719 L 565.273438 447.886719 L 565.273438 417.144531 Z M 565.273438 417.144531 "/>
<path style=" stroke:none;fill-rule:evenodd;fill:rgb(0%,0%,0%);fill-opacity:1;" d="M 543.3125 417.144531 L 565.273438 417.144531 L 565.273438 447.886719 L 543.3125 447.886719 L 543.3125 417.144531 Z M 543.3125 417.144531 "/>
<path style=" stroke:none;fill-rule:evenodd;fill:rgb(0%,0%,0%);fill-opacity:1;" d="M 521.355469 417.144531 L 543.3125 417.144531 L 543.3125 447.886719 L 521.355469 447.886719 L 521.355469 417.144531 Z M 521.355469 417.144531 "/>
<path style=" stroke:none;fill-rule:evenodd;fill:rgb(0%,0%,0%);fill-opacity:1;" d="M 894.65625 110.378906 L 916.617188 110.378906 L 916.617188 141.121094 L 894.65625 141.121094 L 894.65625 110.378906 Z M 894.65625 110.378906 "/>
<path style=" stroke:none;fill-rule:evenodd;fill:rgb(0%,0%,0%);fill-opacity:1;" d="M 872.699219 110.378906 L 894.65625 110.378906 L 894.65625 141.121094 L 872.699219 141.121094 L 872.699219 110.378906 Z M 872.699219 110.378906 "/>
<path style=" stroke:none;fill-rule:evenodd;fill:rgb(0%,0%,0%);fill-opacity:1;" d="M 850.738281 110.378906 L 872.699219 110.378906 L 872.699219 141.121094 L 850.738281 141.121094 L 850.738281 110.378906 Z M 850.738281 110.378906 "/>
<path style=" stroke:none;fill-rule:evenodd;fill:rgb(0%,0%,0%);fill-opacity:1;" d="M 828.78125 110.378906 L 850.738281 110.378906 L 850.738281 141.121094 L 828.78125 141.121094 L 828.78125 110.378906 Z M 828.78125 110.378906 "/>
<path style=" stroke:none;fill-rule:evenodd;fill:rgb(0%,0%,0%);fill-opacity:1;" d="M 806.820312 110.378906 L 828.78125 110.378906 L 828.78125 141.121094 L 806.820312 141.121094 L 806.820312 110.378906 Z M 806.820312 110.378906 "/>
<path style=" stroke:none;fill-rule:evenodd;fill:rgb(0%,0%,0%);fill-opacity:1;" d="M 784.863281 110.378906 L 806.820312 110.378906 L 806.820312 141.121094 L 784.863281 141.121094 L 784.863281 110.378906 Z M 784.863281 110.378906 "/>
<path style=" stroke:none;fill-rule:evenodd;fill:rgb(0%,0%,0%);fill-opacity:1;" d="M 762.902344 110.378906 L 784.863281 110.378906 L 784.863281 141.121094 L 762.902344 141.121094 L 762.902344 110.378906 Z M 762.902344 110.378906 "/>
<path style=" stroke:none;fill-rule:evenodd;fill:rgb(0%,0%,0%);fill-opacity:1;" d="M 740.945312 110.378906 L 762.902344 110.378906 L 762.902344 141.121094 L 740.945312 141.121094 L 740.945312 110.378906 Z M 740.945312 110.378906 "/>
<path style=" stroke:none;fill-rule:evenodd;fill:rgb(0%,0%,0%);fill-opacity:1;" d="M 718.984375 110.378906 L 740.945312 110.378906 L 740.945312 141.121094 L 718.984375 141.121094 L 718.984375 110.378906 Z M 718.984375 110.378906 "/>
<path style=" stroke:none;fill-rule:evenodd;fill:rgb(0%,0%,0%);fill-opacity:1;" d="M 697.027344 110.378906 L 718.984375 110.378906 L 718.984375 141.121094 L 697.027344 141.121094 L 697.027344 110.378906 Z M 697.027344 110.378906 "/>
<path style=" stroke:none;fill-rule:evenodd;fill:rgb(0%,0%,0%);fill-opacity:1;" d="M 675.066406 110.378906 L 697.027344 110.378906 L 697.027344 141.121094 L 675.066406 141.121094 L 675.066406 110.378906 Z M 675.066406 110.378906 "/>
<path style=" stroke:none;fill-rule:evenodd;fill:rgb(0%,0%,0%);fill-opacity:1;" d="M 653.109375 110.378906 L 675.066406 110.378906 L 675.066406 141.121094 L 653.109375 141.121094 L 653.109375 110.378906 Z M 653.109375 110.378906 "/>
<path style=" stroke:none;fill-rule:evenodd;fill:rgb(0%,0%,0%);fill-opacity:1;" d="M 631.148438 110.378906 L 653.109375 110.378906 L 653.109375 141.121094 L 631.148438 141.121094 L 631.148438 110.378906 Z M 631.148438 110.378906 "/>
<path style=" stroke:none;fill-rule:evenodd;fill:rgb(0%,0%,0%);fill-opacity:1;" d="M 609.191406 110.378906 L 631.148438 110.378906 L 631.148438 141.121094 L 609.191406 141.121094 L 609.191406 110.378906 Z M 609.191406 110.378906 "/>
<path style=" stroke:none;fill-rule:evenodd;fill:rgb(0%,0%,0%);fill-opacity:1;" d="M 587.230469 110.378906 L 609.191406 110.378906 L 609.191406 141.121094 L 587.230469 141.121094 L 587.230469 110.378906 Z M 587.230469 110.378906 "/>
<path style=" stroke:none;fill-rule:evenodd;fill:rgb(0%,0%,0%);fill-opacity:1;" d="M 565.273438 110.378906 L 587.230469 110.378906 L 587.230469 141.121094 L 565.273438 141.121094 L 565.273438 110.378906 Z M 565.273438 110.378906 "/>
<path style=" stroke:none;fill-rule:evenodd;fill:rgb(0%,0%,0%);fill-opacity:1;" d="M 543.3125 110.378906 L 565.273438 110.378906 L 565.273438 141.121094 L 543.3125 141.121094 L 543.3125 110.378906 Z M 543.3125 110.378906 "/>
<path style=" stroke:none;fill-rule:evenodd;fill:rgb(0%,0%,0%);fill-opacity:1;" d="M 521.355469 110.378906 L 543.3125 110.378906 L 543.3125 141.121094 L 521.355469 141.121094 L 521.355469 110.378906 Z M 521.355469 110.378906 "/>
<path style=" stroke:none;fill-rule:evenodd;fill:rgb(0%,0%,0%);fill-opacity:1;" d="M 489.296875 226.761719 L 489.296875 204.800781 L 520.039062 204.800781 L 520.039062 226.761719 L 489.296875 226.761719 Z M 489.296875 226.761719 "/>
<path style=" stroke:none;fill-rule:evenodd;fill:rgb(0%,0%,0%);fill-opacity:1;" d="M 489.296875 248.71875 L 489.296875 226.761719 L 520.039062 226.761719 L 520.039062 248.71875 L 489.296875 248.71875 Z M 489.296875 248.71875 "/>
<path style=" stroke:none;fill-rule:evenodd;fill:rgb(0%,0%,0%);fill-opacity:1;" d="M 489.296875 270.679688 L 489.296875 248.71875 L 520.039062 248.71875 L 520.039062 270.679688 L 489.296875 270.679688 Z M 489.296875 270.679688 "/>
<path style=" stroke:none;fill-rule:evenodd;fill:rgb(0%,0%,0%);fill-opacity:1;" d="M 489.296875 292.636719 L 489.296875 270.679688 L 520.039062 270.679688 L 520.039062 292.636719 L 489.296875 292.636719 Z M 489.296875 292.636719 "/>
<path style=" stroke:none;fill-rule:evenodd;fill:rgb(0%,0%,0%);fill-opacity:1;" d="M 489.296875 314.597656 L 489.296875 292.636719 L 520.039062 292.636719 L 520.039062 314.597656 L 489.296875 314.597656 Z M 489.296875 314.597656 "/>
<path style=" stroke:none;fill-rule:evenodd;fill:rgb(0%,0%,0%);fill-opacity:1;" d="M 489.296875 336.554688 L 489.296875 314.597656 L 520.039062 314.597656 L 520.039062 336.554688 L 489.296875 336.554688 Z M 489.296875 336.554688 "/>
<path style=" stroke:none;fill-rule:evenodd;fill:rgb(0%,0%,0%);fill-opacity:1;" d="M 489.296875 358.515625 L 489.296875 336.554688 L 520.039062 336.554688 L 520.039062 358.515625 L 489.296875 358.515625 Z M 489.296875 358.515625 "/>
<path style=" stroke:none;fill-rule:evenodd;fill:rgb(0%,0%,0%);fill-opacity:1;" d="M 957.242188 42.304688 C 957.242188 2.78125 897.953125 2.78125 897.953125 42.304688 C 897.953125 81.832031 957.242188 81.832031 957.242188 42.304688 "/>
<path style=" stroke:none;fill-rule:evenodd;fill:rgb(0%,0%,0%);fill-opacity:1;" d="M 455.257812 42.304688 C 455.257812 2.78125 395.96875 2.78125 395.96875 42.304688 C 395.96875 81.832031 455.257812 81.832031 455.257812 42.304688 "/>
<path style=" stroke:none;fill-rule:evenodd;fill:rgb(0%,0%,0%);fill-opacity:1;" d="M 957.242188 516.398438 C 957.242188 476.875 897.953125 476.875 897.953125 516.398438 C 897.953125 555.925781 957.242188 555.925781 957.242188 516.398438 "/>
<path style=" stroke:none;fill-rule:evenodd;fill:rgb(0%,0%,0%);fill-opacity:1;" d="M 366.984375 242.132812 L 366.984375 223.246094 L 393.113281 223.246094 L 393.113281 242.132812 L 366.984375 242.132812 Z M 366.984375 242.132812 "/>
<path style=" stroke:none;fill-rule:evenodd;fill:rgb(0%,0%,0%);fill-opacity:1;" d="M 366.984375 221.492188 L 366.984375 202.605469 L 393.113281 202.605469 L 393.113281 221.492188 L 366.984375 221.492188 Z M 366.984375 221.492188 "/>
<path style=" stroke:none;fill-rule:evenodd;fill:rgb(0%,0%,0%);fill-opacity:1;" d="M 366.984375 200.410156 L 366.984375 181.527344 L 393.113281 181.527344 L 393.113281 200.410156 L 366.984375 200.410156 Z M 366.984375 200.410156 "/>
<path style=" stroke:none;fill-rule:evenodd;fill:rgb(0%,0%,0%);fill-opacity:1;" d="M 310.109375 200.410156 L 310.109375 181.527344 L 336.242188 181.527344 L 336.242188 200.410156 L 310.109375 200.410156 Z M 310.109375 200.410156 "/>
<path style=" stroke:none;fill-rule:evenodd;fill:rgb(0%,0%,0%);fill-opacity:1;" d="M 310.109375 242.132812 L 310.109375 223.246094 L 336.242188 223.246094 L 336.242188 242.132812 L 310.109375 242.132812 Z M 310.109375 242.132812 "/>
<path style=" stroke:none;fill-rule:evenodd;fill:rgb(0%,0%,0%);fill-opacity:1;" d="M 314.28125 102.035156 L 347.21875 102.035156 L 347.21875 141.558594 L 314.28125 141.558594 L 314.28125 102.035156 Z M 314.28125 102.035156 "/>
<path style=" stroke:none;fill-rule:evenodd;fill:rgb(0%,0%,0%);fill-opacity:1;" d="M 356.003906 102.035156 L 388.941406 102.035156 L 388.941406 141.558594 L 356.003906 141.558594 L 356.003906 102.035156 Z M 356.003906 102.035156 "/>
<path style=" stroke:none;fill-rule:evenodd;fill:rgb(0%,0%,0%);fill-opacity:1;" d="M 384.113281 308.667969 L 355.566406 308.667969 L 355.566406 277.925781 L 384.113281 277.925781 L 384.113281 308.667969 Z M 384.113281 308.667969 "/>
<path style=" stroke:none;fill-rule:evenodd;fill:rgb(0%,0%,0%);fill-opacity:1;" d="M 346.78125 308.667969 L 318.234375 308.667969 L 318.234375 277.925781 L 346.78125 277.925781 L 346.78125 308.667969 Z M 346.78125 308.667969 "/>
<path style=" stroke:none;fill-rule:evenodd;fill:rgb(0%,0%,0%);fill-opacity:1;" d="M 426.492188 354.121094 L 426.492188 325.578125 L 457.234375 325.578125 L 457.234375 354.121094 L 426.492188 354.121094 Z M 426.492188 354.121094 "/>
<path style=" stroke:none;fill-rule:evenodd;fill:rgb(0%,0%,0%);fill-opacity:1;" d="M 426.492188 316.792969 L 426.492188 288.246094 L 457.234375 288.246094 L 457.234375 316.792969 L 426.492188 316.792969 Z M 426.492188 316.792969 "/>
<path style=" stroke:none;fill-rule:evenodd;fill:rgb(0%,0%,0%);fill-opacity:1;" d="M 384.332031 385.304688 L 355.785156 385.304688 L 355.785156 354.5625 L 384.332031 354.5625 L 384.332031 385.304688 Z M 384.332031 385.304688 "/>
<path style=" stroke:none;fill-rule:evenodd;fill:rgb(0%,0%,0%);fill-opacity:1;" d="M 347 385.304688 L 318.453125 385.304688 L 318.453125 354.5625 L 347 354.5625 L 347 385.304688 Z M 347 385.304688 "/>
<path style=" stroke:none;fill-rule:evenodd;fill:rgb(0%,0%,0%);fill-opacity:1;" d="M 384.332031 455.132812 L 355.785156 455.132812 L 355.785156 424.390625 L 384.332031 424.390625 L 384.332031 455.132812 Z M 384.332031 455.132812 "/>
<path style=" stroke:none;fill-rule:evenodd;fill:rgb(0%,0%,0%);fill-opacity:1;" d="M 347 455.132812 L 318.453125 455.132812 L 318.453125 424.390625 L 347 424.390625 L 347 455.132812 Z M 347 455.132812 "/>
<path style=" stroke:none;fill-rule:evenodd;fill:rgb(0%,0%,0%);fill-opacity:1;" d="M 426.492188 455.132812 L 426.492188 426.585938 L 457.234375 426.585938 L 457.234375 455.132812 L 426.492188 455.132812 Z M 426.492188 455.132812 "/>
<path style=" stroke:none;fill-rule:evenodd;fill:rgb(0%,0%,0%);fill-opacity:1;" d="M 426.492188 417.804688 L 426.492188 389.257812 L 457.234375 389.257812 L 457.234375 417.804688 L 426.492188 417.804688 Z M 426.492188 417.804688 "/>
<path style=" stroke:none;fill-rule:evenodd;fill:rgb(45.882353%,94.901961%,40.392157%);fill-opacity:1;" d="M 504.445312 42.304688 C 504.445312 11.5625 458.332031 11.5625 458.332031 42.304688 C 458.332031 73.046875 504.445312 73.046875 504.445312 42.304688 "/>
<path style=" stroke:none;fill-rule:evenodd;fill:rgb(45.882353%,94.901961%,40.392157%);fill-opacity:1;" d="M 560.222656 42.304688 C 560.222656 11.5625 514.109375 11.5625 514.109375 42.304688 C 514.109375 73.046875 560.222656 73.046875 560.222656 42.304688 "/>
<path style=" stroke:none;fill-rule:evenodd;fill:rgb(45.882353%,94.901961%,40.392157%);fill-opacity:1;" d="M 616 42.304688 C 616 11.5625 569.882812 11.5625 569.882812 42.304688 C 569.882812 73.046875 616 73.046875 616 42.304688 "/>
<path style=" stroke:none;fill-rule:evenodd;fill:rgb(45.882353%,94.901961%,40.392157%);fill-opacity:1;" d="M 671.773438 42.304688 C 671.773438 11.5625 625.660156 11.5625 625.660156 42.304688 C 625.660156 73.046875 671.773438 73.046875 671.773438 42.304688 "/>
<path style=" stroke:none;fill-rule:evenodd;fill:rgb(45.882353%,94.901961%,40.392157%);fill-opacity:1;" d="M 727.550781 42.304688 C 727.550781 11.5625 681.4375 11.5625 681.4375 42.304688 C 681.4375 73.046875 727.550781 73.046875 727.550781 42.304688 "/>
<path style=" stroke:none;fill-rule:evenodd;fill:rgb(45.882353%,94.901961%,40.392157%);fill-opacity:1;" d="M 783.324219 42.304688 C 783.324219 11.5625 737.210938 11.5625 737.210938 42.304688 C 737.210938 73.046875 783.324219 73.046875 783.324219 42.304688 "/>
<path style=" stroke:none;fill-rule:evenodd;fill:rgb(45.882353%,94.901961%,40.392157%);fill-opacity:1;" d="M 839.101562 42.304688 C 839.101562 11.5625 792.988281 11.5625 792.988281 42.304688 C 792.988281 73.046875 839.101562 73.046875 839.101562 42.304688 "/>
<path style=" stroke:none;fill-rule:evenodd;fill:rgb(45.882353%,94.901961%,40.392157%);fill-opacity:1;" d="M 894.878906 42.304688 C 894.878906 11.5625 848.761719 11.5625 848.761719 42.304688 C 848.761719 73.046875 894.878906 73.046875 894.878906 42.304688 "/>
<path style=" stroke:none;fill-rule:evenodd;fill:rgb(45.882353%,94.901961%,40.392157%);fill-opacity:1;" d="M 504.445312 516.398438 C 504.445312 485.65625 458.332031 485.65625 458.332031 516.398438 C 458.332031 547.140625 504.445312 547.140625 504.445312 516.398438 "/>
<path style=" stroke:none;fill-rule:evenodd;fill:rgb(45.882353%,94.901961%,40.392157%);fill-opacity:1;" d="M 560.222656 516.398438 C 560.222656 485.65625 514.109375 485.65625 514.109375 516.398438 C 514.109375 547.140625 560.222656 547.140625 560.222656 516.398438 "/>
<path style=" stroke:none;fill-rule:evenodd;fill:rgb(45.882353%,94.901961%,40.392157%);fill-opacity:1;" d="M 616 516.398438 C 616 485.65625 569.882812 485.65625 569.882812 516.398438 C 569.882812 547.140625 616 547.140625 616 516.398438 "/>
<path style=" stroke:none;fill-rule:evenodd;fill:rgb(45.882353%,94.901961%,40.392157%);fill-opacity:1;" d="M 671.773438 516.398438 C 671.773438 485.65625 625.660156 485.65625 625.660156 516.398438 C 625.660156 547.140625 671.773438 547.140625 671.773438 516.398438 "/>
<path style=" stroke:none;fill-rule:evenodd;fill:rgb(45.882353%,94.901961%,40.392157%);fill-opacity:1;" d="M 727.550781 516.398438 C 727.550781 485.65625 681.4375 485.65625 681.4375 516.398438 C 681.4375 547.140625 727.550781 547.140625 727.550781 516.398438 "/>
<path style=" stroke:none;fill-rule:evenodd;fill:rgb(45.882353%,94.901961%,40.392157%);fill-opacity:1;" d="M 783.324219 516.398438 C 783.324219 485.65625 737.210938 485.65625 737.210938 516.398438 C 737.210938 547.140625 783.324219 547.140625 783.324219 516.398438 "/>
<path style=" stroke:none;fill-rule:evenodd;fill:rgb(45.882353%,94.901961%,40.392157%);fill-opacity:1;" d="M 839.101562 516.398438 C 839.101562 485.65625 792.988281 485.65625 792.988281 516.398438 C 792.988281 547.140625 839.101562 547.140625 839.101562 516.398438 "/>
<path style=" stroke:none;fill-rule:evenodd;fill:rgb(45.882353%,94.901961%,40.392157%);fill-opacity:1;" d="M 894.878906 516.398438 C 894.878906 485.65625 848.761719 485.65625 848.761719 516.398438 C 848.761719 547.140625 894.878906 547.140625 894.878906 516.398438 "/>
<path style=" stroke:none;fill-rule:evenodd;fill:rgb(45.882353%,94.901961%,40.392157%);fill-opacity:1;" d="M 448.671875 516.398438 C 448.671875 485.65625 402.558594 485.65625 402.558594 516.398438 C 402.558594 547.140625 448.671875 547.140625 448.671875 516.398438 "/>
<path style=" stroke:none;fill-rule:evenodd;fill:rgb(45.882353%,94.901961%,40.392157%);fill-opacity:1;" d="M 896.851562 419.339844 L 914.421875 419.339844 L 914.421875 445.691406 L 896.851562 445.691406 L 896.851562 419.339844 Z M 896.851562 419.339844 "/>
<path style=" stroke:none;fill-rule:evenodd;fill:rgb(45.882353%,94.901961%,40.392157%);fill-opacity:1;" d="M 874.894531 419.339844 L 892.460938 419.339844 L 892.460938 445.691406 L 874.894531 445.691406 L 874.894531 419.339844 Z M 874.894531 419.339844 "/>
<path style=" stroke:none;fill-rule:evenodd;fill:rgb(45.882353%,94.901961%,40.392157%);fill-opacity:1;" d="M 852.933594 419.339844 L 870.503906 419.339844 L 870.503906 445.691406 L 852.933594 445.691406 L 852.933594 419.339844 Z M 852.933594 419.339844 "/>
<path style=" stroke:none;fill-rule:evenodd;fill:rgb(45.882353%,94.901961%,40.392157%);fill-opacity:1;" d="M 830.976562 419.339844 L 848.542969 419.339844 L 848.542969 445.691406 L 830.976562 445.691406 L 830.976562 419.339844 Z M 830.976562 419.339844 "/>
<path style=" stroke:none;fill-rule:evenodd;fill:rgb(45.882353%,94.901961%,40.392157%);fill-opacity:1;" d="M 809.019531 419.339844 L 826.585938 419.339844 L 826.585938 445.691406 L 809.019531 445.691406 L 809.019531 419.339844 Z M 809.019531 419.339844 "/>
<path style=" stroke:none;fill-rule:evenodd;fill:rgb(45.882353%,94.901961%,40.392157%);fill-opacity:1;" d="M 787.058594 419.339844 L 804.625 419.339844 L 804.625 445.691406 L 787.058594 445.691406 L 787.058594 419.339844 Z M 787.058594 419.339844 "/>
<path style=" stroke:none;fill-rule:evenodd;fill:rgb(45.882353%,94.901961%,40.392157%);fill-opacity:1;" d="M 765.101562 419.339844 L 782.667969 419.339844 L 782.667969 445.691406 L 765.101562 445.691406 L 765.101562 419.339844 Z M 765.101562 419.339844 "/>
<path style=" stroke:none;fill-rule:evenodd;fill:rgb(45.882353%,94.901961%,40.392157%);fill-opacity:1;" d="M 743.140625 419.339844 L 760.707031 419.339844 L 760.707031 445.691406 L 743.140625 445.691406 L 743.140625 419.339844 Z M 743.140625 419.339844 "/>
<path style=" stroke:none;fill-rule:evenodd;fill:rgb(45.882353%,94.901961%,40.392157%);fill-opacity:1;" d="M 721.183594 419.339844 L 738.75 419.339844 L 738.75 445.691406 L 721.183594 445.691406 L 721.183594 419.339844 Z M 721.183594 419.339844 "/>
<path style=" stroke:none;fill-rule:evenodd;fill:rgb(45.882353%,94.901961%,40.392157%);fill-opacity:1;" d="M 699.222656 419.339844 L 716.789062 419.339844 L 716.789062 445.691406 L 699.222656 445.691406 L 699.222656 419.339844 Z M 699.222656 419.339844 "/>
<path style=" stroke:none;fill-rule:evenodd;fill:rgb(45.882353%,94.901961%,40.392157%);fill-opacity:1;" d="M 677.265625 419.339844 L 694.832031 419.339844 L 694.832031 445.691406 L 677.265625 445.691406 L 677.265625 419.339844 Z M 677.265625 419.339844 "/>
<path style=" stroke:none;fill-rule:evenodd;fill:rgb(45.882353%,94.901961%,40.392157%);fill-opacity:1;" d="M 655.304688 419.339844 L 672.871094 419.339844 L 672.871094 445.691406 L 655.304688 445.691406 L 655.304688 419.339844 Z M 655.304688 419.339844 "/>
<path style=" stroke:none;fill-rule:evenodd;fill:rgb(45.882353%,94.901961%,40.392157%);fill-opacity:1;" d="M 633.347656 419.339844 L 650.914062 419.339844 L 650.914062 445.691406 L 633.347656 445.691406 L 633.347656 419.339844 Z M 633.347656 419.339844 "/>
<path style=" stroke:none;fill-rule:evenodd;fill:rgb(45.882353%,94.901961%,40.392157%);fill-opacity:1;" d="M 611.386719 419.339844 L 628.953125 419.339844 L 628.953125 445.691406 L 611.386719 445.691406 L 611.386719 419.339844 Z M 611.386719 419.339844 "/>
<path style=" stroke:none;fill-rule:evenodd;fill:rgb(45.882353%,94.901961%,40.392157%);fill-opacity:1;" d="M 589.429688 419.339844 L 606.996094 419.339844 L 606.996094 445.691406 L 589.429688 445.691406 L 589.429688 419.339844 Z M 589.429688 419.339844 "/>
<path style=" stroke:none;fill-rule:evenodd;fill:rgb(45.882353%,94.901961%,40.392157%);fill-opacity:1;" d="M 567.46875 419.339844 L 585.035156 419.339844 L 585.035156 445.691406 L 567.46875 445.691406 L 567.46875 419.339844 Z M 567.46875 419.339844 "/>
<path style=" stroke:none;fill-rule:evenodd;fill:rgb(45.882353%,94.901961%,40.392157%);fill-opacity:1;" d="M 545.511719 419.339844 L 563.078125 419.339844 L 563.078125 445.691406 L 545.511719 445.691406 L 545.511719 419.339844 Z M 545.511719 419.339844 "/>
<path style=" stroke:none;fill-rule:evenodd;fill:rgb(45.882353%,94.901961%,40.392157%);fill-opacity:1;" d="M 523.550781 419.339844 L 541.117188 419.339844 L 541.117188 445.691406 L 523.550781 445.691406 L 523.550781 419.339844 Z M 523.550781 419.339844 "/>
<path style=" stroke:none;fill-rule:evenodd;fill:rgb(45.882353%,94.901961%,40.392157%);fill-opacity:1;" d="M 896.851562 112.574219 L 914.421875 112.574219 L 914.421875 138.925781 L 896.851562 138.925781 L 896.851562 112.574219 Z M 896.851562 112.574219 "/>
<path style=" stroke:none;fill-rule:evenodd;fill:rgb(45.882353%,94.901961%,40.392157%);fill-opacity:1;" d="M 874.894531 112.574219 L 892.460938 112.574219 L 892.460938 138.925781 L 874.894531 138.925781 L 874.894531 112.574219 Z M 874.894531 112.574219 "/>
<path style=" stroke:none;fill-rule:evenodd;fill:rgb(45.882353%,94.901961%,40.392157%);fill-opacity:1;" d="M 852.933594 112.574219 L 870.503906 112.574219 L 870.503906 138.925781 L 852.933594 138.925781 L 852.933594 112.574219 Z M 852.933594 112.574219 "/>
<path style=" stroke:none;fill-rule:evenodd;fill:rgb(45.882353%,94.901961%,40.392157%);fill-opacity:1;" d="M 830.976562 112.574219 L 848.542969 112.574219 L 848.542969 138.925781 L 830.976562 138.925781 L 830.976562 112.574219 Z M 830.976562 112.574219 "/>
<path style=" stroke:none;fill-rule:evenodd;fill:rgb(45.882353%,94.901961%,40.392157%);fill-opacity:1;" d="M 809.019531 112.574219 L 826.585938 112.574219 L 826.585938 138.925781 L 809.019531 138.925781 L 809.019531 112.574219 Z M 809.019531 112.574219 "/>
<path style=" stroke:none;fill-rule:evenodd;fill:rgb(45.882353%,94.901961%,40.392157%);fill-opacity:1;" d="M 787.058594 112.574219 L 804.625 112.574219 L 804.625 138.925781 L 787.058594 138.925781 L 787.058594 112.574219 Z M 787.058594 112.574219 "/>
<path style=" stroke:none;fill-rule:evenodd;fill:rgb(45.882353%,94.901961%,40.392157%);fill-opacity:1;" d="M 765.101562 112.574219 L 782.667969 112.574219 L 782.667969 138.925781 L 765.101562 138.925781 L 765.101562 112.574219 Z M 765.101562 112.574219 "/>
<path style=" stroke:none;fill-rule:evenodd;fill:rgb(45.882353%,94.901961%,40.392157%);fill-opacity:1;" d="M 743.140625 112.574219 L 760.707031 112.574219 L 760.707031 138.925781 L 743.140625 138.925781 L 743.140625 112.574219 Z M 743.140625 112.574219 "/>
<path style=" stroke:none;fill-rule:evenodd;fill:rgb(45.882353%,94.901961%,40.392157%);fill-opacity:1;" d="M 721.183594 112.574219 L 738.75 112.574219 L 738.75 138.925781 L 721.183594 138.925781 L 721.183594 112.574219 Z M 721.183594 112.574219 "/>
<path style=" stroke:none;fill-rule:evenodd;fill:rgb(45.882353%,94.901961%,40.392157%);fill-opacity:1;" d="M 699.222656 112.574219 L 716.789062 112.574219 L 716.789062 138.925781 L 699.222656 138.925781 L 699.222656 112.574219 Z M 699.222656 112.574219 "/>
<path style=" stroke:none;fill-rule:evenodd;fill:rgb(45.882353%,94.901961%,40.392157%);fill-opacity:1;" d="M 677.265625 112.574219 L 694.832031 112.574219 L 694.832031 138.925781 L 677.265625 138.925781 L 677.265625 112.574219 Z M 677.265625 112.574219 "/>
<path style=" stroke:none;fill-rule:evenodd;fill:rgb(45.882353%,94.901961%,40.392157%);fill-opacity:1;" d="M 655.304688 112.574219 L 672.871094 112.574219 L 672.871094 138.925781 L 655.304688 138.925781 L 655.304688 112.574219 Z M 655.304688 112.574219 "/>
<path style=" stroke:none;fill-rule:evenodd;fill:rgb(45.882353%,94.901961%,40.392157%);fill-opacity:1;" d="M 633.347656 112.574219 L 650.914062 112.574219 L 650.914062 138.925781 L 633.347656 138.925781 L 633.347656 112.574219 Z M 633.347656 112.574219 "/>
<path style=" stroke:none;fill-rule:evenodd;fill:rgb(45.882353%,94.901961%,40.392157%);fill-opacity:1;" d="M 611.386719 112.574219 L 628.953125 112.574219 L 628.953125 138.925781 L 611.386719 138.925781 L 611.386719 112.574219 Z M 611.386719 112.574219 "/>
<path style=" stroke:none;fill-rule:evenodd;fill:rgb(45.882353%,94.901961%,40.392157%);fill-opacity:1;" d="M 589.429688 112.574219 L 606.996094 112.574219 L 606.996094 138.925781 L 589.429688 138.925781 L 589.429688 112.574219 Z M 589.429688 112.574219 "/>
<path style=" stroke:none;fill-rule:evenodd;fill:rgb(45.882353%,94.901961%,40.392157%);fill-opacity:1;" d="M 567.46875 112.574219 L 585.035156 112.574219 L 585.035156 138.925781 L 567.46875 138.925781 L 567.46875 112.574219 Z M 567.46875 112.574219 "/>
<path style=" stroke:none;fill-rule:evenodd;fill:rgb(45.882353%,94.901961%,40.392157%);fill-opacity:1;" d="M 545.511719 112.574219 L 563.078125 112.574219 L 563.078125 138.925781 L 545.511719 138.925781 L 545.511719 112.574219 Z M 545.511719 112.574219 "/>
<path style=" stroke:none;fill-rule:evenodd;fill:rgb(45.882353%,94.901961%,40.392157%);fill-opacity:1;" d="M 523.550781 112.574219 L 541.117188 112.574219 L 541.117188 138.925781 L 523.550781 138.925781 L 523.550781 112.574219 Z M 523.550781 112.574219 "/>
<path style=" stroke:none;fill-rule:evenodd;fill:rgb(45.882353%,94.901961%,40.392157%);fill-opacity:1;" d="M 491.492188 224.566406 L 491.492188 206.996094 L 517.839844 206.996094 L 517.839844 224.566406 L 491.492188 224.566406 Z M 491.492188 224.566406 "/>
<path style=" stroke:none;fill-rule:evenodd;fill:rgb(45.882353%,94.901961%,40.392157%);fill-opacity:1;" d="M 491.492188 246.523438 L 491.492188 228.957031 L 517.839844 228.957031 L 517.839844 246.523438 L 491.492188 246.523438 Z M 491.492188 246.523438 "/>
<path style=" stroke:none;fill-rule:evenodd;fill:rgb(45.882353%,94.901961%,40.392157%);fill-opacity:1;" d="M 491.492188 268.484375 L 491.492188 250.914062 L 517.839844 250.914062 L 517.839844 268.484375 L 491.492188 268.484375 Z M 491.492188 268.484375 "/>
<path style=" stroke:none;fill-rule:evenodd;fill:rgb(45.882353%,94.901961%,40.392157%);fill-opacity:1;" d="M 491.492188 290.441406 L 491.492188 272.875 L 517.839844 272.875 L 517.839844 290.441406 L 491.492188 290.441406 Z M 491.492188 290.441406 "/>
<path style=" stroke:none;fill-rule:evenodd;fill:rgb(45.882353%,94.901961%,40.392157%);fill-opacity:1;" d="M 491.492188 312.402344 L 491.492188 294.832031 L 517.839844 294.832031 L 517.839844 312.402344 L 491.492188 312.402344 Z M 491.492188 312.402344 "/>
<path style=" stroke:none;fill-rule:evenodd;fill:rgb(45.882353%,94.901961%,40.392157%);fill-opacity:1;" d="M 491.492188 334.359375 L 491.492188 316.792969 L 517.839844 316.792969 L 517.839844 334.359375 L 491.492188 334.359375 Z M 491.492188 334.359375 "/>
<path style=" stroke:none;fill-rule:evenodd;fill:rgb(45.882353%,94.901961%,40.392157%);fill-opacity:1;" d="M 491.492188 356.320312 L 491.492188 338.75 L 517.839844 338.75 L 517.839844 356.320312 L 491.492188 356.320312 Z M 491.492188 356.320312 "/>
<path style="fill:none;stroke-width:0.015748;stroke-linecap:round;stroke-linejoin:miter;stroke:rgb(45.882353%,94.901961%,40.392157%);stroke-opacity:1;stroke-miterlimit:10;" d="M 0.559451 0.776771 L 0.559451 0.818897 " transform="matrix(557.757627,0,0,-557.757627,264.215766,559)"/>
<path style="fill:none;stroke-width:0.015748;stroke-linecap:round;stroke-linejoin:miter;stroke:rgb(45.882353%,94.901961%,40.392157%);stroke-opacity:1;stroke-miterlimit:10;" d="M 0.559451 0.818897 L 0.551971 0.826377 " transform="matrix(557.757627,0,0,-557.757627,264.215766,559)"/>
<path style="fill:none;stroke-width:0.015748;stroke-linecap:round;stroke-linejoin:miter;stroke:rgb(45.882353%,94.901961%,40.392157%);stroke-opacity:1;stroke-miterlimit:10;" d="M 0.551971 0.826377 L 0.41457 0.826377 " transform="matrix(557.757627,0,0,-557.757627,264.215766,559)"/>
<path style="fill:none;stroke-width:0.015748;stroke-linecap:round;stroke-linejoin:miter;stroke:rgb(45.882353%,94.901961%,40.392157%);stroke-opacity:1;stroke-miterlimit:10;" d="M 0.41457 0.826377 L 0.389371 0.851575 " transform="matrix(557.757627,0,0,-557.757627,264.215766,559)"/>
<path style="fill:none;stroke-width:0.015748;stroke-linecap:round;stroke-linejoin:miter;stroke:rgb(45.882353%,94.901961%,40.392157%);stroke-opacity:1;stroke-miterlimit:10;" d="M 0.389371 0.851575 L 0.389371 0.92638 " transform="matrix(557.757627,0,0,-557.757627,264.215766,559)"/>
<path style="fill:none;stroke-width:0.015748;stroke-linecap:round;stroke-linejoin:miter;stroke:rgb(45.882353%,94.901961%,40.392157%);stroke-opacity:1;stroke-miterlimit:10;" d="M 0.598818 0.776771 L 0.598818 0.829528 " transform="matrix(557.757627,0,0,-557.757627,264.215766,559)"/>
<path style="fill:none;stroke-width:0.015748;stroke-linecap:round;stroke-linejoin:miter;stroke:rgb(45.882353%,94.901961%,40.392157%);stroke-opacity:1;stroke-miterlimit:10;" d="M 0.598818 0.829528 L 0.577163 0.851575 " transform="matrix(557.757627,0,0,-557.757627,264.215766,559)"/>
<path style="fill:none;stroke-width:0.015748;stroke-linecap:round;stroke-linejoin:miter;stroke:rgb(45.882353%,94.901961%,40.392157%);stroke-opacity:1;stroke-miterlimit:10;" d="M 0.577163 0.851575 L 0.501966 0.851575 " transform="matrix(557.757627,0,0,-557.757627,264.215766,559)"/>
<path style="fill:none;stroke-width:0.015748;stroke-linecap:round;stroke-linejoin:miter;stroke:rgb(45.882353%,94.901961%,40.392157%);stroke-opacity:1;stroke-miterlimit:10;" d="M 0.501966 0.851575 L 0.489367 0.863782 " transform="matrix(557.757627,0,0,-557.757627,264.215766,559)"/>
<path style="fill:none;stroke-width:0.015748;stroke-linecap:round;stroke-linejoin:miter;stroke:rgb(45.882353%,94.901961%,40.392157%);stroke-opacity:1;stroke-miterlimit:10;" d="M 0.489367 0.863782 L 0.489367 0.92638 " transform="matrix(557.757627,0,0,-557.757627,264.215766,559)"/>
<path style="fill:none;stroke-width:0.015748;stroke-linecap:round;stroke-linejoin:miter;stroke:rgb(45.882353%,94.901961%,40.392157%);stroke-opacity:1;stroke-miterlimit:10;" d="M 0.638191 0.776771 L 0.638191 0.84016 " transform="matrix(557.757627,0,0,-557.757627,264.215766,559)"/>
<path style="fill:none;stroke-width:0.015748;stroke-linecap:round;stroke-linejoin:miter;stroke:rgb(45.882353%,94.901961%,40.392157%);stroke-opacity:1;stroke-miterlimit:10;" d="M 0.638191 0.84016 L 0.58937 0.888974 " transform="matrix(557.757627,0,0,-557.757627,264.215766,559)"/>
<path style="fill:none;stroke-width:0.015748;stroke-linecap:round;stroke-linejoin:miter;stroke:rgb(45.882353%,94.901961%,40.392157%);stroke-opacity:1;stroke-miterlimit:10;" d="M 0.58937 0.888974 L 0.58937 0.92638 " transform="matrix(557.757627,0,0,-557.757627,264.215766,559)"/>
<path style="fill:none;stroke-width:0.015748;stroke-linecap:round;stroke-linejoin:miter;stroke:rgb(45.882353%,94.901961%,40.392157%);stroke-opacity:1;stroke-miterlimit:10;" d="M 0.677558 0.776771 L 0.677558 0.914565 " transform="matrix(557.757627,0,0,-557.757627,264.215766,559)"/>
<path style="fill:none;stroke-width:0.015748;stroke-linecap:round;stroke-linejoin:miter;stroke:rgb(45.882353%,94.901961%,40.392157%);stroke-opacity:1;stroke-miterlimit:10;" d="M 0.677558 0.914565 L 0.689373 0.92638 " transform="matrix(557.757627,0,0,-557.757627,264.215766,559)"/>
<path style="fill:none;stroke-width:0.015748;stroke-linecap:round;stroke-linejoin:miter;stroke:rgb(45.882353%,94.901961%,40.392157%);stroke-opacity:1;stroke-miterlimit:10;" d="M 0.835038 0.776771 L 0.835038 0.818113 " transform="matrix(557.757627,0,0,-557.757627,264.215766,559)"/>
<path style="fill:none;stroke-width:0.015748;stroke-linecap:round;stroke-linejoin:miter;stroke:rgb(45.882353%,94.901961%,40.392157%);stroke-opacity:1;stroke-miterlimit:10;" d="M 0.835038 0.818113 L 0.826774 0.826377 " transform="matrix(557.757627,0,0,-557.757627,264.215766,559)"/>
<path style="fill:none;stroke-width:0.015748;stroke-linecap:round;stroke-linejoin:miter;stroke:rgb(45.882353%,94.901961%,40.392157%);stroke-opacity:1;stroke-miterlimit:10;" d="M 0.826774 0.826377 L 0.801968 0.826377 " transform="matrix(557.757627,0,0,-557.757627,264.215766,559)"/>
<path style="fill:none;stroke-width:0.015748;stroke-linecap:round;stroke-linejoin:miter;stroke:rgb(45.882353%,94.901961%,40.392157%);stroke-opacity:1;stroke-miterlimit:10;" d="M 0.801968 0.826377 L 0.789369 0.838976 " transform="matrix(557.757627,0,0,-557.757627,264.215766,559)"/>
<path style="fill:none;stroke-width:0.015748;stroke-linecap:round;stroke-linejoin:miter;stroke:rgb(45.882353%,94.901961%,40.392157%);stroke-opacity:1;stroke-miterlimit:10;" d="M 0.789369 0.838976 L 0.789369 0.92638 " transform="matrix(557.757627,0,0,-557.757627,264.215766,559)"/>
<path style=" stroke:none;fill-rule:evenodd;fill:rgb(45.882353%,94.901961%,40.392157%);fill-opacity:1;" d="M 950.652344 42.304688 C 950.652344 11.5625 904.539062 11.5625 904.539062 42.304688 C 904.539062 73.046875 950.652344 73.046875 950.652344 42.304688 "/>
<path style="fill:none;stroke-width:0.015748;stroke-linecap:round;stroke-linejoin:miter;stroke:rgb(45.882353%,94.901961%,40.392157%);stroke-opacity:1;stroke-miterlimit:10;" d="M 1.031893 0.776771 L 1.031893 0.818897 " transform="matrix(557.757627,0,0,-557.757627,264.215766,559)"/>
<path style="fill:none;stroke-width:0.015748;stroke-linecap:round;stroke-linejoin:miter;stroke:rgb(45.882353%,94.901961%,40.392157%);stroke-opacity:1;stroke-miterlimit:10;" d="M 1.031893 0.818897 L 1.039372 0.826377 " transform="matrix(557.757627,0,0,-557.757627,264.215766,559)"/>
<path style="fill:none;stroke-width:0.015748;stroke-linecap:round;stroke-linejoin:miter;stroke:rgb(45.882353%,94.901961%,40.392157%);stroke-opacity:1;stroke-miterlimit:10;" d="M 1.039372 0.826377 L 1.177166 0.826377 " transform="matrix(557.757627,0,0,-557.757627,264.215766,559)"/>
<path style="fill:none;stroke-width:0.015748;stroke-linecap:round;stroke-linejoin:miter;stroke:rgb(45.882353%,94.901961%,40.392157%);stroke-opacity:1;stroke-miterlimit:10;" d="M 1.177166 0.826377 L 1.189373 0.838976 " transform="matrix(557.757627,0,0,-557.757627,264.215766,559)"/>
<path style="fill:none;stroke-width:0.015748;stroke-linecap:round;stroke-linejoin:miter;stroke:rgb(45.882353%,94.901961%,40.392157%);stroke-opacity:1;stroke-miterlimit:10;" d="M 1.189373 0.838976 L 1.189373 0.92638 " transform="matrix(557.757627,0,0,-557.757627,264.215766,559)"/>
<path style=" stroke:none;fill-rule:evenodd;fill:rgb(45.882353%,94.901961%,40.392157%);fill-opacity:1;" d="M 448.671875 42.304688 C 448.671875 11.5625 402.558594 11.5625 402.558594 42.304688 C 402.558594 73.046875 448.671875 73.046875 448.671875 42.304688 "/>
<path style=" stroke:none;fill-rule:evenodd;fill:rgb(45.882353%,94.901961%,40.392157%);fill-opacity:1;" d="M 950.652344 516.398438 C 950.652344 485.65625 904.539062 485.65625 904.539062 516.398438 C 904.539062 547.140625 950.652344 547.140625 950.652344 516.398438 "/>
<path style="fill:none;stroke-width:0.015748;stroke-linecap:round;stroke-linejoin:miter;stroke:rgb(45.882353%,94.901961%,40.392157%);stroke-opacity:1;stroke-miterlimit:10;" d="M 0.431105 0.379134 L 0.431105 0.418501 " transform="matrix(557.757627,0,0,-557.757627,264.215766,559)"/>
<path style="fill:none;stroke-width:0.015748;stroke-linecap:round;stroke-linejoin:miter;stroke:rgb(45.882353%,94.901961%,40.392157%);stroke-opacity:1;stroke-miterlimit:10;" d="M 0.431105 0.457874 L 0.431105 0.497241 " transform="matrix(557.757627,0,0,-557.757627,264.215766,559)"/>
<path style="fill:none;stroke-width:0.015748;stroke-linecap:round;stroke-linejoin:miter;stroke:rgb(45.882353%,94.901961%,40.392157%);stroke-opacity:1;stroke-miterlimit:10;" d="M 0.874412 0.776771 L 0.874412 0.824017 " transform="matrix(557.757627,0,0,-557.757627,264.215766,559)"/>
<path style="fill:none;stroke-width:0.015748;stroke-linecap:round;stroke-linejoin:miter;stroke:rgb(45.882353%,94.901961%,40.392157%);stroke-opacity:1;stroke-miterlimit:10;" d="M 0.874412 0.824017 L 0.889372 0.838976 " transform="matrix(557.757627,0,0,-557.757627,264.215766,559)"/>
<path style="fill:none;stroke-width:0.015748;stroke-linecap:round;stroke-linejoin:miter;stroke:rgb(45.882353%,94.901961%,40.392157%);stroke-opacity:1;stroke-miterlimit:10;" d="M 0.889372 0.838976 L 0.889372 0.92638 " transform="matrix(557.757627,0,0,-557.757627,264.215766,559)"/>
<path style=" stroke:none;fill-rule:evenodd;fill:rgb(45.882353%,94.901961%,40.392157%);fill-opacity:1;" d="M 443.402344 111.914062 C 443.402344 92.882812 414.855469 92.882812 414.855469 111.914062 C 414.855469 130.945312 443.402344 130.945312 443.402344 111.914062 "/>
<path style="fill:none;stroke-width:0.015748;stroke-linecap:round;stroke-linejoin:miter;stroke:rgb(45.882353%,94.901961%,40.392157%);stroke-opacity:1;stroke-miterlimit:10;" d="M 0.716932 0.226773 L 0.716932 0.166536 " transform="matrix(557.757627,0,0,-557.757627,264.215766,559)"/>
<path style="fill:none;stroke-width:0.015748;stroke-linecap:round;stroke-linejoin:miter;stroke:rgb(45.882353%,94.901961%,40.392157%);stroke-opacity:1;stroke-miterlimit:10;" d="M 0.716932 0.166536 L 0.689373 0.138977 " transform="matrix(557.757627,0,0,-557.757627,264.215766,559)"/>
<path style="fill:none;stroke-width:0.015748;stroke-linecap:round;stroke-linejoin:miter;stroke:rgb(45.882353%,94.901961%,40.392157%);stroke-opacity:1;stroke-miterlimit:10;" d="M 0.689373 0.138977 L 0.689373 0.0763801 " transform="matrix(557.757627,0,0,-557.757627,264.215766,559)"/>
<path style="fill:none;stroke-width:0.015748;stroke-linecap:round;stroke-linejoin:miter;stroke:rgb(45.882353%,94.901961%,40.392157%);stroke-opacity:1;stroke-miterlimit:10;" d="M 0.677558 0.226773 L 0.677558 0.177167 " transform="matrix(557.757627,0,0,-557.757627,264.215766,559)"/>
<path style="fill:none;stroke-width:0.015748;stroke-linecap:round;stroke-linejoin:miter;stroke:rgb(45.882353%,94.901961%,40.392157%);stroke-opacity:1;stroke-miterlimit:10;" d="M 0.677558 0.177167 L 0.639368 0.138977 " transform="matrix(557.757627,0,0,-557.757627,264.215766,559)"/>
<path style="fill:none;stroke-width:0.015748;stroke-linecap:round;stroke-linejoin:miter;stroke:rgb(45.882353%,94.901961%,40.392157%);stroke-opacity:1;stroke-miterlimit:10;" d="M 0.639368 0.138977 L 0.601969 0.138977 " transform="matrix(557.757627,0,0,-557.757627,264.215766,559)"/>
<path style="fill:none;stroke-width:0.015748;stroke-linecap:round;stroke-linejoin:miter;stroke:rgb(45.882353%,94.901961%,40.392157%);stroke-opacity:1;stroke-miterlimit:10;" d="M 0.601969 0.138977 L 0.58937 0.126378 " transform="matrix(557.757627,0,0,-557.757627,264.215766,559)"/>
<path style="fill:none;stroke-width:0.015748;stroke-linecap:round;stroke-linejoin:miter;stroke:rgb(45.882353%,94.901961%,40.392157%);stroke-opacity:1;stroke-miterlimit:10;" d="M 0.58937 0.126378 L 0.58937 0.0763801 " transform="matrix(557.757627,0,0,-557.757627,264.215766,559)"/>
<path style="fill:none;stroke-width:0.015748;stroke-linecap:round;stroke-linejoin:miter;stroke:rgb(45.882353%,94.901961%,40.392157%);stroke-opacity:1;stroke-miterlimit:10;" d="M 0.756298 0.226773 L 0.756298 0.109451 " transform="matrix(557.757627,0,0,-557.757627,264.215766,559)"/>
<path style="fill:none;stroke-width:0.015748;stroke-linecap:round;stroke-linejoin:miter;stroke:rgb(45.882353%,94.901961%,40.392157%);stroke-opacity:1;stroke-miterlimit:10;" d="M 0.756298 0.109451 L 0.789369 0.0763801 " transform="matrix(557.757627,0,0,-557.757627,264.215766,559)"/>
<path style="fill:none;stroke-width:0.015748;stroke-linecap:round;stroke-linejoin:miter;stroke:rgb(45.882353%,94.901961%,40.392157%);stroke-opacity:1;stroke-miterlimit:10;" d="M 0.795672 0.226773 L 0.795672 0.15748 " transform="matrix(557.757627,0,0,-557.757627,264.215766,559)"/>
<path style="fill:none;stroke-width:0.015748;stroke-linecap:round;stroke-linejoin:miter;stroke:rgb(45.882353%,94.901961%,40.392157%);stroke-opacity:1;stroke-miterlimit:10;" d="M 0.795672 0.15748 L 0.814567 0.138977 " transform="matrix(557.757627,0,0,-557.757627,264.215766,559)"/>
<path style="fill:none;stroke-width:0.015748;stroke-linecap:round;stroke-linejoin:miter;stroke:rgb(45.882353%,94.901961%,40.392157%);stroke-opacity:1;stroke-miterlimit:10;" d="M 0.814567 0.138977 L 0.826774 0.138977 " transform="matrix(557.757627,0,0,-557.757627,264.215766,559)"/>
<path style="fill:none;stroke-width:0.015748;stroke-linecap:round;stroke-linejoin:miter;stroke:rgb(45.882353%,94.901961%,40.392157%);stroke-opacity:1;stroke-miterlimit:10;" d="M 0.826774 0.138977 L 0.889372 0.0763801 " transform="matrix(557.757627,0,0,-557.757627,264.215766,559)"/>
<path style="fill:none;stroke-width:0.015748;stroke-linecap:round;stroke-linejoin:miter;stroke:rgb(45.882353%,94.901961%,40.392157%);stroke-opacity:1;stroke-miterlimit:10;" d="M 0.835038 0.226773 L 0.835038 0.180711 " transform="matrix(557.757627,0,0,-557.757627,264.215766,559)"/>
<path style="fill:none;stroke-width:0.015748;stroke-linecap:round;stroke-linejoin:miter;stroke:rgb(45.882353%,94.901961%,40.392157%);stroke-opacity:1;stroke-miterlimit:10;" d="M 0.835038 0.180711 L 0.851966 0.163777 " transform="matrix(557.757627,0,0,-557.757627,264.215766,559)"/>
<path style="fill:none;stroke-width:0.015748;stroke-linecap:round;stroke-linejoin:miter;stroke:rgb(45.882353%,94.901961%,40.392157%);stroke-opacity:1;stroke-miterlimit:10;" d="M 0.851966 0.163777 L 0.901971 0.163777 " transform="matrix(557.757627,0,0,-557.757627,264.215766,559)"/>
<path style="fill:none;stroke-width:0.015748;stroke-linecap:round;stroke-linejoin:miter;stroke:rgb(45.882353%,94.901961%,40.392157%);stroke-opacity:1;stroke-miterlimit:10;" d="M 0.901971 0.163777 L 0.989367 0.0763801 " transform="matrix(557.757627,0,0,-557.757627,264.215766,559)"/>
<path style="fill:none;stroke-width:0.015748;stroke-linecap:round;stroke-linejoin:miter;stroke:rgb(45.882353%,94.901961%,40.392157%);stroke-opacity:1;stroke-miterlimit:10;" d="M 0.639368 0.226381 L 0.639368 0.188975 " transform="matrix(557.757627,0,0,-557.757627,264.215766,559)"/>
<path style="fill:none;stroke-width:0.015748;stroke-linecap:round;stroke-linejoin:miter;stroke:rgb(45.882353%,94.901961%,40.392157%);stroke-opacity:1;stroke-miterlimit:10;" d="M 0.639368 0.188975 L 0.626769 0.176376 " transform="matrix(557.757627,0,0,-557.757627,264.215766,559)"/>
<path style="fill:none;stroke-width:0.015748;stroke-linecap:round;stroke-linejoin:miter;stroke:rgb(45.882353%,94.901961%,40.392157%);stroke-opacity:1;stroke-miterlimit:10;" d="M 0.626769 0.176376 L 0.577163 0.176376 " transform="matrix(557.757627,0,0,-557.757627,264.215766,559)"/>
<path style="fill:none;stroke-width:0.015748;stroke-linecap:round;stroke-linejoin:miter;stroke:rgb(45.882353%,94.901961%,40.392157%);stroke-opacity:1;stroke-miterlimit:10;" d="M 0.577163 0.176376 L 0.489367 0.0889793 " transform="matrix(557.757627,0,0,-557.757627,264.215766,559)"/>
<path style="fill:none;stroke-width:0.015748;stroke-linecap:round;stroke-linejoin:miter;stroke:rgb(45.882353%,94.901961%,40.392157%);stroke-opacity:1;stroke-miterlimit:10;" d="M 0.489367 0.0889793 L 0.489367 0.0763801 " transform="matrix(557.757627,0,0,-557.757627,264.215766,559)"/>
<path style="fill:none;stroke-width:0.023622;stroke-linecap:round;stroke-linejoin:miter;stroke:rgb(45.882353%,94.901961%,40.392157%);stroke-opacity:1;stroke-miterlimit:10;" d="M 0.431105 0.379134 L 0.337006 0.379134 " transform="matrix(557.757627,0,0,-557.757627,264.215766,559)"/>
<path style="fill:none;stroke-width:0.023622;stroke-linecap:round;stroke-linejoin:miter;stroke:rgb(45.882353%,94.901961%,40.392157%);stroke-opacity:1;stroke-miterlimit:10;" d="M 0.337006 0.379134 L 0.318503 0.392917 " transform="matrix(557.757627,0,0,-557.757627,264.215766,559)"/>
<path style=" stroke:none;fill-rule:evenodd;fill:rgb(45.882353%,94.901961%,40.392157%);fill-opacity:1;" d="M 502.691406 146.832031 C 502.691406 127.800781 474.144531 127.800781 474.144531 146.832031 C 474.144531 165.863281 502.691406 165.863281 502.691406 146.832031 "/>
<path style="fill:none;stroke-width:0.0314961;stroke-linecap:round;stroke-linejoin:miter;stroke:rgb(45.882353%,94.901961%,40.392157%);stroke-opacity:1;stroke-miterlimit:10;" d="M 0.194093 0.783859 L 0.194093 0.853543 " transform="matrix(557.757627,0,0,-557.757627,264.215766,559)"/>
<path style="fill:none;stroke-width:0.0314961;stroke-linecap:round;stroke-linejoin:miter;stroke:rgb(45.882353%,94.901961%,40.392157%);stroke-opacity:1;stroke-miterlimit:10;" d="M 0.194093 0.853543 L 0.289369 0.92638 " transform="matrix(557.757627,0,0,-557.757627,264.215766,559)"/>
<path style=" stroke:none;fill-rule:evenodd;fill:rgb(45.882353%,94.901961%,40.392157%);fill-opacity:1;" d="M 345.902344 42.304688 C 345.902344 23.273438 317.355469 23.273438 317.355469 42.304688 C 317.355469 61.335938 345.902344 61.335938 345.902344 42.304688 "/>
<path style="fill:none;stroke-width:0.023622;stroke-linecap:round;stroke-linejoin:miter;stroke:rgb(45.882353%,94.901961%,40.392157%);stroke-opacity:1;stroke-miterlimit:10;" d="M 0.120865 0.775987 L 0.120865 0.92638 " transform="matrix(557.757627,0,0,-557.757627,264.215766,559)"/>
<path style="fill:none;stroke-width:0.015748;stroke-linecap:round;stroke-linejoin:miter;stroke:rgb(45.882353%,94.901961%,40.392157%);stroke-opacity:1;stroke-miterlimit:10;" d="M 0.953152 0.776771 L 0.953152 0.890158 " transform="matrix(557.757627,0,0,-557.757627,264.215766,559)"/>
<path style="fill:none;stroke-width:0.015748;stroke-linecap:round;stroke-linejoin:miter;stroke:rgb(45.882353%,94.901961%,40.392157%);stroke-opacity:1;stroke-miterlimit:10;" d="M 0.953152 0.890158 L 0.989367 0.92638 " transform="matrix(557.757627,0,0,-557.757627,264.215766,559)"/>
<path style="fill:none;stroke-width:0.015748;stroke-linecap:round;stroke-linejoin:miter;stroke:rgb(45.882353%,94.901961%,40.392157%);stroke-opacity:1;stroke-miterlimit:10;" d="M 0.992519 0.776771 L 0.992519 0.829528 " transform="matrix(557.757627,0,0,-557.757627,264.215766,559)"/>
<path style="fill:none;stroke-width:0.015748;stroke-linecap:round;stroke-linejoin:miter;stroke:rgb(45.882353%,94.901961%,40.392157%);stroke-opacity:1;stroke-miterlimit:10;" d="M 0.992519 0.829528 L 1.026773 0.863782 " transform="matrix(557.757627,0,0,-557.757627,264.215766,559)"/>
<path style="fill:none;stroke-width:0.015748;stroke-linecap:round;stroke-linejoin:miter;stroke:rgb(45.882353%,94.901961%,40.392157%);stroke-opacity:1;stroke-miterlimit:10;" d="M 1.026773 0.863782 L 1.064564 0.863782 " transform="matrix(557.757627,0,0,-557.757627,264.215766,559)"/>
<path style="fill:none;stroke-width:0.015748;stroke-linecap:round;stroke-linejoin:miter;stroke:rgb(45.882353%,94.901961%,40.392157%);stroke-opacity:1;stroke-miterlimit:10;" d="M 1.064564 0.863782 L 1.08937 0.888974 " transform="matrix(557.757627,0,0,-557.757627,264.215766,559)"/>
<path style="fill:none;stroke-width:0.015748;stroke-linecap:round;stroke-linejoin:miter;stroke:rgb(45.882353%,94.901961%,40.392157%);stroke-opacity:1;stroke-miterlimit:10;" d="M 1.08937 0.888974 L 1.08937 0.92638 " transform="matrix(557.757627,0,0,-557.757627,264.215766,559)"/>
<path style=" stroke:none;fill-rule:evenodd;fill:rgb(45.882353%,94.901961%,40.392157%);fill-opacity:1;" d="M 851.179688 474.675781 C 851.179688 455.648438 822.632812 455.648438 822.632812 474.675781 C 822.632812 493.707031 851.179688 493.707031 851.179688 474.675781 "/>
<path style="fill:none;stroke-width:0.015748;stroke-linecap:round;stroke-linejoin:miter;stroke:rgb(45.882353%,94.901961%,40.392157%);stroke-opacity:1;stroke-miterlimit:10;" d="M 1.08937 0.0763801 L 1.08937 0.0889793 " transform="matrix(557.757627,0,0,-557.757627,264.215766,559)"/>
<path style="fill:none;stroke-width:0.015748;stroke-linecap:round;stroke-linejoin:miter;stroke:rgb(45.882353%,94.901961%,40.392157%);stroke-opacity:1;stroke-miterlimit:10;" d="M 1.08937 0.0889793 L 1.026773 0.151577 " transform="matrix(557.757627,0,0,-557.757627,264.215766,559)"/>
<path style="fill:none;stroke-width:0.0314961;stroke-linecap:round;stroke-linejoin:miter;stroke:rgb(45.882353%,94.901961%,40.392157%);stroke-opacity:1;stroke-miterlimit:10;" d="M 0.295672 0.801178 L 0.277168 0.776379 " transform="matrix(557.757627,0,0,-557.757627,264.215766,559)"/>
<path style="fill:none;stroke-width:0.0314961;stroke-linecap:round;stroke-linejoin:miter;stroke:rgb(45.882353%,94.901961%,40.392157%);stroke-opacity:1;stroke-miterlimit:10;" d="M 0.277168 0.776379 L 0.276377 0.460234 " transform="matrix(557.757627,0,0,-557.757627,264.215766,559)"/>
<path style=" stroke:none;fill-rule:evenodd;fill:rgb(45.882353%,94.901961%,40.392157%);fill-opacity:1;" d="M 467.773438 188.773438 C 467.773438 169.742188 439.230469 169.742188 439.230469 188.773438 C 439.230469 207.804688 467.773438 207.804688 467.773438 188.773438 "/>
<path style="fill:none;stroke-width:0.015748;stroke-linecap:round;stroke-linejoin:miter;stroke:rgb(45.882353%,94.901961%,40.392157%);stroke-opacity:1;stroke-miterlimit:10;" d="M 1.071259 0.226773 L 1.071259 0.181888 " transform="matrix(557.757627,0,0,-557.757627,264.215766,559)"/>
<path style="fill:none;stroke-width:0.015748;stroke-linecap:round;stroke-linejoin:miter;stroke:rgb(45.882353%,94.901961%,40.392157%);stroke-opacity:1;stroke-miterlimit:10;" d="M 1.071259 0.181888 L 1.08937 0.163777 " transform="matrix(557.757627,0,0,-557.757627,264.215766,559)"/>
<path style="fill:none;stroke-width:0.015748;stroke-linecap:round;stroke-linejoin:miter;stroke:rgb(45.882353%,94.901961%,40.392157%);stroke-opacity:1;stroke-miterlimit:10;" d="M 1.08937 0.163777 L 1.126769 0.163777 " transform="matrix(557.757627,0,0,-557.757627,264.215766,559)"/>
<path style="fill:none;stroke-width:0.015748;stroke-linecap:round;stroke-linejoin:miter;stroke:rgb(45.882353%,94.901961%,40.392157%);stroke-opacity:1;stroke-miterlimit:10;" d="M 1.126769 0.163777 L 1.189373 0.101179 " transform="matrix(557.757627,0,0,-557.757627,264.215766,559)"/>
<path style="fill:none;stroke-width:0.015748;stroke-linecap:round;stroke-linejoin:miter;stroke:rgb(45.882353%,94.901961%,40.392157%);stroke-opacity:1;stroke-miterlimit:10;" d="M 1.189373 0.101179 L 1.189373 0.0763801 " transform="matrix(557.757627,0,0,-557.757627,264.215766,559)"/>
<path style=" stroke:none;fill-rule:evenodd;fill:rgb(45.882353%,94.901961%,40.392157%);fill-opacity:1;" d="M 467.773438 251.574219 C 467.773438 232.542969 439.230469 232.542969 439.230469 251.574219 C 439.230469 270.605469 467.773438 270.605469 467.773438 251.574219 "/>
<path style="fill:none;stroke-width:0.023622;stroke-linecap:round;stroke-linejoin:miter;stroke:rgb(45.882353%,94.901961%,40.392157%);stroke-opacity:1;stroke-miterlimit:10;" d="M 0.431105 0.457874 L 0.318503 0.459842 " transform="matrix(557.757627,0,0,-557.757627,264.215766,559)"/>
<path style="fill:none;stroke-width:0.015748;stroke-linecap:round;stroke-linejoin:miter;stroke:rgb(45.882353%,94.901961%,40.392157%);stroke-opacity:1;stroke-miterlimit:10;" d="M 0.431105 0.536614 L 0.360237 0.536614 " transform="matrix(557.757627,0,0,-557.757627,264.215766,559)"/>
<path style="fill:none;stroke-width:0.015748;stroke-linecap:round;stroke-linejoin:miter;stroke:rgb(45.882353%,94.901961%,40.392157%);stroke-opacity:1;stroke-miterlimit:10;" d="M 0.360237 0.536614 L 0.339373 0.551574 " transform="matrix(557.757627,0,0,-557.757627,264.215766,559)"/>
<path style="fill:none;stroke-width:0.015748;stroke-linecap:round;stroke-linejoin:miter;stroke:rgb(45.882353%,94.901961%,40.392157%);stroke-opacity:1;stroke-miterlimit:10;" d="M 0.431105 0.575981 L 0.389764 0.575981 " transform="matrix(557.757627,0,0,-557.757627,264.215766,559)"/>
<path style="fill:none;stroke-width:0.015748;stroke-linecap:round;stroke-linejoin:miter;stroke:rgb(45.882353%,94.901961%,40.392157%);stroke-opacity:1;stroke-miterlimit:10;" d="M 0.389764 0.575981 L 0.364565 0.60118 " transform="matrix(557.757627,0,0,-557.757627,264.215766,559)"/>
<path style="fill:none;stroke-width:0.015748;stroke-linecap:round;stroke-linejoin:miter;stroke:rgb(45.882353%,94.901961%,40.392157%);stroke-opacity:1;stroke-miterlimit:10;" d="M 0.364565 0.60118 L 0.339373 0.626378 " transform="matrix(557.757627,0,0,-557.757627,264.215766,559)"/>
<path style="fill:none;stroke-width:0.015748;stroke-linecap:round;stroke-linejoin:miter;stroke:rgb(45.882353%,94.901961%,40.392157%);stroke-opacity:1;stroke-miterlimit:10;" d="M 0.339373 0.626378 L 0.339373 0.663777 " transform="matrix(557.757627,0,0,-557.757627,264.215766,559)"/>
<path style="fill:none;stroke-width:0.015748;stroke-linecap:round;stroke-linejoin:miter;stroke:rgb(45.882353%,94.901961%,40.392157%);stroke-opacity:1;stroke-miterlimit:10;" d="M 0.431105 0.615355 L 0.425194 0.615355 " transform="matrix(557.757627,0,0,-557.757627,264.215766,559)"/>
<path style="fill:none;stroke-width:0.015748;stroke-linecap:round;stroke-linejoin:miter;stroke:rgb(45.882353%,94.901961%,40.392157%);stroke-opacity:1;stroke-miterlimit:10;" d="M 0.425194 0.615355 L 0.401971 0.638977 " transform="matrix(557.757627,0,0,-557.757627,264.215766,559)"/>
<path style="fill:none;stroke-width:0.015748;stroke-linecap:round;stroke-linejoin:miter;stroke:rgb(45.882353%,94.901961%,40.392157%);stroke-opacity:1;stroke-miterlimit:10;" d="M 0.401971 0.638977 L 0.401971 0.738973 " transform="matrix(557.757627,0,0,-557.757627,264.215766,559)"/>
<path style=" stroke:none;fill-rule:evenodd;fill:rgb(45.882353%,94.901961%,40.392157%);fill-opacity:1;" d="M 369.179688 239.9375 L 369.179688 225.445312 L 390.917969 225.445312 L 390.917969 239.9375 L 369.179688 239.9375 Z M 369.179688 239.9375 "/>
<path style=" stroke:none;fill-rule:evenodd;fill:rgb(45.882353%,94.901961%,40.392157%);fill-opacity:1;" d="M 369.179688 219.292969 L 369.179688 204.800781 L 390.917969 204.800781 L 390.917969 219.292969 L 369.179688 219.292969 Z M 369.179688 219.292969 "/>
<path style=" stroke:none;fill-rule:evenodd;fill:rgb(45.882353%,94.901961%,40.392157%);fill-opacity:1;" d="M 369.179688 198.214844 L 369.179688 183.722656 L 390.917969 183.722656 L 390.917969 198.214844 L 369.179688 198.214844 Z M 369.179688 198.214844 "/>
<path style=" stroke:none;fill-rule:evenodd;fill:rgb(45.882353%,94.901961%,40.392157%);fill-opacity:1;" d="M 312.304688 198.214844 L 312.304688 183.722656 L 334.046875 183.722656 L 334.046875 198.214844 L 312.304688 198.214844 Z M 312.304688 198.214844 "/>
<path style=" stroke:none;fill-rule:evenodd;fill:rgb(45.882353%,94.901961%,40.392157%);fill-opacity:1;" d="M 312.304688 239.9375 L 312.304688 225.445312 L 334.046875 225.445312 L 334.046875 239.9375 L 312.304688 239.9375 Z M 312.304688 239.9375 "/>
<path style=" stroke:none;fill-rule:evenodd;fill:rgb(45.882353%,94.901961%,40.392157%);fill-opacity:1;" d="M 316.476562 104.230469 L 345.023438 104.230469 L 345.023438 139.363281 L 316.476562 139.363281 L 316.476562 104.230469 Z M 316.476562 104.230469 "/>
<path style=" stroke:none;fill-rule:evenodd;fill:rgb(45.882353%,94.901961%,40.392157%);fill-opacity:1;" d="M 358.199219 104.230469 L 386.746094 104.230469 L 386.746094 139.363281 L 358.199219 139.363281 L 358.199219 104.230469 Z M 358.199219 104.230469 "/>
<path style=" stroke:none;fill-rule:evenodd;fill:rgb(45.882353%,94.901961%,40.392157%);fill-opacity:1;" d="M 381.914062 306.472656 L 357.761719 306.472656 L 357.761719 280.121094 L 381.914062 280.121094 L 381.914062 306.472656 Z M 381.914062 306.472656 "/>
<path style=" stroke:none;fill-rule:evenodd;fill:rgb(45.882353%,94.901961%,40.392157%);fill-opacity:1;" d="M 344.585938 306.472656 L 320.429688 306.472656 L 320.429688 280.121094 L 344.585938 280.121094 L 344.585938 306.472656 Z M 344.585938 306.472656 "/>
<path style=" stroke:none;fill-rule:evenodd;fill:rgb(45.882353%,94.901961%,40.392157%);fill-opacity:1;" d="M 428.6875 351.925781 L 428.6875 327.773438 L 455.039062 327.773438 L 455.039062 351.925781 L 428.6875 351.925781 Z M 428.6875 351.925781 "/>
<path style=" stroke:none;fill-rule:evenodd;fill:rgb(45.882353%,94.901961%,40.392157%);fill-opacity:1;" d="M 428.6875 314.597656 L 428.6875 290.441406 L 455.039062 290.441406 L 455.039062 314.597656 L 428.6875 314.597656 Z M 428.6875 314.597656 "/>
<path style="fill:none;stroke-width:0.015748;stroke-linecap:round;stroke-linejoin:miter;stroke:rgb(45.882353%,94.901961%,40.392157%);stroke-opacity:1;stroke-miterlimit:10;" d="M 0.207484 0.659841 L 0.164566 0.660233 " transform="matrix(557.757627,0,0,-557.757627,264.215766,559)"/>
<path style="fill:none;stroke-width:0.015748;stroke-linecap:round;stroke-linejoin:miter;stroke:rgb(45.882353%,94.901961%,40.392157%);stroke-opacity:1;stroke-miterlimit:10;" d="M 0.164566 0.660233 L 0.164566 0.585828 " transform="matrix(557.757627,0,0,-557.757627,264.215766,559)"/>
<path style="fill:none;stroke-width:0.015748;stroke-linecap:round;stroke-linejoin:miter;stroke:rgb(45.882353%,94.901961%,40.392157%);stroke-opacity:1;stroke-miterlimit:10;" d="M 0.164566 0.585828 L 0.207484 0.585037 " transform="matrix(557.757627,0,0,-557.757627,264.215766,559)"/>
<path style="fill:none;stroke-width:0.023622;stroke-linecap:round;stroke-linejoin:miter;stroke:rgb(45.882353%,94.901961%,40.392157%);stroke-opacity:1;stroke-miterlimit:10;" d="M 0.0456681 0.646457 L 0.0456681 0.761812 " transform="matrix(557.757627,0,0,-557.757627,264.215766,559)"/>
<path style="fill:none;stroke-width:0.023622;stroke-linecap:round;stroke-linejoin:miter;stroke:rgb(45.882353%,94.901961%,40.392157%);stroke-opacity:1;stroke-miterlimit:10;" d="M 0.0456681 0.761812 L 0.0724424 0.783859 " transform="matrix(557.757627,0,0,-557.757627,264.215766,559)"/>
<path style="fill:none;stroke-width:0.023622;stroke-linecap:round;stroke-linejoin:miter;stroke:rgb(45.882353%,94.901961%,40.392157%);stroke-opacity:1;stroke-miterlimit:10;" d="M 0.0724424 0.783859 L 0.119289 0.783859 " transform="matrix(557.757627,0,0,-557.757627,264.215766,559)"/>
<path style=" stroke:none;fill-rule:evenodd;fill:rgb(45.882353%,94.901961%,40.392157%);fill-opacity:1;" d="M 382.136719 383.109375 L 357.980469 383.109375 L 357.980469 356.757812 L 382.136719 356.757812 L 382.136719 383.109375 Z M 382.136719 383.109375 "/>
<path style=" stroke:none;fill-rule:evenodd;fill:rgb(45.882353%,94.901961%,40.392157%);fill-opacity:1;" d="M 344.804688 383.109375 L 320.648438 383.109375 L 320.648438 356.757812 L 344.804688 356.757812 L 344.804688 383.109375 Z M 344.804688 383.109375 "/>
<path style="fill:none;stroke-width:0.023622;stroke-linecap:round;stroke-linejoin:miter;stroke:rgb(45.882353%,94.901961%,40.392157%);stroke-opacity:1;stroke-miterlimit:10;" d="M 0.105513 0.585037 L 0.105905 0.53071 " transform="matrix(557.757627,0,0,-557.757627,264.215766,559)"/>
<path style="fill:none;stroke-width:0.023622;stroke-linecap:round;stroke-linejoin:miter;stroke:rgb(45.882353%,94.901961%,40.392157%);stroke-opacity:1;stroke-miterlimit:10;" d="M 0.105905 0.53071 L 0.12244 0.513776 " transform="matrix(557.757627,0,0,-557.757627,264.215766,559)"/>
<path style=" stroke:none;fill-rule:evenodd;fill:rgb(45.882353%,94.901961%,40.392157%);fill-opacity:1;" d="M 382.136719 452.9375 L 357.980469 452.9375 L 357.980469 426.585938 L 382.136719 426.585938 L 382.136719 452.9375 Z M 382.136719 452.9375 "/>
<path style=" stroke:none;fill-rule:evenodd;fill:rgb(45.882353%,94.901961%,40.392157%);fill-opacity:1;" d="M 344.804688 452.9375 L 320.648438 452.9375 L 320.648438 426.585938 L 344.804688 426.585938 L 344.804688 452.9375 Z M 344.804688 452.9375 "/>
<path style=" stroke:none;fill-rule:evenodd;fill:rgb(45.882353%,94.901961%,40.392157%);fill-opacity:1;" d="M 428.6875 452.9375 L 428.6875 428.785156 L 455.039062 428.785156 L 455.039062 452.9375 L 428.6875 452.9375 Z M 428.6875 452.9375 "/>
<path style=" stroke:none;fill-rule:evenodd;fill:rgb(45.882353%,94.901961%,40.392157%);fill-opacity:1;" d="M 428.6875 415.609375 L 428.6875 391.453125 L 455.039062 391.453125 L 455.039062 415.609375 L 428.6875 415.609375 Z M 428.6875 415.609375 "/>
<path style="fill:none;stroke-width:0.023622;stroke-linecap:round;stroke-linejoin:miter;stroke:rgb(45.882353%,94.901961%,40.392157%);stroke-opacity:1;stroke-miterlimit:10;" d="M 0.122833 0.213782 L 0.0645635 0.213782 " transform="matrix(557.757627,0,0,-557.757627,264.215766,559)"/>
<path style="fill:none;stroke-width:0.023622;stroke-linecap:round;stroke-linejoin:miter;stroke:rgb(45.882353%,94.901961%,40.392157%);stroke-opacity:1;stroke-miterlimit:10;" d="M 0.0645635 0.213782 L 0.0456681 0.232677 " transform="matrix(557.757627,0,0,-557.757627,264.215766,559)"/>
<path style="fill:none;stroke-width:0.023622;stroke-linecap:round;stroke-linejoin:miter;stroke:rgb(45.882353%,94.901961%,40.392157%);stroke-opacity:1;stroke-miterlimit:10;" d="M 0.0456681 0.232677 L 0.0456681 0.645274 " transform="matrix(557.757627,0,0,-557.757627,264.215766,559)"/>
<path style=" stroke:none;fill-rule:evenodd;fill:rgb(45.882353%,94.901961%,40.392157%);fill-opacity:1;" d="M 352.710938 502.347656 C 352.710938 483.316406 324.164062 483.316406 324.164062 502.347656 C 324.164062 521.378906 352.710938 521.378906 352.710938 502.347656 "/>
<path style="fill:none;stroke-width:0.0314961;stroke-linecap:round;stroke-linejoin:miter;stroke:rgb(45.882353%,94.901961%,40.392157%);stroke-opacity:1;stroke-miterlimit:10;" d="M 0.318503 0.392917 L 0.318503 0.279131 " transform="matrix(557.757627,0,0,-557.757627,264.215766,559)"/>
<path style="fill:none;stroke-width:0.0314961;stroke-linecap:round;stroke-linejoin:miter;stroke:rgb(45.882353%,94.901961%,40.392157%);stroke-opacity:1;stroke-miterlimit:10;" d="M 0.318503 0.279131 L 0.318503 0.278739 " transform="matrix(557.757627,0,0,-557.757627,264.215766,559)"/>
<path style="fill:none;stroke-width:0.023622;stroke-linecap:round;stroke-linejoin:miter;stroke:rgb(45.882353%,94.901961%,40.392157%);stroke-opacity:1;stroke-miterlimit:10;" d="M 0.207484 0.62205 L 0.277168 0.62205 " transform="matrix(557.757627,0,0,-557.757627,264.215766,559)"/>
<path style="fill:none;stroke-width:0.0314961;stroke-linecap:round;stroke-linejoin:miter;stroke:rgb(45.882353%,94.901961%,40.392157%);stroke-opacity:1;stroke-miterlimit:10;" d="M 0.12244 0.513776 L 0.12244 0.414172 " transform="matrix(557.757627,0,0,-557.757627,264.215766,559)"/>
<path style="fill:none;stroke-width:0.0314961;stroke-linecap:round;stroke-linejoin:miter;stroke:rgb(45.882353%,94.901961%,40.392157%);stroke-opacity:1;stroke-miterlimit:10;" d="M 0.12244 0.414172 L 0.122833 0.338976 " transform="matrix(557.757627,0,0,-557.757627,264.215766,559)"/>
<path style="fill:none;stroke-width:0.0314961;stroke-linecap:round;stroke-linejoin:miter;stroke:rgb(45.882353%,94.901961%,40.392157%);stroke-opacity:1;stroke-miterlimit:10;" d="M 0.207484 0.666144 L 0.207484 0.701967 " transform="matrix(557.757627,0,0,-557.757627,264.215766,559)"/>
<path style="fill:none;stroke-width:0.0314961;stroke-linecap:round;stroke-linejoin:miter;stroke:rgb(45.882353%,94.901961%,40.392157%);stroke-opacity:1;stroke-miterlimit:10;" d="M 0.207484 0.701967 L 0.195669 0.713782 " transform="matrix(557.757627,0,0,-557.757627,264.215766,559)"/>
<path style="fill:none;stroke-width:0.0314961;stroke-linecap:round;stroke-linejoin:miter;stroke:rgb(45.882353%,94.901961%,40.392157%);stroke-opacity:1;stroke-miterlimit:10;" d="M 0.195669 0.713782 L 0.195669 0.781891 " transform="matrix(557.757627,0,0,-557.757627,264.215766,559)"/>
<path style="fill:none;stroke-width:0.0314961;stroke-linecap:round;stroke-linejoin:miter;stroke:rgb(45.882353%,94.901961%,40.392157%);stroke-opacity:1;stroke-miterlimit:10;" d="M 0.195669 0.781891 L 0.194093 0.783859 " transform="matrix(557.757627,0,0,-557.757627,264.215766,559)"/>
<path style="fill:none;stroke-width:0.0314961;stroke-linecap:round;stroke-linejoin:miter;stroke:rgb(45.882353%,94.901961%,40.392157%);stroke-opacity:1;stroke-miterlimit:10;" d="M 0.189373 0.476377 L 0.245667 0.476377 " transform="matrix(557.757627,0,0,-557.757627,264.215766,559)"/>
<path style="fill:none;stroke-width:0.0314961;stroke-linecap:round;stroke-linejoin:miter;stroke:rgb(45.882353%,94.901961%,40.392157%);stroke-opacity:1;stroke-miterlimit:10;" d="M 0.245667 0.476377 L 0.264569 0.457482 " transform="matrix(557.757627,0,0,-557.757627,264.215766,559)"/>
<path style="fill:none;stroke-width:0.0314961;stroke-linecap:round;stroke-linejoin:miter;stroke:rgb(45.882353%,94.901961%,40.392157%);stroke-opacity:1;stroke-miterlimit:10;" d="M 0.264569 0.457482 L 0.316535 0.457482 " transform="matrix(557.757627,0,0,-557.757627,264.215766,559)"/>
<path style="fill:none;stroke-width:0.0314961;stroke-linecap:round;stroke-linejoin:miter;stroke:rgb(45.882353%,94.901961%,40.392157%);stroke-opacity:1;stroke-miterlimit:10;" d="M 0.316535 0.457482 L 0.318503 0.459842 " transform="matrix(557.757627,0,0,-557.757627,264.215766,559)"/>
<path style="fill:none;stroke-width:0.0314961;stroke-linecap:round;stroke-linejoin:miter;stroke:rgb(45.882353%,94.901961%,40.392157%);stroke-opacity:1;stroke-miterlimit:10;" d="M 0.189765 0.338976 L 0.314567 0.338976 " transform="matrix(557.757627,0,0,-557.757627,264.215766,559)"/>
<path style="fill:none;stroke-width:0.0314961;stroke-linecap:round;stroke-linejoin:miter;stroke:rgb(45.882353%,94.901961%,40.392157%);stroke-opacity:1;stroke-miterlimit:10;" d="M 0.318503 0.211814 L 0.253938 0.211814 " transform="matrix(557.757627,0,0,-557.757627,264.215766,559)"/>
<path style="fill:none;stroke-width:0.0314961;stroke-linecap:round;stroke-linejoin:miter;stroke:rgb(45.882353%,94.901961%,40.392157%);stroke-opacity:1;stroke-miterlimit:10;" d="M 0.253938 0.211814 L 0.25197 0.213782 " transform="matrix(557.757627,0,0,-557.757627,264.215766,559)"/>
<path style="fill:none;stroke-width:0.0314961;stroke-linecap:round;stroke-linejoin:miter;stroke:rgb(45.882353%,94.901961%,40.392157%);stroke-opacity:1;stroke-miterlimit:10;" d="M 0.25197 0.213782 L 0.189765 0.213782 " transform="matrix(557.757627,0,0,-557.757627,264.215766,559)"/>
<path style="fill:none;stroke-width:0.0314961;stroke-linecap:round;stroke-linejoin:miter;stroke:rgb(45.882353%,94.901961%,40.392157%);stroke-opacity:1;stroke-miterlimit:10;" d="M 0.189765 0.213782 L 0.189765 0.157873 " transform="matrix(557.757627,0,0,-557.757627,264.215766,559)"/>
<path style="fill:none;stroke-width:0.0314961;stroke-linecap:round;stroke-linejoin:miter;stroke:rgb(45.882353%,94.901961%,40.392157%);stroke-opacity:1;stroke-miterlimit:10;" d="M 0.189765 0.157873 L 0.133072 0.101179 " transform="matrix(557.757627,0,0,-557.757627,264.215766,559)"/>
<path style="fill:none;stroke-width:0.0019685;stroke-linecap:round;stroke-linejoin:miter;stroke:rgb(100%,49.803922%,45.098039%);stroke-opacity:1;stroke-miterlimit:10;" d="M 0.000789741 1.001184 L 1.389372 1.001184 " transform="matrix(557.757627,0,0,-557.757627,264.215766,559)"/>
<path style="fill:none;stroke-width:0.0019685;stroke-linecap:round;stroke-linejoin:miter;stroke:rgb(100%,49.803922%,45.098039%);stroke-opacity:1;stroke-miterlimit:10;" d="M 1.389372 1.001184 L 1.389372 0.00118359 " transform="matrix(557.757627,0,0,-557.757627,264.215766,559)"/>
<path style="fill:none;stroke-width:0.0019685;stroke-linecap:round;stroke-linejoin:miter;stroke:rgb(100%,49.803922%,45.098039%);stroke-opacity:1;stroke-miterlimit:10;" d="M 1.389372 0.00118359 L 0.00196633 0.00118359 " transform="matrix(557.757627,0,0,-557.757627,264.215766,559)"/>
<path style="fill:none;stroke-width:0.0019685;stroke-linecap:round;stroke-linejoin:miter;stroke:rgb(100%,49.803922%,45.098039%);stroke-opacity:1;stroke-miterlimit:10;" d="M 0.00196633 0.00118359 L 0.00196633 1.001184 " transform="matrix(557.757627,0,0,-557.757627,264.215766,559)"/>
<path style=" stroke:none;fill-rule:evenodd;fill:rgb(45.098039%,45.098039%,87.058824%);fill-opacity:1;" d="M 345.089844 502.109375 C 345.089844 493.183594 331.703125 493.183594 331.703125 502.109375 C 331.703125 511.03125 345.089844 511.03125 345.089844 502.109375 "/>
<path style=" stroke:none;fill-rule:evenodd;fill:rgb(45.098039%,45.098039%,87.058824%);fill-opacity:1;" d="M 459.988281 251.675781 C 459.988281 242.75 446.601562 242.75 446.601562 251.675781 C 446.601562 260.601562 459.988281 260.601562 459.988281 251.675781 "/>
<path style=" stroke:none;fill-rule:evenodd;fill:rgb(45.098039%,45.098039%,87.058824%);fill-opacity:1;" d="M 459.988281 188.648438 C 459.988281 179.726562 446.601562 179.726562 446.601562 188.648438 C 446.601562 197.574219 459.988281 197.574219 459.988281 188.648438 "/>
<path style=" stroke:none;fill-rule:evenodd;fill:rgb(45.098039%,45.098039%,87.058824%);fill-opacity:1;" d="M 495.128906 146.816406 C 495.128906 137.894531 481.742188 137.894531 481.742188 146.816406 C 481.742188 155.742188 495.128906 155.742188 495.128906 146.816406 "/>
<path style=" stroke:none;fill-rule:evenodd;fill:rgb(45.098039%,45.098039%,87.058824%);fill-opacity:1;" d="M 436.003906 111.679688 C 436.003906 102.753906 422.617188 102.753906 422.617188 111.679688 C 422.617188 120.601562 436.003906 120.601562 436.003906 111.679688 "/>
<path style=" stroke:none;fill-rule:evenodd;fill:rgb(45.098039%,45.098039%,87.058824%);fill-opacity:1;" d="M 338.398438 42.515625 C 338.398438 33.59375 325.011719 33.59375 325.011719 42.515625 C 325.011719 51.441406 338.398438 51.441406 338.398438 42.515625 "/>
<path style=" stroke:none;fill-rule:evenodd;fill:rgb(45.098039%,45.098039%,87.058824%);fill-opacity:1;" d="M 843.726562 474.777344 C 843.726562 465.855469 830.339844 465.855469 830.339844 474.777344 C 830.339844 483.703125 843.726562 483.703125 843.726562 474.777344 "/>
<path style=" stroke:none;fill-rule:evenodd;fill:rgb(45.098039%,45.098039%,87.058824%);fill-opacity:1;" d="M 435.167969 516.609375 C 435.167969 503.597656 415.648438 503.597656 415.648438 516.609375 C 415.648438 529.625 435.167969 529.625 435.167969 516.609375 "/>
<path style=" stroke:none;fill-rule:evenodd;fill:rgb(45.098039%,45.098039%,87.058824%);fill-opacity:1;" d="M 490.945312 516.609375 C 490.945312 503.597656 471.421875 503.597656 471.421875 516.609375 C 471.421875 529.625 490.945312 529.625 490.945312 516.609375 "/>
<path style=" stroke:none;fill-rule:evenodd;fill:rgb(45.098039%,45.098039%,87.058824%);fill-opacity:1;" d="M 546.71875 516.609375 C 546.71875 503.597656 527.199219 503.597656 527.199219 516.609375 C 527.199219 529.625 546.71875 529.625 546.71875 516.609375 "/>
<path style=" stroke:none;fill-rule:evenodd;fill:rgb(45.098039%,45.098039%,87.058824%);fill-opacity:1;" d="M 602.496094 516.609375 C 602.496094 503.597656 582.972656 503.597656 582.972656 516.609375 C 582.972656 529.625 602.496094 529.625 602.496094 516.609375 "/>
<path style=" stroke:none;fill-rule:evenodd;fill:rgb(45.098039%,45.098039%,87.058824%);fill-opacity:1;" d="M 658.273438 516.609375 C 658.273438 503.597656 638.75 503.597656 638.75 516.609375 C 638.75 529.625 658.273438 529.625 658.273438 516.609375 "/>
<path style=" stroke:none;fill-rule:evenodd;fill:rgb(45.098039%,45.098039%,87.058824%);fill-opacity:1;" d="M 714.046875 516.609375 C 714.046875 503.597656 694.527344 503.597656 694.527344 516.609375 C 694.527344 529.625 714.046875 529.625 714.046875 516.609375 "/>
<path style=" stroke:none;fill-rule:evenodd;fill:rgb(45.098039%,45.098039%,87.058824%);fill-opacity:1;" d="M 769.824219 516.609375 C 769.824219 503.597656 750.300781 503.597656 750.300781 516.609375 C 750.300781 529.625 769.824219 529.625 769.824219 516.609375 "/>
<path style=" stroke:none;fill-rule:evenodd;fill:rgb(45.098039%,45.098039%,87.058824%);fill-opacity:1;" d="M 825.597656 516.609375 C 825.597656 503.597656 806.078125 503.597656 806.078125 516.609375 C 806.078125 529.625 825.597656 529.625 825.597656 516.609375 "/>
<path style=" stroke:none;fill-rule:evenodd;fill:rgb(45.098039%,45.098039%,87.058824%);fill-opacity:1;" d="M 881.375 516.609375 C 881.375 503.597656 861.851562 503.597656 861.851562 516.609375 C 861.851562 529.625 881.375 529.625 881.375 516.609375 "/>
<path style=" stroke:none;fill-rule:evenodd;fill:rgb(45.098039%,45.098039%,87.058824%);fill-opacity:1;" d="M 937.148438 516.609375 C 937.148438 503.597656 917.628906 503.597656 917.628906 516.609375 C 917.628906 529.625 937.148438 529.625 937.148438 516.609375 "/>
<path style=" stroke:none;fill-rule:evenodd;fill:rgb(45.098039%,45.098039%,87.058824%);fill-opacity:1;" d="M 937.148438 42.515625 C 937.148438 29.503906 917.628906 29.503906 917.628906 42.515625 C 917.628906 55.53125 937.148438 55.53125 937.148438 42.515625 "/>
<path style=" stroke:none;fill-rule:evenodd;fill:rgb(45.098039%,45.098039%,87.058824%);fill-opacity:1;" d="M 881.375 42.515625 C 881.375 29.503906 861.851562 29.503906 861.851562 42.515625 C 861.851562 55.53125 881.375 55.53125 881.375 42.515625 "/>
<path style=" stroke:none;fill-rule:evenodd;fill:rgb(45.098039%,45.098039%,87.058824%);fill-opacity:1;" d="M 825.597656 42.515625 C 825.597656 29.503906 806.078125 29.503906 806.078125 42.515625 C 806.078125 55.53125 825.597656 55.53125 825.597656 42.515625 "/>
<path style=" stroke:none;fill-rule:evenodd;fill:rgb(45.098039%,45.098039%,87.058824%);fill-opacity:1;" d="M 769.824219 42.515625 C 769.824219 29.503906 750.300781 29.503906 750.300781 42.515625 C 750.300781 55.53125 769.824219 55.53125 769.824219 42.515625 "/>
<path style=" stroke:none;fill-rule:evenodd;fill:rgb(45.098039%,45.098039%,87.058824%);fill-opacity:1;" d="M 714.046875 42.515625 C 714.046875 29.503906 694.527344 29.503906 694.527344 42.515625 C 694.527344 55.53125 714.046875 55.53125 714.046875 42.515625 "/>
<path style=" stroke:none;fill-rule:evenodd;fill:rgb(45.098039%,45.098039%,87.058824%);fill-opacity:1;" d="M 658.273438 42.515625 C 658.273438 29.503906 638.75 29.503906 638.75 42.515625 C 638.75 55.53125 658.273438 55.53125 658.273438 42.515625 "/>
<path style=" stroke:none;fill-rule:evenodd;fill:rgb(45.098039%,45.098039%,87.058824%);fill-opacity:1;" d="M 602.496094 42.515625 C 602.496094 29.503906 582.972656 29.503906 582.972656 42.515625 C 582.972656 55.53125 602.496094 55.53125 602.496094 42.515625 "/>
<path style=" stroke:none;fill-rule:evenodd;fill:rgb(45.098039%,45.098039%,87.058824%);fill-opacity:1;" d="M 546.71875 42.515625 C 546.71875 29.503906 527.199219 29.503906 527.199219 42.515625 C 527.199219 55.53125 546.71875 55.53125 546.71875 42.515625 "/>
<path style=" stroke:none;fill-rule:evenodd;fill:rgb(45.098039%,45.098039%,87.058824%);fill-opacity:1;" d="M 490.945312 42.515625 C 490.945312 29.503906 471.421875 29.503906 471.421875 42.515625 C 471.421875 55.53125 490.945312 55.53125 490.945312 42.515625 "/>
<path style=" stroke:none;fill-rule:evenodd;fill:rgb(45.098039%,45.098039%,87.058824%);fill-opacity:1;" d="M 435.167969 42.515625 C 435.167969 29.503906 415.648438 29.503906 415.648438 42.515625 C 415.648438 55.53125 435.167969 55.53125 435.167969 42.515625 "/>
</g>
</svg>
