; Drill file
; Format: 2.4 (00.0000)
M48
INCH
T01C0.024
T02C0.035
%
G05
G90
T01
X001330Y001020
X003390Y005510
X003390Y006640
X004020Y007390
X002960Y008020
X001210Y009260
X010270Y001510
T02
X002890Y000760
X003890Y000760
X004890Y000760
X005890Y000760
X006890Y000760
X007890Y000760
X008890Y000760
X009890Y000760
X010890Y000760
X011890Y000760
X011890Y009260
X010890Y009260
X009890Y009260
X008890Y009260
X007890Y009260
X006890Y009260
X005890Y009260
X004890Y009260
X003890Y009260
X002890Y009260
M30
